<svg xmlns="http://www.w3.org/2000/svg" xmlns:xlink="http://www.w3.org/1999/xlink" width="961" height="224" viewBox="0 0 961 224">
  <defs>
    <clipPath id="clip-Artboard_2">
      <rect width="961" height="224"/>
    </clipPath>
  </defs>
  <g id="Artboard_2" data-name="Artboard – 2" clip-path="url(#clip-Artboard_2)">
    <g id="Group_422" data-name="Group 422" transform="translate(230.999 513.509)">
      <g id="Group_420" data-name="Group 420">
        <g id="Group_419" data-name="Group 419">
          <path id="Path_2246" data-name="Path 2246" d="M365.373-377.641v-4.944a22.411,22.411,0,0,1-2.182,1.6c-1.745,1.164-8.872,4.071-15.708,4.071a30.813,30.813,0,0,1-22.689-9.163,30.952,30.952,0,0,1-9.163-22.544,30.857,30.857,0,0,1,9.163-22.4,30.835,30.835,0,0,1,22.689-9.31,32.445,32.445,0,0,1,22.4,8.581c6.254,5.673,9.453,13.528,9.453,23.564v30.543ZM347.483-390.3c10.036,0,17.89-7.708,17.89-18.326,0-10.471-7.564-18.326-17.89-18.326-10.035,0-17.889,7.855-17.889,18.326C329.594-398,337.448-390.3,347.483-390.3Z" fill="#fff"/>
          <path id="Path_2247" data-name="Path 2247" d="M545.944-377.641v-4.944a22.406,22.406,0,0,1-2.182,1.6c-1.745,1.164-8.872,4.071-15.708,4.071a30.815,30.815,0,0,1-22.689-9.163,30.952,30.952,0,0,1-9.163-22.544,30.857,30.857,0,0,1,9.163-22.4,30.836,30.836,0,0,1,22.689-9.31,32.442,32.442,0,0,1,22.4,8.581c6.254,5.673,9.454,13.528,9.454,23.564v30.543ZM528.054-390.3c10.036,0,17.89-7.708,17.89-18.326,0-10.471-7.564-18.326-17.89-18.326-10.035,0-17.889,7.855-17.889,18.326C510.165-398,518.019-390.3,528.054-390.3Z" fill="#fff"/>
          <path id="Path_2248" data-name="Path 2248" d="M586.149-376.915H572.186v-33.453c0-9.889,2.618-17.162,7.709-21.962a26.774,26.774,0,0,1,18.617-7.273,26.774,26.774,0,0,1,18.616,7.273c5.237,4.8,7.854,12.217,7.854,21.962v33.453H611.019v-33.453c0-10.327-4.945-15.854-12.507-15.854s-12.363,5.383-12.363,15.854Z" fill="#fff"/>
          <path id="Path_2249" data-name="Path 2249" d="M125.817-376.915H112v-36.942c0-17.891,10.035-25.016,23.562-25.016h3.345v13.381h-2.618c-6.981,0-10.472,3.924-10.472,11.635Z" fill="#fff"/>
          <path id="Path_2250" data-name="Path 2250" d="M476.913-376.915H463.1v-36.942c0-17.891,10.036-25.016,23.562-25.016H490v13.381h-2.618c-6.981,0-10.472,3.924-10.472,11.635Z" fill="#fff"/>
          <path id="Path_2251" data-name="Path 2251" d="M237.017-376.915c-5.818,0-12.217-1.746-15.126-3.345l-2.182-1.164V-394.95a32.78,32.78,0,0,0,17.308,4.654c5.672,0,8.436-1.89,8.436-5.818,0-9.6-26.471-6.108-26.471-26.033,0-11.2,9.163-18.182,21.817-18.182,5.963,0,11.926,1.6,14.253,2.91L256.8-436.4v12.947c-4.217-2.328-9.6-3.493-16-3.493q-7.854,0-7.854,4.8c0,3.054,4.072,5.091,9.308,6.982,7.563,2.181,17.308,6.834,17.163,19.051C259.416-384.332,250.543-376.915,237.017-376.915Z" fill="#fff"/>
          <path id="Path_2252" data-name="Path 2252" d="M435.752-439.6l13.962,11.038v22.411c0,9.745-2.618,17.165-7.854,21.962a26.776,26.776,0,0,1-18.617,7.273,26.646,26.646,0,0,1-18.617-7.125c-5.09-4.8-7.708-12.217-7.708-22.11V-439.6l13.962,11.038v22.411c0,10.475,4.8,15.854,12.363,15.854s12.509-5.526,12.509-15.854Z" fill="#fff"/>
          <path id="Path_2253" data-name="Path 2253" d="M300.163-390.3l9.2,13.381H297.253c-14.107,0-24-6.982-24-24.872v-64.722l13.818,11.038v16.6H299l11.038,13.381H287.073v23.705c0,7.711,3.345,11.491,10.18,11.491Z" fill="#fff"/>
          <path id="Path_2254" data-name="Path 2254" d="M665.01-390.3l9.2,13.381H662.1c-14.107,0-24-6.982-24-24.872v-64.722l13.817,11.038v16.6h11.927l11.038,13.381H651.919v23.705c0,7.711,3.346,11.491,10.181,11.491Z" fill="#fff"/>
          <path id="Path_2255" data-name="Path 2255" d="M194.952-401.867l-.017,0-.779,2.167c-1.192,2.875-5.43,7.311-11.474,8.918a17.888,17.888,0,0,1-19.838-7.818l46.1-12.257c-1.241-5.842-2.537-18.438-16.085-25.974-7.193-4-14.818-4.79-23.111-2.586a30.516,30.516,0,0,0-19.4,14.79,30.423,30.423,0,0,0-3.241,24.038,30.953,30.953,0,0,0,14.648,19.432,30.945,30.945,0,0,0,24.14,3.063,32.976,32.976,0,0,0,17.848-12.118,37.64,37.64,0,0,0,3.733-7.466c.662-1.816,1.068-3.143,1.34-4.193Zm-35.181-8.854c.277-7.451,4.948-13.656,13.382-15.9,8.293-2.205,16.5,1.481,19.228,7.228Z" fill="#fff"/>
        </g>
      </g>
      <g id="Group_421" data-name="Group 421">
        <path id="Path_2256" data-name="Path 2256" d="M-52.857-463.385a8.63,8.63,0,0,1,12.132,0,8.63,8.63,0,0,1,0,12.132,8.63,8.63,0,0,1-12.132,0A8.63,8.63,0,0,1-52.857-463.385Zm-.866,86.516V-438.4l13.865,10.961v50.566Z" fill="#fff"/>
        <path id="Path_2257" data-name="Path 2257" d="M-11.609-377.146H-25.475v-33.22c0-9.82,2.6-17.042,7.655-21.809A26.591,26.591,0,0,1,.667-439.4a26.591,26.591,0,0,1,18.487,7.222c5.2,4.767,7.8,12.131,7.8,21.809v33.22H13.088v-33.22c0-10.255-4.911-15.743-12.421-15.743s-12.276,5.345-12.276,15.743Z" fill="#fff"/>
        <path id="Path_2258" data-name="Path 2258" d="M-115.116-431.163a30.3,30.3,0,0,1,22.386-9.245,30.213,30.213,0,0,1,22.243,9.245,30.213,30.213,0,0,1,9.243,22.241,30.3,30.3,0,0,1-9.243,22.387,30.647,30.647,0,0,1-22.243,9.1,30.736,30.736,0,0,1-22.386-9.1,30.3,30.3,0,0,1-9.243-22.387A30.209,30.209,0,0,1-115.116-431.163Zm4.622,22.241a18.213,18.213,0,0,0,5.054,13.146,17.66,17.66,0,0,0,12.71,5.052,17.091,17.091,0,0,0,12.566-5.052,17.748,17.748,0,0,0,5.2-13.146,17.2,17.2,0,0,0-5.2-13,16.677,16.677,0,0,0-12.566-5.2,17.222,17.222,0,0,0-12.71,5.2A17.636,17.636,0,0,0-110.494-408.922Z" fill="#fff"/>
        <path id="Path_2259" data-name="Path 2259" d="M-180.134-382.628v39.718L-194-352.044v-56c0-9.966,3.178-17.766,9.388-23.4a32.219,32.219,0,0,1,22.242-8.521,30.074,30.074,0,0,1,22.387,9.245,30.211,30.211,0,0,1,9.243,22.241,30.738,30.738,0,0,1-9.1,22.387,30.6,30.6,0,0,1-22.532,9.1c-6.788,0-13.287-2.309-15.742-4.189Zm17.765-44.053c-10.254,0-17.765,7.8-17.765,18.2,0,10.544,7.8,18.2,17.765,18.2s17.765-7.654,17.765-18.2C-144.6-418.881-152.4-426.681-162.369-426.681Z" fill="#fff"/>
        <path id="Path_2260" data-name="Path 2260" d="M71-390.193,80.137-376.9H68.112c-14.008,0-23.83-6.933-23.83-24.7v-64.271L58-454.913v16.481H69.846l10.961,13.288H58v23.54c0,7.657,3.322,11.411,10.109,11.411Z" fill="#fff"/>
      </g>
    </g>
  </g>
</svg>
