<svg xmlns="http://www.w3.org/2000/svg" xmlns:xlink="http://www.w3.org/1999/xlink" width="16" height="16" viewBox="0 0 16 16">
  <defs>
    <clipPath id="clip-facebook">
      <rect width="16" height="16"/>
    </clipPath>
  </defs>
  <g id="facebook" clip-path="url(#clip-facebook)">
    <path id="Path_2708" data-name="Path 2708" d="M29.244,201.412a7.018,7.018,0,1,0,7.017,7.017A7.017,7.017,0,0,0,29.244,201.412Zm1.349,5.4v1.017h-1.1v4.084H28.234v-4.084h-.7v-1.017h.7v-.258a1.738,1.738,0,0,1,1.823-1.823,2.019,2.019,0,0,1,.894.237l-.385.856a.877.877,0,0,0-.4-.093.635.635,0,0,0-.681.714v.367Z" transform="translate(-21.226 -200.412)" fill="#23448e"/>
  </g>
</svg>
