<?xml version="1.0" encoding="utf-8"?>
<!-- Generator: Adobe Illustrator 19.0.0, SVG Export Plug-In . SVG Version: 6.00 Build 0)  -->
<svg version="1.1" id="Layer_1" xmlns="http://www.w3.org/2000/svg" xmlns:xlink="http://www.w3.org/1999/xlink" x="0px" y="0px"
	 viewBox="-187 310.9 220 220" style="enable-background:new -187 310.9 220 220;" xml:space="preserve">
<style type="text/css">
	.st0{clip-path:url(#SVGID_2_);}
	.st1{fill:#5E6353;}
	.st2{fill:#5E3202;}
	.st3{fill:#7A3D06;}
	.st4{fill:#C47D2F;}
	.st5{fill:#A65806;}
	.st6{fill:url(#Path_320_1_);}
	.st7{fill:url(#Path_321_1_);}
	.st8{fill:#C47D2F;stroke:#81460A;}
	.st9{fill:url(#Path_320-2_1_);}
	.st10{fill:url(#Path_321-2_1_);}
	.st11{fill:#CCCCCC;}
	.st12{fill:#472500;}
	.st13{fill:#BA640D;}
	.st14{fill:url(#Path_328_1_);}
	.st15{fill:url(#Path_329_1_);}
	.st16{fill:none;stroke:#7A3D06;}
	.st17{fill:url(#Path_328-2_1_);}
	.st18{fill:url(#Path_329-2_1_);}
	.st19{fill:url(#Path_328-3_1_);}
	.st20{fill:url(#Path_329-3_1_);}
	.st21{fill:url(#Path_436_1_);}
	.st22{fill:url(#Path_821_1_);}
	.st23{fill:url(#Path_816_1_);}
	.st24{fill:url(#Path_448_1_);}
	.st25{fill:url(#Path_822_1_);}
	.st26{fill:url(#Path_817_1_);}
	.st27{fill:url(#Path_449_1_);}
	.st28{fill:url(#Path_823_1_);}
	.st29{fill:url(#Path_818_1_);}
	.st30{fill:url(#Path_454_1_);}
	.st31{fill:url(#Path_824_1_);}
	.st32{fill:url(#Path_819_1_);}
	.st33{fill:url(#Path_441_1_);}
	.st34{fill:url(#Path_825_1_);}
	.st35{fill:url(#Path_820_1_);}
	.st36{fill:url(#Path_435_1_);}
	.st37{fill:url(#Subtraction_74_1_);}
	.st38{fill:url(#Subtraction_79_1_);}
	.st39{fill:#854406;}
	.st40{fill:url(#Subtraction_81_1_);}
	.st41{fill:url(#Subtraction_77_1_);}
	.st42{fill:url(#Subtraction_74-2_1_);}
	.st43{fill:url(#Subtraction_79-2_1_);}
	.st44{fill:url(#Subtraction_81-2_1_);}
	.st45{fill:url(#Subtraction_77-2_1_);}
	.st46{fill:url(#Subtraction_74-3_1_);}
	.st47{fill:url(#Subtraction_79-3_1_);}
	.st48{fill:url(#Subtraction_81-3_1_);}
	.st49{fill:url(#Subtraction_77-3_1_);}
	.st50{fill:url(#Path_436-2_1_);}
	.st51{fill:url(#Path_821-2_1_);}
	.st52{fill:url(#Path_816-2_1_);}
	.st53{fill:url(#Path_448-2_1_);}
	.st54{fill:url(#Path_822-2_1_);}
	.st55{fill:url(#Path_817-2_1_);}
	.st56{fill:url(#Path_449-2_1_);}
	.st57{fill:url(#Path_823-2_1_);}
	.st58{fill:url(#Path_818-2_1_);}
	.st59{fill:url(#Path_454-2_1_);}
	.st60{fill:url(#Path_824-2_1_);}
	.st61{fill:url(#Path_819-2_1_);}
	.st62{fill:url(#Path_441-2_1_);}
	.st63{fill:url(#Path_825-2_1_);}
	.st64{fill:url(#Path_820-2_1_);}
	.st65{fill:url(#Path_435-2_1_);}
	.st66{fill:url(#Subtraction_74-4_1_);}
	.st67{fill:url(#Subtraction_79-4_1_);}
	.st68{fill:url(#Subtraction_81-4_1_);}
	.st69{fill:url(#Subtraction_77-4_1_);}
	.st70{fill:url(#Subtraction_74-5_1_);}
	.st71{fill:url(#Subtraction_79-5_1_);}
	.st72{fill:url(#Subtraction_81-5_1_);}
	.st73{fill:url(#Subtraction_77-5_1_);}
	.st74{fill:url(#Subtraction_74-6_1_);}
	.st75{fill:url(#Subtraction_79-6_1_);}
	.st76{fill:url(#Subtraction_81-6_1_);}
	.st77{fill:url(#Subtraction_77-6_1_);}
	.st78{fill:url(#Path_436-3_1_);}
	.st79{fill:url(#Path_821-3_1_);}
	.st80{fill:url(#Path_816-3_1_);}
	.st81{fill:url(#Path_448-3_1_);}
	.st82{fill:url(#Path_822-3_1_);}
	.st83{fill:url(#Path_817-3_1_);}
	.st84{fill:url(#Path_449-3_1_);}
	.st85{fill:url(#Path_823-3_1_);}
	.st86{fill:url(#Path_818-3_1_);}
	.st87{fill:url(#Path_454-3_1_);}
	.st88{fill:url(#Path_824-3_1_);}
	.st89{fill:url(#Path_819-3_1_);}
	.st90{fill:url(#Path_441-3_1_);}
	.st91{fill:url(#Path_825-3_1_);}
	.st92{fill:url(#Path_820-3_1_);}
	.st93{fill:url(#Path_435-3_1_);}
	.st94{fill:url(#Subtraction_74-7_1_);}
	.st95{fill:url(#Subtraction_79-7_1_);}
	.st96{fill:url(#Subtraction_81-7_1_);}
	.st97{fill:url(#Subtraction_77-7_1_);}
	.st98{fill:url(#Subtraction_74-8_1_);}
	.st99{fill:url(#Subtraction_79-8_1_);}
	.st100{fill:url(#Subtraction_81-8_1_);}
	.st101{fill:url(#Subtraction_77-8_1_);}
	.st102{fill:url(#Subtraction_74-9_1_);}
	.st103{fill:url(#Subtraction_79-9_1_);}
	.st104{fill:url(#Subtraction_81-9_1_);}
	.st105{fill:url(#Subtraction_77-9_1_);}
	.st106{fill:#987A5E;}
	.st107{fill:#1FB271;}
	.st108{fill:#04844C;}
	.st109{fill:#079255;}
	.st110{fill:none;stroke:#FFFFFF;}
	.st111{fill:none;stroke:#81460A;}
	.st112{fill:#81460A;}
	.st113{fill:none;stroke:#707070;}
	.st114{fill:#A55705;}
	.st115{fill:#793C05;}
</style>
<g>
	<defs>
		<rect id="SVGID_1_" x="-187" y="310.9" width="220" height="220"/>
	</defs>
	<clipPath id="SVGID_2_">
		<use xlink:href="#SVGID_1_"  style="overflow:visible;"/>
	</clipPath>
	<g id="_10_Green" class="st0">
		<g id="Group_560" transform="translate(-1486 -516)">
			<g id="Group_305" transform="translate(1488 536)">
				<g id="Group_285" transform="translate(44.021 2.408)">
					<path id="Path_306" class="st1" d="M-161,389.8l-26-14l26-12.6l24.7,12.6L-161,389.8z"/>
					<path id="Path_296" class="st2" d="M-143.6,354.3l0.4,21.2c0,0,1.2,0.7,2.2,1.3c0-0.8,0-23.7,0-23.7L-143.6,354.3z"/>
					<path id="Subtraction_42" class="st3" d="M-181.6,351.1L-181.6,351.1c-1-3.2-1.7-6.5-2.1-9.9c-0.4-2.9-0.5-5.9-0.3-8.9
						c0.2-2.9,1-5.8,2.3-8.4c1.5-4.1,6.7-7.3,9.7-8.8c4.2-2.1,9-3.6,11.6-3.6c0.2,0,0.5,0,0.7,0c0,13,0.4,26.4,0.4,26.5l-15,8.7
						l12.8-7.7v0c-0.1-1.3-0.5-13.1-0.5-21.4c-0.1,0-0.2,0-0.3,0c-1.1,0-3.9,1-7.1,2.5c-3.6,1.7-7.1,3.7-10.4,6.1
						c0,8.6-0.3,22.4-0.3,24L-181.6,351.1L-181.6,351.1z"/>
					<path id="Path_294" class="st4" d="M-159.2,337.8l20.2,11.7l-22.3,13.1l-20.2-11.6L-159.2,337.8z"/>
					<path id="Path_291" class="st3" d="M-179.9,354.3l-0.3,21.5l-1.8,1.4l0.4-23.8L-179.9,354.3z"/>
					<path id="Path_290" class="st5" d="M-184.1,376.1v-53l2.5,0.9l0.1,27.1l20.2,11.6l0.2,25.9l-2.2-1.3l-0.4-22.8l-17.9-10
						l-0.3,22.8L-184.1,376.1z"/>
					<path id="Path_293" class="st4" d="M-162.7,310.9c0.8,0.2,2.4,0.5,3.2,0.6c-3.3,0-19.4,5.5-22.1,12.4c-0.8-0.2-1.6-0.5-2.4-0.9
						C-181.2,318-169.7,310.7-162.7,310.9z"/>
					<path id="Path_295" class="st3" d="M-161.2,388.5c0.9-0.5,2.4-1.2,2.4-1.2l-0.2-23.5l17.7-10.3l0.3,23.4l2.4-1.5l-0.5-25.9
						l-22.4,13.1L-161.2,388.5z"/>
					<path id="Path_319" class="st2" d="M-162.5,317.6c0,5.7,0.4,21.9,0.4,21.9l0.8-0.5l-0.4-21.4
						C-161.6,317.6-161.8,317.4-162.5,317.6z"/>
					
						<linearGradient id="Path_320_1_" gradientUnits="userSpaceOnUse" x1="-408.8139" y1="797.2783" x2="-409.6219" y2="796.7493" gradientTransform="matrix(17.9722 0 0 -14.2412 7181.8687 11690.3535)">
						<stop  offset="0" style="stop-color:#5E3202"/>
						<stop  offset="1" style="stop-color:#7A3D06"/>
					</linearGradient>
					<path id="Path_320" class="st6" d="M-179.8,346.7c0-1.5,0.1-2.4,0.1-5.2c6.3-4.7,10.8-7.1,17.9-9c0,1.2,0.1,2.1,0,3
						C-164.5,335.9-179.7,344.3-179.8,346.7z"/>
					
						<linearGradient id="Path_321_1_" gradientUnits="userSpaceOnUse" x1="-409.2471" y1="797.3131" x2="-410.0551" y2="796.7841" gradientTransform="matrix(18.7485 0 0 -14.2617 7507.1831 11697.8203)">
						<stop  offset="0" style="stop-color:#5E3202"/>
						<stop  offset="1" style="stop-color:#7A3D06"/>
					</linearGradient>
					<path id="Path_321" class="st7" d="M-180.6,337.4c0-1.4,0.1-2.2,0.1-4.9c2.7-2.5,10.9-8.2,18.6-9.4c0,1.2,0.1,2.5,0,3.3
						C-168.2,327.4-178.5,334.3-180.6,337.4z"/>
					<path id="Path_548" class="st8" d="M-159.4,340.5l15.8,9.1l-17.5,10.3l-15.8-9.1L-159.4,340.5z"/>
				</g>
				<g id="Group_286" transform="translate(15.202 17.675)">
					<path id="Path_306-2" class="st1" d="M-161,389.8l-26-14l26-12.6l24.7,12.6L-161,389.8z"/>
					<path id="Path_296-2" class="st2" d="M-143.6,354.3l0.4,21.2c0,0,1.2,0.7,2.2,1.3c0-0.8,0-23.7,0-23.7L-143.6,354.3z"/>
					<path id="Subtraction_42-2" class="st3" d="M-181.6,351.1L-181.6,351.1c-1-3.2-1.7-6.5-2.1-9.9c-0.4-2.9-0.5-5.9-0.3-8.9
						c0.2-2.9,1-5.8,2.3-8.4c1.5-4.1,6.7-7.3,9.7-8.8c4.2-2.1,9-3.6,11.6-3.6c0.2,0,0.5,0,0.7,0c0,13,0.4,26.4,0.4,26.5l-15,8.7
						l12.8-7.7v0c-0.1-1.3-0.5-13.1-0.5-21.4c-0.1,0-0.2,0-0.3,0c-1.1,0-3.9,1-7.1,2.5c-3.6,1.7-7.1,3.7-10.4,6.1
						c0,8.6-0.3,22.4-0.3,24L-181.6,351.1L-181.6,351.1z"/>
					<path id="Path_294-2" class="st4" d="M-159.2,337.8l20.2,11.7l-22.3,13.1l-20.2-11.6L-159.2,337.8z"/>
					<path id="Path_291-2" class="st3" d="M-179.9,354.3l-0.3,21.5l-1.8,1.4l0.4-23.8L-179.9,354.3z"/>
					<path id="Path_290-2" class="st5" d="M-184.1,376.1v-53l2.5,0.9l0.1,27.1l20.2,11.6l0.2,25.9l-2.2-1.3l-0.4-22.8l-17.9-10
						l-0.3,22.8L-184.1,376.1z"/>
					<path id="Path_293-2" class="st4" d="M-162.7,310.9c0.8,0.2,2.4,0.5,3.2,0.6c-3.3,0-19.4,5.5-22.1,12.4
						c-0.8-0.2-1.6-0.5-2.4-0.9C-181.2,318-169.7,310.7-162.7,310.9z"/>
					<path id="Path_295-2" class="st3" d="M-161.2,388.5c0.9-0.5,2.4-1.2,2.4-1.2l-0.2-23.5l17.7-10.3l0.3,23.4l2.4-1.5l-0.5-25.9
						l-22.4,13.1L-161.2,388.5z"/>
					<path id="Path_319-2" class="st2" d="M-162.5,317.6c0,5.7,0.4,21.9,0.4,21.9l0.8-0.5l-0.4-21.4
						C-161.6,317.6-161.8,317.4-162.5,317.6z"/>
					
						<linearGradient id="Path_320-2_1_" gradientUnits="userSpaceOnUse" x1="-379.9949" y1="782.0113" x2="-380.8029" y2="781.4822" gradientTransform="matrix(17.9722 0 0 -14.2412 6663.9287 11472.9326)">
						<stop  offset="0" style="stop-color:#5E3202"/>
						<stop  offset="1" style="stop-color:#7A3D06"/>
					</linearGradient>
					<path id="Path_320-2" class="st9" d="M-179.8,346.7c0-1.5,0.1-2.4,0.1-5.2c6.3-4.7,10.8-7.1,17.9-9c0,1.2,0.1,2.1,0,3
						C-164.5,335.9-179.7,344.3-179.8,346.7z"/>
					
						<linearGradient id="Path_321-2_1_" gradientUnits="userSpaceOnUse" x1="-380.4281" y1="782.0461" x2="-381.2361" y2="781.5172" gradientTransform="matrix(18.7485 0 0 -14.2617 6966.8691 11480.0869)">
						<stop  offset="0" style="stop-color:#5E3202"/>
						<stop  offset="1" style="stop-color:#7A3D06"/>
					</linearGradient>
					<path id="Path_321-2" class="st10" d="M-180.6,337.4c0-1.4,0.1-2.2,0.1-4.9c2.7-2.5,10.9-8.2,18.6-9.4c0,1.2,0.1,2.5,0,3.3
						C-168.2,327.4-178.5,334.3-180.6,337.4z"/>
					<path id="Path_548-2" class="st8" d="M-159.4,340.5l15.8,9.1l-17.5,10.3l-15.8-9.1L-159.4,340.5z"/>
				</g>
				<g id="Group_283" transform="translate(77.062)">
					<path id="Path_307" class="st11" d="M-131.7,381.1l-27.7,15.6l-27.6-16.3l27.6-15.3L-131.7,381.1z"/>
					<path id="Path_280" class="st12" d="M-139.9,357.5l2.9-1.5l0.1,25.7l-3-1.3V357.5z"/>
					<path id="Path_282" class="st3" d="M-178.8,357.7v21.6l-2.1,1.2l-0.3-24L-178.8,357.7z"/>
					<path id="Subtraction_111" class="st13" d="M-136.9,353.7L-136.9,353.7l-19.4-10.6l16.6,9c0-0.1,0.4-12.3,0.4-22.3
						c-0.2-1.5-3.8-4.3-7.3-6.3c-3.4-2-8-4.2-10.8-4.2c-0.4,0-0.8,0-1.1,0.2c0.4,7.7-0.4,22.1-0.4,22.3l-2.7-1.5l0-28.6h0
						c3.4,0.7,6.8,1.7,10,3c2.9,1.1,5.6,2.6,8.2,4.3c2.6,1.7,4.8,4,6.4,6.6C-136.1,336-136.9,353.5-136.9,353.7L-136.9,353.7z"/>
					<path id="Path_271" class="st4" d="M-183.3,352.5l21.7-12.3l24.7,13.4l-22.5,13.2L-183.3,352.5z"/>
					<path id="Path_279" class="st3" d="M-159.5,394.7l0.1-28.1l22.5-12.9v-28.2l2.1-0.9l0.1,56.3l-2.3,0.9l-0.2-25.5l-20,11.7
						l-0.3,25.6L-159.5,394.7z"/>
					<path id="Path_281" class="st13" d="M-179.1,357.9l17.4,10.4v25.3l2.2,1.1l0.1-28.1l-23.8-14l-0.3,27.2c0,0,2.5,0.8,2.6,0.9
						s-0.2-23.9-0.2-23.9L-179.1,357.9z"/>
					<path id="Path_283" class="st4" d="M-159.4,310.9c8.4,0,21.8,8.7,24.7,13.7c-0.7,0.4-1.4,0.7-2.1,1c-6-9-19.8-13-24.6-13.9
						C-160.8,311.4-160.1,311.1-159.4,310.9z"/>
					<path id="Path_326" class="st3" d="M-157.8,342.3l0.5-23.1c-0.4,0-0.8,0.1-1.1,0.2c-0.4,5.6-0.3,22.3-0.3,22.3L-157.8,342.3z"
						/>
					
						<linearGradient id="Path_328_1_" gradientUnits="userSpaceOnUse" x1="-442.3799" y1="798.0765" x2="-442.8129" y2="798.1385" gradientTransform="matrix(18.4658 0 0 -13.4077 8021.4287 11039.1514)">
						<stop  offset="0" style="stop-color:#BA640D"/>
						<stop  offset="1" style="stop-color:#7A3D06"/>
					</linearGradient>
					<path id="Path_328" class="st14" d="M-139.3,341.6c-3.5-3.1-11.8-8.8-18.5-9.7c0.1,1.7,0,2.1,0,3c4.2,1.3,12.4,4.7,18.5,10.4
						V341.6z"/>
					
						<linearGradient id="Path_329_1_" gradientUnits="userSpaceOnUse" x1="-442.3799" y1="798.0765" x2="-442.8129" y2="798.1385" gradientTransform="matrix(18.4658 0 0 -13.4077 8021.4287 11031.6162)">
						<stop  offset="0" style="stop-color:#BA640D"/>
						<stop  offset="1" style="stop-color:#7A3D06"/>
					</linearGradient>
					<path id="Path_329" class="st15" d="M-139.3,334.1c-3.5-3.1-11.8-8.8-18.5-9.7c0.1,1.7,0,2.1,0,3c4.2,1.3,12.4,4.7,18.5,10.4
						V334.1z"/>
					<path id="Path_547" class="st16" d="M-178.8,352.7l17.6-9.9l19.9,10.9l-18.2,10.6L-178.8,352.7z"/>
				</g>
				<g id="Group_284" transform="translate(108.879 17.583)">
					<path id="Path_307-2" class="st11" d="M-131.7,381.1l-27.7,15.6l-27.6-16.3l27.6-15.3L-131.7,381.1z"/>
					<path id="Path_280-2" class="st12" d="M-139.9,357.5l2.9-1.5l0.1,25.7l-3-1.3V357.5z"/>
					<path id="Path_282-2" class="st3" d="M-178.8,357.7v21.6l-2.1,1.2l-0.3-24L-178.8,357.7z"/>
					<path id="Subtraction_112" class="st13" d="M-136.9,353.7L-136.9,353.7l-18.9-10.3l16.1,8.7c0-0.1,0.4-12.3,0.4-22.3
						c-0.2-1.5-3.8-4.3-7.3-6.3c-3.4-2-8-4.2-10.8-4.2c-0.4,0-0.8,0-1.1,0.2c0.4,7.5-0.3,20.8-0.4,22.3l-2.7-1.5l0-28.6h0
						c3.4,0.7,6.8,1.7,10,3c2.9,1.1,5.6,2.6,8.2,4.3c2.6,1.7,4.8,4,6.4,6.6C-136.1,336-136.9,353.5-136.9,353.7L-136.9,353.7z"/>
					<path id="Path_271-2" class="st4" d="M-183.3,352.5l21.7-12.3l24.7,13.4l-22.5,13.2L-183.3,352.5z"/>
					<path id="Path_279-2" class="st3" d="M-159.5,394.7l0.1-28.1l22.5-12.9v-28.2l2.1-0.9l0.1,56.3l-2.3,0.9l-0.2-25.5l-20,11.7
						l-0.3,25.6L-159.5,394.7z"/>
					<path id="Path_281-2" class="st13" d="M-179.1,357.9l17.4,10.4v25.3l2.2,1.1l0.1-28.1l-23.8-14l-0.3,27.2c0,0,2.5,0.8,2.6,0.9
						s-0.2-23.9-0.2-23.9L-179.1,357.9z"/>
					<path id="Path_283-2" class="st4" d="M-159.4,310.9c8.4,0,21.8,8.7,24.7,13.7c-0.7,0.4-1.4,0.7-2.1,1c-6-9-19.8-13-24.6-13.9
						C-160.8,311.4-160.1,311.1-159.4,310.9z"/>
					<path id="Path_326-2" class="st3" d="M-157.8,342.3l0.5-23.1c-0.4,0-0.8,0.1-1.1,0.2c-0.4,5.6-0.3,22.3-0.3,22.3L-157.8,342.3z
						"/>
					
						<linearGradient id="Path_328-2_1_" gradientUnits="userSpaceOnUse" x1="-474.1969" y1="780.4935" x2="-474.6299" y2="780.5555" gradientTransform="matrix(18.4658 0 0 -13.4077 8608.9551 10803.4033)">
						<stop  offset="0" style="stop-color:#BA640D"/>
						<stop  offset="1" style="stop-color:#7A3D06"/>
					</linearGradient>
					<path id="Path_328-2" class="st17" d="M-139.3,341.6c-3.5-3.1-11.8-8.8-18.5-9.7c0.1,1.7,0,2.1,0,3c4.2,1.3,12.4,4.7,18.5,10.4
						V341.6z"/>
					
						<linearGradient id="Path_329-2_1_" gradientUnits="userSpaceOnUse" x1="-474.1969" y1="780.4935" x2="-474.6299" y2="780.5555" gradientTransform="matrix(18.4658 0 0 -13.4077 8608.9551 10795.8682)">
						<stop  offset="0" style="stop-color:#BA640D"/>
						<stop  offset="1" style="stop-color:#7A3D06"/>
					</linearGradient>
					<path id="Path_329-2" class="st18" d="M-139.3,334.1c-3.5-3.1-11.8-8.8-18.5-9.7c0.1,1.7,0,2.1,0,3c4.2,1.3,12.4,4.7,18.5,10.4
						V334.1z"/>
					<path id="Path_547-2" class="st16" d="M-178.8,352.7l17.6-9.9l19.9,10.9l-18.2,10.6L-178.8,352.7z"/>
				</g>
				<g id="Group_307" transform="translate(139.294 32.981)">
					<path id="Path_307-3" class="st1" d="M-129.5,381.1l-27.7,15.6l-29.8-15.6l29.8-15.9L-129.5,381.1z"/>
					<path id="Path_280-3" class="st12" d="M-137.8,357.5l2.9-1.5l0.1,25.7l-3-1.3V357.5z"/>
					<path id="Path_282-3" class="st3" d="M-176.6,357.7v21.6l-2.1,1.2l-0.3-24L-176.6,357.7z"/>
					<path id="Subtraction_113" class="st13" d="M-134.7,353.7L-134.7,353.7l-18.7-10.2l15.9,8.6c0-0.1,0.4-12.3,0.4-22.3
						c-0.2-1.5-3.8-4.3-7.3-6.3c-3.4-2-8-4.2-10.8-4.2c-0.4,0-0.8,0-1.1,0.2c0.4,7.6-0.3,21.7-0.4,22.3l-2.7-1.5l0-28.6h0
						c3.4,0.7,6.8,1.7,10,3c2.9,1.1,5.6,2.6,8.2,4.3c2.6,1.7,4.8,4,6.4,6.6C-133.9,336-134.7,353.5-134.7,353.7L-134.7,353.7z"/>
					<path id="Path_271-3" class="st4" d="M-181.1,352.5l21.7-12.3l24.7,13.4l-22.5,13.2L-181.1,352.5z"/>
					<path id="Path_279-3" class="st3" d="M-157.3,394.7l0.1-28.1l22.5-12.9v-28.2l2.1-0.9l0.1,56.3l-2.3,0.9l-0.2-25.5l-20,11.7
						l-0.3,25.6L-157.3,394.7z"/>
					<path id="Path_281-3" class="st13" d="M-176.9,357.9l17.4,10.4v25.3l2.2,1.1l0.1-28.1l-23.8-14l-0.3,27.2c0,0,2.5,0.8,2.6,0.9
						s-0.2-23.9-0.2-23.9L-176.9,357.9z"/>
					<path id="Path_283-3" class="st4" d="M-157.2,310.9c8.4,0,21.8,8.7,24.7,13.7c-0.7,0.4-1.4,0.7-2.1,1c-6-9-19.8-13-24.6-13.9
						C-158.6,311.4-158,311.1-157.2,310.9z"/>
					<path id="Path_326-3" class="st3" d="M-155.6,342.3l0.5-23.1c-0.4,0-0.8,0.1-1.1,0.2c-0.4,5.6-0.3,22.3-0.3,22.3L-155.6,342.3z
						"/>
					
						<linearGradient id="Path_328-3_1_" gradientUnits="userSpaceOnUse" x1="-504.6119" y1="765.0955" x2="-505.0449" y2="765.1575" gradientTransform="matrix(18.4658 0 0 -13.4077 9172.7861 10596.9512)">
						<stop  offset="0" style="stop-color:#BA640D"/>
						<stop  offset="1" style="stop-color:#7A3D06"/>
					</linearGradient>
					<path id="Path_328-3" class="st19" d="M-137.1,341.6c-3.5-3.1-11.8-8.8-18.5-9.7c0.1,1.7,0,2.1,0,3c4.2,1.3,12.4,4.7,18.5,10.4
						V341.6z"/>
					
						<linearGradient id="Path_329-3_1_" gradientUnits="userSpaceOnUse" x1="-504.6119" y1="765.0955" x2="-505.0449" y2="765.1575" gradientTransform="matrix(18.4658 0 0 -13.4077 9172.7861 10589.416)">
						<stop  offset="0" style="stop-color:#BA640D"/>
						<stop  offset="1" style="stop-color:#7A3D06"/>
					</linearGradient>
					<path id="Path_329-3" class="st20" d="M-137.1,334.1c-3.5-3.1-11.8-8.8-18.5-9.7c0.1,1.7,0,2.1,0,3c4.2,1.3,12.4,4.7,18.5,10.4
						V334.1z"/>
					<path id="Path_547-3" class="st16" d="M-176.6,352.7l17.6-9.9l19.9,10.9l-18.2,10.6L-176.6,352.7z"/>
				</g>
				<path id="Path_555" class="st1" d="M-61.6,464.6l-91.8-53.3l48.5-28.7l95.5,50.4L-61.6,464.6z"/>
				<g id="Group_546" transform="translate(-12 -343)">
					
						<linearGradient id="Path_436_1_" gradientUnits="userSpaceOnUse" x1="-347.2367" y1="1092.266" x2="-347.8057" y2="1092.264" gradientTransform="matrix(11.863 0 0 -4.3185 4076.1418 5493.665)">
						<stop  offset="0" style="stop-color:#7A3D06"/>
						<stop  offset="1" style="stop-color:#A65806"/>
					</linearGradient>
					<path id="Path_436" class="st21" d="M-51,774.6h4c2.2,0,4,1,4,2.2c0,0.8-0.7,1.5-2.4,2c-0.5,0.1-1,0.2-1.5,0.2h-4
						c-2.2,0-4-1-4-2.2S-53.2,774.6-51,774.6z"/>
					
						<linearGradient id="Path_821_1_" gradientUnits="userSpaceOnUse" x1="-347.2367" y1="1092.266" x2="-347.8057" y2="1092.264" gradientTransform="matrix(11.863 0 0 -4.3185 4076.1418 5474.665)">
						<stop  offset="0" style="stop-color:#7A3D06"/>
						<stop  offset="1" style="stop-color:#A65806"/>
					</linearGradient>
					<path id="Path_821" class="st22" d="M-51,755.6h4c2.2,0,4,1,4,2.2c0,0.8-0.7,1.5-2.4,2c-0.5,0.1-1,0.2-1.5,0.2h-4
						c-2.2,0-4-1-4-2.2S-53.2,755.6-51,755.6z"/>
					
						<linearGradient id="Path_816_1_" gradientUnits="userSpaceOnUse" x1="-347.2367" y1="1092.266" x2="-347.8057" y2="1092.264" gradientTransform="matrix(11.863 0 0 -4.3185 4076.1418 5515.665)">
						<stop  offset="0" style="stop-color:#7A3D06"/>
						<stop  offset="1" style="stop-color:#A65806"/>
					</linearGradient>
					<path id="Path_816" class="st23" d="M-51,796.6h4c2.2,0,4,1,4,2.2c0,0.8-0.7,1.5-2.4,2c-0.5,0.1-1,0.2-1.5,0.2h-4
						c-2.2,0-4-1-4-2.2S-53.2,796.6-51,796.6z"/>
					
						<linearGradient id="Path_448_1_" gradientUnits="userSpaceOnUse" x1="-347.2367" y1="1092.266" x2="-347.8057" y2="1092.264" gradientTransform="matrix(11.863 0 0 -4.3185 4076.1418 5495.5742)">
						<stop  offset="0" style="stop-color:#7A3D06"/>
						<stop  offset="1" style="stop-color:#A65806"/>
					</linearGradient>
					<path id="Path_448" class="st24" d="M-51,776.5h4c2.2,0,4,1,4,2.2c0,0.8-0.7,1.5-2.4,2c-0.5,0.1-1,0.2-1.5,0.2h-4
						c-2.2,0-4-1-4-2.2S-53.2,776.5-51,776.5z"/>
					
						<linearGradient id="Path_822_1_" gradientUnits="userSpaceOnUse" x1="-347.2367" y1="1092.266" x2="-347.8057" y2="1092.264" gradientTransform="matrix(11.863 0 0 -4.3185 4076.1418 5476.5742)">
						<stop  offset="0" style="stop-color:#7A3D06"/>
						<stop  offset="1" style="stop-color:#A65806"/>
					</linearGradient>
					<path id="Path_822" class="st25" d="M-51,757.5h4c2.2,0,4,1,4,2.2c0,0.8-0.7,1.5-2.4,2c-0.5,0.1-1,0.2-1.5,0.2h-4
						c-2.2,0-4-1-4-2.2S-53.2,757.5-51,757.5z"/>
					
						<linearGradient id="Path_817_1_" gradientUnits="userSpaceOnUse" x1="-347.2367" y1="1092.266" x2="-347.8057" y2="1092.264" gradientTransform="matrix(11.863 0 0 -4.3185 4076.1418 5517.5742)">
						<stop  offset="0" style="stop-color:#7A3D06"/>
						<stop  offset="1" style="stop-color:#A65806"/>
					</linearGradient>
					<path id="Path_817" class="st26" d="M-51,798.5h4c2.2,0,4,1,4,2.2c0,0.8-0.7,1.5-2.4,2c-0.5,0.1-1,0.2-1.5,0.2h-4
						c-2.2,0-4-1-4-2.2S-53.2,798.5-51,798.5z"/>
					
						<linearGradient id="Path_449_1_" gradientUnits="userSpaceOnUse" x1="-347.2367" y1="1092.266" x2="-347.8057" y2="1092.264" gradientTransform="matrix(11.863 0 0 -4.3185 4076.1418 5495.5742)">
						<stop  offset="0" style="stop-color:#7A3D06"/>
						<stop  offset="1" style="stop-color:#A65806"/>
					</linearGradient>
					<path id="Path_449" class="st27" d="M-51,776.5h4c2.2,0,4,1,4,2.2c0,0.8-0.7,1.5-2.4,2c-0.5,0.1-1,0.2-1.5,0.2h-4
						c-2.2,0-4-1-4-2.2S-53.2,776.5-51,776.5z"/>
					
						<linearGradient id="Path_823_1_" gradientUnits="userSpaceOnUse" x1="-347.2367" y1="1092.266" x2="-347.8057" y2="1092.264" gradientTransform="matrix(11.863 0 0 -4.3185 4076.1418 5476.5742)">
						<stop  offset="0" style="stop-color:#7A3D06"/>
						<stop  offset="1" style="stop-color:#A65806"/>
					</linearGradient>
					<path id="Path_823" class="st28" d="M-51,757.5h4c2.2,0,4,1,4,2.2c0,0.8-0.7,1.5-2.4,2c-0.5,0.1-1,0.2-1.5,0.2h-4
						c-2.2,0-4-1-4-2.2S-53.2,757.5-51,757.5z"/>
					
						<linearGradient id="Path_818_1_" gradientUnits="userSpaceOnUse" x1="-347.2367" y1="1092.266" x2="-347.8057" y2="1092.264" gradientTransform="matrix(11.863 0 0 -4.3185 4076.1418 5517.5742)">
						<stop  offset="0" style="stop-color:#7A3D06"/>
						<stop  offset="1" style="stop-color:#A65806"/>
					</linearGradient>
					<path id="Path_818" class="st29" d="M-51,798.5h4c2.2,0,4,1,4,2.2c0,0.8-0.7,1.5-2.4,2c-0.5,0.1-1,0.2-1.5,0.2h-4
						c-2.2,0-4-1-4-2.2S-53.2,798.5-51,798.5z"/>
					
						<linearGradient id="Path_454_1_" gradientUnits="userSpaceOnUse" x1="-347.2367" y1="1092.266" x2="-347.8057" y2="1092.264" gradientTransform="matrix(11.863 0 0 -4.3185 4076.1418 5496.5283)">
						<stop  offset="0" style="stop-color:#7A3D06"/>
						<stop  offset="1" style="stop-color:#A65806"/>
					</linearGradient>
					<path id="Path_454" class="st30" d="M-51,777.4h4c2.2,0,4,1,4,2.2c0,0.8-0.7,1.5-2.4,2c-0.5,0.1-1,0.2-1.5,0.2h-4
						c-2.2,0-4-1-4-2.2C-55,778.4-53.2,777.4-51,777.4z"/>
					
						<linearGradient id="Path_824_1_" gradientUnits="userSpaceOnUse" x1="-347.2367" y1="1092.266" x2="-347.8057" y2="1092.264" gradientTransform="matrix(11.863 0 0 -4.3185 4076.1418 5477.5283)">
						<stop  offset="0" style="stop-color:#7A3D06"/>
						<stop  offset="1" style="stop-color:#A65806"/>
					</linearGradient>
					<path id="Path_824" class="st31" d="M-51,758.4h4c2.2,0,4,1,4,2.2c0,0.8-0.7,1.5-2.4,2c-0.5,0.1-1,0.2-1.5,0.2h-4
						c-2.2,0-4-1-4-2.2C-55,759.4-53.2,758.4-51,758.4z"/>
					
						<linearGradient id="Path_819_1_" gradientUnits="userSpaceOnUse" x1="-347.2367" y1="1092.266" x2="-347.8057" y2="1092.264" gradientTransform="matrix(11.863 0 0 -4.3185 4076.1418 5518.5283)">
						<stop  offset="0" style="stop-color:#7A3D06"/>
						<stop  offset="1" style="stop-color:#A65806"/>
					</linearGradient>
					<path id="Path_819" class="st32" d="M-51,799.4h4c2.2,0,4,1,4,2.2c0,0.8-0.7,1.5-2.4,2c-0.5,0.1-1,0.2-1.5,0.2h-4
						c-2.2,0-4-1-4-2.2C-55,800.4-53.2,799.4-51,799.4z"/>
					
						<linearGradient id="Path_441_1_" gradientUnits="userSpaceOnUse" x1="-347.2367" y1="1092.266" x2="-347.8057" y2="1092.264" gradientTransform="matrix(11.863 0 0 -4.3185 4076.1418 5494.6191)">
						<stop  offset="0" style="stop-color:#7A3D06"/>
						<stop  offset="1" style="stop-color:#A65806"/>
					</linearGradient>
					<path id="Path_441" class="st33" d="M-51,775.5h4c2.2,0,4,1,4,2.2c0,0.8-0.7,1.5-2.4,2c-0.5,0.1-1,0.2-1.5,0.2h-4
						c-2.2,0-4-1-4-2.2C-55,776.5-53.2,775.5-51,775.5z"/>
					
						<linearGradient id="Path_825_1_" gradientUnits="userSpaceOnUse" x1="-347.2367" y1="1092.266" x2="-347.8057" y2="1092.264" gradientTransform="matrix(11.863 0 0 -4.3185 4076.1418 5475.6191)">
						<stop  offset="0" style="stop-color:#7A3D06"/>
						<stop  offset="1" style="stop-color:#A65806"/>
					</linearGradient>
					<path id="Path_825" class="st34" d="M-51,756.5h4c2.2,0,4,1,4,2.2c0,0.8-0.7,1.5-2.4,2c-0.5,0.1-1,0.2-1.5,0.2h-4
						c-2.2,0-4-1-4-2.2C-55,757.5-53.2,756.5-51,756.5z"/>
					
						<linearGradient id="Path_820_1_" gradientUnits="userSpaceOnUse" x1="-347.2367" y1="1092.266" x2="-347.8057" y2="1092.264" gradientTransform="matrix(11.863 0 0 -4.3185 4076.1418 5516.6191)">
						<stop  offset="0" style="stop-color:#7A3D06"/>
						<stop  offset="1" style="stop-color:#A65806"/>
					</linearGradient>
					<path id="Path_820" class="st35" d="M-51,797.5h4c2.2,0,4,1,4,2.2c0,0.8-0.7,1.5-2.4,2c-0.5,0.1-1,0.2-1.5,0.2h-4
						c-2.2,0-4-1-4-2.2C-55,798.5-53.2,797.5-51,797.5z"/>
					
						<linearGradient id="Path_435_1_" gradientUnits="userSpaceOnUse" x1="-340.4703" y1="1157.2112" x2="-341.0393" y2="1157.2092" gradientTransform="matrix(8.3 0 0 -43.985 2780.916 51679.6836)">
						<stop  offset="0" style="stop-color:#7A3D06"/>
						<stop  offset="1" style="stop-color:#A65806"/>
					</linearGradient>
					<path id="Path_435" class="st36" d="M-53.3,757.8h8.3v44h-8.3V757.8z"/>
					<g id="Group_452" transform="translate(-1 -1)">
						
							<linearGradient id="Subtraction_74_1_" gradientUnits="userSpaceOnUse" x1="-346.239" y1="1032.0911" x2="-346.808" y2="1032.089" gradientTransform="matrix(11.864 0 0 -2.335 4065.6418 3187.0134)">
							<stop  offset="0" style="stop-color:#7A3D06"/>
							<stop  offset="1" style="stop-color:#A65806"/>
						</linearGradient>
						<path id="Subtraction_74" class="st37" d="M-53.9,778.3L-53.9,778.3c-0.1-0.2-0.1-0.3-0.1-0.5c0-0.7,0.6-1.4,1.7-1.8v0.9h0.2
							C-52.8,777.1-53.5,777.6-53.9,778.3L-53.9,778.3z M-42.2,778.2L-42.2,778.2c-0.4-0.7-1.1-1.2-1.8-1.4h0.1v-1
							c1.2,0.4,1.9,1.1,1.9,1.8C-42.1,777.9-42.2,778.1-42.2,778.2L-42.2,778.2z"/>
						
							<linearGradient id="Subtraction_79_1_" gradientUnits="userSpaceOnUse" x1="-346.2371" y1="1048.6484" x2="-346.8061" y2="1048.6465" gradientTransform="matrix(11.863 0 0 -2.6665 4065.2791 3575.6694)">
							<stop  offset="0" style="stop-color:#7A3D06"/>
							<stop  offset="1" style="stop-color:#A65806"/>
						</linearGradient>
						<path id="Subtraction_79" class="st38" d="M-46.1,780.8h-4c-2.2,0-4-1-4-2.2c0-0.2,0-0.3,0.1-0.5c0.4,1,2,1.7,3.8,1.7h4
							c0.5,0,1,0,1.5-0.2c0.9-0.2,1.8-0.7,2.3-1.5c0.1,0.2,0.1,0.3,0.1,0.5c0,0.8-0.8,1.5-2.4,2C-45,780.8-45.6,780.8-46.1,780.8z"
							/>
						<path id="Subtraction_83" class="st39" d="M-46.1,782.7h-4c-2.2,0-4-1-4-2.2c0-0.2,0-0.3,0.1-0.5c0.4,1,2,1.7,3.8,1.7h4
							c0.5,0,1,0,1.5-0.2c0.9-0.2,1.8-0.7,2.3-1.5c0.1,0.2,0.1,0.3,0.1,0.5c0,0.8-0.8,1.5-2.4,2C-45,782.7-45.6,782.7-46.1,782.7z"
							/>
						
							<linearGradient id="Subtraction_81_1_" gradientUnits="userSpaceOnUse" x1="-346.2371" y1="1048.6484" x2="-346.8061" y2="1048.6465" gradientTransform="matrix(11.863 0 0 -2.6665 4065.2791 3576.6255)">
							<stop  offset="0" style="stop-color:#7A3D06"/>
							<stop  offset="1" style="stop-color:#A65806"/>
						</linearGradient>
						<path id="Subtraction_81" class="st40" d="M-46.1,781.7h-4c-2.2,0-4-1-4-2.2c0-0.2,0-0.3,0.1-0.5c0.4,1,2,1.7,3.8,1.7h4
							c0.5,0,1,0,1.5-0.2c0.9-0.2,1.8-0.7,2.3-1.5c0.1,0.2,0.1,0.3,0.1,0.5c0,0.8-0.8,1.5-2.4,2C-45,781.7-45.6,781.8-46.1,781.7z"
							/>
						
							<linearGradient id="Subtraction_77_1_" gradientUnits="userSpaceOnUse" x1="-346.2371" y1="1048.6484" x2="-346.8061" y2="1048.6465" gradientTransform="matrix(11.863 0 0 -2.6665 4065.2791 3574.7144)">
							<stop  offset="0" style="stop-color:#7A3D06"/>
							<stop  offset="1" style="stop-color:#A65806"/>
						</linearGradient>
						<path id="Subtraction_77" class="st41" d="M-46.1,779.8h-4c-2.2,0-4-1-4-2.2c0-0.2,0-0.3,0.1-0.5c0.4,1,2,1.7,3.8,1.7h4
							c0.5,0,1,0,1.5-0.2c0.9-0.2,1.8-0.7,2.3-1.5c0.1,0.2,0.1,0.3,0.1,0.5c0,0.8-0.8,1.5-2.4,2C-45,779.8-45.6,779.9-46.1,779.8z"
							/>
						<path id="Subtraction_78" class="st39" d="M-46.1,779.8h-4c-2.2,0-4-1-4-2.2c0-0.2,0-0.3,0.1-0.5c0.4,1,2,1.7,3.8,1.7h4
							c0.5,0,1,0,1.5-0.2c0.9-0.2,1.8-0.7,2.3-1.5c0.1,0.2,0.1,0.3,0.1,0.5c0,0.8-0.8,1.5-2.4,2C-45,779.8-45.6,779.9-46.1,779.8z"
							/>
						<path id="Subtraction_82" class="st39" d="M-46.1,781.7h-4c-2.2,0-4-1-4-2.2c0-0.2,0-0.3,0.1-0.5c0.4,1,2,1.7,3.8,1.7h4
							c0.5,0,1,0,1.5-0.2c0.9-0.2,1.8-0.7,2.3-1.5c0.1,0.2,0.1,0.3,0.1,0.5c0,0.8-0.8,1.5-2.4,2C-45,781.7-45.6,781.8-46.1,781.7z"
							/>
						<path id="Subtraction_80" class="st39" d="M-46.1,780.8h-4c-2.2,0-4-1-4-2.2c0-0.2,0-0.3,0.1-0.5c0.4,1,2,1.7,3.8,1.7h4
							c0.5,0,1,0,1.5-0.2c0.9-0.2,1.8-0.7,2.3-1.5c0.1,0.2,0.1,0.3,0.1,0.5c0,0.8-0.8,1.5-2.4,2C-45,780.8-45.6,780.8-46.1,780.8z"
							/>
						<path id="Subtraction_75" class="st39" d="M-46.1,778.9h-4c-2.1,0-4-0.1-4-1.3c0-0.3,0.2-0.7,0.5-0.9c1,0.8,2.2,1.2,3.5,1.2h4
							c0.5,0,1,0,1.5-0.2c0.7-0.2,1.4-0.5,2-1c0.1,0.1,0.2,0.3,0.3,0.4c0,0.8-0.5,1.1-2.2,1.6C-45,778.8-45.6,778.9-46.1,778.9z"/>
					</g>
					<g id="Group_454" transform="translate(-1 -20)">
						
							<linearGradient id="Subtraction_74-2_1_" gradientUnits="userSpaceOnUse" x1="-346.239" y1="1051.0911" x2="-346.808" y2="1051.089" gradientTransform="matrix(11.864 0 0 -2.335 4065.6418 3231.3784)">
							<stop  offset="0" style="stop-color:#7A3D06"/>
							<stop  offset="1" style="stop-color:#A65806"/>
						</linearGradient>
						<path id="Subtraction_74-2" class="st42" d="M-53.9,778.3L-53.9,778.3c-0.1-0.2-0.1-0.3-0.1-0.5c0-0.7,0.6-1.4,1.7-1.8v0.9
							h0.2C-52.8,777.1-53.5,777.6-53.9,778.3L-53.9,778.3z M-42.2,778.2L-42.2,778.2c-0.4-0.7-1.1-1.2-1.8-1.4h0.1v-1
							c1.2,0.4,1.9,1.1,1.9,1.8C-42.1,777.9-42.2,778.1-42.2,778.2L-42.2,778.2z"/>
						
							<linearGradient id="Subtraction_79-2_1_" gradientUnits="userSpaceOnUse" x1="-346.2371" y1="1067.6484" x2="-346.8061" y2="1067.6465" gradientTransform="matrix(11.863 0 0 -2.6665 4065.2791 3626.3328)">
							<stop  offset="0" style="stop-color:#7A3D06"/>
							<stop  offset="1" style="stop-color:#A65806"/>
						</linearGradient>
						<path id="Subtraction_79-2" class="st43" d="M-46.1,780.8h-4c-2.2,0-4-1-4-2.2c0-0.2,0-0.3,0.1-0.5c0.4,1,2,1.7,3.8,1.7h4
							c0.5,0,1,0,1.5-0.2c0.9-0.2,1.8-0.7,2.3-1.5c0.1,0.2,0.1,0.3,0.1,0.5c0,0.8-0.8,1.5-2.4,2C-45,780.8-45.6,780.8-46.1,780.8z"
							/>
						<path id="Subtraction_83-2" class="st39" d="M-46.1,782.7h-4c-2.2,0-4-1-4-2.2c0-0.2,0-0.3,0.1-0.5c0.4,1,2,1.7,3.8,1.7h4
							c0.5,0,1,0,1.5-0.2c0.9-0.2,1.8-0.7,2.3-1.5c0.1,0.2,0.1,0.3,0.1,0.5c0,0.8-0.8,1.5-2.4,2C-45,782.7-45.6,782.7-46.1,782.7z"
							/>
						
							<linearGradient id="Subtraction_81-2_1_" gradientUnits="userSpaceOnUse" x1="-346.2371" y1="1067.6484" x2="-346.8061" y2="1067.6465" gradientTransform="matrix(11.863 0 0 -2.6665 4065.2791 3627.2888)">
							<stop  offset="0" style="stop-color:#7A3D06"/>
							<stop  offset="1" style="stop-color:#A65806"/>
						</linearGradient>
						<path id="Subtraction_81-2" class="st44" d="M-46.1,781.7h-4c-2.2,0-4-1-4-2.2c0-0.2,0-0.3,0.1-0.5c0.4,1,2,1.7,3.8,1.7h4
							c0.5,0,1,0,1.5-0.2c0.9-0.2,1.8-0.7,2.3-1.5c0.1,0.2,0.1,0.3,0.1,0.5c0,0.8-0.8,1.5-2.4,2C-45,781.7-45.6,781.8-46.1,781.7z"
							/>
						
							<linearGradient id="Subtraction_77-2_1_" gradientUnits="userSpaceOnUse" x1="-346.2371" y1="1067.6484" x2="-346.8061" y2="1067.6465" gradientTransform="matrix(11.863 0 0 -2.6665 4065.2791 3625.3777)">
							<stop  offset="0" style="stop-color:#7A3D06"/>
							<stop  offset="1" style="stop-color:#A65806"/>
						</linearGradient>
						<path id="Subtraction_77-2" class="st45" d="M-46.1,779.8h-4c-2.2,0-4-1-4-2.2c0-0.2,0-0.3,0.1-0.5c0.4,1,2,1.7,3.8,1.7h4
							c0.5,0,1,0,1.5-0.2c0.9-0.2,1.8-0.7,2.3-1.5c0.1,0.2,0.1,0.3,0.1,0.5c0,0.8-0.8,1.5-2.4,2C-45,779.8-45.6,779.9-46.1,779.8z"
							/>
						<path id="Subtraction_78-2" class="st39" d="M-46.1,779.8h-4c-2.2,0-4-1-4-2.2c0-0.2,0-0.3,0.1-0.5c0.4,1,2,1.7,3.8,1.7h4
							c0.5,0,1,0,1.5-0.2c0.9-0.2,1.8-0.7,2.3-1.5c0.1,0.2,0.1,0.3,0.1,0.5c0,0.8-0.8,1.5-2.4,2C-45,779.8-45.6,779.9-46.1,779.8z"
							/>
						<path id="Subtraction_82-2" class="st39" d="M-46.1,781.7h-4c-2.2,0-4-1-4-2.2c0-0.2,0-0.3,0.1-0.5c0.4,1,2,1.7,3.8,1.7h4
							c0.5,0,1,0,1.5-0.2c0.9-0.2,1.8-0.7,2.3-1.5c0.1,0.2,0.1,0.3,0.1,0.5c0,0.8-0.8,1.5-2.4,2C-45,781.7-45.6,781.8-46.1,781.7z"
							/>
						<path id="Subtraction_80-2" class="st39" d="M-46.1,780.8h-4c-2.2,0-4-1-4-2.2c0-0.2,0-0.3,0.1-0.5c0.4,1,2,1.7,3.8,1.7h4
							c0.5,0,1,0,1.5-0.2c0.9-0.2,1.8-0.7,2.3-1.5c0.1,0.2,0.1,0.3,0.1,0.5c0,0.8-0.8,1.5-2.4,2C-45,780.8-45.6,780.8-46.1,780.8z"
							/>
						<path id="Subtraction_75-2" class="st39" d="M-46.1,778.9h-4c-2.1,0-4-0.1-4-1.3c0-0.3,0.2-0.7,0.5-0.9c1,0.8,2.2,1.2,3.5,1.2
							h4c0.5,0,1,0,1.5-0.2c0.7-0.2,1.4-0.5,2-1c0.1,0.1,0.2,0.3,0.3,0.4c0,0.8-0.5,1.1-2.2,1.6C-45,778.8-45.6,778.9-46.1,778.9z"
							/>
					</g>
					<g id="Group_453" transform="translate(-1 21)">
						
							<linearGradient id="Subtraction_74-3_1_" gradientUnits="userSpaceOnUse" x1="-346.239" y1="1010.091" x2="-346.808" y2="1010.089" gradientTransform="matrix(11.864 0 0 -2.335 4065.6418 3135.6433)">
							<stop  offset="0" style="stop-color:#7A3D06"/>
							<stop  offset="1" style="stop-color:#A65806"/>
						</linearGradient>
						<path id="Subtraction_74-3" class="st46" d="M-53.9,778.3L-53.9,778.3c-0.1-0.2-0.1-0.3-0.1-0.5c0-0.7,0.6-1.4,1.7-1.8v0.9
							h0.2C-52.8,777.1-53.5,777.6-53.9,778.3L-53.9,778.3z M-42.2,778.2L-42.2,778.2c-0.4-0.7-1.1-1.2-1.8-1.4h0.1v-1
							c1.2,0.4,1.9,1.1,1.9,1.8C-42.1,777.9-42.2,778.1-42.2,778.2L-42.2,778.2z"/>
						
							<linearGradient id="Subtraction_79-3_1_" gradientUnits="userSpaceOnUse" x1="-346.2371" y1="1026.6484" x2="-346.8061" y2="1026.6465" gradientTransform="matrix(11.863 0 0 -2.6665 4065.2791 3517.0066)">
							<stop  offset="0" style="stop-color:#7A3D06"/>
							<stop  offset="1" style="stop-color:#A65806"/>
						</linearGradient>
						<path id="Subtraction_79-3" class="st47" d="M-46.1,780.8h-4c-2.2,0-4-1-4-2.2c0-0.2,0-0.3,0.1-0.5c0.4,1,2,1.7,3.8,1.7h4
							c0.5,0,1,0,1.5-0.2c0.9-0.2,1.8-0.7,2.3-1.5c0.1,0.2,0.1,0.3,0.1,0.5c0,0.8-0.8,1.5-2.4,2C-45,780.8-45.6,780.8-46.1,780.8z"
							/>
						<path id="Subtraction_83-3" class="st39" d="M-46.1,782.7h-4c-2.2,0-4-1-4-2.2c0-0.2,0-0.3,0.1-0.5c0.4,1,2,1.7,3.8,1.7h4
							c0.5,0,1,0,1.5-0.2c0.9-0.2,1.8-0.7,2.3-1.5c0.1,0.2,0.1,0.3,0.1,0.5c0,0.8-0.8,1.5-2.4,2C-45,782.7-45.6,782.7-46.1,782.7z"
							/>
						
							<linearGradient id="Subtraction_81-3_1_" gradientUnits="userSpaceOnUse" x1="-346.2371" y1="1026.6484" x2="-346.8061" y2="1026.6465" gradientTransform="matrix(11.863 0 0 -2.6665 4065.2791 3517.9626)">
							<stop  offset="0" style="stop-color:#7A3D06"/>
							<stop  offset="1" style="stop-color:#A65806"/>
						</linearGradient>
						<path id="Subtraction_81-3" class="st48" d="M-46.1,781.7h-4c-2.2,0-4-1-4-2.2c0-0.2,0-0.3,0.1-0.5c0.4,1,2,1.7,3.8,1.7h4
							c0.5,0,1,0,1.5-0.2c0.9-0.2,1.8-0.7,2.3-1.5c0.1,0.2,0.1,0.3,0.1,0.5c0,0.8-0.8,1.5-2.4,2C-45,781.7-45.6,781.8-46.1,781.7z"
							/>
						
							<linearGradient id="Subtraction_77-3_1_" gradientUnits="userSpaceOnUse" x1="-346.2371" y1="1026.6484" x2="-346.8061" y2="1026.6465" gradientTransform="matrix(11.863 0 0 -2.6665 4065.2791 3516.0515)">
							<stop  offset="0" style="stop-color:#7A3D06"/>
							<stop  offset="1" style="stop-color:#A65806"/>
						</linearGradient>
						<path id="Subtraction_77-3" class="st49" d="M-46.1,779.8h-4c-2.2,0-4-1-4-2.2c0-0.2,0-0.3,0.1-0.5c0.4,1,2,1.7,3.8,1.7h4
							c0.5,0,1,0,1.5-0.2c0.9-0.2,1.8-0.7,2.3-1.5c0.1,0.2,0.1,0.3,0.1,0.5c0,0.8-0.8,1.5-2.4,2C-45,779.8-45.6,779.9-46.1,779.8z"
							/>
						<path id="Subtraction_78-3" class="st39" d="M-46.1,779.8h-4c-2.2,0-4-1-4-2.2c0-0.2,0-0.3,0.1-0.5c0.4,1,2,1.7,3.8,1.7h4
							c0.5,0,1,0,1.5-0.2c0.9-0.2,1.8-0.7,2.3-1.5c0.1,0.2,0.1,0.3,0.1,0.5c0,0.8-0.8,1.5-2.4,2C-45,779.8-45.6,779.9-46.1,779.8z"
							/>
						<path id="Subtraction_82-3" class="st39" d="M-46.1,781.7h-4c-2.2,0-4-1-4-2.2c0-0.2,0-0.3,0.1-0.5c0.4,1,2,1.7,3.8,1.7h4
							c0.5,0,1,0,1.5-0.2c0.9-0.2,1.8-0.7,2.3-1.5c0.1,0.2,0.1,0.3,0.1,0.5c0,0.8-0.8,1.5-2.4,2C-45,781.7-45.6,781.8-46.1,781.7z"
							/>
						<path id="Subtraction_80-3" class="st39" d="M-46.1,780.8h-4c-2.2,0-4-1-4-2.2c0-0.2,0-0.3,0.1-0.5c0.4,1,2,1.7,3.8,1.7h4
							c0.5,0,1,0,1.5-0.2c0.9-0.2,1.8-0.7,2.3-1.5c0.1,0.2,0.1,0.3,0.1,0.5c0,0.8-0.8,1.5-2.4,2C-45,780.8-45.6,780.8-46.1,780.8z"
							/>
						<path id="Subtraction_75-3" class="st39" d="M-46.1,778.9h-4c-2.1,0-4-0.1-4-1.3c0-0.3,0.2-0.7,0.5-0.9c1,0.8,2.2,1.2,3.5,1.2
							h4c0.5,0,1,0,1.5-0.2c0.7-0.2,1.4-0.5,2-1c0.1,0.1,0.2,0.3,0.3,0.4c0,0.8-0.5,1.1-2.2,1.6C-45,778.8-45.6,778.9-46.1,778.9z"
							/>
					</g>
				</g>
				<g id="Group_557" transform="translate(-90 -387)">
					
						<linearGradient id="Path_436-2_1_" gradientUnits="userSpaceOnUse" x1="-269.2367" y1="1136.266" x2="-269.8057" y2="1136.264" gradientTransform="matrix(11.863 0 0 -4.3185 3150.8279 5683.6792)">
						<stop  offset="0" style="stop-color:#7A3D06"/>
						<stop  offset="1" style="stop-color:#A65806"/>
					</linearGradient>
					<path id="Path_436-2" class="st50" d="M-51,774.6h4c2.2,0,4,1,4,2.2c0,0.8-0.7,1.5-2.4,2c-0.5,0.1-1,0.2-1.5,0.2h-4
						c-2.2,0-4-1-4-2.2S-53.2,774.6-51,774.6z"/>
					
						<linearGradient id="Path_821-2_1_" gradientUnits="userSpaceOnUse" x1="-269.2367" y1="1136.266" x2="-269.8057" y2="1136.264" gradientTransform="matrix(11.863 0 0 -4.3185 3150.8279 5664.6792)">
						<stop  offset="0" style="stop-color:#7A3D06"/>
						<stop  offset="1" style="stop-color:#A65806"/>
					</linearGradient>
					<path id="Path_821-2" class="st51" d="M-51,755.6h4c2.2,0,4,1,4,2.2c0,0.8-0.7,1.5-2.4,2c-0.5,0.1-1,0.2-1.5,0.2h-4
						c-2.2,0-4-1-4-2.2S-53.2,755.6-51,755.6z"/>
					
						<linearGradient id="Path_816-2_1_" gradientUnits="userSpaceOnUse" x1="-269.2367" y1="1136.266" x2="-269.8057" y2="1136.264" gradientTransform="matrix(11.863 0 0 -4.3185 3150.8279 5705.6792)">
						<stop  offset="0" style="stop-color:#7A3D06"/>
						<stop  offset="1" style="stop-color:#A65806"/>
					</linearGradient>
					<path id="Path_816-2" class="st52" d="M-51,796.6h4c2.2,0,4,1,4,2.2c0,0.8-0.7,1.5-2.4,2c-0.5,0.1-1,0.2-1.5,0.2h-4
						c-2.2,0-4-1-4-2.2S-53.2,796.6-51,796.6z"/>
					
						<linearGradient id="Path_448-2_1_" gradientUnits="userSpaceOnUse" x1="-269.2367" y1="1136.266" x2="-269.8057" y2="1136.264" gradientTransform="matrix(11.863 0 0 -4.3185 3150.8279 5685.5884)">
						<stop  offset="0" style="stop-color:#7A3D06"/>
						<stop  offset="1" style="stop-color:#A65806"/>
					</linearGradient>
					<path id="Path_448-2" class="st53" d="M-51,776.5h4c2.2,0,4,1,4,2.2c0,0.8-0.7,1.5-2.4,2c-0.5,0.1-1,0.2-1.5,0.2h-4
						c-2.2,0-4-1-4-2.2S-53.2,776.5-51,776.5z"/>
					
						<linearGradient id="Path_822-2_1_" gradientUnits="userSpaceOnUse" x1="-269.2367" y1="1136.266" x2="-269.8057" y2="1136.264" gradientTransform="matrix(11.863 0 0 -4.3185 3150.8279 5666.5884)">
						<stop  offset="0" style="stop-color:#7A3D06"/>
						<stop  offset="1" style="stop-color:#A65806"/>
					</linearGradient>
					<path id="Path_822-2" class="st54" d="M-51,757.5h4c2.2,0,4,1,4,2.2c0,0.8-0.7,1.5-2.4,2c-0.5,0.1-1,0.2-1.5,0.2h-4
						c-2.2,0-4-1-4-2.2S-53.2,757.5-51,757.5z"/>
					
						<linearGradient id="Path_817-2_1_" gradientUnits="userSpaceOnUse" x1="-269.2367" y1="1136.266" x2="-269.8057" y2="1136.264" gradientTransform="matrix(11.863 0 0 -4.3185 3150.8279 5707.5884)">
						<stop  offset="0" style="stop-color:#7A3D06"/>
						<stop  offset="1" style="stop-color:#A65806"/>
					</linearGradient>
					<path id="Path_817-2" class="st55" d="M-51,798.5h4c2.2,0,4,1,4,2.2c0,0.8-0.7,1.5-2.4,2c-0.5,0.1-1,0.2-1.5,0.2h-4
						c-2.2,0-4-1-4-2.2S-53.2,798.5-51,798.5z"/>
					
						<linearGradient id="Path_449-2_1_" gradientUnits="userSpaceOnUse" x1="-269.2367" y1="1136.266" x2="-269.8057" y2="1136.264" gradientTransform="matrix(11.863 0 0 -4.3185 3150.8279 5685.5884)">
						<stop  offset="0" style="stop-color:#7A3D06"/>
						<stop  offset="1" style="stop-color:#A65806"/>
					</linearGradient>
					<path id="Path_449-2" class="st56" d="M-51,776.5h4c2.2,0,4,1,4,2.2c0,0.8-0.7,1.5-2.4,2c-0.5,0.1-1,0.2-1.5,0.2h-4
						c-2.2,0-4-1-4-2.2S-53.2,776.5-51,776.5z"/>
					
						<linearGradient id="Path_823-2_1_" gradientUnits="userSpaceOnUse" x1="-269.2367" y1="1136.266" x2="-269.8057" y2="1136.264" gradientTransform="matrix(11.863 0 0 -4.3185 3150.8279 5666.5884)">
						<stop  offset="0" style="stop-color:#7A3D06"/>
						<stop  offset="1" style="stop-color:#A65806"/>
					</linearGradient>
					<path id="Path_823-2" class="st57" d="M-51,757.5h4c2.2,0,4,1,4,2.2c0,0.8-0.7,1.5-2.4,2c-0.5,0.1-1,0.2-1.5,0.2h-4
						c-2.2,0-4-1-4-2.2S-53.2,757.5-51,757.5z"/>
					
						<linearGradient id="Path_818-2_1_" gradientUnits="userSpaceOnUse" x1="-269.2367" y1="1136.266" x2="-269.8057" y2="1136.264" gradientTransform="matrix(11.863 0 0 -4.3185 3150.8279 5707.5884)">
						<stop  offset="0" style="stop-color:#7A3D06"/>
						<stop  offset="1" style="stop-color:#A65806"/>
					</linearGradient>
					<path id="Path_818-2" class="st58" d="M-51,798.5h4c2.2,0,4,1,4,2.2c0,0.8-0.7,1.5-2.4,2c-0.5,0.1-1,0.2-1.5,0.2h-4
						c-2.2,0-4-1-4-2.2S-53.2,798.5-51,798.5z"/>
					
						<linearGradient id="Path_454-2_1_" gradientUnits="userSpaceOnUse" x1="-269.2367" y1="1136.266" x2="-269.8057" y2="1136.264" gradientTransform="matrix(11.863 0 0 -4.3185 3150.8279 5686.5425)">
						<stop  offset="0" style="stop-color:#7A3D06"/>
						<stop  offset="1" style="stop-color:#A65806"/>
					</linearGradient>
					<path id="Path_454-2" class="st59" d="M-51,777.4h4c2.2,0,4,1,4,2.2c0,0.8-0.7,1.5-2.4,2c-0.5,0.1-1,0.2-1.5,0.2h-4
						c-2.2,0-4-1-4-2.2C-55,778.4-53.2,777.4-51,777.4z"/>
					
						<linearGradient id="Path_824-2_1_" gradientUnits="userSpaceOnUse" x1="-269.2367" y1="1136.266" x2="-269.8057" y2="1136.264" gradientTransform="matrix(11.863 0 0 -4.3185 3150.8279 5667.5425)">
						<stop  offset="0" style="stop-color:#7A3D06"/>
						<stop  offset="1" style="stop-color:#A65806"/>
					</linearGradient>
					<path id="Path_824-2" class="st60" d="M-51,758.4h4c2.2,0,4,1,4,2.2c0,0.8-0.7,1.5-2.4,2c-0.5,0.1-1,0.2-1.5,0.2h-4
						c-2.2,0-4-1-4-2.2C-55,759.4-53.2,758.4-51,758.4z"/>
					
						<linearGradient id="Path_819-2_1_" gradientUnits="userSpaceOnUse" x1="-269.2367" y1="1136.266" x2="-269.8057" y2="1136.264" gradientTransform="matrix(11.863 0 0 -4.3185 3150.8279 5708.5425)">
						<stop  offset="0" style="stop-color:#7A3D06"/>
						<stop  offset="1" style="stop-color:#A65806"/>
					</linearGradient>
					<path id="Path_819-2" class="st61" d="M-51,799.4h4c2.2,0,4,1,4,2.2c0,0.8-0.7,1.5-2.4,2c-0.5,0.1-1,0.2-1.5,0.2h-4
						c-2.2,0-4-1-4-2.2C-55,800.4-53.2,799.4-51,799.4z"/>
					
						<linearGradient id="Path_441-2_1_" gradientUnits="userSpaceOnUse" x1="-269.2367" y1="1136.266" x2="-269.8057" y2="1136.264" gradientTransform="matrix(11.863 0 0 -4.3185 3150.8279 5684.6333)">
						<stop  offset="0" style="stop-color:#7A3D06"/>
						<stop  offset="1" style="stop-color:#A65806"/>
					</linearGradient>
					<path id="Path_441-2" class="st62" d="M-51,775.5h4c2.2,0,4,1,4,2.2c0,0.8-0.7,1.5-2.4,2c-0.5,0.1-1,0.2-1.5,0.2h-4
						c-2.2,0-4-1-4-2.2C-55,776.5-53.2,775.5-51,775.5z"/>
					
						<linearGradient id="Path_825-2_1_" gradientUnits="userSpaceOnUse" x1="-269.2367" y1="1136.266" x2="-269.8057" y2="1136.264" gradientTransform="matrix(11.863 0 0 -4.3185 3150.8279 5665.6333)">
						<stop  offset="0" style="stop-color:#7A3D06"/>
						<stop  offset="1" style="stop-color:#A65806"/>
					</linearGradient>
					<path id="Path_825-2" class="st63" d="M-51,756.5h4c2.2,0,4,1,4,2.2c0,0.8-0.7,1.5-2.4,2c-0.5,0.1-1,0.2-1.5,0.2h-4
						c-2.2,0-4-1-4-2.2C-55,757.5-53.2,756.5-51,756.5z"/>
					
						<linearGradient id="Path_820-2_1_" gradientUnits="userSpaceOnUse" x1="-269.2367" y1="1136.266" x2="-269.8057" y2="1136.264" gradientTransform="matrix(11.863 0 0 -4.3185 3150.8279 5706.6333)">
						<stop  offset="0" style="stop-color:#7A3D06"/>
						<stop  offset="1" style="stop-color:#A65806"/>
					</linearGradient>
					<path id="Path_820-2" class="st64" d="M-51,797.5h4c2.2,0,4,1,4,2.2c0,0.8-0.7,1.5-2.4,2c-0.5,0.1-1,0.2-1.5,0.2h-4
						c-2.2,0-4-1-4-2.2C-55,798.5-53.2,797.5-51,797.5z"/>
					
						<linearGradient id="Path_435-2_1_" gradientUnits="userSpaceOnUse" x1="-262.4703" y1="1201.2112" x2="-263.0393" y2="1201.2092" gradientTransform="matrix(8.3 0 0 -43.985 2133.5161 53615.0234)">
						<stop  offset="0" style="stop-color:#7A3D06"/>
						<stop  offset="1" style="stop-color:#A65806"/>
					</linearGradient>
					<path id="Path_435-2" class="st65" d="M-53.3,757.8h8.3v44h-8.3V757.8z"/>
					<g id="Group_452-2" transform="translate(-1 -1)">
						
							<linearGradient id="Subtraction_74-4_1_" gradientUnits="userSpaceOnUse" x1="-268.239" y1="1076.0911" x2="-268.808" y2="1076.089" gradientTransform="matrix(11.864 0 0 -2.335 3140.2498 3289.7534)">
							<stop  offset="0" style="stop-color:#7A3D06"/>
							<stop  offset="1" style="stop-color:#A65806"/>
						</linearGradient>
						<path id="Subtraction_74-4" class="st66" d="M-53.9,778.3L-53.9,778.3c-0.1-0.2-0.1-0.3-0.1-0.5c0-0.7,0.6-1.4,1.7-1.8v0.9
							h0.2C-52.8,777.1-53.5,777.6-53.9,778.3L-53.9,778.3z M-42.2,778.2L-42.2,778.2c-0.4-0.7-1.1-1.2-1.8-1.4h0.1v-1
							c1.2,0.4,1.9,1.1,1.9,1.8C-42.1,777.9-42.2,778.1-42.2,778.2L-42.2,778.2z"/>
						
							<linearGradient id="Subtraction_79-4_1_" gradientUnits="userSpaceOnUse" x1="-268.2371" y1="1092.6484" x2="-268.8061" y2="1092.6465" gradientTransform="matrix(11.863 0 0 -2.6665 3139.9651 3692.9949)">
							<stop  offset="0" style="stop-color:#7A3D06"/>
							<stop  offset="1" style="stop-color:#A65806"/>
						</linearGradient>
						<path id="Subtraction_79-4" class="st67" d="M-46.1,780.8h-4c-2.2,0-4-1-4-2.2c0-0.2,0-0.3,0.1-0.5c0.4,1,2,1.7,3.8,1.7h4
							c0.5,0,1,0,1.5-0.2c0.9-0.2,1.8-0.7,2.3-1.5c0.1,0.2,0.1,0.3,0.1,0.5c0,0.8-0.8,1.5-2.4,2C-45,780.8-45.6,780.8-46.1,780.8z"
							/>
						<path id="Subtraction_83-4" class="st39" d="M-46.1,782.7h-4c-2.2,0-4-1-4-2.2c0-0.2,0-0.3,0.1-0.5c0.4,1,2,1.7,3.8,1.7h4
							c0.5,0,1,0,1.5-0.2c0.9-0.2,1.8-0.7,2.3-1.5c0.1,0.2,0.1,0.3,0.1,0.5c0,0.8-0.8,1.5-2.4,2C-45,782.7-45.6,782.7-46.1,782.7z"
							/>
						
							<linearGradient id="Subtraction_81-4_1_" gradientUnits="userSpaceOnUse" x1="-268.2371" y1="1092.6484" x2="-268.8061" y2="1092.6465" gradientTransform="matrix(11.863 0 0 -2.6665 3139.9651 3693.9509)">
							<stop  offset="0" style="stop-color:#7A3D06"/>
							<stop  offset="1" style="stop-color:#A65806"/>
						</linearGradient>
						<path id="Subtraction_81-4" class="st68" d="M-46.1,781.7h-4c-2.2,0-4-1-4-2.2c0-0.2,0-0.3,0.1-0.5c0.4,1,2,1.7,3.8,1.7h4
							c0.5,0,1,0,1.5-0.2c0.9-0.2,1.8-0.7,2.3-1.5c0.1,0.2,0.1,0.3,0.1,0.5c0,0.8-0.8,1.5-2.4,2C-45,781.7-45.6,781.8-46.1,781.7z"
							/>
						
							<linearGradient id="Subtraction_77-4_1_" gradientUnits="userSpaceOnUse" x1="-268.2371" y1="1092.6484" x2="-268.8061" y2="1092.6465" gradientTransform="matrix(11.863 0 0 -2.6665 3139.9651 3692.04)">
							<stop  offset="0" style="stop-color:#7A3D06"/>
							<stop  offset="1" style="stop-color:#A65806"/>
						</linearGradient>
						<path id="Subtraction_77-4" class="st69" d="M-46.1,779.8h-4c-2.2,0-4-1-4-2.2c0-0.2,0-0.3,0.1-0.5c0.4,1,2,1.7,3.8,1.7h4
							c0.5,0,1,0,1.5-0.2c0.9-0.2,1.8-0.7,2.3-1.5c0.1,0.2,0.1,0.3,0.1,0.5c0,0.8-0.8,1.5-2.4,2C-45,779.8-45.6,779.9-46.1,779.8z"
							/>
						<path id="Subtraction_78-4" class="st39" d="M-46.1,779.8h-4c-2.2,0-4-1-4-2.2c0-0.2,0-0.3,0.1-0.5c0.4,1,2,1.7,3.8,1.7h4
							c0.5,0,1,0,1.5-0.2c0.9-0.2,1.8-0.7,2.3-1.5c0.1,0.2,0.1,0.3,0.1,0.5c0,0.8-0.8,1.5-2.4,2C-45,779.8-45.6,779.9-46.1,779.8z"
							/>
						<path id="Subtraction_82-4" class="st39" d="M-46.1,781.7h-4c-2.2,0-4-1-4-2.2c0-0.2,0-0.3,0.1-0.5c0.4,1,2,1.7,3.8,1.7h4
							c0.5,0,1,0,1.5-0.2c0.9-0.2,1.8-0.7,2.3-1.5c0.1,0.2,0.1,0.3,0.1,0.5c0,0.8-0.8,1.5-2.4,2C-45,781.7-45.6,781.8-46.1,781.7z"
							/>
						<path id="Subtraction_80-4" class="st39" d="M-46.1,780.8h-4c-2.2,0-4-1-4-2.2c0-0.2,0-0.3,0.1-0.5c0.4,1,2,1.7,3.8,1.7h4
							c0.5,0,1,0,1.5-0.2c0.9-0.2,1.8-0.7,2.3-1.5c0.1,0.2,0.1,0.3,0.1,0.5c0,0.8-0.8,1.5-2.4,2C-45,780.8-45.6,780.8-46.1,780.8z"
							/>
						<path id="Subtraction_75-4" class="st39" d="M-46.1,778.9h-4c-2.1,0-4-0.1-4-1.3c0-0.3,0.2-0.7,0.5-0.9c1,0.8,2.2,1.2,3.5,1.2
							h4c0.5,0,1,0,1.5-0.2c0.7-0.2,1.4-0.5,2-1c0.1,0.1,0.2,0.3,0.3,0.4c0,0.8-0.5,1.1-2.2,1.6C-45,778.8-45.6,778.9-46.1,778.9z"
							/>
					</g>
					<g id="Group_454-2" transform="translate(-1 -20)">
						
							<linearGradient id="Subtraction_74-5_1_" gradientUnits="userSpaceOnUse" x1="-268.239" y1="1095.0911" x2="-268.808" y2="1095.089" gradientTransform="matrix(11.864 0 0 -2.335 3140.2498 3334.1184)">
							<stop  offset="0" style="stop-color:#7A3D06"/>
							<stop  offset="1" style="stop-color:#A65806"/>
						</linearGradient>
						<path id="Subtraction_74-5" class="st70" d="M-53.9,778.3L-53.9,778.3c-0.1-0.2-0.1-0.3-0.1-0.5c0-0.7,0.6-1.4,1.7-1.8v0.9
							h0.2C-52.8,777.1-53.5,777.6-53.9,778.3L-53.9,778.3z M-42.2,778.2L-42.2,778.2c-0.4-0.7-1.1-1.2-1.8-1.4h0.1v-1
							c1.2,0.4,1.9,1.1,1.9,1.8C-42.1,777.9-42.2,778.1-42.2,778.2L-42.2,778.2z"/>
						
							<linearGradient id="Subtraction_79-5_1_" gradientUnits="userSpaceOnUse" x1="-268.2371" y1="1111.6484" x2="-268.8061" y2="1111.6465" gradientTransform="matrix(11.863 0 0 -2.6665 3139.9651 3743.6582)">
							<stop  offset="0" style="stop-color:#7A3D06"/>
							<stop  offset="1" style="stop-color:#A65806"/>
						</linearGradient>
						<path id="Subtraction_79-5" class="st71" d="M-46.1,780.8h-4c-2.2,0-4-1-4-2.2c0-0.2,0-0.3,0.1-0.5c0.4,1,2,1.7,3.8,1.7h4
							c0.5,0,1,0,1.5-0.2c0.9-0.2,1.8-0.7,2.3-1.5c0.1,0.2,0.1,0.3,0.1,0.5c0,0.8-0.8,1.5-2.4,2C-45,780.8-45.6,780.8-46.1,780.8z"
							/>
						<path id="Subtraction_83-5" class="st39" d="M-46.1,782.7h-4c-2.2,0-4-1-4-2.2c0-0.2,0-0.3,0.1-0.5c0.4,1,2,1.7,3.8,1.7h4
							c0.5,0,1,0,1.5-0.2c0.9-0.2,1.8-0.7,2.3-1.5c0.1,0.2,0.1,0.3,0.1,0.5c0,0.8-0.8,1.5-2.4,2C-45,782.7-45.6,782.7-46.1,782.7z"
							/>
						
							<linearGradient id="Subtraction_81-5_1_" gradientUnits="userSpaceOnUse" x1="-268.2371" y1="1111.6484" x2="-268.8061" y2="1111.6465" gradientTransform="matrix(11.863 0 0 -2.6665 3139.9651 3744.6143)">
							<stop  offset="0" style="stop-color:#7A3D06"/>
							<stop  offset="1" style="stop-color:#A65806"/>
						</linearGradient>
						<path id="Subtraction_81-5" class="st72" d="M-46.1,781.7h-4c-2.2,0-4-1-4-2.2c0-0.2,0-0.3,0.1-0.5c0.4,1,2,1.7,3.8,1.7h4
							c0.5,0,1,0,1.5-0.2c0.9-0.2,1.8-0.7,2.3-1.5c0.1,0.2,0.1,0.3,0.1,0.5c0,0.8-0.8,1.5-2.4,2C-45,781.7-45.6,781.8-46.1,781.7z"
							/>
						
							<linearGradient id="Subtraction_77-5_1_" gradientUnits="userSpaceOnUse" x1="-268.2371" y1="1111.6484" x2="-268.8061" y2="1111.6465" gradientTransform="matrix(11.863 0 0 -2.6665 3139.9651 3742.7034)">
							<stop  offset="0" style="stop-color:#7A3D06"/>
							<stop  offset="1" style="stop-color:#A65806"/>
						</linearGradient>
						<path id="Subtraction_77-5" class="st73" d="M-46.1,779.8h-4c-2.2,0-4-1-4-2.2c0-0.2,0-0.3,0.1-0.5c0.4,1,2,1.7,3.8,1.7h4
							c0.5,0,1,0,1.5-0.2c0.9-0.2,1.8-0.7,2.3-1.5c0.1,0.2,0.1,0.3,0.1,0.5c0,0.8-0.8,1.5-2.4,2C-45,779.8-45.6,779.9-46.1,779.8z"
							/>
						<path id="Subtraction_78-5" class="st39" d="M-46.1,779.8h-4c-2.2,0-4-1-4-2.2c0-0.2,0-0.3,0.1-0.5c0.4,1,2,1.7,3.8,1.7h4
							c0.5,0,1,0,1.5-0.2c0.9-0.2,1.8-0.7,2.3-1.5c0.1,0.2,0.1,0.3,0.1,0.5c0,0.8-0.8,1.5-2.4,2C-45,779.8-45.6,779.9-46.1,779.8z"
							/>
						<path id="Subtraction_82-5" class="st39" d="M-46.1,781.7h-4c-2.2,0-4-1-4-2.2c0-0.2,0-0.3,0.1-0.5c0.4,1,2,1.7,3.8,1.7h4
							c0.5,0,1,0,1.5-0.2c0.9-0.2,1.8-0.7,2.3-1.5c0.1,0.2,0.1,0.3,0.1,0.5c0,0.8-0.8,1.5-2.4,2C-45,781.7-45.6,781.8-46.1,781.7z"
							/>
						<path id="Subtraction_80-5" class="st39" d="M-46.1,780.8h-4c-2.2,0-4-1-4-2.2c0-0.2,0-0.3,0.1-0.5c0.4,1,2,1.7,3.8,1.7h4
							c0.5,0,1,0,1.5-0.2c0.9-0.2,1.8-0.7,2.3-1.5c0.1,0.2,0.1,0.3,0.1,0.5c0,0.8-0.8,1.5-2.4,2C-45,780.8-45.6,780.8-46.1,780.8z"
							/>
						<path id="Subtraction_75-5" class="st39" d="M-46.1,778.9h-4c-2.1,0-4-0.1-4-1.3c0-0.3,0.2-0.7,0.5-0.9c1,0.8,2.2,1.2,3.5,1.2
							h4c0.5,0,1,0,1.5-0.2c0.7-0.2,1.4-0.5,2-1c0.1,0.1,0.2,0.3,0.3,0.4c0,0.8-0.5,1.1-2.2,1.6C-45,778.8-45.6,778.9-46.1,778.9z"
							/>
					</g>
					<g id="Group_453-2" transform="translate(-1 21)">
						
							<linearGradient id="Subtraction_74-6_1_" gradientUnits="userSpaceOnUse" x1="-268.239" y1="1054.0911" x2="-268.808" y2="1054.089" gradientTransform="matrix(11.864 0 0 -2.335 3140.2498 3238.3833)">
							<stop  offset="0" style="stop-color:#7A3D06"/>
							<stop  offset="1" style="stop-color:#A65806"/>
						</linearGradient>
						<path id="Subtraction_74-6" class="st74" d="M-53.9,778.3L-53.9,778.3c-0.1-0.2-0.1-0.3-0.1-0.5c0-0.7,0.6-1.4,1.7-1.8v0.9
							h0.2C-52.8,777.1-53.5,777.6-53.9,778.3L-53.9,778.3z M-42.2,778.2L-42.2,778.2c-0.4-0.7-1.1-1.2-1.8-1.4h0.1v-1
							c1.2,0.4,1.9,1.1,1.9,1.8C-42.1,777.9-42.2,778.1-42.2,778.2L-42.2,778.2z"/>
						
							<linearGradient id="Subtraction_79-6_1_" gradientUnits="userSpaceOnUse" x1="-268.2371" y1="1070.6484" x2="-268.8061" y2="1070.6465" gradientTransform="matrix(11.863 0 0 -2.6665 3139.9651 3634.3323)">
							<stop  offset="0" style="stop-color:#7A3D06"/>
							<stop  offset="1" style="stop-color:#A65806"/>
						</linearGradient>
						<path id="Subtraction_79-6" class="st75" d="M-46.1,780.8h-4c-2.2,0-4-1-4-2.2c0-0.2,0-0.3,0.1-0.5c0.4,1,2,1.7,3.8,1.7h4
							c0.5,0,1,0,1.5-0.2c0.9-0.2,1.8-0.7,2.3-1.5c0.1,0.2,0.1,0.3,0.1,0.5c0,0.8-0.8,1.5-2.4,2C-45,780.8-45.6,780.8-46.1,780.8z"
							/>
						<path id="Subtraction_83-6" class="st39" d="M-46.1,782.7h-4c-2.2,0-4-1-4-2.2c0-0.2,0-0.3,0.1-0.5c0.4,1,2,1.7,3.8,1.7h4
							c0.5,0,1,0,1.5-0.2c0.9-0.2,1.8-0.7,2.3-1.5c0.1,0.2,0.1,0.3,0.1,0.5c0,0.8-0.8,1.5-2.4,2C-45,782.7-45.6,782.7-46.1,782.7z"
							/>
						
							<linearGradient id="Subtraction_81-6_1_" gradientUnits="userSpaceOnUse" x1="-268.2371" y1="1070.6484" x2="-268.8061" y2="1070.6465" gradientTransform="matrix(11.863 0 0 -2.6665 3139.9651 3635.2881)">
							<stop  offset="0" style="stop-color:#7A3D06"/>
							<stop  offset="1" style="stop-color:#A65806"/>
						</linearGradient>
						<path id="Subtraction_81-6" class="st76" d="M-46.1,781.7h-4c-2.2,0-4-1-4-2.2c0-0.2,0-0.3,0.1-0.5c0.4,1,2,1.7,3.8,1.7h4
							c0.5,0,1,0,1.5-0.2c0.9-0.2,1.8-0.7,2.3-1.5c0.1,0.2,0.1,0.3,0.1,0.5c0,0.8-0.8,1.5-2.4,2C-45,781.7-45.6,781.8-46.1,781.7z"
							/>
						
							<linearGradient id="Subtraction_77-6_1_" gradientUnits="userSpaceOnUse" x1="-268.2371" y1="1070.6484" x2="-268.8061" y2="1070.6465" gradientTransform="matrix(11.863 0 0 -2.6665 3139.9651 3633.3772)">
							<stop  offset="0" style="stop-color:#7A3D06"/>
							<stop  offset="1" style="stop-color:#A65806"/>
						</linearGradient>
						<path id="Subtraction_77-6" class="st77" d="M-46.1,779.8h-4c-2.2,0-4-1-4-2.2c0-0.2,0-0.3,0.1-0.5c0.4,1,2,1.7,3.8,1.7h4
							c0.5,0,1,0,1.5-0.2c0.9-0.2,1.8-0.7,2.3-1.5c0.1,0.2,0.1,0.3,0.1,0.5c0,0.8-0.8,1.5-2.4,2C-45,779.8-45.6,779.9-46.1,779.8z"
							/>
						<path id="Subtraction_78-6" class="st39" d="M-46.1,779.8h-4c-2.2,0-4-1-4-2.2c0-0.2,0-0.3,0.1-0.5c0.4,1,2,1.7,3.8,1.7h4
							c0.5,0,1,0,1.5-0.2c0.9-0.2,1.8-0.7,2.3-1.5c0.1,0.2,0.1,0.3,0.1,0.5c0,0.8-0.8,1.5-2.4,2C-45,779.8-45.6,779.9-46.1,779.8z"
							/>
						<path id="Subtraction_82-6" class="st39" d="M-46.1,781.7h-4c-2.2,0-4-1-4-2.2c0-0.2,0-0.3,0.1-0.5c0.4,1,2,1.7,3.8,1.7h4
							c0.5,0,1,0,1.5-0.2c0.9-0.2,1.8-0.7,2.3-1.5c0.1,0.2,0.1,0.3,0.1,0.5c0,0.8-0.8,1.5-2.4,2C-45,781.7-45.6,781.8-46.1,781.7z"
							/>
						<path id="Subtraction_80-6" class="st39" d="M-46.1,780.8h-4c-2.2,0-4-1-4-2.2c0-0.2,0-0.3,0.1-0.5c0.4,1,2,1.7,3.8,1.7h4
							c0.5,0,1,0,1.5-0.2c0.9-0.2,1.8-0.7,2.3-1.5c0.1,0.2,0.1,0.3,0.1,0.5c0,0.8-0.8,1.5-2.4,2C-45,780.8-45.6,780.8-46.1,780.8z"
							/>
						<path id="Subtraction_75-6" class="st39" d="M-46.1,778.9h-4c-2.1,0-4-0.1-4-1.3c0-0.3,0.2-0.7,0.5-0.9c1,0.8,2.2,1.2,3.5,1.2
							h4c0.5,0,1,0,1.5-0.2c0.7-0.2,1.4-0.5,2-1c0.1,0.1,0.2,0.3,0.3,0.4c0,0.8-0.5,1.1-2.2,1.6C-45,778.8-45.6,778.9-46.1,778.9z"
							/>
					</g>
				</g>
				<g id="Group_556" transform="translate(22 -362)">
					
						<linearGradient id="Path_436-3_1_" gradientUnits="userSpaceOnUse" x1="-381.2367" y1="1111.266" x2="-381.8057" y2="1111.264" gradientTransform="matrix(11.863 0 0 -4.3185 4479.4839 5575.7168)">
						<stop  offset="0" style="stop-color:#7A3D06"/>
						<stop  offset="1" style="stop-color:#A65806"/>
					</linearGradient>
					<path id="Path_436-3" class="st78" d="M-51,774.6h4c2.2,0,4,1,4,2.2c0,0.8-0.7,1.5-2.4,2c-0.5,0.1-1,0.2-1.5,0.2h-4
						c-2.2,0-4-1-4-2.2S-53.2,774.6-51,774.6z"/>
					
						<linearGradient id="Path_821-3_1_" gradientUnits="userSpaceOnUse" x1="-381.2367" y1="1111.266" x2="-381.8057" y2="1111.264" gradientTransform="matrix(11.863 0 0 -4.3185 4479.4839 5556.7168)">
						<stop  offset="0" style="stop-color:#7A3D06"/>
						<stop  offset="1" style="stop-color:#A65806"/>
					</linearGradient>
					<path id="Path_821-3" class="st79" d="M-51,755.6h4c2.2,0,4,1,4,2.2c0,0.8-0.7,1.5-2.4,2c-0.5,0.1-1,0.2-1.5,0.2h-4
						c-2.2,0-4-1-4-2.2S-53.2,755.6-51,755.6z"/>
					
						<linearGradient id="Path_816-3_1_" gradientUnits="userSpaceOnUse" x1="-381.2367" y1="1111.266" x2="-381.8057" y2="1111.264" gradientTransform="matrix(11.863 0 0 -4.3185 4479.4839 5597.7168)">
						<stop  offset="0" style="stop-color:#7A3D06"/>
						<stop  offset="1" style="stop-color:#A65806"/>
					</linearGradient>
					<path id="Path_816-3" class="st80" d="M-51,796.6h4c2.2,0,4,1,4,2.2c0,0.8-0.7,1.5-2.4,2c-0.5,0.1-1,0.2-1.5,0.2h-4
						c-2.2,0-4-1-4-2.2S-53.2,796.6-51,796.6z"/>
					
						<linearGradient id="Path_448-3_1_" gradientUnits="userSpaceOnUse" x1="-381.2367" y1="1111.266" x2="-381.8057" y2="1111.264" gradientTransform="matrix(11.863 0 0 -4.3185 4479.4839 5577.6255)">
						<stop  offset="0" style="stop-color:#7A3D06"/>
						<stop  offset="1" style="stop-color:#A65806"/>
					</linearGradient>
					<path id="Path_448-3" class="st81" d="M-51,776.5h4c2.2,0,4,1,4,2.2c0,0.8-0.7,1.5-2.4,2c-0.5,0.1-1,0.2-1.5,0.2h-4
						c-2.2,0-4-1-4-2.2S-53.2,776.5-51,776.5z"/>
					
						<linearGradient id="Path_822-3_1_" gradientUnits="userSpaceOnUse" x1="-381.2367" y1="1111.266" x2="-381.8057" y2="1111.264" gradientTransform="matrix(11.863 0 0 -4.3185 4479.4839 5558.6255)">
						<stop  offset="0" style="stop-color:#7A3D06"/>
						<stop  offset="1" style="stop-color:#A65806"/>
					</linearGradient>
					<path id="Path_822-3" class="st82" d="M-51,757.5h4c2.2,0,4,1,4,2.2c0,0.8-0.7,1.5-2.4,2c-0.5,0.1-1,0.2-1.5,0.2h-4
						c-2.2,0-4-1-4-2.2S-53.2,757.5-51,757.5z"/>
					
						<linearGradient id="Path_817-3_1_" gradientUnits="userSpaceOnUse" x1="-381.2367" y1="1111.266" x2="-381.8057" y2="1111.264" gradientTransform="matrix(11.863 0 0 -4.3185 4479.4839 5599.6255)">
						<stop  offset="0" style="stop-color:#7A3D06"/>
						<stop  offset="1" style="stop-color:#A65806"/>
					</linearGradient>
					<path id="Path_817-3" class="st83" d="M-51,798.5h4c2.2,0,4,1,4,2.2c0,0.8-0.7,1.5-2.4,2c-0.5,0.1-1,0.2-1.5,0.2h-4
						c-2.2,0-4-1-4-2.2S-53.2,798.5-51,798.5z"/>
					
						<linearGradient id="Path_449-3_1_" gradientUnits="userSpaceOnUse" x1="-381.2367" y1="1111.266" x2="-381.8057" y2="1111.264" gradientTransform="matrix(11.863 0 0 -4.3185 4479.4839 5577.6255)">
						<stop  offset="0" style="stop-color:#7A3D06"/>
						<stop  offset="1" style="stop-color:#A65806"/>
					</linearGradient>
					<path id="Path_449-3" class="st84" d="M-51,776.5h4c2.2,0,4,1,4,2.2c0,0.8-0.7,1.5-2.4,2c-0.5,0.1-1,0.2-1.5,0.2h-4
						c-2.2,0-4-1-4-2.2S-53.2,776.5-51,776.5z"/>
					
						<linearGradient id="Path_823-3_1_" gradientUnits="userSpaceOnUse" x1="-381.2367" y1="1111.266" x2="-381.8057" y2="1111.264" gradientTransform="matrix(11.863 0 0 -4.3185 4479.4839 5558.6255)">
						<stop  offset="0" style="stop-color:#7A3D06"/>
						<stop  offset="1" style="stop-color:#A65806"/>
					</linearGradient>
					<path id="Path_823-3" class="st85" d="M-51,757.5h4c2.2,0,4,1,4,2.2c0,0.8-0.7,1.5-2.4,2c-0.5,0.1-1,0.2-1.5,0.2h-4
						c-2.2,0-4-1-4-2.2S-53.2,757.5-51,757.5z"/>
					
						<linearGradient id="Path_818-3_1_" gradientUnits="userSpaceOnUse" x1="-381.2367" y1="1111.266" x2="-381.8057" y2="1111.264" gradientTransform="matrix(11.863 0 0 -4.3185 4479.4839 5599.6255)">
						<stop  offset="0" style="stop-color:#7A3D06"/>
						<stop  offset="1" style="stop-color:#A65806"/>
					</linearGradient>
					<path id="Path_818-3" class="st86" d="M-51,798.5h4c2.2,0,4,1,4,2.2c0,0.8-0.7,1.5-2.4,2c-0.5,0.1-1,0.2-1.5,0.2h-4
						c-2.2,0-4-1-4-2.2S-53.2,798.5-51,798.5z"/>
					
						<linearGradient id="Path_454-3_1_" gradientUnits="userSpaceOnUse" x1="-381.2367" y1="1111.266" x2="-381.8057" y2="1111.264" gradientTransform="matrix(11.863 0 0 -4.3185 4479.4839 5578.5796)">
						<stop  offset="0" style="stop-color:#7A3D06"/>
						<stop  offset="1" style="stop-color:#A65806"/>
					</linearGradient>
					<path id="Path_454-3" class="st87" d="M-51,777.4h4c2.2,0,4,1,4,2.2c0,0.8-0.7,1.5-2.4,2c-0.5,0.1-1,0.2-1.5,0.2h-4
						c-2.2,0-4-1-4-2.2C-55,778.4-53.2,777.4-51,777.4z"/>
					
						<linearGradient id="Path_824-3_1_" gradientUnits="userSpaceOnUse" x1="-381.2367" y1="1111.266" x2="-381.8057" y2="1111.264" gradientTransform="matrix(11.863 0 0 -4.3185 4479.4839 5559.5796)">
						<stop  offset="0" style="stop-color:#7A3D06"/>
						<stop  offset="1" style="stop-color:#A65806"/>
					</linearGradient>
					<path id="Path_824-3" class="st88" d="M-51,758.4h4c2.2,0,4,1,4,2.2c0,0.8-0.7,1.5-2.4,2c-0.5,0.1-1,0.2-1.5,0.2h-4
						c-2.2,0-4-1-4-2.2C-55,759.4-53.2,758.4-51,758.4z"/>
					
						<linearGradient id="Path_819-3_1_" gradientUnits="userSpaceOnUse" x1="-381.2367" y1="1111.266" x2="-381.8057" y2="1111.264" gradientTransform="matrix(11.863 0 0 -4.3185 4479.4839 5600.5796)">
						<stop  offset="0" style="stop-color:#7A3D06"/>
						<stop  offset="1" style="stop-color:#A65806"/>
					</linearGradient>
					<path id="Path_819-3" class="st89" d="M-51,799.4h4c2.2,0,4,1,4,2.2c0,0.8-0.7,1.5-2.4,2c-0.5,0.1-1,0.2-1.5,0.2h-4
						c-2.2,0-4-1-4-2.2C-55,800.4-53.2,799.4-51,799.4z"/>
					
						<linearGradient id="Path_441-3_1_" gradientUnits="userSpaceOnUse" x1="-381.2367" y1="1111.266" x2="-381.8057" y2="1111.264" gradientTransform="matrix(11.863 0 0 -4.3185 4479.4839 5576.6709)">
						<stop  offset="0" style="stop-color:#7A3D06"/>
						<stop  offset="1" style="stop-color:#A65806"/>
					</linearGradient>
					<path id="Path_441-3" class="st90" d="M-51,775.5h4c2.2,0,4,1,4,2.2c0,0.8-0.7,1.5-2.4,2c-0.5,0.1-1,0.2-1.5,0.2h-4
						c-2.2,0-4-1-4-2.2C-55,776.5-53.2,775.5-51,775.5z"/>
					
						<linearGradient id="Path_825-3_1_" gradientUnits="userSpaceOnUse" x1="-381.2367" y1="1111.266" x2="-381.8057" y2="1111.264" gradientTransform="matrix(11.863 0 0 -4.3185 4479.4839 5557.6709)">
						<stop  offset="0" style="stop-color:#7A3D06"/>
						<stop  offset="1" style="stop-color:#A65806"/>
					</linearGradient>
					<path id="Path_825-3" class="st91" d="M-51,756.5h4c2.2,0,4,1,4,2.2c0,0.8-0.7,1.5-2.4,2c-0.5,0.1-1,0.2-1.5,0.2h-4
						c-2.2,0-4-1-4-2.2C-55,757.5-53.2,756.5-51,756.5z"/>
					
						<linearGradient id="Path_820-3_1_" gradientUnits="userSpaceOnUse" x1="-381.2367" y1="1111.266" x2="-381.8057" y2="1111.264" gradientTransform="matrix(11.863 0 0 -4.3185 4479.4839 5598.6709)">
						<stop  offset="0" style="stop-color:#7A3D06"/>
						<stop  offset="1" style="stop-color:#A65806"/>
					</linearGradient>
					<path id="Path_820-3" class="st92" d="M-51,797.5h4c2.2,0,4,1,4,2.2c0,0.8-0.7,1.5-2.4,2c-0.5,0.1-1,0.2-1.5,0.2h-4
						c-2.2,0-4-1-4-2.2C-55,798.5-53.2,797.5-51,797.5z"/>
					
						<linearGradient id="Path_435-3_1_" gradientUnits="userSpaceOnUse" x1="-374.4703" y1="1176.2112" x2="-375.0393" y2="1176.2092" gradientTransform="matrix(8.3 0 0 -43.985 3063.116 52515.3984)">
						<stop  offset="0" style="stop-color:#7A3D06"/>
						<stop  offset="1" style="stop-color:#A65806"/>
					</linearGradient>
					<path id="Path_435-3" class="st93" d="M-53.3,757.8h8.3v44h-8.3V757.8z"/>
					<g id="Group_452-3" transform="translate(-1 -1)">
						
							<linearGradient id="Subtraction_74-7_1_" gradientUnits="userSpaceOnUse" x1="-380.239" y1="1051.0911" x2="-380.808" y2="1051.089" gradientTransform="matrix(11.864 0 0 -2.335 4469.0176 3231.3784)">
							<stop  offset="0" style="stop-color:#7A3D06"/>
							<stop  offset="1" style="stop-color:#A65806"/>
						</linearGradient>
						<path id="Subtraction_74-7" class="st94" d="M-53.9,778.3L-53.9,778.3c-0.1-0.2-0.1-0.3-0.1-0.5c0-0.7,0.6-1.4,1.7-1.8v0.9
							h0.2C-52.8,777.1-53.5,777.6-53.9,778.3L-53.9,778.3z M-42.2,778.2L-42.2,778.2c-0.4-0.7-1.1-1.2-1.8-1.4h0.1v-1
							c1.2,0.4,1.9,1.1,1.9,1.8C-42.1,777.9-42.2,778.1-42.2,778.2L-42.2,778.2z"/>
						
							<linearGradient id="Subtraction_79-7_1_" gradientUnits="userSpaceOnUse" x1="-380.2371" y1="1067.6484" x2="-380.8061" y2="1067.6465" gradientTransform="matrix(11.863 0 0 -2.6665 4468.6211 3626.3328)">
							<stop  offset="0" style="stop-color:#7A3D06"/>
							<stop  offset="1" style="stop-color:#A65806"/>
						</linearGradient>
						<path id="Subtraction_79-7" class="st95" d="M-46.1,780.8h-4c-2.2,0-4-1-4-2.2c0-0.2,0-0.3,0.1-0.5c0.4,1,2,1.7,3.8,1.7h4
							c0.5,0,1,0,1.5-0.2c0.9-0.2,1.8-0.7,2.3-1.5c0.1,0.2,0.1,0.3,0.1,0.5c0,0.8-0.8,1.5-2.4,2C-45,780.8-45.6,780.8-46.1,780.8z"
							/>
						<path id="Subtraction_83-7" class="st39" d="M-46.1,782.7h-4c-2.2,0-4-1-4-2.2c0-0.2,0-0.3,0.1-0.5c0.4,1,2,1.7,3.8,1.7h4
							c0.5,0,1,0,1.5-0.2c0.9-0.2,1.8-0.7,2.3-1.5c0.1,0.2,0.1,0.3,0.1,0.5c0,0.8-0.8,1.5-2.4,2C-45,782.7-45.6,782.7-46.1,782.7z"
							/>
						
							<linearGradient id="Subtraction_81-7_1_" gradientUnits="userSpaceOnUse" x1="-380.2371" y1="1067.6484" x2="-380.8061" y2="1067.6465" gradientTransform="matrix(11.863 0 0 -2.6665 4468.6211 3627.2888)">
							<stop  offset="0" style="stop-color:#7A3D06"/>
							<stop  offset="1" style="stop-color:#A65806"/>
						</linearGradient>
						<path id="Subtraction_81-7" class="st96" d="M-46.1,781.7h-4c-2.2,0-4-1-4-2.2c0-0.2,0-0.3,0.1-0.5c0.4,1,2,1.7,3.8,1.7h4
							c0.5,0,1,0,1.5-0.2c0.9-0.2,1.8-0.7,2.3-1.5c0.1,0.2,0.1,0.3,0.1,0.5c0,0.8-0.8,1.5-2.4,2C-45,781.7-45.6,781.8-46.1,781.7z"
							/>
						
							<linearGradient id="Subtraction_77-7_1_" gradientUnits="userSpaceOnUse" x1="-380.2371" y1="1067.6484" x2="-380.8061" y2="1067.6465" gradientTransform="matrix(11.863 0 0 -2.6665 4468.6211 3625.3777)">
							<stop  offset="0" style="stop-color:#7A3D06"/>
							<stop  offset="1" style="stop-color:#A65806"/>
						</linearGradient>
						<path id="Subtraction_77-7" class="st97" d="M-46.1,779.8h-4c-2.2,0-4-1-4-2.2c0-0.2,0-0.3,0.1-0.5c0.4,1,2,1.7,3.8,1.7h4
							c0.5,0,1,0,1.5-0.2c0.9-0.2,1.8-0.7,2.3-1.5c0.1,0.2,0.1,0.3,0.1,0.5c0,0.8-0.8,1.5-2.4,2C-45,779.8-45.6,779.9-46.1,779.8z"
							/>
						<path id="Subtraction_78-7" class="st39" d="M-46.1,779.8h-4c-2.2,0-4-1-4-2.2c0-0.2,0-0.3,0.1-0.5c0.4,1,2,1.7,3.8,1.7h4
							c0.5,0,1,0,1.5-0.2c0.9-0.2,1.8-0.7,2.3-1.5c0.1,0.2,0.1,0.3,0.1,0.5c0,0.8-0.8,1.5-2.4,2C-45,779.8-45.6,779.9-46.1,779.8z"
							/>
						<path id="Subtraction_82-7" class="st39" d="M-46.1,781.7h-4c-2.2,0-4-1-4-2.2c0-0.2,0-0.3,0.1-0.5c0.4,1,2,1.7,3.8,1.7h4
							c0.5,0,1,0,1.5-0.2c0.9-0.2,1.8-0.7,2.3-1.5c0.1,0.2,0.1,0.3,0.1,0.5c0,0.8-0.8,1.5-2.4,2C-45,781.7-45.6,781.8-46.1,781.7z"
							/>
						<path id="Subtraction_80-7" class="st39" d="M-46.1,780.8h-4c-2.2,0-4-1-4-2.2c0-0.2,0-0.3,0.1-0.5c0.4,1,2,1.7,3.8,1.7h4
							c0.5,0,1,0,1.5-0.2c0.9-0.2,1.8-0.7,2.3-1.5c0.1,0.2,0.1,0.3,0.1,0.5c0,0.8-0.8,1.5-2.4,2C-45,780.8-45.6,780.8-46.1,780.8z"
							/>
						<path id="Subtraction_75-7" class="st39" d="M-46.1,778.9h-4c-2.1,0-4-0.1-4-1.3c0-0.3,0.2-0.7,0.5-0.9c1,0.8,2.2,1.2,3.5,1.2
							h4c0.5,0,1,0,1.5-0.2c0.7-0.2,1.4-0.5,2-1c0.1,0.1,0.2,0.3,0.3,0.4c0,0.8-0.5,1.1-2.2,1.6C-45,778.8-45.6,778.9-46.1,778.9z"
							/>
					</g>
					<g id="Group_454-3" transform="translate(-1 -20)">
						
							<linearGradient id="Subtraction_74-8_1_" gradientUnits="userSpaceOnUse" x1="-380.239" y1="1070.0911" x2="-380.808" y2="1070.089" gradientTransform="matrix(11.864 0 0 -2.335 4469.0176 3275.7434)">
							<stop  offset="0" style="stop-color:#7A3D06"/>
							<stop  offset="1" style="stop-color:#A65806"/>
						</linearGradient>
						<path id="Subtraction_74-8" class="st98" d="M-53.9,778.3L-53.9,778.3c-0.1-0.2-0.1-0.3-0.1-0.5c0-0.7,0.6-1.4,1.7-1.8v0.9
							h0.2C-52.8,777.1-53.5,777.6-53.9,778.3L-53.9,778.3z M-42.2,778.2L-42.2,778.2c-0.4-0.7-1.1-1.2-1.8-1.4h0.1v-1
							c1.2,0.4,1.9,1.1,1.9,1.8C-42.1,777.9-42.2,778.1-42.2,778.2L-42.2,778.2z"/>
						
							<linearGradient id="Subtraction_79-8_1_" gradientUnits="userSpaceOnUse" x1="-380.2371" y1="1086.6484" x2="-380.8061" y2="1086.6465" gradientTransform="matrix(11.863 0 0 -2.6665 4468.6211 3676.9961)">
							<stop  offset="0" style="stop-color:#7A3D06"/>
							<stop  offset="1" style="stop-color:#A65806"/>
						</linearGradient>
						<path id="Subtraction_79-8" class="st99" d="M-46.1,780.8h-4c-2.2,0-4-1-4-2.2c0-0.2,0-0.3,0.1-0.5c0.4,1,2,1.7,3.8,1.7h4
							c0.5,0,1,0,1.5-0.2c0.9-0.2,1.8-0.7,2.3-1.5c0.1,0.2,0.1,0.3,0.1,0.5c0,0.8-0.8,1.5-2.4,2C-45,780.8-45.6,780.8-46.1,780.8z"
							/>
						<path id="Subtraction_83-8" class="st39" d="M-46.1,782.7h-4c-2.2,0-4-1-4-2.2c0-0.2,0-0.3,0.1-0.5c0.4,1,2,1.7,3.8,1.7h4
							c0.5,0,1,0,1.5-0.2c0.9-0.2,1.8-0.7,2.3-1.5c0.1,0.2,0.1,0.3,0.1,0.5c0,0.8-0.8,1.5-2.4,2C-45,782.7-45.6,782.7-46.1,782.7z"
							/>
						
							<linearGradient id="Subtraction_81-8_1_" gradientUnits="userSpaceOnUse" x1="-380.2371" y1="1086.6484" x2="-380.8061" y2="1086.6465" gradientTransform="matrix(11.863 0 0 -2.6665 4468.6211 3677.9521)">
							<stop  offset="0" style="stop-color:#7A3D06"/>
							<stop  offset="1" style="stop-color:#A65806"/>
						</linearGradient>
						<path id="Subtraction_81-8" class="st100" d="M-46.1,781.7h-4c-2.2,0-4-1-4-2.2c0-0.2,0-0.3,0.1-0.5c0.4,1,2,1.7,3.8,1.7h4
							c0.5,0,1,0,1.5-0.2c0.9-0.2,1.8-0.7,2.3-1.5c0.1,0.2,0.1,0.3,0.1,0.5c0,0.8-0.8,1.5-2.4,2C-45,781.7-45.6,781.8-46.1,781.7z"
							/>
						
							<linearGradient id="Subtraction_77-8_1_" gradientUnits="userSpaceOnUse" x1="-380.2371" y1="1086.6484" x2="-380.8061" y2="1086.6465" gradientTransform="matrix(11.863 0 0 -2.6665 4468.6211 3676.041)">
							<stop  offset="0" style="stop-color:#7A3D06"/>
							<stop  offset="1" style="stop-color:#A65806"/>
						</linearGradient>
						<path id="Subtraction_77-8" class="st101" d="M-46.1,779.8h-4c-2.2,0-4-1-4-2.2c0-0.2,0-0.3,0.1-0.5c0.4,1,2,1.7,3.8,1.7h4
							c0.5,0,1,0,1.5-0.2c0.9-0.2,1.8-0.7,2.3-1.5c0.1,0.2,0.1,0.3,0.1,0.5c0,0.8-0.8,1.5-2.4,2C-45,779.8-45.6,779.9-46.1,779.8z"
							/>
						<path id="Subtraction_78-8" class="st39" d="M-46.1,779.8h-4c-2.2,0-4-1-4-2.2c0-0.2,0-0.3,0.1-0.5c0.4,1,2,1.7,3.8,1.7h4
							c0.5,0,1,0,1.5-0.2c0.9-0.2,1.8-0.7,2.3-1.5c0.1,0.2,0.1,0.3,0.1,0.5c0,0.8-0.8,1.5-2.4,2C-45,779.8-45.6,779.9-46.1,779.8z"
							/>
						<path id="Subtraction_82-8" class="st39" d="M-46.1,781.7h-4c-2.2,0-4-1-4-2.2c0-0.2,0-0.3,0.1-0.5c0.4,1,2,1.7,3.8,1.7h4
							c0.5,0,1,0,1.5-0.2c0.9-0.2,1.8-0.7,2.3-1.5c0.1,0.2,0.1,0.3,0.1,0.5c0,0.8-0.8,1.5-2.4,2C-45,781.7-45.6,781.8-46.1,781.7z"
							/>
						<path id="Subtraction_80-8" class="st39" d="M-46.1,780.8h-4c-2.2,0-4-1-4-2.2c0-0.2,0-0.3,0.1-0.5c0.4,1,2,1.7,3.8,1.7h4
							c0.5,0,1,0,1.5-0.2c0.9-0.2,1.8-0.7,2.3-1.5c0.1,0.2,0.1,0.3,0.1,0.5c0,0.8-0.8,1.5-2.4,2C-45,780.8-45.6,780.8-46.1,780.8z"
							/>
						<path id="Subtraction_75-8" class="st39" d="M-46.1,778.9h-4c-2.1,0-4-0.1-4-1.3c0-0.3,0.2-0.7,0.5-0.9c1,0.8,2.2,1.2,3.5,1.2
							h4c0.5,0,1,0,1.5-0.2c0.7-0.2,1.4-0.5,2-1c0.1,0.1,0.2,0.3,0.3,0.4c0,0.8-0.5,1.1-2.2,1.6C-45,778.8-45.6,778.9-46.1,778.9z"
							/>
					</g>
					<g id="Group_453-3" transform="translate(-1 21)">
						
							<linearGradient id="Subtraction_74-9_1_" gradientUnits="userSpaceOnUse" x1="-380.239" y1="1029.0911" x2="-380.808" y2="1029.089" gradientTransform="matrix(11.864 0 0 -2.335 4469.0176 3180.0083)">
							<stop  offset="0" style="stop-color:#7A3D06"/>
							<stop  offset="1" style="stop-color:#A65806"/>
						</linearGradient>
						<path id="Subtraction_74-9" class="st102" d="M-53.9,778.3L-53.9,778.3c-0.1-0.2-0.1-0.3-0.1-0.5c0-0.7,0.6-1.4,1.7-1.8v0.9
							h0.2C-52.8,777.1-53.5,777.6-53.9,778.3L-53.9,778.3z M-42.2,778.2L-42.2,778.2c-0.4-0.7-1.1-1.2-1.8-1.4h0.1v-1
							c1.2,0.4,1.9,1.1,1.9,1.8C-42.1,777.9-42.2,778.1-42.2,778.2L-42.2,778.2z"/>
						
							<linearGradient id="Subtraction_79-9_1_" gradientUnits="userSpaceOnUse" x1="-380.2371" y1="1045.6484" x2="-380.8061" y2="1045.6465" gradientTransform="matrix(11.863 0 0 -2.6665 4468.6211 3567.6699)">
							<stop  offset="0" style="stop-color:#7A3D06"/>
							<stop  offset="1" style="stop-color:#A65806"/>
						</linearGradient>
						<path id="Subtraction_79-9" class="st103" d="M-46.1,780.8h-4c-2.2,0-4-1-4-2.2c0-0.2,0-0.3,0.1-0.5c0.4,1,2,1.7,3.8,1.7h4
							c0.5,0,1,0,1.5-0.2c0.9-0.2,1.8-0.7,2.3-1.5c0.1,0.2,0.1,0.3,0.1,0.5c0,0.8-0.8,1.5-2.4,2C-45,780.8-45.6,780.8-46.1,780.8z"
							/>
						<path id="Subtraction_83-9" class="st39" d="M-46.1,782.7h-4c-2.2,0-4-1-4-2.2c0-0.2,0-0.3,0.1-0.5c0.4,1,2,1.7,3.8,1.7h4
							c0.5,0,1,0,1.5-0.2c0.9-0.2,1.8-0.7,2.3-1.5c0.1,0.2,0.1,0.3,0.1,0.5c0,0.8-0.8,1.5-2.4,2C-45,782.7-45.6,782.7-46.1,782.7z"
							/>
						
							<linearGradient id="Subtraction_81-9_1_" gradientUnits="userSpaceOnUse" x1="-380.2371" y1="1045.6484" x2="-380.8061" y2="1045.6465" gradientTransform="matrix(11.863 0 0 -2.6665 4468.6211 3568.626)">
							<stop  offset="0" style="stop-color:#7A3D06"/>
							<stop  offset="1" style="stop-color:#A65806"/>
						</linearGradient>
						<path id="Subtraction_81-9" class="st104" d="M-46.1,781.7h-4c-2.2,0-4-1-4-2.2c0-0.2,0-0.3,0.1-0.5c0.4,1,2,1.7,3.8,1.7h4
							c0.5,0,1,0,1.5-0.2c0.9-0.2,1.8-0.7,2.3-1.5c0.1,0.2,0.1,0.3,0.1,0.5c0,0.8-0.8,1.5-2.4,2C-45,781.7-45.6,781.8-46.1,781.7z"
							/>
						
							<linearGradient id="Subtraction_77-9_1_" gradientUnits="userSpaceOnUse" x1="-380.2371" y1="1045.6484" x2="-380.8061" y2="1045.6465" gradientTransform="matrix(11.863 0 0 -2.6665 4468.6211 3566.7148)">
							<stop  offset="0" style="stop-color:#7A3D06"/>
							<stop  offset="1" style="stop-color:#A65806"/>
						</linearGradient>
						<path id="Subtraction_77-9" class="st105" d="M-46.1,779.8h-4c-2.2,0-4-1-4-2.2c0-0.2,0-0.3,0.1-0.5c0.4,1,2,1.7,3.8,1.7h4
							c0.5,0,1,0,1.5-0.2c0.9-0.2,1.8-0.7,2.3-1.5c0.1,0.2,0.1,0.3,0.1,0.5c0,0.8-0.8,1.5-2.4,2C-45,779.8-45.6,779.9-46.1,779.8z"
							/>
						<path id="Subtraction_78-9" class="st39" d="M-46.1,779.8h-4c-2.2,0-4-1-4-2.2c0-0.2,0-0.3,0.1-0.5c0.4,1,2,1.7,3.8,1.7h4
							c0.5,0,1,0,1.5-0.2c0.9-0.2,1.8-0.7,2.3-1.5c0.1,0.2,0.1,0.3,0.1,0.5c0,0.8-0.8,1.5-2.4,2C-45,779.8-45.6,779.9-46.1,779.8z"
							/>
						<path id="Subtraction_82-9" class="st39" d="M-46.1,781.7h-4c-2.2,0-4-1-4-2.2c0-0.2,0-0.3,0.1-0.5c0.4,1,2,1.7,3.8,1.7h4
							c0.5,0,1,0,1.5-0.2c0.9-0.2,1.8-0.7,2.3-1.5c0.1,0.2,0.1,0.3,0.1,0.5c0,0.8-0.8,1.5-2.4,2C-45,781.7-45.6,781.8-46.1,781.7z"
							/>
						<path id="Subtraction_80-9" class="st39" d="M-46.1,780.8h-4c-2.2,0-4-1-4-2.2c0-0.2,0-0.3,0.1-0.5c0.4,1,2,1.7,3.8,1.7h4
							c0.5,0,1,0,1.5-0.2c0.9-0.2,1.8-0.7,2.3-1.5c0.1,0.2,0.1,0.3,0.1,0.5c0,0.8-0.8,1.5-2.4,2C-45,780.8-45.6,780.8-46.1,780.8z"
							/>
						<path id="Subtraction_75-9" class="st39" d="M-46.1,778.9h-4c-2.1,0-4-0.1-4-1.3c0-0.3,0.2-0.7,0.5-0.9c1,0.8,2.2,1.2,3.5,1.2
							h4c0.5,0,1,0,1.5-0.2c0.7-0.2,1.4-0.5,2-1c0.1,0.1,0.2,0.3,0.3,0.4c0,0.8-0.5,1.1-2.2,1.6C-45,778.8-45.6,778.9-46.1,778.9z"
							/>
					</g>
				</g>
				<path id="Path_557" class="st106" d="M-62.2,414.4l-2.4-1.4l0-37l2.5-1.5L-62.2,414.4z"/>
				<path id="Union_11" class="st107" d="M-105.5,396L-105.5,396l-44.4-25.4l45.1-26.4l44.2,25.5l0.2-0.1l45.1,26l-45.1,26.1
					L-105.5,396z"/>
				<path id="Subtraction_93" class="st108" d="M-60.3,425.2L-60.3,425.2l0-3.6l45.1-25.9v2.8l-5.5,3.2l0,0.1l-38.1,22.6l-0.1,0
					L-60.3,425.2L-60.3,425.2L-60.3,425.2z"/>
				<path id="Subtraction_94" class="st109" d="M-60.3,425.1L-60.3,425.1l-2.6-1.7v0l-0.4-0.2l-0.4-0.3v0l-39.1-23.2v0l-9.9-5.9
					l-34.9-19.7l-2.2-1.2l0-2.3c0.1,0.1,4.1,2.3,9.5,5.4c11.6,6.6,29.2,16.6,34.3,19.5v-0.1l8.3,4.7l9.4,5.4l11.6,6.6
					c8.6,5,16.1,9.2,16.5,9.4L-60.3,425.1L-60.3,425.1z"/>
				<path id="Union_12" class="st110" d="M-103,394.5L-103,394.5l-42.6-23.8l40.7-23.4l4.7,2.7l37.4,21.3l0.1-0.1l43.2,24.4
					l-41.1,23.2L-103,394.5z"/>
				<g id="Group_280" transform="translate(0 55.65)">
					<path id="Path_478" class="st4" d="M-154.8,328.3h0.5l24,13.4l-27.4,14.3l-24.2-14.1"/>
					<path id="Path_338" class="st1" d="M-187,372.3l30.1,17.3l30-17.3l-30-17.5L-187,372.3z"/>
					<path id="Path_287" class="st5" d="M-136.1,346.9l3.3-1.3l0,28l-3.3-1.6L-136.1,346.9z"/>
					<path id="Path_288" class="st111" d="M-155,330.1h0.4l20.9,11.7l-23.8,12.4l-21.1-12.3L-155,330.1z"/>
					<path id="Path_285" class="st112" d="M-178.6,347.5v24.8l-2.2,0.8v-26.6L-178.6,347.5z"/>
					<path id="Subtraction_41" class="st5" d="M-156.6,387.5L-156.6,387.5l-3-1.4v-27.5l-21.1-12.2v26.6l-2.7-0.8l0.8-60.6
						c1.5,2.5,3.4,4.7,5.6,6.6c3.7,3.1,10.3,7.1,20.5,8.5C-156.3,338.8-156.6,387-156.6,387.5L-156.6,387.5z M-180.3,320.9
						L-180.3,320.9v21.6c0,0.3,21,11.4,21.2,11.5v-23.2L-180.3,320.9z"/>
					<path id="Path_286" class="st112" d="M-154.7,325.3l-1.9,1.4l0,60.7l2.1-1.4l-0.2-28.3l21.9-11.8v27.6l2.5-1.2v-30.7
						l-24.4,12.4L-154.7,325.3z"/>
					<path id="Path_289" class="st112" d="M-180.6,310.9c-0.7,0.2-1.5,0.5-2.2,0.8c-0.5,0.3,10.2,13.2,26.1,15
						c1.5-0.8,0.5-0.3,1.9-1.4C-164.6,323.3-173.6,318.2-180.6,310.9z"/>
					<path id="Path_314" class="st113" d="M-156.9,326.7"/>
					<path id="Path_317" class="st112" d="M-178.9,340.4l-0.2-18.4l-1.4-0.4l0.2,19.5L-178.9,340.4z"/>
					<path id="Path_322" class="st5" d="M-183,321.7c0,0.8,0,3.5,0,5.6c3.9,5.1,17.9,13.3,25.4,13.2c0.1-1.1,0.1,2.5,0-3.9
						C-162.8,336.5-178.9,327.8-183,321.7z"/>
					<path id="Path_323" class="st5" d="M-183,329.9c0,0.8,0,3.5,0,5.6c3.8,5.1,17.7,13.3,25.1,13.2c0.1-1.1,0.1,2.5,0-3.9
						C-163,344.7-178.9,335.9-183,329.9z"/>
					<path id="Path_324" class="st5" d="M-182.7,311.8c0,0.8-0.1,5.5-0.2,7.7c4,5.1,18.5,13.4,26.3,13.3c0.1-1.1,0.2,0.3,0.1-6.1
						C-162,326.6-178.5,317.8-182.7,311.8z"/>
				</g>
				<g id="Group_281" transform="translate(31.702 78.295)">
					<path id="Path_478-2" class="st4" d="M-154.8,328.3h0.5l24,13.4l-27.4,14.3l-24.2-14.1"/>
					<path id="Path_338-2" class="st1" d="M-187,372.3l30.1,17.3l30-17.3l-30-17.5L-187,372.3z"/>
					<path id="Path_287-2" class="st5" d="M-136.1,346.9l3.3-1.3l0,28l-3.3-1.6L-136.1,346.9z"/>
					<path id="Path_288-2" class="st111" d="M-155,330.1h0.4l20.9,11.7l-23.8,12.4l-21.1-12.3L-155,330.1z"/>
					<path id="Path_285-2" class="st112" d="M-178.6,347.5v24.8l-2.2,0.8v-26.6L-178.6,347.5z"/>
					<path id="Subtraction_41-2" class="st5" d="M-156.6,387.5L-156.6,387.5l-3-1.4v-27.5l-21.1-12.2v26.6l-2.7-0.8l0.8-60.6
						c1.5,2.5,3.4,4.7,5.6,6.6c3.7,3.1,10.3,7.1,20.5,8.5C-156.3,338.8-156.6,387-156.6,387.5L-156.6,387.5z M-180.3,320.9
						L-180.3,320.9v21.6c0,0.3,21,11.4,21.2,11.5v-23.2L-180.3,320.9z"/>
					<path id="Path_286-2" class="st112" d="M-154.7,325.3l-1.9,1.4l0,60.7l2.1-1.4l-0.2-28.3l21.9-11.8v27.6l2.5-1.2v-30.7
						l-24.4,12.4L-154.7,325.3z"/>
					<path id="Path_289-2" class="st112" d="M-180.6,310.9c-0.7,0.2-1.5,0.5-2.2,0.8c-0.5,0.3,10.2,13.2,26.1,15
						c1.5-0.8,0.5-0.3,1.9-1.4C-164.6,323.3-173.6,318.2-180.6,310.9z"/>
					<path id="Path_314-2" class="st113" d="M-156.9,326.7"/>
					<path id="Path_317-2" class="st112" d="M-178.9,340.4l-0.2-18.4l-1.4-0.4l0.2,19.5L-178.9,340.4z"/>
					<path id="Path_322-2" class="st5" d="M-183,321.7c0,0.8,0,3.5,0,5.6c3.9,5.1,17.9,13.3,25.4,13.2c0.1-1.1,0.1,2.5,0-3.9
						C-162.8,336.5-178.9,327.8-183,321.7z"/>
					<path id="Path_323-2" class="st5" d="M-183,329.9c0,0.8,0,3.5,0,5.6c3.8,5.1,17.7,13.3,25.1,13.2c0.1-1.1,0.1,2.5,0-3.9
						C-163,344.7-178.9,335.9-183,329.9z"/>
					<path id="Path_324-2" class="st5" d="M-182.7,311.8c0,0.8-0.1,5.5-0.2,7.7c4,5.1,18.5,13.4,26.3,13.3c0.1-1.1,0.2,0.3,0.1-6.1
						C-162,326.6-178.5,317.8-182.7,311.8z"/>
				</g>
				<g id="Group_306" transform="translate(66.122 101.845)">
					<path id="Path_478-3" class="st4" d="M-154.8,328.3h0.5l24,13.4l-27.4,14.3l-24.2-14.1"/>
					<path id="Path_338-3" class="st1" d="M-187,372.3l30.1,17.3l30-17.3l-30-17.5L-187,372.3z"/>
					<path id="Path_287-3" class="st5" d="M-136.1,346.9l3.3-1.3l0,28l-3.3-1.6L-136.1,346.9z"/>
					<path id="Path_288-3" class="st111" d="M-155,330.1h0.4l20.9,11.7l-23.8,12.4l-21.1-12.3L-155,330.1z"/>
					<path id="Path_285-3" class="st112" d="M-178.6,347.5v24.8l-2.2,0.8v-26.6L-178.6,347.5z"/>
					<path id="Subtraction_41-3" class="st5" d="M-156.6,387.5L-156.6,387.5l-3-1.4v-27.5l-21.1-12.2v26.6l-2.7-0.8l0.8-60.6
						c1.5,2.5,3.4,4.7,5.6,6.6c3.7,3.1,10.3,7.1,20.5,8.5C-156.3,338.8-156.6,387-156.6,387.5L-156.6,387.5z M-180.3,320.9
						L-180.3,320.9v21.6c0,0.3,21,11.4,21.2,11.5v-23.2L-180.3,320.9z"/>
					<path id="Path_286-3" class="st112" d="M-154.7,325.3l-1.9,1.4l0,60.7l2.1-1.4l-0.2-28.3l21.9-11.8v27.6l2.5-1.2v-30.7
						l-24.4,12.4L-154.7,325.3z"/>
					<path id="Path_289-3" class="st112" d="M-180.6,310.9c-0.7,0.2-1.5,0.5-2.2,0.8c-0.5,0.3,10.2,13.2,26.1,15
						c1.5-0.8,0.5-0.3,1.9-1.4C-164.6,323.3-173.6,318.2-180.6,310.9z"/>
					<path id="Path_314-3" class="st113" d="M-156.9,326.7"/>
					<path id="Path_317-3" class="st112" d="M-178.9,340.4l-0.2-18.4l-1.4-0.4l0.2,19.5L-178.9,340.4z"/>
					<path id="Path_322-3" class="st5" d="M-183,321.7c0,0.8,0,3.5,0,5.6c3.9,5.1,17.9,13.3,25.4,13.2c0.1-1.1,0.1,2.5,0-3.9
						C-162.8,336.5-178.9,327.8-183,321.7z"/>
					<path id="Path_323-3" class="st5" d="M-183,329.9c0,0.8,0,3.5,0,5.6c3.8,5.1,17.7,13.3,25.1,13.2c0.1-1.1,0.1,2.5,0-3.9
						C-163,344.7-178.9,335.9-183,329.9z"/>
					<path id="Path_324-3" class="st5" d="M-182.7,311.8c0,0.8-0.1,5.5-0.2,7.7c4,5.1,18.5,13.4,26.3,13.3c0.1-1.1,0.2,0.3,0.1-6.1
						C-162,326.6-178.5,317.8-182.7,311.8z"/>
				</g>
				<g id="Group_261" transform="translate(156.919 77.288)">
					<path id="Path_331" class="st13" d="M-135.6,345.3l0.3-24.9l2.2-1.6l0.1,25.1L-135.6,345.3z"/>
					<path id="Path_550" class="st4" d="M-132.8,343.9l-24.2-13.6l-26.3,12.2l24.9,14.3L-132.8,343.9z"/>
					<path id="Path_549" class="st111" d="M-137.4,343.9l-19.8-11.1l-21.5,10l20.4,11.7L-137.4,343.9z"/>
					<path id="Path_337" class="st1" d="M-156.8,390.8l-30.2-17.1l30.2-17.3l29.7,17.3L-156.8,390.8z"/>
					<path id="Path_278" class="st12" d="M-135.3,348.8v24.8l2.3,0.9v-26.9L-135.3,348.8z"/>
					<path id="Path_273" class="st114" d="M-159.6,387.5v-61.6l2.7,1.2V388L-159.6,387.5z"/>
					<path id="Subtraction_43" class="st115" d="M-156.9,388.1l0-61l26.7-14.9c0,0.6-0.1,60.7,0,61.1c0,0,0,0,0,0.1
						c-0.2,0.4-2.8,1.1-2.8,1.1v-26.7l-22,11.3v28.1L-156.9,388.1L-156.9,388.1z M-133.1,318.9L-133.1,318.9c-0.2,0.1-0.5,0.4-1,0.7
						c-6.3,4.6-13.3,8.2-20.8,10.4c0,10.3-0.1,24.8-0.1,24.9l22-11c0,0,0-0.3,0-0.9C-133.1,326.5-133.1,320.7-133.1,318.9
						L-133.1,318.9z"/>
					<path id="Path_275" class="st115" d="M-180.6,347v27.7l2.7-1.5c0,0,0.3-25.4,0-25.5S-180.6,347-180.6,347z"/>
					<path id="Path_276" class="st114" d="M-159.6,359.5c-0.2-0.2-21-12.2-21-12.2v27.5l-2.9-1.4l0.3-30.9l23.6,13.2L-159.6,359.5z"
						/>
					<path id="Path_277" class="st4" d="M-156.9,327.1c-1-0.3-1.9-0.7-2.8-1.2c0,0,21.1-8.6,26.6-15c2.4,0.6,2.8,1.3,2.8,1.3
						S-144.9,324.7-156.9,327.1z"/>
					<path id="Path_334" class="st115" d="M-155,336.7c5.6-0.3,18.1-5.8,22-10.5c0-0.9-0.1-0.9,0-3.5c-2.1,2.2-11.4,9.4-22,11.2
						V336.7z"/>
					<path id="Path_335" class="st115" d="M-155,344c5.7-0.3,18.2-5.8,22.1-10.5c0-0.9-0.1-0.9,0-3.5c-2.1,2.2-11.5,9.4-22.1,11.2
						V344z"/>
				</g>
				<g id="Group_282" transform="translate(125.217 99.932)">
					<path id="Path_331-2" class="st13" d="M-135.6,345.3l0.3-24.9l2.2-1.6l0.1,25.1L-135.6,345.3z"/>
					<path id="Path_550-2" class="st4" d="M-132.8,343.9l-24.2-13.6l-26.3,12.2l24.9,14.3L-132.8,343.9z"/>
					<path id="Path_549-2" class="st111" d="M-137.4,343.9l-19.8-11.1l-21.5,10l20.4,11.7L-137.4,343.9z"/>
					<path id="Path_337-2" class="st1" d="M-156.8,390.8l-30.2-17.1l30.2-17.3l29.7,17.3L-156.8,390.8z"/>
					<path id="Path_278-2" class="st12" d="M-135.3,348.8v24.8l2.3,0.9v-26.9L-135.3,348.8z"/>
					<path id="Path_273-2" class="st114" d="M-159.6,387.5v-61.6l2.7,1.2V388L-159.6,387.5z"/>
					<path id="Subtraction_43-2" class="st115" d="M-156.9,388.1l0-61l26.7-14.9c0,0.6-0.1,60.7,0,61.1c0,0,0,0,0,0.1
						c-0.2,0.4-2.8,1.1-2.8,1.1v-26.7l-22,11.3v28.1L-156.9,388.1L-156.9,388.1z M-133.1,318.9L-133.1,318.9c-0.2,0.1-0.5,0.4-1,0.7
						c-6.3,4.6-13.3,8.2-20.8,10.4c0,10.3-0.1,24.8-0.1,24.9l22-11c0,0,0-0.3,0-0.9C-133.1,326.5-133.1,320.7-133.1,318.9
						L-133.1,318.9z"/>
					<path id="Path_275-2" class="st115" d="M-180.6,347v27.7l2.7-1.5c0,0,0.3-25.4,0-25.5S-180.6,347-180.6,347z"/>
					<path id="Path_276-2" class="st114" d="M-159.6,359.5c-0.2-0.2-21-12.2-21-12.2v27.5l-2.9-1.4l0.3-30.9l23.6,13.2L-159.6,359.5
						z"/>
					<path id="Path_277-2" class="st4" d="M-156.9,327.1c-1-0.3-1.9-0.7-2.8-1.2c0,0,21.1-8.6,26.6-15c2.4,0.6,2.8,1.3,2.8,1.3
						S-144.9,324.7-156.9,327.1z"/>
					<path id="Path_334-2" class="st115" d="M-155,336.7c5.6-0.3,18.1-5.8,22-10.5c0-0.9-0.1-0.9,0-3.5c-2.1,2.2-11.4,9.4-22,11.2
						V336.7z"/>
					<path id="Path_335-2" class="st115" d="M-155,344c5.7-0.3,18.2-5.8,22.1-10.5c0-0.9-0.1-0.9,0-3.5c-2.1,2.2-11.5,9.4-22.1,11.2
						V344z"/>
				</g>
			</g>
		</g>
	</g>
</g>
</svg>
