<svg id="NoItemsCart" xmlns="http://www.w3.org/2000/svg" width="250" height="200" viewBox="0 0 250 200">
  <path id="Background" d="M202,63a7,7,0,1,1,7,7A7,7,0,0,1,202,63Zm-62,7a7.037,7.037,0,0,1-1.5-.161A7.043,7.043,0,0,1,137,70H46a7,7,0,1,1,0-14H7A7,7,0,1,1,7,42H47a7,7,0,0,0,0-14H22a7,7,0,0,1,0-14H62A7,7,0,1,1,62,0h57a7,7,0,0,1,0,14h64a7,7,0,1,1,0,14h22a7,7,0,1,1,0,14H186a7,7,0,1,0,0,14h6a7,7,0,0,1,0,14Z" transform="translate(17 64)" fill="#f3f7ff"/>
  <path id="Rectangle" d="M2,0H69L63,9l8,6H0L9,9Z" transform="translate(94 66)" fill="#e8f0fe"/>
  <path id="line" d="M143.128.5h0ZM116,.5h0ZM13,.5h0ZM.128.5h0Z" transform="translate(57 145)" fill="none" stroke="#75a4fe" stroke-linecap="round" stroke-linejoin="round" stroke-miterlimit="10" stroke-width="2.5"/>
  <path id="bag" d="M71.045,79H4.461A3.983,3.983,0,0,1,.506,75V3A3.022,3.022,0,0,1,3.543,0H73.022A1.991,1.991,0,0,1,75,2V75A3.982,3.982,0,0,1,71.045,79Z" transform="translate(92.5 80)" fill="#fff" stroke="#75a4fe" stroke-linecap="round" stroke-miterlimit="10" stroke-width="2.5"/>
  <path id="Rectangle-2" data-name="Rectangle" d="M70,0V12a1.906,1.906,0,0,1-1.795,2H1.795A1.906,1.906,0,0,1,0,12V0" transform="translate(165 80) rotate(-180)" fill="none" stroke="#75a4fe" stroke-miterlimit="10" stroke-width="2.5"/>
  <circle id="Oval" cx="3.5" cy="3.5" r="3.5" transform="translate(110 94)" fill="#fff" stroke="#75a4fe" stroke-miterlimit="10" stroke-width="2.5"/>
  <circle id="Oval-2" data-name="Oval" cx="3.5" cy="3.5" r="3.5" transform="translate(143 94)" fill="#fff" stroke="#75a4fe" stroke-miterlimit="10" stroke-width="2.5"/>
  <path id="Oval-3" data-name="Oval" d="M32-16A16,16,0,0,1,16,0,16,16,0,0,1,0-16" transform="translate(114 117)" fill="none" stroke="#75a4fe" stroke-linecap="round" stroke-miterlimit="10" stroke-width="2.5"/>
  <path id="Path_3" data-name="Path 3" d="M1.061,0,8.168,7.015A1,1,0,0,1,7.95,8.6L0,13" transform="translate(95 66.997)" fill="none" stroke="#75a4fe" stroke-linecap="round" stroke-miterlimit="10" stroke-width="2.5"/>
  <path id="Path_3-2" data-name="Path 3" d="M-1.527,0l-6.8,6.937a1,1,0,0,0,.235,1.578L0,12.931" transform="translate(165.636 67.069)" fill="none" stroke="#75a4fe" stroke-linecap="round" stroke-miterlimit="10" stroke-width="2.5"/>
  <path id="lines" d="M52.1,4.3,41,16.756ZM26,0V0ZM0,4.3,11.1,16.756Z" transform="translate(104 37)" fill="none" stroke="#a4c3fe" stroke-linecap="round" stroke-linejoin="round" stroke-miterlimit="10" stroke-width="2.5"/>
</svg>
