<svg xmlns="http://www.w3.org/2000/svg" xmlns:xlink="http://www.w3.org/1999/xlink" width="16" height="16" viewBox="0 0 16 16">
  <defs>
    <clipPath id="clip-Phone">
      <rect width="16" height="16"/>
    </clipPath>
  </defs>
  <g id="Phone" clip-path="url(#clip-Phone)">
    <path id="Path_2711" data-name="Path 2711" d="M46.555,194.667a7.017,7.017,0,1,0,7.018,7.017A7.018,7.018,0,0,0,46.555,194.667Z" transform="translate(-38.537 -193.667)" fill="#29c768"/>
    <path id="Path_2710" data-name="Path 2710" d="M13.057,275.148H8.449a.607.607,0,0,0-.607.607v7.535a.606.606,0,0,0,.607.606h4.608a.605.605,0,0,0,.606-.606v-7.535A.606.606,0,0,0,13.057,275.148Zm-2.3.2a.085.085,0,0,1,0,.17.085.085,0,1,1,0-.17Zm-.318.342h.637a.085.085,0,0,1,0,.17h-.637a.085.085,0,0,1,0-.17Zm-.283.018a.066.066,0,1,1-.066.066A.066.066,0,0,1,10.151,275.713Zm.6,7.875a.424.424,0,1,1,.425-.425A.425.425,0,0,1,10.753,283.588Zm2.162-1.045H8.591v-6.405h4.324Z" transform="translate(-2.842 -271.148)" fill="#fff"/>
  </g>
</svg>
