<svg xmlns="http://www.w3.org/2000/svg" xmlns:xlink="http://www.w3.org/1999/xlink" width="273" height="237" viewBox="0 0 273 237">
  <defs>
    <clipPath id="clip-LOGO">
      <rect width="273" height="237"/>
    </clipPath>
  </defs>
  <g id="LOGO" clip-path="url(#clip-LOGO)">
    <g id="Artboard_3" data-name="Artboard 3" transform="translate(-89.114 -203.67)">
      <g id="Group_1770" data-name="Group 1770" transform="translate(109.114 240.67)">
        <g id="Group_762" data-name="Group 762" transform="translate(0.796 116.762)">
          <g id="Group_760" data-name="Group 760" transform="translate(110.243)">
            <path id="Path_2497" data-name="Path 2497" d="M895.874,728.538v13.953h-5.151V728.538c0-2.844-1.073-4.24-3.166-4.24s-3.113,1.4-3.113,4.24v13.953h-5.151V728.538c0-6.011,3.381-9.177,8.1-9.177a6.684,6.684,0,0,1,5.9,2.9,6.942,6.942,0,0,1,6.01-2.9c4.67,0,8,3.22,8,9.177v13.953h-5.152V728.538c0-2.844-1.019-4.24-3.112-4.24S895.874,725.694,895.874,728.538Z" transform="translate(-785.986 -709.116)" fill="#27a8e0"/>
            <path id="Path_2498" data-name="Path 2498" d="M534.22,742.294a13.322,13.322,0,0,1-5.534-1.224l-.8-.425v-4.95a11.994,11.994,0,0,0,6.332,1.7c2.075,0,3.086-.691,3.086-2.128,0-3.511-9.684-2.235-9.684-9.523,0-4.1,3.352-6.652,7.981-6.652a12.617,12.617,0,0,1,5.215,1.065l.638.371v4.737a12.059,12.059,0,0,0-5.853-1.278q-2.873,0-2.873,1.756c0,1.118,1.49,1.863,3.405,2.554,2.767.8,6.332,2.5,6.279,6.97C542.414,739.58,539.168,742.294,534.22,742.294Z" transform="translate(-527.622 -708.919)" fill="#27a8e0"/>
            <path id="Path_2499" data-name="Path 2499" d="M682.48,742.294a13.32,13.32,0,0,1-5.533-1.224l-.8-.426v-4.949a11.993,11.993,0,0,0,6.332,1.7c2.075,0,3.086-.691,3.086-2.128,0-3.511-9.684-2.235-9.684-9.523,0-4.1,3.352-6.652,7.981-6.652a12.617,12.617,0,0,1,5.215,1.065l.638.371v4.737a12.058,12.058,0,0,0-5.853-1.278q-2.873,0-2.873,1.756c0,1.118,1.49,1.863,3.405,2.554,2.767.8,6.332,2.5,6.279,6.97C690.675,739.58,687.43,742.294,682.48,742.294Z" transform="translate(-636.546 -708.919)" fill="#27a8e0"/>
            <path id="Path_2500" data-name="Path 2500" d="M747.9,709.137l3.426,4.985h-4.51c-5.255,0-8.939-2.6-8.939-9.265V680.747l5.147,4.112v6.182h4.443l4.112,4.985h-8.554v8.83c0,2.873,1.247,4.279,3.792,4.279Z" transform="translate(-682.093 -680.747)" fill="#27a8e0"/>
            <path id="Path_2501" data-name="Path 2501" d="M605.757,731.462V719.093l5.164,4.082v21.518c0,6.722-3.978,10.809-9.789,10.809a10.272,10.272,0,0,1-7.368-2.85,10.127,10.127,0,0,1-2.958-7.423h5.163c.053,3.067,1.829,5.594,5.056,5.594,3.066,0,4.733-2.313,4.733-6.131v-3.927a8.558,8.558,0,0,1-5.109,1.507,8.98,8.98,0,0,1-6.562-2.742c-1.775-1.884-2.689-4.572-2.689-8.068V719.093l5.164,4.082v8.288c0,3.874,1.829,5.864,4.625,5.864C603.929,737.322,605.757,735.389,605.757,731.462Z" transform="translate(-574.042 -708.919)" fill="#27a8e0"/>
            <path id="Path_2502" data-name="Path 2502" d="M806.857,734.653h-.006l-.276.767a6.448,6.448,0,0,1-11.09.39l16.33-4.34c-.439-2.07-.9-6.531-5.7-9.2a10.569,10.569,0,0,0-8.186-.916,11.251,11.251,0,0,0-8.017,13.752,11.083,11.083,0,0,0,13.738,7.967,11.68,11.68,0,0,0,6.321-4.292,13.324,13.324,0,0,0,1.323-2.644c.234-.643.379-1.114.474-1.486ZM794.4,731.519a5.942,5.942,0,0,1,4.739-5.631c2.937-.784,5.843.524,6.811,2.56Z" transform="translate(-720.023 -710.259)" fill="#27a8e0"/>
          </g>
          <g id="Group_761" data-name="Group 761" transform="translate(0 0.79)">
            <path id="Path_2503" data-name="Path 2503" d="M305.581,684.643a3.161,3.161,0,1,1,0,4.47A3.18,3.18,0,0,1,305.581,684.643Zm-.318,31.878V693.85l5.109,4.038v18.63Z" transform="translate(-253.576 -683.724)" fill="#27a8e0"/>
            <path id="Path_2504" data-name="Path 2504" d="M351.259,743.433h-5.11V731.192c0-3.616.958-6.279,2.821-8.036a10.047,10.047,0,0,1,13.622,0c1.916,1.756,2.874,4.47,2.874,8.036v12.241h-5.109V731.192c0-3.778-1.808-5.8-4.577-5.8s-4.521,1.969-4.521,5.8Z" transform="translate(-284.055 -710.739)" fill="#27a8e0"/>
            <path id="Path_2505" data-name="Path 2505" d="M212.224,722.5a11.629,11.629,0,0,1,16.445,16.446,11.761,11.761,0,0,1-16.445,0,11.629,11.629,0,0,1,0-16.446Zm1.7,8.2a6.711,6.711,0,0,0,1.862,4.844,6.51,6.51,0,0,0,4.683,1.862,6.3,6.3,0,0,0,4.63-1.862,6.537,6.537,0,0,0,1.916-4.844A6.333,6.333,0,0,0,225.1,725.9a6.144,6.144,0,0,0-4.63-1.916,6.344,6.344,0,0,0-4.683,1.916,6.5,6.5,0,0,0-1.863,4.784Z" transform="translate(-183.159 -709.705)" fill="#27a8e0"/>
            <path id="Path_2506" data-name="Path 2506" d="M117.225,740.823v14.634l-5.11-3.366V731.457a11.074,11.074,0,0,1,3.459-8.623,11.875,11.875,0,0,1,8.2-3.14,11.628,11.628,0,0,1,11.654,11.6,11.451,11.451,0,0,1-11.654,11.6,11.01,11.01,0,0,1-5.8-1.544Zm6.545-16.232a6.509,6.509,0,1,0,4.7,1.962,6.448,6.448,0,0,0-4.7-1.962Z" transform="translate(-112.115 -710.148)" fill="#27a8e0"/>
            <path id="Path_2507" data-name="Path 2507" d="M452.87,711.614l3.366,4.9H451.8c-5.162,0-8.781-2.555-8.781-9.1V683.728l5.056,4.038v6.072h4.364l4.038,4.9h-8.4v8.673c0,2.821,1.224,4.2,3.725,4.2Z" transform="translate(-355.226 -683.727)" fill="#27a8e0"/>
          </g>
        </g>
        <g id="Group_759" data-name="Group 759">
          <g id="Group_757" data-name="Group 757">
            <path id="Path_2487" data-name="Path 2487" d="M436.894,359.026l25.44,17V363.1l-18.658-12.472Z" transform="translate(-349.927 -321.454)" fill="#1e76ba"/>
            <path id="Path_2488" data-name="Path 2488" d="M485.774,262.186,503.149,273.8V240.67Z" transform="translate(-385.838 -240.67)" fill="#1e76ba"/>
            <path id="Path_2489" data-name="Path 2489" d="M144.125,556.756l-35.011,6.378H210.26l-46.3-30.941Z" transform="translate(-109.114 -454.846)" fill="#1e76ba"/>
            <path id="Path_2490" data-name="Path 2490" d="M388.023,419.551l38.407,25.667V432.292L394.8,411.156Z" transform="translate(-314.022 -365.922)" fill="#1e76ba"/>
            <path id="Path_2491" data-name="Path 2491" d="M339.147,480.077l51.374,34.333V501.481l-44.593-29.8Z" transform="translate(-278.114 -410.389)" fill="#1e76ba"/>
          </g>
          <g id="Group_758" data-name="Group 758" transform="translate(117.312)">
            <path id="Path_2492" data-name="Path 2492" d="M569.742,376.028l25.441-17-6.78-8.4L569.743,363.1Z" transform="translate(-564.839 -321.454)" fill="#27a8e0"/>
            <path id="Path_2493" data-name="Path 2493" d="M551.262,240.67V273.8l17.377-11.613Z" transform="translate(-551.262 -240.67)" fill="#27a8e0"/>
            <path id="Path_2494" data-name="Path 2494" d="M569.742,445.218l38.409-25.667-6.781-8.4-31.628,21.136Z" transform="translate(-564.839 -365.922)" fill="#27a8e0"/>
            <path id="Path_2495" data-name="Path 2495" d="M614.338,471.681l-44.6,29.8v12.929l51.376-34.333Z" transform="translate(-564.839 -410.389)" fill="#27a8e0"/>
            <path id="Path_2496" data-name="Path 2496" d="M678.573,557.074l-20.086-24.88-46.3,30.941h99.682Z" transform="translate(-596.021 -454.846)" fill="#27a8e0"/>
          </g>
        </g>
      </g>
    </g>
  </g>
</svg>
