<?xml version="1.0" encoding="utf-8"?>
<!-- Generator: Adobe Illustrator 19.0.0, SVG Export Plug-In . SVG Version: 6.00 Build 0)  -->
<svg version="1.1" id="Layer_1" xmlns="http://www.w3.org/2000/svg" xmlns:xlink="http://www.w3.org/1999/xlink" x="0px" y="0px"
	 viewBox="-187 310.9 220 220" style="enable-background:new -187 310.9 220 220;" xml:space="preserve">
<style type="text/css">
	.st0{clip-path:url(#SVGID_2_);}
	.st1{fill:#CCCCCC;}
	.st2{fill:#472500;}
	.st3{fill:#7A3D06;}
	.st4{fill:#BA640D;}
	.st5{fill:#C47D2F;}
	.st6{fill:url(#Path_328_1_);}
	.st7{fill:url(#Path_329_1_);}
	.st8{fill:none;stroke:#7A3D06;}
	.st9{fill:#5E6353;}
	.st10{fill:url(#Path_328-2_1_);}
	.st11{fill:url(#Path_329-2_1_);}
	.st12{fill:url(#Path_436_1_);}
	.st13{fill:url(#Path_821_1_);}
	.st14{fill:url(#Path_816_1_);}
	.st15{fill:url(#Path_448_1_);}
	.st16{fill:url(#Path_822_1_);}
	.st17{fill:url(#Path_817_1_);}
	.st18{fill:url(#Path_449_1_);}
	.st19{fill:url(#Path_823_1_);}
	.st20{fill:url(#Path_818_1_);}
	.st21{fill:url(#Path_454_1_);}
	.st22{fill:url(#Path_824_1_);}
	.st23{fill:url(#Path_819_1_);}
	.st24{fill:url(#Path_441_1_);}
	.st25{fill:url(#Path_825_1_);}
	.st26{fill:url(#Path_820_1_);}
	.st27{fill:url(#Path_435_1_);}
	.st28{fill:url(#Subtraction_74_1_);}
	.st29{fill:url(#Subtraction_79_1_);}
	.st30{fill:#854406;}
	.st31{fill:url(#Subtraction_81_1_);}
	.st32{fill:url(#Subtraction_77_1_);}
	.st33{fill:url(#Subtraction_74-2_1_);}
	.st34{fill:url(#Subtraction_79-2_1_);}
	.st35{fill:url(#Subtraction_81-2_1_);}
	.st36{fill:url(#Subtraction_77-2_1_);}
	.st37{fill:url(#Subtraction_74-3_1_);}
	.st38{fill:url(#Subtraction_79-3_1_);}
	.st39{fill:url(#Subtraction_81-3_1_);}
	.st40{fill:url(#Subtraction_77-3_1_);}
	.st41{fill:url(#Path_436-2_1_);}
	.st42{fill:url(#Path_821-2_1_);}
	.st43{fill:url(#Path_816-2_1_);}
	.st44{fill:url(#Path_448-2_1_);}
	.st45{fill:url(#Path_822-2_1_);}
	.st46{fill:url(#Path_817-2_1_);}
	.st47{fill:url(#Path_449-2_1_);}
	.st48{fill:url(#Path_823-2_1_);}
	.st49{fill:url(#Path_818-2_1_);}
	.st50{fill:url(#Path_454-2_1_);}
	.st51{fill:url(#Path_824-2_1_);}
	.st52{fill:url(#Path_819-2_1_);}
	.st53{fill:url(#Path_441-2_1_);}
	.st54{fill:url(#Path_825-2_1_);}
	.st55{fill:url(#Path_820-2_1_);}
	.st56{fill:url(#Path_435-2_1_);}
	.st57{fill:url(#Subtraction_74-4_1_);}
	.st58{fill:url(#Subtraction_79-4_1_);}
	.st59{fill:url(#Subtraction_81-4_1_);}
	.st60{fill:url(#Subtraction_77-4_1_);}
	.st61{fill:url(#Subtraction_74-5_1_);}
	.st62{fill:url(#Subtraction_79-5_1_);}
	.st63{fill:url(#Subtraction_81-5_1_);}
	.st64{fill:url(#Subtraction_77-5_1_);}
	.st65{fill:url(#Subtraction_74-6_1_);}
	.st66{fill:url(#Subtraction_79-6_1_);}
	.st67{fill:url(#Subtraction_81-6_1_);}
	.st68{fill:url(#Subtraction_77-6_1_);}
	.st69{fill:#5E3202;}
	.st70{fill:#A65806;}
	.st71{fill:url(#Path_320_1_);}
	.st72{fill:url(#Path_321_1_);}
	.st73{fill:#C47D2F;stroke:#81460A;}
	.st74{fill:url(#Path_320-2_1_);}
	.st75{fill:url(#Path_321-2_1_);}
	.st76{fill:#987A5E;}
	.st77{fill:url(#Path_436-3_1_);}
	.st78{fill:url(#Path_821-3_1_);}
	.st79{fill:url(#Path_816-3_1_);}
	.st80{fill:url(#Path_448-3_1_);}
	.st81{fill:url(#Path_822-3_1_);}
	.st82{fill:url(#Path_817-3_1_);}
	.st83{fill:url(#Path_449-3_1_);}
	.st84{fill:url(#Path_823-3_1_);}
	.st85{fill:url(#Path_818-3_1_);}
	.st86{fill:url(#Path_454-3_1_);}
	.st87{fill:url(#Path_824-3_1_);}
	.st88{fill:url(#Path_819-3_1_);}
	.st89{fill:url(#Path_441-3_1_);}
	.st90{fill:url(#Path_825-3_1_);}
	.st91{fill:url(#Path_820-3_1_);}
	.st92{fill:url(#Path_435-3_1_);}
	.st93{fill:url(#Subtraction_74-7_1_);}
	.st94{fill:url(#Subtraction_79-7_1_);}
	.st95{fill:url(#Subtraction_81-7_1_);}
	.st96{fill:url(#Subtraction_77-7_1_);}
	.st97{fill:url(#Subtraction_74-8_1_);}
	.st98{fill:url(#Subtraction_79-8_1_);}
	.st99{fill:url(#Subtraction_81-8_1_);}
	.st100{fill:url(#Subtraction_77-8_1_);}
	.st101{fill:url(#Subtraction_74-9_1_);}
	.st102{fill:url(#Subtraction_79-9_1_);}
	.st103{fill:url(#Subtraction_81-9_1_);}
	.st104{fill:url(#Subtraction_77-9_1_);}
	.st105{fill:#D92F2E;}
	.st106{fill:#9E100F;}
	.st107{fill:#AE0E0D;}
	.st108{fill:none;stroke:#FFFFFF;}
	.st109{fill:none;stroke:#81460A;}
	.st110{fill:#81460A;}
	.st111{fill:none;stroke:#707070;}
	.st112{fill:#A55705;}
	.st113{fill:#793C05;}
</style>
<g>
	<defs>
		<rect id="SVGID_1_" x="-187" y="310.9" width="220" height="220"/>
	</defs>
	<clipPath id="SVGID_2_">
		<use xlink:href="#SVGID_1_"  style="overflow:visible;"/>
	</clipPath>
	<g id="_8_red" class="st0">
		<g id="Group_551" transform="translate(-0.217)">
			<g id="Group_283" transform="translate(-7224.998 -6300.048)">
				<path id="Path_307" class="st1" d="M7196.4,6706.8l-33,18.6l-33-19.4l33-18.2L7196.4,6706.8z"/>
				<path id="Path_280" class="st2" d="M7186.5,6678.6l3.4-1.7l0.1,30.7l-3.5-1.5L7186.5,6678.6z"/>
				<path id="Path_282" class="st3" d="M7140.1,6678.8v25.9l-2.5,1.5l-0.4-28.7L7140.1,6678.8z"/>
				<path id="Subtraction_110" class="st4" d="M7190.1,6674.1L7190.1,6674.1l-22.7-12.4l19.4,10.5c0-0.1,0.5-14.7,0.5-26.7
					c-0.2-1.8-4.5-5.1-8.7-7.6c-4.1-2.4-9.6-5-12.9-5c-0.5,0-0.9,0.1-1.4,0.2c0.5,9.1-0.4,25.9-0.4,26.6l-3.2-1.8l0-34.1h0
					c4.1,0.8,8.1,2.1,11.9,3.6c3.4,1.3,6.7,3.1,9.8,5.1c3.1,2,5.7,4.7,7.7,7.9C7191.1,6653,7190.1,6673.9,7190.1,6674.1
					L7190.1,6674.1z"/>
				<path id="Path_271" class="st5" d="M7134.8,6672.7l25.9-14.7l29.4,16.1l-26.8,15.7L7134.8,6672.7z"/>
				<path id="Path_279" class="st3" d="M7163.1,6723l0.1-33.5l26.9-15.4v-33.6l2.6-1.1l0.1,67.3l-2.8,1.1l-0.2-30.5l-23.9,14
					l-0.3,30.5L7163.1,6723z"/>
				<path id="Path_281" class="st4" d="M7139.7,6679.1l20.8,12.4v30.2l2.7,1.3l0.1-33.5l-28.4-16.8l-0.3,32.4c0,0,3,0.9,3.1,1.1
					s-0.3-28.5-0.3-28.5L7139.7,6679.1z"/>
				<path id="Path_283" class="st5" d="M7163.2,6622.9c10,0,26,10.3,29.5,16.4c-0.8,0.5-1.7,0.9-2.6,1.1
					c-7.2-10.8-23.6-15.5-29.4-16.6C7161.5,6623.5,7162.4,6623.2,7163.2,6622.9z"/>
				<path id="Path_326" class="st3" d="M7165.1,6660.5l0.6-27.5c-0.5,0-0.9,0.1-1.4,0.2c-0.4,6.7-0.4,26.7-0.4,26.7L7165.1,6660.5z"
					/>
				
					<linearGradient id="Path_328_1_" gradientUnits="userSpaceOnUse" x1="6860.249" y1="7121.8989" x2="6859.8159" y2="7121.9609" gradientTransform="matrix(22.0552 0 0 -16.0137 -144126.5 120703.9922)">
					<stop  offset="0" style="stop-color:#BA640D"/>
					<stop  offset="1" style="stop-color:#7A3D06"/>
				</linearGradient>
				<path id="Path_328" class="st6" d="M7187.3,6659.7c-4.2-3.7-14.1-10.5-22.1-11.6c0.1,2.1,0,2.5,0,3.6c5,1.5,14.8,5.6,22.1,12.4
					V6659.7z"/>
				
					<linearGradient id="Path_329_1_" gradientUnits="userSpaceOnUse" x1="6860.249" y1="7121.8989" x2="6859.8159" y2="7121.9609" gradientTransform="matrix(22.0552 0 0 -16.0137 -144126.5 120694.9922)">
					<stop  offset="0" style="stop-color:#BA640D"/>
					<stop  offset="1" style="stop-color:#7A3D06"/>
				</linearGradient>
				<path id="Path_329" class="st7" d="M7187.3,6650.7c-4.2-3.7-14.1-10.5-22.1-11.6c0.1,2.1,0,2.5,0,3.6c5,1.5,14.8,5.6,22.1,12.4
					V6650.7z"/>
				<path id="Path_547" class="st8" d="M7140.1,6672.9l21-11.9l23.8,13l-21.7,12.7L7140.1,6672.9z"/>
			</g>
			<g id="Group_284" transform="translate(-7186.998 -6279.048)">
				<path id="Path_307-2" class="st9" d="M7196.4,6706.8l-33,18.6l-33-19.4l33-18.2L7196.4,6706.8z"/>
				<path id="Path_280-2" class="st2" d="M7186.5,6678.6l3.4-1.7l0.1,30.7l-3.5-1.5L7186.5,6678.6z"/>
				<path id="Path_282-2" class="st3" d="M7140.1,6678.8v25.9l-2.5,1.5l-0.4-28.7L7140.1,6678.8z"/>
				<path id="Subtraction_109" class="st4" d="M7190.1,6674.1L7190.1,6674.1l-22.8-12.4l19.5,10.6c0-0.1,0.5-14.7,0.5-26.7
					c-0.2-1.8-4.5-5.1-8.7-7.6c-4.1-2.4-9.6-5-12.9-5c-0.5,0-0.9,0.1-1.4,0.2c0.5,9.1-0.4,25.9-0.4,26.6l-3.2-1.8l0-34.1h0
					c4.1,0.8,8.1,2.1,11.9,3.6c3.4,1.3,6.7,3.1,9.8,5.1c3.1,2,5.7,4.7,7.7,7.9C7191.1,6653,7190.1,6673.9,7190.1,6674.1
					L7190.1,6674.1z"/>
				<path id="Path_271-2" class="st5" d="M7134.8,6672.7l25.9-14.7l29.4,16.1l-26.8,15.7L7134.8,6672.7z"/>
				<path id="Path_279-2" class="st3" d="M7163.1,6723l0.1-33.5l26.9-15.4v-33.6l2.6-1.1l0.1,67.3l-2.8,1.1l-0.2-30.5l-23.9,14
					l-0.3,30.5L7163.1,6723z"/>
				<path id="Path_281-2" class="st4" d="M7140.7,6679.1l20.8,12.4v30.2l2.7,1.3l0.1-33.5l-28.4-16.8l-0.3,32.4c0,0,3,0.9,3.1,1.1
					s-0.3-28.5-0.3-28.5L7140.7,6679.1z"/>
				<path id="Path_283-2" class="st5" d="M7163.2,6622.9c10,0,26,10.3,29.5,16.4c-0.8,0.5-1.7,0.9-2.6,1.1
					c-7.2-10.8-23.6-15.5-29.4-16.6C7161.5,6623.5,7162.4,6623.2,7163.2,6622.9z"/>
				<path id="Path_326-2" class="st3" d="M7165.1,6660.5l0.6-27.5c-0.5,0-0.9,0.1-1.4,0.2c-0.4,6.7-0.4,26.7-0.4,26.7L7165.1,6660.5
					z"/>
				
					<linearGradient id="Path_328-2_1_" gradientUnits="userSpaceOnUse" x1="6822.249" y1="7100.8989" x2="6821.8159" y2="7100.9609" gradientTransform="matrix(22.0552 0 0 -16.0137 -143288.4063 120367.7031)">
					<stop  offset="0" style="stop-color:#BA640D"/>
					<stop  offset="1" style="stop-color:#7A3D06"/>
				</linearGradient>
				<path id="Path_328-2" class="st10" d="M7187.3,6659.7c-4.2-3.7-14.1-10.5-22.1-11.6c0.1,2.1,0,2.5,0,3.6
					c5,1.5,14.8,5.6,22.1,12.4V6659.7z"/>
				
					<linearGradient id="Path_329-2_1_" gradientUnits="userSpaceOnUse" x1="6822.249" y1="7100.8989" x2="6821.8159" y2="7100.9609" gradientTransform="matrix(22.0552 0 0 -16.0137 -143288.4063 120358.7031)">
					<stop  offset="0" style="stop-color:#BA640D"/>
					<stop  offset="1" style="stop-color:#7A3D06"/>
				</linearGradient>
				<path id="Path_329-2" class="st11" d="M7187.3,6650.7c-4.2-3.7-14.1-10.5-22.1-11.6c0.1,2.1,0,2.5,0,3.6
					c5,1.5,14.8,5.6,22.1,12.4V6650.7z"/>
				<path id="Path_547-2" class="st8" d="M7140.1,6672.9l21-11.9l23.8,13l-21.7,12.7L7140.1,6672.9z"/>
			</g>
			<path id="Path_555" class="st9" d="M-65.5,489.8l-102.2-58.7l53.6-31.6l106.6,58.3L-65.5,489.8z"/>
			<g id="Group_546" transform="translate(-16 -319)">
				
					<linearGradient id="Path_436_1_" gradientUnits="userSpaceOnUse" x1="-341.0197" y1="1088.266" x2="-341.5887" y2="1088.264" gradientTransform="matrix(11.863 0 0 -4.3185 4002.3896 5476.3911)">
					<stop  offset="0" style="stop-color:#7A3D06"/>
					<stop  offset="1" style="stop-color:#A65806"/>
				</linearGradient>
				<path id="Path_436" class="st12" d="M-51,774.6h4c2.2,0,4,1,4,2.2c0,0.8-0.7,1.5-2.4,2c-0.5,0.1-1,0.2-1.5,0.2h-4
					c-2.2,0-4-1-4-2.2S-53.2,774.6-51,774.6z"/>
				
					<linearGradient id="Path_821_1_" gradientUnits="userSpaceOnUse" x1="-341.0197" y1="1088.266" x2="-341.5887" y2="1088.264" gradientTransform="matrix(11.863 0 0 -4.3185 4002.3896 5457.3911)">
					<stop  offset="0" style="stop-color:#7A3D06"/>
					<stop  offset="1" style="stop-color:#A65806"/>
				</linearGradient>
				<path id="Path_821" class="st13" d="M-51,755.6h4c2.2,0,4,1,4,2.2c0,0.8-0.7,1.5-2.4,2c-0.5,0.1-1,0.2-1.5,0.2h-4
					c-2.2,0-4-1-4-2.2S-53.2,755.6-51,755.6z"/>
				
					<linearGradient id="Path_816_1_" gradientUnits="userSpaceOnUse" x1="-341.0197" y1="1088.266" x2="-341.5887" y2="1088.264" gradientTransform="matrix(11.863 0 0 -4.3185 4002.3896 5498.3911)">
					<stop  offset="0" style="stop-color:#7A3D06"/>
					<stop  offset="1" style="stop-color:#A65806"/>
				</linearGradient>
				<path id="Path_816" class="st14" d="M-51,796.6h4c2.2,0,4,1,4,2.2c0,0.8-0.7,1.5-2.4,2c-0.5,0.1-1,0.2-1.5,0.2h-4
					c-2.2,0-4-1-4-2.2S-53.2,796.6-51,796.6z"/>
				
					<linearGradient id="Path_448_1_" gradientUnits="userSpaceOnUse" x1="-341.0197" y1="1088.266" x2="-341.5887" y2="1088.264" gradientTransform="matrix(11.863 0 0 -4.3185 4002.3896 5478.3003)">
					<stop  offset="0" style="stop-color:#7A3D06"/>
					<stop  offset="1" style="stop-color:#A65806"/>
				</linearGradient>
				<path id="Path_448" class="st15" d="M-51,776.5h4c2.2,0,4,1,4,2.2c0,0.8-0.7,1.5-2.4,2c-0.5,0.1-1,0.2-1.5,0.2h-4
					c-2.2,0-4-1-4-2.2S-53.2,776.5-51,776.5z"/>
				
					<linearGradient id="Path_822_1_" gradientUnits="userSpaceOnUse" x1="-341.0197" y1="1088.266" x2="-341.5887" y2="1088.264" gradientTransform="matrix(11.863 0 0 -4.3185 4002.3896 5459.3003)">
					<stop  offset="0" style="stop-color:#7A3D06"/>
					<stop  offset="1" style="stop-color:#A65806"/>
				</linearGradient>
				<path id="Path_822" class="st16" d="M-51,757.5h4c2.2,0,4,1,4,2.2c0,0.8-0.7,1.5-2.4,2c-0.5,0.1-1,0.2-1.5,0.2h-4
					c-2.2,0-4-1-4-2.2S-53.2,757.5-51,757.5z"/>
				
					<linearGradient id="Path_817_1_" gradientUnits="userSpaceOnUse" x1="-341.0197" y1="1088.266" x2="-341.5887" y2="1088.264" gradientTransform="matrix(11.863 0 0 -4.3185 4002.3896 5500.3003)">
					<stop  offset="0" style="stop-color:#7A3D06"/>
					<stop  offset="1" style="stop-color:#A65806"/>
				</linearGradient>
				<path id="Path_817" class="st17" d="M-51,798.5h4c2.2,0,4,1,4,2.2c0,0.8-0.7,1.5-2.4,2c-0.5,0.1-1,0.2-1.5,0.2h-4
					c-2.2,0-4-1-4-2.2S-53.2,798.5-51,798.5z"/>
				
					<linearGradient id="Path_449_1_" gradientUnits="userSpaceOnUse" x1="-341.0197" y1="1088.266" x2="-341.5887" y2="1088.264" gradientTransform="matrix(11.863 0 0 -4.3185 4002.3896 5478.3003)">
					<stop  offset="0" style="stop-color:#7A3D06"/>
					<stop  offset="1" style="stop-color:#A65806"/>
				</linearGradient>
				<path id="Path_449" class="st18" d="M-51,776.5h4c2.2,0,4,1,4,2.2c0,0.8-0.7,1.5-2.4,2c-0.5,0.1-1,0.2-1.5,0.2h-4
					c-2.2,0-4-1-4-2.2S-53.2,776.5-51,776.5z"/>
				
					<linearGradient id="Path_823_1_" gradientUnits="userSpaceOnUse" x1="-341.0197" y1="1088.266" x2="-341.5887" y2="1088.264" gradientTransform="matrix(11.863 0 0 -4.3185 4002.3896 5459.3003)">
					<stop  offset="0" style="stop-color:#7A3D06"/>
					<stop  offset="1" style="stop-color:#A65806"/>
				</linearGradient>
				<path id="Path_823" class="st19" d="M-51,757.5h4c2.2,0,4,1,4,2.2c0,0.8-0.7,1.5-2.4,2c-0.5,0.1-1,0.2-1.5,0.2h-4
					c-2.2,0-4-1-4-2.2S-53.2,757.5-51,757.5z"/>
				
					<linearGradient id="Path_818_1_" gradientUnits="userSpaceOnUse" x1="-341.0197" y1="1088.266" x2="-341.5887" y2="1088.264" gradientTransform="matrix(11.863 0 0 -4.3185 4002.3896 5500.3003)">
					<stop  offset="0" style="stop-color:#7A3D06"/>
					<stop  offset="1" style="stop-color:#A65806"/>
				</linearGradient>
				<path id="Path_818" class="st20" d="M-51,798.5h4c2.2,0,4,1,4,2.2c0,0.8-0.7,1.5-2.4,2c-0.5,0.1-1,0.2-1.5,0.2h-4
					c-2.2,0-4-1-4-2.2S-53.2,798.5-51,798.5z"/>
				
					<linearGradient id="Path_454_1_" gradientUnits="userSpaceOnUse" x1="-341.0197" y1="1088.266" x2="-341.5887" y2="1088.264" gradientTransform="matrix(11.863 0 0 -4.3185 4002.3896 5479.2544)">
					<stop  offset="0" style="stop-color:#7A3D06"/>
					<stop  offset="1" style="stop-color:#A65806"/>
				</linearGradient>
				<path id="Path_454" class="st21" d="M-51,777.4h4c2.2,0,4,1,4,2.2c0,0.8-0.7,1.5-2.4,2c-0.5,0.1-1,0.2-1.5,0.2h-4
					c-2.2,0-4-1-4-2.2C-55,778.4-53.2,777.4-51,777.4z"/>
				
					<linearGradient id="Path_824_1_" gradientUnits="userSpaceOnUse" x1="-341.0197" y1="1088.266" x2="-341.5887" y2="1088.264" gradientTransform="matrix(11.863 0 0 -4.3185 4002.3896 5460.2544)">
					<stop  offset="0" style="stop-color:#7A3D06"/>
					<stop  offset="1" style="stop-color:#A65806"/>
				</linearGradient>
				<path id="Path_824" class="st22" d="M-51,758.4h4c2.2,0,4,1,4,2.2c0,0.8-0.7,1.5-2.4,2c-0.5,0.1-1,0.2-1.5,0.2h-4
					c-2.2,0-4-1-4-2.2C-55,759.4-53.2,758.4-51,758.4z"/>
				
					<linearGradient id="Path_819_1_" gradientUnits="userSpaceOnUse" x1="-341.0197" y1="1088.266" x2="-341.5887" y2="1088.264" gradientTransform="matrix(11.863 0 0 -4.3185 4002.3896 5501.2544)">
					<stop  offset="0" style="stop-color:#7A3D06"/>
					<stop  offset="1" style="stop-color:#A65806"/>
				</linearGradient>
				<path id="Path_819" class="st23" d="M-51,799.4h4c2.2,0,4,1,4,2.2c0,0.8-0.7,1.5-2.4,2c-0.5,0.1-1,0.2-1.5,0.2h-4
					c-2.2,0-4-1-4-2.2C-55,800.4-53.2,799.4-51,799.4z"/>
				
					<linearGradient id="Path_441_1_" gradientUnits="userSpaceOnUse" x1="-341.0197" y1="1088.266" x2="-341.5887" y2="1088.264" gradientTransform="matrix(11.863 0 0 -4.3185 4002.3896 5477.3452)">
					<stop  offset="0" style="stop-color:#7A3D06"/>
					<stop  offset="1" style="stop-color:#A65806"/>
				</linearGradient>
				<path id="Path_441" class="st24" d="M-51,775.5h4c2.2,0,4,1,4,2.2c0,0.8-0.7,1.5-2.4,2c-0.5,0.1-1,0.2-1.5,0.2h-4
					c-2.2,0-4-1-4-2.2C-55,776.5-53.2,775.5-51,775.5z"/>
				
					<linearGradient id="Path_825_1_" gradientUnits="userSpaceOnUse" x1="-341.0197" y1="1088.266" x2="-341.5887" y2="1088.264" gradientTransform="matrix(11.863 0 0 -4.3185 4002.3896 5458.3452)">
					<stop  offset="0" style="stop-color:#7A3D06"/>
					<stop  offset="1" style="stop-color:#A65806"/>
				</linearGradient>
				<path id="Path_825" class="st25" d="M-51,756.5h4c2.2,0,4,1,4,2.2c0,0.8-0.7,1.5-2.4,2c-0.5,0.1-1,0.2-1.5,0.2h-4
					c-2.2,0-4-1-4-2.2C-55,757.5-53.2,756.5-51,756.5z"/>
				
					<linearGradient id="Path_820_1_" gradientUnits="userSpaceOnUse" x1="-341.0197" y1="1088.266" x2="-341.5887" y2="1088.264" gradientTransform="matrix(11.863 0 0 -4.3185 4002.3896 5499.3452)">
					<stop  offset="0" style="stop-color:#7A3D06"/>
					<stop  offset="1" style="stop-color:#A65806"/>
				</linearGradient>
				<path id="Path_820" class="st26" d="M-51,797.5h4c2.2,0,4,1,4,2.2c0,0.8-0.7,1.5-2.4,2c-0.5,0.1-1,0.2-1.5,0.2h-4
					c-2.2,0-4-1-4-2.2C-55,798.5-53.2,797.5-51,797.5z"/>
				
					<linearGradient id="Path_435_1_" gradientUnits="userSpaceOnUse" x1="-334.2533" y1="1153.2112" x2="-334.8223" y2="1153.2092" gradientTransform="matrix(8.3 0 0 -43.985 2729.3149 51503.7461)">
					<stop  offset="0" style="stop-color:#7A3D06"/>
					<stop  offset="1" style="stop-color:#A65806"/>
				</linearGradient>
				<path id="Path_435" class="st27" d="M-53.3,757.8h8.3v44h-8.3V757.8z"/>
				<g id="Group_452" transform="translate(-1 -1)">
					
						<linearGradient id="Subtraction_74_1_" gradientUnits="userSpaceOnUse" x1="-340.022" y1="1028.0911" x2="-340.591" y2="1028.089" gradientTransform="matrix(11.864 0 0 -2.335 3991.8833 3177.6733)">
						<stop  offset="0" style="stop-color:#7A3D06"/>
						<stop  offset="1" style="stop-color:#A65806"/>
					</linearGradient>
					<path id="Subtraction_74" class="st28" d="M-53.9,778.3L-53.9,778.3c-0.1-0.2-0.1-0.3-0.1-0.5c0-0.7,0.6-1.4,1.7-1.8v0.9h0.2
						C-52.8,777.1-53.5,777.6-53.9,778.3L-53.9,778.3z M-42.2,778.2L-42.2,778.2c-0.4-0.7-1.1-1.2-1.8-1.4h0.1v-1
						c1.2,0.4,1.9,1.1,1.9,1.8C-42.1,777.9-42.2,778.1-42.2,778.2L-42.2,778.2z"/>
					
						<linearGradient id="Subtraction_79_1_" gradientUnits="userSpaceOnUse" x1="-340.0201" y1="1044.6484" x2="-340.5891" y2="1044.6465" gradientTransform="matrix(11.863 0 0 -2.6665 3991.5266 3565.0034)">
						<stop  offset="0" style="stop-color:#7A3D06"/>
						<stop  offset="1" style="stop-color:#A65806"/>
					</linearGradient>
					<path id="Subtraction_79" class="st29" d="M-46.1,780.8h-4c-2.2,0-4-1-4-2.2c0-0.2,0-0.3,0.1-0.5c0.4,1,2,1.7,3.8,1.7h4
						c0.5,0,1,0,1.5-0.2c0.9-0.2,1.8-0.7,2.3-1.5c0.1,0.2,0.1,0.3,0.1,0.5c0,0.8-0.8,1.5-2.4,2C-45,780.8-45.6,780.8-46.1,780.8z"/>
					<path id="Subtraction_83" class="st30" d="M-46.1,782.7h-4c-2.2,0-4-1-4-2.2c0-0.2,0-0.3,0.1-0.5c0.4,1,2,1.7,3.8,1.7h4
						c0.5,0,1,0,1.5-0.2c0.9-0.2,1.8-0.7,2.3-1.5c0.1,0.2,0.1,0.3,0.1,0.5c0,0.8-0.8,1.5-2.4,2C-45,782.7-45.6,782.7-46.1,782.7z"/>
					
						<linearGradient id="Subtraction_81_1_" gradientUnits="userSpaceOnUse" x1="-340.0201" y1="1044.6484" x2="-340.5891" y2="1044.6465" gradientTransform="matrix(11.863 0 0 -2.6665 3991.5266 3565.9595)">
						<stop  offset="0" style="stop-color:#7A3D06"/>
						<stop  offset="1" style="stop-color:#A65806"/>
					</linearGradient>
					<path id="Subtraction_81" class="st31" d="M-46.1,781.7h-4c-2.2,0-4-1-4-2.2c0-0.2,0-0.3,0.1-0.5c0.4,1,2,1.7,3.8,1.7h4
						c0.5,0,1,0,1.5-0.2c0.9-0.2,1.8-0.7,2.3-1.5c0.1,0.2,0.1,0.3,0.1,0.5c0,0.8-0.8,1.5-2.4,2C-45,781.7-45.6,781.8-46.1,781.7z"/>
					
						<linearGradient id="Subtraction_77_1_" gradientUnits="userSpaceOnUse" x1="-340.0201" y1="1044.6484" x2="-340.5891" y2="1044.6465" gradientTransform="matrix(11.863 0 0 -2.6665 3991.5266 3564.0483)">
						<stop  offset="0" style="stop-color:#7A3D06"/>
						<stop  offset="1" style="stop-color:#A65806"/>
					</linearGradient>
					<path id="Subtraction_77" class="st32" d="M-46.1,779.8h-4c-2.2,0-4-1-4-2.2c0-0.2,0-0.3,0.1-0.5c0.4,1,2,1.7,3.8,1.7h4
						c0.5,0,1,0,1.5-0.2c0.9-0.2,1.8-0.7,2.3-1.5c0.1,0.2,0.1,0.3,0.1,0.5c0,0.8-0.8,1.5-2.4,2C-45,779.8-45.6,779.9-46.1,779.8z"/>
					<path id="Subtraction_78" class="st30" d="M-46.1,779.8h-4c-2.2,0-4-1-4-2.2c0-0.2,0-0.3,0.1-0.5c0.4,1,2,1.7,3.8,1.7h4
						c0.5,0,1,0,1.5-0.2c0.9-0.2,1.8-0.7,2.3-1.5c0.1,0.2,0.1,0.3,0.1,0.5c0,0.8-0.8,1.5-2.4,2C-45,779.8-45.6,779.9-46.1,779.8z"/>
					<path id="Subtraction_82" class="st30" d="M-46.1,781.7h-4c-2.2,0-4-1-4-2.2c0-0.2,0-0.3,0.1-0.5c0.4,1,2,1.7,3.8,1.7h4
						c0.5,0,1,0,1.5-0.2c0.9-0.2,1.8-0.7,2.3-1.5c0.1,0.2,0.1,0.3,0.1,0.5c0,0.8-0.8,1.5-2.4,2C-45,781.7-45.6,781.8-46.1,781.7z"/>
					<path id="Subtraction_80" class="st30" d="M-46.1,780.8h-4c-2.2,0-4-1-4-2.2c0-0.2,0-0.3,0.1-0.5c0.4,1,2,1.7,3.8,1.7h4
						c0.5,0,1,0,1.5-0.2c0.9-0.2,1.8-0.7,2.3-1.5c0.1,0.2,0.1,0.3,0.1,0.5c0,0.8-0.8,1.5-2.4,2C-45,780.8-45.6,780.8-46.1,780.8z"/>
					<path id="Subtraction_75" class="st30" d="M-46.1,778.9h-4c-2.1,0-4-0.1-4-1.3c0-0.3,0.2-0.7,0.5-0.9c1,0.8,2.2,1.2,3.5,1.2h4
						c0.5,0,1,0,1.5-0.2c0.7-0.2,1.4-0.5,2-1c0.1,0.1,0.2,0.3,0.3,0.4c0,0.8-0.5,1.1-2.2,1.6C-45,778.8-45.6,778.9-46.1,778.9z"/>
				</g>
				<g id="Group_454" transform="translate(-1 -20)">
					
						<linearGradient id="Subtraction_74-2_1_" gradientUnits="userSpaceOnUse" x1="-340.022" y1="1047.0911" x2="-340.591" y2="1047.089" gradientTransform="matrix(11.864 0 0 -2.335 3991.8833 3222.0383)">
						<stop  offset="0" style="stop-color:#7A3D06"/>
						<stop  offset="1" style="stop-color:#A65806"/>
					</linearGradient>
					<path id="Subtraction_74-2" class="st33" d="M-53.9,778.3L-53.9,778.3c-0.1-0.2-0.1-0.3-0.1-0.5c0-0.7,0.6-1.4,1.7-1.8v0.9h0.2
						C-52.8,777.1-53.5,777.6-53.9,778.3L-53.9,778.3z M-42.2,778.2L-42.2,778.2c-0.4-0.7-1.1-1.2-1.8-1.4h0.1v-1
						c1.2,0.4,1.9,1.1,1.9,1.8C-42.1,777.9-42.2,778.1-42.2,778.2L-42.2,778.2z"/>
					
						<linearGradient id="Subtraction_79-2_1_" gradientUnits="userSpaceOnUse" x1="-340.0201" y1="1063.6484" x2="-340.5891" y2="1063.6465" gradientTransform="matrix(11.863 0 0 -2.6665 3991.5266 3615.6667)">
						<stop  offset="0" style="stop-color:#7A3D06"/>
						<stop  offset="1" style="stop-color:#A65806"/>
					</linearGradient>
					<path id="Subtraction_79-2" class="st34" d="M-46.1,780.8h-4c-2.2,0-4-1-4-2.2c0-0.2,0-0.3,0.1-0.5c0.4,1,2,1.7,3.8,1.7h4
						c0.5,0,1,0,1.5-0.2c0.9-0.2,1.8-0.7,2.3-1.5c0.1,0.2,0.1,0.3,0.1,0.5c0,0.8-0.8,1.5-2.4,2C-45,780.8-45.6,780.8-46.1,780.8z"/>
					<path id="Subtraction_83-2" class="st30" d="M-46.1,782.7h-4c-2.2,0-4-1-4-2.2c0-0.2,0-0.3,0.1-0.5c0.4,1,2,1.7,3.8,1.7h4
						c0.5,0,1,0,1.5-0.2c0.9-0.2,1.8-0.7,2.3-1.5c0.1,0.2,0.1,0.3,0.1,0.5c0,0.8-0.8,1.5-2.4,2C-45,782.7-45.6,782.7-46.1,782.7z"/>
					
						<linearGradient id="Subtraction_81-2_1_" gradientUnits="userSpaceOnUse" x1="-340.0201" y1="1063.6484" x2="-340.5891" y2="1063.6465" gradientTransform="matrix(11.863 0 0 -2.6665 3991.5266 3616.6228)">
						<stop  offset="0" style="stop-color:#7A3D06"/>
						<stop  offset="1" style="stop-color:#A65806"/>
					</linearGradient>
					<path id="Subtraction_81-2" class="st35" d="M-46.1,781.7h-4c-2.2,0-4-1-4-2.2c0-0.2,0-0.3,0.1-0.5c0.4,1,2,1.7,3.8,1.7h4
						c0.5,0,1,0,1.5-0.2c0.9-0.2,1.8-0.7,2.3-1.5c0.1,0.2,0.1,0.3,0.1,0.5c0,0.8-0.8,1.5-2.4,2C-45,781.7-45.6,781.8-46.1,781.7z"/>
					
						<linearGradient id="Subtraction_77-2_1_" gradientUnits="userSpaceOnUse" x1="-340.0201" y1="1063.6484" x2="-340.5891" y2="1063.6465" gradientTransform="matrix(11.863 0 0 -2.6665 3991.5266 3614.7117)">
						<stop  offset="0" style="stop-color:#7A3D06"/>
						<stop  offset="1" style="stop-color:#A65806"/>
					</linearGradient>
					<path id="Subtraction_77-2" class="st36" d="M-46.1,779.8h-4c-2.2,0-4-1-4-2.2c0-0.2,0-0.3,0.1-0.5c0.4,1,2,1.7,3.8,1.7h4
						c0.5,0,1,0,1.5-0.2c0.9-0.2,1.8-0.7,2.3-1.5c0.1,0.2,0.1,0.3,0.1,0.5c0,0.8-0.8,1.5-2.4,2C-45,779.8-45.6,779.9-46.1,779.8z"/>
					<path id="Subtraction_78-2" class="st30" d="M-46.1,779.8h-4c-2.2,0-4-1-4-2.2c0-0.2,0-0.3,0.1-0.5c0.4,1,2,1.7,3.8,1.7h4
						c0.5,0,1,0,1.5-0.2c0.9-0.2,1.8-0.7,2.3-1.5c0.1,0.2,0.1,0.3,0.1,0.5c0,0.8-0.8,1.5-2.4,2C-45,779.8-45.6,779.9-46.1,779.8z"/>
					<path id="Subtraction_82-2" class="st30" d="M-46.1,781.7h-4c-2.2,0-4-1-4-2.2c0-0.2,0-0.3,0.1-0.5c0.4,1,2,1.7,3.8,1.7h4
						c0.5,0,1,0,1.5-0.2c0.9-0.2,1.8-0.7,2.3-1.5c0.1,0.2,0.1,0.3,0.1,0.5c0,0.8-0.8,1.5-2.4,2C-45,781.7-45.6,781.8-46.1,781.7z"/>
					<path id="Subtraction_80-2" class="st30" d="M-46.1,780.8h-4c-2.2,0-4-1-4-2.2c0-0.2,0-0.3,0.1-0.5c0.4,1,2,1.7,3.8,1.7h4
						c0.5,0,1,0,1.5-0.2c0.9-0.2,1.8-0.7,2.3-1.5c0.1,0.2,0.1,0.3,0.1,0.5c0,0.8-0.8,1.5-2.4,2C-45,780.8-45.6,780.8-46.1,780.8z"/>
					<path id="Subtraction_75-2" class="st30" d="M-46.1,778.9h-4c-2.1,0-4-0.1-4-1.3c0-0.3,0.2-0.7,0.5-0.9c1,0.8,2.2,1.2,3.5,1.2
						h4c0.5,0,1,0,1.5-0.2c0.7-0.2,1.4-0.5,2-1c0.1,0.1,0.2,0.3,0.3,0.4c0,0.8-0.5,1.1-2.2,1.6C-45,778.8-45.6,778.9-46.1,778.9z"/>
				</g>
				<g id="Group_453" transform="translate(-1 21)">
					
						<linearGradient id="Subtraction_74-3_1_" gradientUnits="userSpaceOnUse" x1="-340.022" y1="1006.091" x2="-340.591" y2="1006.089" gradientTransform="matrix(11.864 0 0 -2.335 3991.8833 3126.3035)">
						<stop  offset="0" style="stop-color:#7A3D06"/>
						<stop  offset="1" style="stop-color:#A65806"/>
					</linearGradient>
					<path id="Subtraction_74-3" class="st37" d="M-53.9,778.3L-53.9,778.3c-0.1-0.2-0.1-0.3-0.1-0.5c0-0.7,0.6-1.4,1.7-1.8v0.9h0.2
						C-52.8,777.1-53.5,777.6-53.9,778.3L-53.9,778.3z M-42.2,778.2L-42.2,778.2c-0.4-0.7-1.1-1.2-1.8-1.4h0.1v-1
						c1.2,0.4,1.9,1.1,1.9,1.8C-42.1,777.9-42.2,778.1-42.2,778.2L-42.2,778.2z"/>
					
						<linearGradient id="Subtraction_79-3_1_" gradientUnits="userSpaceOnUse" x1="-340.0201" y1="1022.6485" x2="-340.5891" y2="1022.6465" gradientTransform="matrix(11.863 0 0 -2.6665 3991.5266 3506.3406)">
						<stop  offset="0" style="stop-color:#7A3D06"/>
						<stop  offset="1" style="stop-color:#A65806"/>
					</linearGradient>
					<path id="Subtraction_79-3" class="st38" d="M-46.1,780.8h-4c-2.2,0-4-1-4-2.2c0-0.2,0-0.3,0.1-0.5c0.4,1,2,1.7,3.8,1.7h4
						c0.5,0,1,0,1.5-0.2c0.9-0.2,1.8-0.7,2.3-1.5c0.1,0.2,0.1,0.3,0.1,0.5c0,0.8-0.8,1.5-2.4,2C-45,780.8-45.6,780.8-46.1,780.8z"/>
					<path id="Subtraction_83-3" class="st30" d="M-46.1,782.7h-4c-2.2,0-4-1-4-2.2c0-0.2,0-0.3,0.1-0.5c0.4,1,2,1.7,3.8,1.7h4
						c0.5,0,1,0,1.5-0.2c0.9-0.2,1.8-0.7,2.3-1.5c0.1,0.2,0.1,0.3,0.1,0.5c0,0.8-0.8,1.5-2.4,2C-45,782.7-45.6,782.7-46.1,782.7z"/>
					
						<linearGradient id="Subtraction_81-3_1_" gradientUnits="userSpaceOnUse" x1="-340.0201" y1="1022.6485" x2="-340.5891" y2="1022.6465" gradientTransform="matrix(11.863 0 0 -2.6665 3991.5266 3507.2966)">
						<stop  offset="0" style="stop-color:#7A3D06"/>
						<stop  offset="1" style="stop-color:#A65806"/>
					</linearGradient>
					<path id="Subtraction_81-3" class="st39" d="M-46.1,781.7h-4c-2.2,0-4-1-4-2.2c0-0.2,0-0.3,0.1-0.5c0.4,1,2,1.7,3.8,1.7h4
						c0.5,0,1,0,1.5-0.2c0.9-0.2,1.8-0.7,2.3-1.5c0.1,0.2,0.1,0.3,0.1,0.5c0,0.8-0.8,1.5-2.4,2C-45,781.7-45.6,781.8-46.1,781.7z"/>
					
						<linearGradient id="Subtraction_77-3_1_" gradientUnits="userSpaceOnUse" x1="-340.0201" y1="1022.6485" x2="-340.5891" y2="1022.6465" gradientTransform="matrix(11.863 0 0 -2.6665 3991.5266 3505.3857)">
						<stop  offset="0" style="stop-color:#7A3D06"/>
						<stop  offset="1" style="stop-color:#A65806"/>
					</linearGradient>
					<path id="Subtraction_77-3" class="st40" d="M-46.1,779.8h-4c-2.2,0-4-1-4-2.2c0-0.2,0-0.3,0.1-0.5c0.4,1,2,1.7,3.8,1.7h4
						c0.5,0,1,0,1.5-0.2c0.9-0.2,1.8-0.7,2.3-1.5c0.1,0.2,0.1,0.3,0.1,0.5c0,0.8-0.8,1.5-2.4,2C-45,779.8-45.6,779.9-46.1,779.8z"/>
					<path id="Subtraction_78-3" class="st30" d="M-46.1,779.8h-4c-2.2,0-4-1-4-2.2c0-0.2,0-0.3,0.1-0.5c0.4,1,2,1.7,3.8,1.7h4
						c0.5,0,1,0,1.5-0.2c0.9-0.2,1.8-0.7,2.3-1.5c0.1,0.2,0.1,0.3,0.1,0.5c0,0.8-0.8,1.5-2.4,2C-45,779.8-45.6,779.9-46.1,779.8z"/>
					<path id="Subtraction_82-3" class="st30" d="M-46.1,781.7h-4c-2.2,0-4-1-4-2.2c0-0.2,0-0.3,0.1-0.5c0.4,1,2,1.7,3.8,1.7h4
						c0.5,0,1,0,1.5-0.2c0.9-0.2,1.8-0.7,2.3-1.5c0.1,0.2,0.1,0.3,0.1,0.5c0,0.8-0.8,1.5-2.4,2C-45,781.7-45.6,781.8-46.1,781.7z"/>
					<path id="Subtraction_80-3" class="st30" d="M-46.1,780.8h-4c-2.2,0-4-1-4-2.2c0-0.2,0-0.3,0.1-0.5c0.4,1,2,1.7,3.8,1.7h4
						c0.5,0,1,0,1.5-0.2c0.9-0.2,1.8-0.7,2.3-1.5c0.1,0.2,0.1,0.3,0.1,0.5c0,0.8-0.8,1.5-2.4,2C-45,780.8-45.6,780.8-46.1,780.8z"/>
					<path id="Subtraction_75-3" class="st30" d="M-46.1,778.9h-4c-2.1,0-4-0.1-4-1.3c0-0.3,0.2-0.7,0.5-0.9c1,0.8,2.2,1.2,3.5,1.2
						h4c0.5,0,1,0,1.5-0.2c0.7-0.2,1.4-0.5,2-1c0.1,0.1,0.2,0.3,0.3,0.4c0,0.8-0.5,1.1-2.2,1.6C-45,778.8-45.6,778.9-46.1,778.9z"/>
				</g>
			</g>
			<g id="Group_549" transform="translate(22 -343)">
				
					<linearGradient id="Path_436-2_1_" gradientUnits="userSpaceOnUse" x1="-379.0197" y1="1112.266" x2="-379.5887" y2="1112.264" gradientTransform="matrix(11.863 0 0 -4.3185 4453.1836 5580.0352)">
					<stop  offset="0" style="stop-color:#7A3D06"/>
					<stop  offset="1" style="stop-color:#A65806"/>
				</linearGradient>
				<path id="Path_436-2" class="st41" d="M-51,774.6h4c2.2,0,4,1,4,2.2c0,0.8-0.7,1.5-2.4,2c-0.5,0.1-1,0.2-1.5,0.2h-4
					c-2.2,0-4-1-4-2.2S-53.2,774.6-51,774.6z"/>
				
					<linearGradient id="Path_821-2_1_" gradientUnits="userSpaceOnUse" x1="-379.0197" y1="1112.266" x2="-379.5887" y2="1112.264" gradientTransform="matrix(11.863 0 0 -4.3185 4453.1836 5561.0352)">
					<stop  offset="0" style="stop-color:#7A3D06"/>
					<stop  offset="1" style="stop-color:#A65806"/>
				</linearGradient>
				<path id="Path_821-2" class="st42" d="M-51,755.6h4c2.2,0,4,1,4,2.2c0,0.8-0.7,1.5-2.4,2c-0.5,0.1-1,0.2-1.5,0.2h-4
					c-2.2,0-4-1-4-2.2S-53.2,755.6-51,755.6z"/>
				
					<linearGradient id="Path_816-2_1_" gradientUnits="userSpaceOnUse" x1="-379.0197" y1="1112.266" x2="-379.5887" y2="1112.264" gradientTransform="matrix(11.863 0 0 -4.3185 4453.1836 5602.0352)">
					<stop  offset="0" style="stop-color:#7A3D06"/>
					<stop  offset="1" style="stop-color:#A65806"/>
				</linearGradient>
				<path id="Path_816-2" class="st43" d="M-51,796.6h4c2.2,0,4,1,4,2.2c0,0.8-0.7,1.5-2.4,2c-0.5,0.1-1,0.2-1.5,0.2h-4
					c-2.2,0-4-1-4-2.2S-53.2,796.6-51,796.6z"/>
				
					<linearGradient id="Path_448-2_1_" gradientUnits="userSpaceOnUse" x1="-379.0197" y1="1112.266" x2="-379.5887" y2="1112.264" gradientTransform="matrix(11.863 0 0 -4.3185 4453.1836 5581.9443)">
					<stop  offset="0" style="stop-color:#7A3D06"/>
					<stop  offset="1" style="stop-color:#A65806"/>
				</linearGradient>
				<path id="Path_448-2" class="st44" d="M-51,776.5h4c2.2,0,4,1,4,2.2c0,0.8-0.7,1.5-2.4,2c-0.5,0.1-1,0.2-1.5,0.2h-4
					c-2.2,0-4-1-4-2.2S-53.2,776.5-51,776.5z"/>
				
					<linearGradient id="Path_822-2_1_" gradientUnits="userSpaceOnUse" x1="-379.0197" y1="1112.266" x2="-379.5887" y2="1112.264" gradientTransform="matrix(11.863 0 0 -4.3185 4453.1836 5562.9443)">
					<stop  offset="0" style="stop-color:#7A3D06"/>
					<stop  offset="1" style="stop-color:#A65806"/>
				</linearGradient>
				<path id="Path_822-2" class="st45" d="M-51,757.5h4c2.2,0,4,1,4,2.2c0,0.8-0.7,1.5-2.4,2c-0.5,0.1-1,0.2-1.5,0.2h-4
					c-2.2,0-4-1-4-2.2S-53.2,757.5-51,757.5z"/>
				
					<linearGradient id="Path_817-2_1_" gradientUnits="userSpaceOnUse" x1="-379.0197" y1="1112.266" x2="-379.5887" y2="1112.264" gradientTransform="matrix(11.863 0 0 -4.3185 4453.1836 5603.9443)">
					<stop  offset="0" style="stop-color:#7A3D06"/>
					<stop  offset="1" style="stop-color:#A65806"/>
				</linearGradient>
				<path id="Path_817-2" class="st46" d="M-51,798.5h4c2.2,0,4,1,4,2.2c0,0.8-0.7,1.5-2.4,2c-0.5,0.1-1,0.2-1.5,0.2h-4
					c-2.2,0-4-1-4-2.2S-53.2,798.5-51,798.5z"/>
				
					<linearGradient id="Path_449-2_1_" gradientUnits="userSpaceOnUse" x1="-379.0197" y1="1112.266" x2="-379.5887" y2="1112.264" gradientTransform="matrix(11.863 0 0 -4.3185 4453.1836 5581.9443)">
					<stop  offset="0" style="stop-color:#7A3D06"/>
					<stop  offset="1" style="stop-color:#A65806"/>
				</linearGradient>
				<path id="Path_449-2" class="st47" d="M-51,776.5h4c2.2,0,4,1,4,2.2c0,0.8-0.7,1.5-2.4,2c-0.5,0.1-1,0.2-1.5,0.2h-4
					c-2.2,0-4-1-4-2.2S-53.2,776.5-51,776.5z"/>
				
					<linearGradient id="Path_823-2_1_" gradientUnits="userSpaceOnUse" x1="-379.0197" y1="1112.266" x2="-379.5887" y2="1112.264" gradientTransform="matrix(11.863 0 0 -4.3185 4453.1836 5562.9443)">
					<stop  offset="0" style="stop-color:#7A3D06"/>
					<stop  offset="1" style="stop-color:#A65806"/>
				</linearGradient>
				<path id="Path_823-2" class="st48" d="M-51,757.5h4c2.2,0,4,1,4,2.2c0,0.8-0.7,1.5-2.4,2c-0.5,0.1-1,0.2-1.5,0.2h-4
					c-2.2,0-4-1-4-2.2S-53.2,757.5-51,757.5z"/>
				
					<linearGradient id="Path_818-2_1_" gradientUnits="userSpaceOnUse" x1="-379.0197" y1="1112.266" x2="-379.5887" y2="1112.264" gradientTransform="matrix(11.863 0 0 -4.3185 4453.1836 5603.9443)">
					<stop  offset="0" style="stop-color:#7A3D06"/>
					<stop  offset="1" style="stop-color:#A65806"/>
				</linearGradient>
				<path id="Path_818-2" class="st49" d="M-51,798.5h4c2.2,0,4,1,4,2.2c0,0.8-0.7,1.5-2.4,2c-0.5,0.1-1,0.2-1.5,0.2h-4
					c-2.2,0-4-1-4-2.2S-53.2,798.5-51,798.5z"/>
				
					<linearGradient id="Path_454-2_1_" gradientUnits="userSpaceOnUse" x1="-379.0197" y1="1112.266" x2="-379.5887" y2="1112.264" gradientTransform="matrix(11.863 0 0 -4.3185 4453.1836 5582.8984)">
					<stop  offset="0" style="stop-color:#7A3D06"/>
					<stop  offset="1" style="stop-color:#A65806"/>
				</linearGradient>
				<path id="Path_454-2" class="st50" d="M-51,777.4h4c2.2,0,4,1,4,2.2c0,0.8-0.7,1.5-2.4,2c-0.5,0.1-1,0.2-1.5,0.2h-4
					c-2.2,0-4-1-4-2.2C-55,778.4-53.2,777.4-51,777.4z"/>
				
					<linearGradient id="Path_824-2_1_" gradientUnits="userSpaceOnUse" x1="-379.0197" y1="1112.266" x2="-379.5887" y2="1112.264" gradientTransform="matrix(11.863 0 0 -4.3185 4453.1836 5563.8984)">
					<stop  offset="0" style="stop-color:#7A3D06"/>
					<stop  offset="1" style="stop-color:#A65806"/>
				</linearGradient>
				<path id="Path_824-2" class="st51" d="M-51,758.4h4c2.2,0,4,1,4,2.2c0,0.8-0.7,1.5-2.4,2c-0.5,0.1-1,0.2-1.5,0.2h-4
					c-2.2,0-4-1-4-2.2C-55,759.4-53.2,758.4-51,758.4z"/>
				
					<linearGradient id="Path_819-2_1_" gradientUnits="userSpaceOnUse" x1="-379.0197" y1="1112.266" x2="-379.5887" y2="1112.264" gradientTransform="matrix(11.863 0 0 -4.3185 4453.1836 5604.8984)">
					<stop  offset="0" style="stop-color:#7A3D06"/>
					<stop  offset="1" style="stop-color:#A65806"/>
				</linearGradient>
				<path id="Path_819-2" class="st52" d="M-51,799.4h4c2.2,0,4,1,4,2.2c0,0.8-0.7,1.5-2.4,2c-0.5,0.1-1,0.2-1.5,0.2h-4
					c-2.2,0-4-1-4-2.2C-55,800.4-53.2,799.4-51,799.4z"/>
				
					<linearGradient id="Path_441-2_1_" gradientUnits="userSpaceOnUse" x1="-379.0197" y1="1112.266" x2="-379.5887" y2="1112.264" gradientTransform="matrix(11.863 0 0 -4.3185 4453.1836 5580.9893)">
					<stop  offset="0" style="stop-color:#7A3D06"/>
					<stop  offset="1" style="stop-color:#A65806"/>
				</linearGradient>
				<path id="Path_441-2" class="st53" d="M-51,775.5h4c2.2,0,4,1,4,2.2c0,0.8-0.7,1.5-2.4,2c-0.5,0.1-1,0.2-1.5,0.2h-4
					c-2.2,0-4-1-4-2.2C-55,776.5-53.2,775.5-51,775.5z"/>
				
					<linearGradient id="Path_825-2_1_" gradientUnits="userSpaceOnUse" x1="-379.0197" y1="1112.266" x2="-379.5887" y2="1112.264" gradientTransform="matrix(11.863 0 0 -4.3185 4453.1836 5561.9893)">
					<stop  offset="0" style="stop-color:#7A3D06"/>
					<stop  offset="1" style="stop-color:#A65806"/>
				</linearGradient>
				<path id="Path_825-2" class="st54" d="M-51,756.5h4c2.2,0,4,1,4,2.2c0,0.8-0.7,1.5-2.4,2c-0.5,0.1-1,0.2-1.5,0.2h-4
					c-2.2,0-4-1-4-2.2C-55,757.5-53.2,756.5-51,756.5z"/>
				
					<linearGradient id="Path_820-2_1_" gradientUnits="userSpaceOnUse" x1="-379.0197" y1="1112.266" x2="-379.5887" y2="1112.264" gradientTransform="matrix(11.863 0 0 -4.3185 4453.1836 5602.9893)">
					<stop  offset="0" style="stop-color:#7A3D06"/>
					<stop  offset="1" style="stop-color:#A65806"/>
				</linearGradient>
				<path id="Path_820-2" class="st55" d="M-51,797.5h4c2.2,0,4,1,4,2.2c0,0.8-0.7,1.5-2.4,2c-0.5,0.1-1,0.2-1.5,0.2h-4
					c-2.2,0-4-1-4-2.2C-55,798.5-53.2,797.5-51,797.5z"/>
				
					<linearGradient id="Path_435-2_1_" gradientUnits="userSpaceOnUse" x1="-372.2533" y1="1177.2112" x2="-372.8223" y2="1177.2092" gradientTransform="matrix(8.3 0 0 -43.985 3044.7151 52559.3828)">
					<stop  offset="0" style="stop-color:#7A3D06"/>
					<stop  offset="1" style="stop-color:#A65806"/>
				</linearGradient>
				<path id="Path_435-2" class="st56" d="M-53.3,757.8h8.3v44h-8.3V757.8z"/>
				<g id="Group_452-2" transform="translate(-1 -1)">
					
						<linearGradient id="Subtraction_74-4_1_" gradientUnits="userSpaceOnUse" x1="-378.022" y1="1052.0911" x2="-378.591" y2="1052.089" gradientTransform="matrix(11.864 0 0 -2.335 4442.7153 3233.7134)">
						<stop  offset="0" style="stop-color:#7A3D06"/>
						<stop  offset="1" style="stop-color:#A65806"/>
					</linearGradient>
					<path id="Subtraction_74-4" class="st57" d="M-53.9,778.3L-53.9,778.3c-0.1-0.2-0.1-0.3-0.1-0.5c0-0.7,0.6-1.4,1.7-1.8v0.9h0.2
						C-52.8,777.1-53.5,777.6-53.9,778.3L-53.9,778.3z M-42.2,778.2L-42.2,778.2c-0.4-0.7-1.1-1.2-1.8-1.4h0.1v-1
						c1.2,0.4,1.9,1.1,1.9,1.8C-42.1,777.9-42.2,778.1-42.2,778.2L-42.2,778.2z"/>
					
						<linearGradient id="Subtraction_79-4_1_" gradientUnits="userSpaceOnUse" x1="-378.0201" y1="1068.6484" x2="-378.5891" y2="1068.6465" gradientTransform="matrix(11.863 0 0 -2.6665 4442.3208 3628.9993)">
						<stop  offset="0" style="stop-color:#7A3D06"/>
						<stop  offset="1" style="stop-color:#A65806"/>
					</linearGradient>
					<path id="Subtraction_79-4" class="st58" d="M-46.1,780.8h-4c-2.2,0-4-1-4-2.2c0-0.2,0-0.3,0.1-0.5c0.4,1,2,1.7,3.8,1.7h4
						c0.5,0,1,0,1.5-0.2c0.9-0.2,1.8-0.7,2.3-1.5c0.1,0.2,0.1,0.3,0.1,0.5c0,0.8-0.8,1.5-2.4,2C-45,780.8-45.6,780.8-46.1,780.8z"/>
					<path id="Subtraction_83-4" class="st30" d="M-46.1,782.7h-4c-2.2,0-4-1-4-2.2c0-0.2,0-0.3,0.1-0.5c0.4,1,2,1.7,3.8,1.7h4
						c0.5,0,1,0,1.5-0.2c0.9-0.2,1.8-0.7,2.3-1.5c0.1,0.2,0.1,0.3,0.1,0.5c0,0.8-0.8,1.5-2.4,2C-45,782.7-45.6,782.7-46.1,782.7z"/>
					
						<linearGradient id="Subtraction_81-4_1_" gradientUnits="userSpaceOnUse" x1="-378.0201" y1="1068.6484" x2="-378.5891" y2="1068.6465" gradientTransform="matrix(11.863 0 0 -2.6665 4442.3208 3629.9553)">
						<stop  offset="0" style="stop-color:#7A3D06"/>
						<stop  offset="1" style="stop-color:#A65806"/>
					</linearGradient>
					<path id="Subtraction_81-4" class="st59" d="M-46.1,781.7h-4c-2.2,0-4-1-4-2.2c0-0.2,0-0.3,0.1-0.5c0.4,1,2,1.7,3.8,1.7h4
						c0.5,0,1,0,1.5-0.2c0.9-0.2,1.8-0.7,2.3-1.5c0.1,0.2,0.1,0.3,0.1,0.5c0,0.8-0.8,1.5-2.4,2C-45,781.7-45.6,781.8-46.1,781.7z"/>
					
						<linearGradient id="Subtraction_77-4_1_" gradientUnits="userSpaceOnUse" x1="-378.0201" y1="1068.6484" x2="-378.5891" y2="1068.6465" gradientTransform="matrix(11.863 0 0 -2.6665 4442.3208 3628.0442)">
						<stop  offset="0" style="stop-color:#7A3D06"/>
						<stop  offset="1" style="stop-color:#A65806"/>
					</linearGradient>
					<path id="Subtraction_77-4" class="st60" d="M-46.1,779.8h-4c-2.2,0-4-1-4-2.2c0-0.2,0-0.3,0.1-0.5c0.4,1,2,1.7,3.8,1.7h4
						c0.5,0,1,0,1.5-0.2c0.9-0.2,1.8-0.7,2.3-1.5c0.1,0.2,0.1,0.3,0.1,0.5c0,0.8-0.8,1.5-2.4,2C-45,779.8-45.6,779.9-46.1,779.8z"/>
					<path id="Subtraction_78-4" class="st30" d="M-46.1,779.8h-4c-2.2,0-4-1-4-2.2c0-0.2,0-0.3,0.1-0.5c0.4,1,2,1.7,3.8,1.7h4
						c0.5,0,1,0,1.5-0.2c0.9-0.2,1.8-0.7,2.3-1.5c0.1,0.2,0.1,0.3,0.1,0.5c0,0.8-0.8,1.5-2.4,2C-45,779.8-45.6,779.9-46.1,779.8z"/>
					<path id="Subtraction_82-4" class="st30" d="M-46.1,781.7h-4c-2.2,0-4-1-4-2.2c0-0.2,0-0.3,0.1-0.5c0.4,1,2,1.7,3.8,1.7h4
						c0.5,0,1,0,1.5-0.2c0.9-0.2,1.8-0.7,2.3-1.5c0.1,0.2,0.1,0.3,0.1,0.5c0,0.8-0.8,1.5-2.4,2C-45,781.7-45.6,781.8-46.1,781.7z"/>
					<path id="Subtraction_80-4" class="st30" d="M-46.1,780.8h-4c-2.2,0-4-1-4-2.2c0-0.2,0-0.3,0.1-0.5c0.4,1,2,1.7,3.8,1.7h4
						c0.5,0,1,0,1.5-0.2c0.9-0.2,1.8-0.7,2.3-1.5c0.1,0.2,0.1,0.3,0.1,0.5c0,0.8-0.8,1.5-2.4,2C-45,780.8-45.6,780.8-46.1,780.8z"/>
					<path id="Subtraction_75-4" class="st30" d="M-46.1,778.9h-4c-2.1,0-4-0.1-4-1.3c0-0.3,0.2-0.7,0.5-0.9c1,0.8,2.2,1.2,3.5,1.2
						h4c0.5,0,1,0,1.5-0.2c0.7-0.2,1.4-0.5,2-1c0.1,0.1,0.2,0.3,0.3,0.4c0,0.8-0.5,1.1-2.2,1.6C-45,778.8-45.6,778.9-46.1,778.9z"/>
				</g>
				<g id="Group_454-2" transform="translate(-1 -20)">
					
						<linearGradient id="Subtraction_74-5_1_" gradientUnits="userSpaceOnUse" x1="-378.022" y1="1071.0911" x2="-378.591" y2="1071.089" gradientTransform="matrix(11.864 0 0 -2.335 4442.7153 3278.0784)">
						<stop  offset="0" style="stop-color:#7A3D06"/>
						<stop  offset="1" style="stop-color:#A65806"/>
					</linearGradient>
					<path id="Subtraction_74-5" class="st61" d="M-53.9,778.3L-53.9,778.3c-0.1-0.2-0.1-0.3-0.1-0.5c0-0.7,0.6-1.4,1.7-1.8v0.9h0.2
						C-52.8,777.1-53.5,777.6-53.9,778.3L-53.9,778.3z M-42.2,778.2L-42.2,778.2c-0.4-0.7-1.1-1.2-1.8-1.4h0.1v-1
						c1.2,0.4,1.9,1.1,1.9,1.8C-42.1,777.9-42.2,778.1-42.2,778.2L-42.2,778.2z"/>
					
						<linearGradient id="Subtraction_79-5_1_" gradientUnits="userSpaceOnUse" x1="-378.0201" y1="1087.6484" x2="-378.5891" y2="1087.6465" gradientTransform="matrix(11.863 0 0 -2.6665 4442.3208 3679.6626)">
						<stop  offset="0" style="stop-color:#7A3D06"/>
						<stop  offset="1" style="stop-color:#A65806"/>
					</linearGradient>
					<path id="Subtraction_79-5" class="st62" d="M-46.1,780.8h-4c-2.2,0-4-1-4-2.2c0-0.2,0-0.3,0.1-0.5c0.4,1,2,1.7,3.8,1.7h4
						c0.5,0,1,0,1.5-0.2c0.9-0.2,1.8-0.7,2.3-1.5c0.1,0.2,0.1,0.3,0.1,0.5c0,0.8-0.8,1.5-2.4,2C-45,780.8-45.6,780.8-46.1,780.8z"/>
					<path id="Subtraction_83-5" class="st30" d="M-46.1,782.7h-4c-2.2,0-4-1-4-2.2c0-0.2,0-0.3,0.1-0.5c0.4,1,2,1.7,3.8,1.7h4
						c0.5,0,1,0,1.5-0.2c0.9-0.2,1.8-0.7,2.3-1.5c0.1,0.2,0.1,0.3,0.1,0.5c0,0.8-0.8,1.5-2.4,2C-45,782.7-45.6,782.7-46.1,782.7z"/>
					
						<linearGradient id="Subtraction_81-5_1_" gradientUnits="userSpaceOnUse" x1="-378.0201" y1="1087.6484" x2="-378.5891" y2="1087.6465" gradientTransform="matrix(11.863 0 0 -2.6665 4442.3208 3680.6184)">
						<stop  offset="0" style="stop-color:#7A3D06"/>
						<stop  offset="1" style="stop-color:#A65806"/>
					</linearGradient>
					<path id="Subtraction_81-5" class="st63" d="M-46.1,781.7h-4c-2.2,0-4-1-4-2.2c0-0.2,0-0.3,0.1-0.5c0.4,1,2,1.7,3.8,1.7h4
						c0.5,0,1,0,1.5-0.2c0.9-0.2,1.8-0.7,2.3-1.5c0.1,0.2,0.1,0.3,0.1,0.5c0,0.8-0.8,1.5-2.4,2C-45,781.7-45.6,781.8-46.1,781.7z"/>
					
						<linearGradient id="Subtraction_77-5_1_" gradientUnits="userSpaceOnUse" x1="-378.0201" y1="1087.6484" x2="-378.5891" y2="1087.6465" gradientTransform="matrix(11.863 0 0 -2.6665 4442.3208 3678.7075)">
						<stop  offset="0" style="stop-color:#7A3D06"/>
						<stop  offset="1" style="stop-color:#A65806"/>
					</linearGradient>
					<path id="Subtraction_77-5" class="st64" d="M-46.1,779.8h-4c-2.2,0-4-1-4-2.2c0-0.2,0-0.3,0.1-0.5c0.4,1,2,1.7,3.8,1.7h4
						c0.5,0,1,0,1.5-0.2c0.9-0.2,1.8-0.7,2.3-1.5c0.1,0.2,0.1,0.3,0.1,0.5c0,0.8-0.8,1.5-2.4,2C-45,779.8-45.6,779.9-46.1,779.8z"/>
					<path id="Subtraction_78-5" class="st30" d="M-46.1,779.8h-4c-2.2,0-4-1-4-2.2c0-0.2,0-0.3,0.1-0.5c0.4,1,2,1.7,3.8,1.7h4
						c0.5,0,1,0,1.5-0.2c0.9-0.2,1.8-0.7,2.3-1.5c0.1,0.2,0.1,0.3,0.1,0.5c0,0.8-0.8,1.5-2.4,2C-45,779.8-45.6,779.9-46.1,779.8z"/>
					<path id="Subtraction_82-5" class="st30" d="M-46.1,781.7h-4c-2.2,0-4-1-4-2.2c0-0.2,0-0.3,0.1-0.5c0.4,1,2,1.7,3.8,1.7h4
						c0.5,0,1,0,1.5-0.2c0.9-0.2,1.8-0.7,2.3-1.5c0.1,0.2,0.1,0.3,0.1,0.5c0,0.8-0.8,1.5-2.4,2C-45,781.7-45.6,781.8-46.1,781.7z"/>
					<path id="Subtraction_80-5" class="st30" d="M-46.1,780.8h-4c-2.2,0-4-1-4-2.2c0-0.2,0-0.3,0.1-0.5c0.4,1,2,1.7,3.8,1.7h4
						c0.5,0,1,0,1.5-0.2c0.9-0.2,1.8-0.7,2.3-1.5c0.1,0.2,0.1,0.3,0.1,0.5c0,0.8-0.8,1.5-2.4,2C-45,780.8-45.6,780.8-46.1,780.8z"/>
					<path id="Subtraction_75-5" class="st30" d="M-46.1,778.9h-4c-2.1,0-4-0.1-4-1.3c0-0.3,0.2-0.7,0.5-0.9c1,0.8,2.2,1.2,3.5,1.2
						h4c0.5,0,1,0,1.5-0.2c0.7-0.2,1.4-0.5,2-1c0.1,0.1,0.2,0.3,0.3,0.4c0,0.8-0.5,1.1-2.2,1.6C-45,778.8-45.6,778.9-46.1,778.9z"/>
				</g>
				<g id="Group_453-2" transform="translate(-1 21)">
					
						<linearGradient id="Subtraction_74-6_1_" gradientUnits="userSpaceOnUse" x1="-378.022" y1="1030.0911" x2="-378.591" y2="1030.089" gradientTransform="matrix(11.864 0 0 -2.335 4442.7153 3182.3435)">
						<stop  offset="0" style="stop-color:#7A3D06"/>
						<stop  offset="1" style="stop-color:#A65806"/>
					</linearGradient>
					<path id="Subtraction_74-6" class="st65" d="M-53.9,778.3L-53.9,778.3c-0.1-0.2-0.1-0.3-0.1-0.5c0-0.7,0.6-1.4,1.7-1.8v0.9h0.2
						C-52.8,777.1-53.5,777.6-53.9,778.3L-53.9,778.3z M-42.2,778.2L-42.2,778.2c-0.4-0.7-1.1-1.2-1.8-1.4h0.1v-1
						c1.2,0.4,1.9,1.1,1.9,1.8C-42.1,777.9-42.2,778.1-42.2,778.2L-42.2,778.2z"/>
					
						<linearGradient id="Subtraction_79-6_1_" gradientUnits="userSpaceOnUse" x1="-378.0201" y1="1046.6484" x2="-378.5891" y2="1046.6465" gradientTransform="matrix(11.863 0 0 -2.6665 4442.3208 3570.3364)">
						<stop  offset="0" style="stop-color:#7A3D06"/>
						<stop  offset="1" style="stop-color:#A65806"/>
					</linearGradient>
					<path id="Subtraction_79-6" class="st66" d="M-46.1,780.8h-4c-2.2,0-4-1-4-2.2c0-0.2,0-0.3,0.1-0.5c0.4,1,2,1.7,3.8,1.7h4
						c0.5,0,1,0,1.5-0.2c0.9-0.2,1.8-0.7,2.3-1.5c0.1,0.2,0.1,0.3,0.1,0.5c0,0.8-0.8,1.5-2.4,2C-45,780.8-45.6,780.8-46.1,780.8z"/>
					<path id="Subtraction_83-6" class="st30" d="M-46.1,782.7h-4c-2.2,0-4-1-4-2.2c0-0.2,0-0.3,0.1-0.5c0.4,1,2,1.7,3.8,1.7h4
						c0.5,0,1,0,1.5-0.2c0.9-0.2,1.8-0.7,2.3-1.5c0.1,0.2,0.1,0.3,0.1,0.5c0,0.8-0.8,1.5-2.4,2C-45,782.7-45.6,782.7-46.1,782.7z"/>
					
						<linearGradient id="Subtraction_81-6_1_" gradientUnits="userSpaceOnUse" x1="-378.0201" y1="1046.6484" x2="-378.5891" y2="1046.6465" gradientTransform="matrix(11.863 0 0 -2.6665 4442.3208 3571.2925)">
						<stop  offset="0" style="stop-color:#7A3D06"/>
						<stop  offset="1" style="stop-color:#A65806"/>
					</linearGradient>
					<path id="Subtraction_81-6" class="st67" d="M-46.1,781.7h-4c-2.2,0-4-1-4-2.2c0-0.2,0-0.3,0.1-0.5c0.4,1,2,1.7,3.8,1.7h4
						c0.5,0,1,0,1.5-0.2c0.9-0.2,1.8-0.7,2.3-1.5c0.1,0.2,0.1,0.3,0.1,0.5c0,0.8-0.8,1.5-2.4,2C-45,781.7-45.6,781.8-46.1,781.7z"/>
					
						<linearGradient id="Subtraction_77-6_1_" gradientUnits="userSpaceOnUse" x1="-378.0201" y1="1046.6484" x2="-378.5891" y2="1046.6465" gradientTransform="matrix(11.863 0 0 -2.6665 4442.3208 3569.3813)">
						<stop  offset="0" style="stop-color:#7A3D06"/>
						<stop  offset="1" style="stop-color:#A65806"/>
					</linearGradient>
					<path id="Subtraction_77-6" class="st68" d="M-46.1,779.8h-4c-2.2,0-4-1-4-2.2c0-0.2,0-0.3,0.1-0.5c0.4,1,2,1.7,3.8,1.7h4
						c0.5,0,1,0,1.5-0.2c0.9-0.2,1.8-0.7,2.3-1.5c0.1,0.2,0.1,0.3,0.1,0.5c0,0.8-0.8,1.5-2.4,2C-45,779.8-45.6,779.9-46.1,779.8z"/>
					<path id="Subtraction_78-6" class="st30" d="M-46.1,779.8h-4c-2.2,0-4-1-4-2.2c0-0.2,0-0.3,0.1-0.5c0.4,1,2,1.7,3.8,1.7h4
						c0.5,0,1,0,1.5-0.2c0.9-0.2,1.8-0.7,2.3-1.5c0.1,0.2,0.1,0.3,0.1,0.5c0,0.8-0.8,1.5-2.4,2C-45,779.8-45.6,779.9-46.1,779.8z"/>
					<path id="Subtraction_82-6" class="st30" d="M-46.1,781.7h-4c-2.2,0-4-1-4-2.2c0-0.2,0-0.3,0.1-0.5c0.4,1,2,1.7,3.8,1.7h4
						c0.5,0,1,0,1.5-0.2c0.9-0.2,1.8-0.7,2.3-1.5c0.1,0.2,0.1,0.3,0.1,0.5c0,0.8-0.8,1.5-2.4,2C-45,781.7-45.6,781.8-46.1,781.7z"/>
					<path id="Subtraction_80-6" class="st30" d="M-46.1,780.8h-4c-2.2,0-4-1-4-2.2c0-0.2,0-0.3,0.1-0.5c0.4,1,2,1.7,3.8,1.7h4
						c0.5,0,1,0,1.5-0.2c0.9-0.2,1.8-0.7,2.3-1.5c0.1,0.2,0.1,0.3,0.1,0.5c0,0.8-0.8,1.5-2.4,2C-45,780.8-45.6,780.8-46.1,780.8z"/>
					<path id="Subtraction_75-6" class="st30" d="M-46.1,778.9h-4c-2.1,0-4-0.1-4-1.3c0-0.3,0.2-0.7,0.5-0.9c1,0.8,2.2,1.2,3.5,1.2
						h4c0.5,0,1,0,1.5-0.2c0.7-0.2,1.4-0.5,2-1c0.1,0.1,0.2,0.3,0.3,0.4c0,0.8-0.5,1.1-2.2,1.6C-45,778.8-45.6,778.9-46.1,778.9z"/>
				</g>
			</g>
			<g id="Group_285" transform="translate(30.817 12)">
				<path id="Path_306" class="st9" d="M-158.3,398l-28.7-15.5l28.7-13.9l27.3,13.9L-158.3,398z"/>
				<path id="Path_838" class="st9" d="M-188.3,415l-28.7-15.5l28.7-13.9l27.3,13.9L-188.3,415z"/>
				<path id="Path_296" class="st69" d="M-139.1,358.9l0.5,23.4c0,0,1.3,0.8,2.4,1.5c0-0.9,0-26.1,0-26.1L-139.1,358.9z"/>
				<path id="Subtraction_42" class="st3" d="M-181,355.2L-181,355.2c-1.1-3.6-1.8-7.2-2.3-10.9c-0.4-3.2-0.5-6.5-0.3-9.8
					c0.2-3.2,1.1-6.4,2.5-9.3c1.6-4.5,7.4-8,10.7-9.7c4.6-2.4,9.9-4,12.8-4c0.3,0,0.5,0,0.8,0.1c0,14.3,0.5,29.1,0.5,29.2l-16.5,9.6
					l14.2-8.5v0c-0.1-1.5-0.6-14.5-0.6-23.6c-0.1,0-0.2,0-0.3,0c-1.3,0-4.3,1-7.9,2.7c-4,1.9-7.8,4.1-11.4,6.7
					c0,9.5-0.3,24.7-0.3,26.5L-181,355.2L-181,355.2z"/>
				<path id="Path_294" class="st5" d="M-156.3,340.7l22.3,12.9l-24.7,14.5l-22.3-12.8L-156.3,340.7z"/>
				<path id="Path_291" class="st3" d="M-179.1,358.8l-0.4,23.7l-1.9,1.5l0.4-26.3L-179.1,358.8z"/>
				<path id="Path_290" class="st70" d="M-183.7,382.8v-58.5l2.7,0.9l0.1,29.9l22.3,12.8l0.2,28.6l-2.4-1.4l-0.4-25.2l-19.7-11.1
					l-0.4,25.2L-183.7,382.8z"/>
				<path id="Path_293" class="st5" d="M-160.2,310.9c0.9,0.2,2.6,0.5,3.5,0.7c-3.6,0-21.4,6-24.4,13.7c-0.9-0.2-1.8-0.5-2.7-1
					C-180.6,318.7-167.9,310.7-160.2,310.9z"/>
				<path id="Path_295" class="st3" d="M-158.5,396.6c1-0.6,2.6-1.4,2.6-1.4l-0.2-26l19.6-11.4l0.3,25.9l2.7-1.7l-0.5-28.6
					l-24.7,14.5L-158.5,396.6z"/>
				<path id="Path_319" class="st69" d="M-159.9,318.3c0,6.3,0.4,24.2,0.4,24.2l0.9-0.6l-0.5-23.7
					C-159,318.3-159.2,318.1-159.9,318.3z"/>
				
					<linearGradient id="Path_320_1_" gradientUnits="userSpaceOnUse" x1="-394.3734" y1="809.7402" x2="-395.1814" y2="809.2112" gradientTransform="matrix(19.8418 0 0 -15.7197 7661.9189 13067.6689)">
					<stop  offset="0" style="stop-color:#5E3202"/>
					<stop  offset="1" style="stop-color:#7A3D06"/>
				</linearGradient>
				<path id="Path_320" class="st71" d="M-179.1,350.5c0-1.6,0.1-2.6,0.1-5.7c6.9-5.2,11.9-7.9,19.7-10c0,1.4,0.1,2.3,0,3.3
					C-162.2,338.5-179,347.8-179.1,350.5z"/>
				
					<linearGradient id="Path_321_1_" gradientUnits="userSpaceOnUse" x1="-394.7658" y1="809.7769" x2="-395.5738" y2="809.2479" gradientTransform="matrix(20.6987 0 0 -15.7461 8007.7773 13079.2383)">
					<stop  offset="0" style="stop-color:#5E3202"/>
					<stop  offset="1" style="stop-color:#7A3D06"/>
				</linearGradient>
				<path id="Path_321" class="st72" d="M-179.9,340.2c0-1.5,0.1-2.5,0.1-5.4c3-2.7,12-9,20.6-10.3c0,1.3,0.1,2.7,0,3.7
					C-166.3,329.1-177.6,336.8-179.9,340.2z"/>
				<path id="Path_548" class="st73" d="M-156.6,343.6l17.4,10.1l-19.3,11.3l-17.5-10L-156.6,343.6z"/>
			</g>
			<g id="Group_286" transform="translate(-1 28.854)">
				<path id="Path_296-2" class="st69" d="M-139.1,358.9l0.5,23.4c0,0,1.3,0.8,2.4,1.5c0-0.9,0-26.1,0-26.1L-139.1,358.9z"/>
				<path id="Subtraction_42-2" class="st3" d="M-181,355.2L-181,355.2c-1.1-3.6-1.8-7.2-2.3-10.9c-0.4-3.2-0.5-6.5-0.3-9.8
					c0.2-3.2,1.1-6.4,2.5-9.3c1.6-4.5,7.4-8,10.7-9.7c4.6-2.4,9.9-4,12.8-4c0.3,0,0.5,0,0.8,0.1c0,14.3,0.5,29.1,0.5,29.2l-16.5,9.6
					l14.2-8.5v0c-0.1-1.5-0.6-14.5-0.6-23.6c-0.1,0-0.2,0-0.3,0c-1.3,0-4.3,1-7.9,2.7c-4,1.9-7.8,4.1-11.4,6.7
					c0,9.5-0.3,24.7-0.3,26.5L-181,355.2L-181,355.2z"/>
				<path id="Path_294-2" class="st5" d="M-156.3,340.7l22.3,12.9l-24.7,14.5l-22.3-12.8L-156.3,340.7z"/>
				<path id="Path_291-2" class="st3" d="M-179.1,358.8l-0.4,23.7l-1.9,1.5l0.4-26.3L-179.1,358.8z"/>
				<path id="Path_290-2" class="st70" d="M-183.7,382.8v-58.5l2.7,0.9l0.1,29.9l22.3,12.8l0.2,28.6l-2.4-1.4l-0.4-25.2l-19.7-11.1
					l-0.4,25.2L-183.7,382.8z"/>
				<path id="Path_293-2" class="st5" d="M-160.2,310.9c0.9,0.2,2.6,0.5,3.5,0.7c-3.6,0-21.4,6-24.4,13.7c-0.9-0.2-1.8-0.5-2.7-1
					C-180.6,318.7-167.9,310.7-160.2,310.9z"/>
				<path id="Path_295-2" class="st3" d="M-158.5,396.6c1-0.6,2.6-1.4,2.6-1.4l-0.2-26l19.6-11.4l0.3,25.9l2.7-1.7l-0.5-28.6
					l-24.7,14.5L-158.5,396.6z"/>
				<path id="Path_319-2" class="st69" d="M-159.9,318.3c0,6.3,0.4,24.2,0.4,24.2l0.9-0.6l-0.5-23.7
					C-159,318.3-159.2,318.1-159.9,318.3z"/>
				
					<linearGradient id="Path_320-2_1_" gradientUnits="userSpaceOnUse" x1="-362.5564" y1="792.8862" x2="-363.3643" y2="792.3572" gradientTransform="matrix(19.8418 0 0 -15.7197 7030.6123 12802.7285)">
					<stop  offset="0" style="stop-color:#5E3202"/>
					<stop  offset="1" style="stop-color:#7A3D06"/>
				</linearGradient>
				<path id="Path_320-2" class="st74" d="M-179.1,350.5c0-1.6,0.1-2.6,0.1-5.7c6.9-5.2,11.9-7.9,19.7-10c0,1.4,0.1,2.3,0,3.3
					C-162.2,338.5-179,347.8-179.1,350.5z"/>
				
					<linearGradient id="Path_321-2_1_" gradientUnits="userSpaceOnUse" x1="-362.9488" y1="792.9229" x2="-363.7568" y2="792.3939" gradientTransform="matrix(20.6987 0 0 -15.7461 7349.2056 12813.8535)">
					<stop  offset="0" style="stop-color:#5E3202"/>
					<stop  offset="1" style="stop-color:#7A3D06"/>
				</linearGradient>
				<path id="Path_321-2" class="st75" d="M-179.9,340.2c0-1.5,0.1-2.5,0.1-5.4c3-2.7,12-9,20.6-10.3c0,1.3,0.1,2.7,0,3.7
					C-166.3,329.1-177.6,336.8-179.9,340.2z"/>
				<path id="Path_548-2" class="st73" d="M-156.6,343.6l17.4,10.1l-19.3,11.3l-17.5-10L-156.6,343.6z"/>
			</g>
			<path id="Path_557" class="st76" d="M-67,434.5l-2.7-1.6l0-40.9l2.7-1.7L-67,434.5z"/>
			<g id="Group_548">
				<g id="Group_547" transform="translate(-104 -370)">
					
						<linearGradient id="Path_436-3_1_" gradientUnits="userSpaceOnUse" x1="-253.0197" y1="1139.266" x2="-253.5887" y2="1139.264" gradientTransform="matrix(11.863 0 0 -4.3185 2958.4458 5696.6348)">
						<stop  offset="0" style="stop-color:#7A3D06"/>
						<stop  offset="1" style="stop-color:#A65806"/>
					</linearGradient>
					<path id="Path_436-3" class="st77" d="M-51,774.6h4c2.2,0,4,1,4,2.2c0,0.8-0.7,1.5-2.4,2c-0.5,0.1-1,0.2-1.5,0.2h-4
						c-2.2,0-4-1-4-2.2S-53.2,774.6-51,774.6z"/>
					
						<linearGradient id="Path_821-3_1_" gradientUnits="userSpaceOnUse" x1="-253.0197" y1="1139.266" x2="-253.5887" y2="1139.264" gradientTransform="matrix(11.863 0 0 -4.3185 2958.4458 5677.6348)">
						<stop  offset="0" style="stop-color:#7A3D06"/>
						<stop  offset="1" style="stop-color:#A65806"/>
					</linearGradient>
					<path id="Path_821-3" class="st78" d="M-51,755.6h4c2.2,0,4,1,4,2.2c0,0.8-0.7,1.5-2.4,2c-0.5,0.1-1,0.2-1.5,0.2h-4
						c-2.2,0-4-1-4-2.2S-53.2,755.6-51,755.6z"/>
					
						<linearGradient id="Path_816-3_1_" gradientUnits="userSpaceOnUse" x1="-253.0197" y1="1139.266" x2="-253.5887" y2="1139.264" gradientTransform="matrix(11.863 0 0 -4.3185 2958.4458 5718.6348)">
						<stop  offset="0" style="stop-color:#7A3D06"/>
						<stop  offset="1" style="stop-color:#A65806"/>
					</linearGradient>
					<path id="Path_816-3" class="st79" d="M-51,796.6h4c2.2,0,4,1,4,2.2c0,0.8-0.7,1.5-2.4,2c-0.5,0.1-1,0.2-1.5,0.2h-4
						c-2.2,0-4-1-4-2.2S-53.2,796.6-51,796.6z"/>
					
						<linearGradient id="Path_448-3_1_" gradientUnits="userSpaceOnUse" x1="-253.0197" y1="1139.266" x2="-253.5887" y2="1139.264" gradientTransform="matrix(11.863 0 0 -4.3185 2958.4458 5698.5439)">
						<stop  offset="0" style="stop-color:#7A3D06"/>
						<stop  offset="1" style="stop-color:#A65806"/>
					</linearGradient>
					<path id="Path_448-3" class="st80" d="M-51,776.5h4c2.2,0,4,1,4,2.2c0,0.8-0.7,1.5-2.4,2c-0.5,0.1-1,0.2-1.5,0.2h-4
						c-2.2,0-4-1-4-2.2S-53.2,776.5-51,776.5z"/>
					
						<linearGradient id="Path_822-3_1_" gradientUnits="userSpaceOnUse" x1="-253.0197" y1="1139.266" x2="-253.5887" y2="1139.264" gradientTransform="matrix(11.863 0 0 -4.3185 2958.4458 5679.5439)">
						<stop  offset="0" style="stop-color:#7A3D06"/>
						<stop  offset="1" style="stop-color:#A65806"/>
					</linearGradient>
					<path id="Path_822-3" class="st81" d="M-51,757.5h4c2.2,0,4,1,4,2.2c0,0.8-0.7,1.5-2.4,2c-0.5,0.1-1,0.2-1.5,0.2h-4
						c-2.2,0-4-1-4-2.2S-53.2,757.5-51,757.5z"/>
					
						<linearGradient id="Path_817-3_1_" gradientUnits="userSpaceOnUse" x1="-253.0197" y1="1139.266" x2="-253.5887" y2="1139.264" gradientTransform="matrix(11.863 0 0 -4.3185 2958.4458 5720.5439)">
						<stop  offset="0" style="stop-color:#7A3D06"/>
						<stop  offset="1" style="stop-color:#A65806"/>
					</linearGradient>
					<path id="Path_817-3" class="st82" d="M-51,798.5h4c2.2,0,4,1,4,2.2c0,0.8-0.7,1.5-2.4,2c-0.5,0.1-1,0.2-1.5,0.2h-4
						c-2.2,0-4-1-4-2.2S-53.2,798.5-51,798.5z"/>
					
						<linearGradient id="Path_449-3_1_" gradientUnits="userSpaceOnUse" x1="-253.0197" y1="1139.266" x2="-253.5887" y2="1139.264" gradientTransform="matrix(11.863 0 0 -4.3185 2958.4458 5698.5439)">
						<stop  offset="0" style="stop-color:#7A3D06"/>
						<stop  offset="1" style="stop-color:#A65806"/>
					</linearGradient>
					<path id="Path_449-3" class="st83" d="M-51,776.5h4c2.2,0,4,1,4,2.2c0,0.8-0.7,1.5-2.4,2c-0.5,0.1-1,0.2-1.5,0.2h-4
						c-2.2,0-4-1-4-2.2S-53.2,776.5-51,776.5z"/>
					
						<linearGradient id="Path_823-3_1_" gradientUnits="userSpaceOnUse" x1="-253.0197" y1="1139.266" x2="-253.5887" y2="1139.264" gradientTransform="matrix(11.863 0 0 -4.3185 2958.4458 5679.5439)">
						<stop  offset="0" style="stop-color:#7A3D06"/>
						<stop  offset="1" style="stop-color:#A65806"/>
					</linearGradient>
					<path id="Path_823-3" class="st84" d="M-51,757.5h4c2.2,0,4,1,4,2.2c0,0.8-0.7,1.5-2.4,2c-0.5,0.1-1,0.2-1.5,0.2h-4
						c-2.2,0-4-1-4-2.2S-53.2,757.5-51,757.5z"/>
					
						<linearGradient id="Path_818-3_1_" gradientUnits="userSpaceOnUse" x1="-253.0197" y1="1139.266" x2="-253.5887" y2="1139.264" gradientTransform="matrix(11.863 0 0 -4.3185 2958.4458 5720.5439)">
						<stop  offset="0" style="stop-color:#7A3D06"/>
						<stop  offset="1" style="stop-color:#A65806"/>
					</linearGradient>
					<path id="Path_818-3" class="st85" d="M-51,798.5h4c2.2,0,4,1,4,2.2c0,0.8-0.7,1.5-2.4,2c-0.5,0.1-1,0.2-1.5,0.2h-4
						c-2.2,0-4-1-4-2.2S-53.2,798.5-51,798.5z"/>
					
						<linearGradient id="Path_454-3_1_" gradientUnits="userSpaceOnUse" x1="-253.0197" y1="1139.266" x2="-253.5887" y2="1139.264" gradientTransform="matrix(11.863 0 0 -4.3185 2958.4458 5699.4976)">
						<stop  offset="0" style="stop-color:#7A3D06"/>
						<stop  offset="1" style="stop-color:#A65806"/>
					</linearGradient>
					<path id="Path_454-3" class="st86" d="M-51,777.4h4c2.2,0,4,1,4,2.2c0,0.8-0.7,1.5-2.4,2c-0.5,0.1-1,0.2-1.5,0.2h-4
						c-2.2,0-4-1-4-2.2C-55,778.4-53.2,777.4-51,777.4z"/>
					
						<linearGradient id="Path_824-3_1_" gradientUnits="userSpaceOnUse" x1="-253.0197" y1="1139.266" x2="-253.5887" y2="1139.264" gradientTransform="matrix(11.863 0 0 -4.3185 2958.4458 5680.4976)">
						<stop  offset="0" style="stop-color:#7A3D06"/>
						<stop  offset="1" style="stop-color:#A65806"/>
					</linearGradient>
					<path id="Path_824-3" class="st87" d="M-51,758.4h4c2.2,0,4,1,4,2.2c0,0.8-0.7,1.5-2.4,2c-0.5,0.1-1,0.2-1.5,0.2h-4
						c-2.2,0-4-1-4-2.2C-55,759.4-53.2,758.4-51,758.4z"/>
					
						<linearGradient id="Path_819-3_1_" gradientUnits="userSpaceOnUse" x1="-253.0197" y1="1139.266" x2="-253.5887" y2="1139.264" gradientTransform="matrix(11.863 0 0 -4.3185 2958.4458 5721.4976)">
						<stop  offset="0" style="stop-color:#7A3D06"/>
						<stop  offset="1" style="stop-color:#A65806"/>
					</linearGradient>
					<path id="Path_819-3" class="st88" d="M-51,799.4h4c2.2,0,4,1,4,2.2c0,0.8-0.7,1.5-2.4,2c-0.5,0.1-1,0.2-1.5,0.2h-4
						c-2.2,0-4-1-4-2.2C-55,800.4-53.2,799.4-51,799.4z"/>
					
						<linearGradient id="Path_441-3_1_" gradientUnits="userSpaceOnUse" x1="-253.0197" y1="1139.266" x2="-253.5887" y2="1139.264" gradientTransform="matrix(11.863 0 0 -4.3185 2958.4458 5697.5889)">
						<stop  offset="0" style="stop-color:#7A3D06"/>
						<stop  offset="1" style="stop-color:#A65806"/>
					</linearGradient>
					<path id="Path_441-3" class="st89" d="M-51,775.5h4c2.2,0,4,1,4,2.2c0,0.8-0.7,1.5-2.4,2c-0.5,0.1-1,0.2-1.5,0.2h-4
						c-2.2,0-4-1-4-2.2C-55,776.5-53.2,775.5-51,775.5z"/>
					
						<linearGradient id="Path_825-3_1_" gradientUnits="userSpaceOnUse" x1="-253.0197" y1="1139.266" x2="-253.5887" y2="1139.264" gradientTransform="matrix(11.863 0 0 -4.3185 2958.4458 5678.5889)">
						<stop  offset="0" style="stop-color:#7A3D06"/>
						<stop  offset="1" style="stop-color:#A65806"/>
					</linearGradient>
					<path id="Path_825-3" class="st90" d="M-51,756.5h4c2.2,0,4,1,4,2.2c0,0.8-0.7,1.5-2.4,2c-0.5,0.1-1,0.2-1.5,0.2h-4
						c-2.2,0-4-1-4-2.2C-55,757.5-53.2,756.5-51,756.5z"/>
					
						<linearGradient id="Path_820-3_1_" gradientUnits="userSpaceOnUse" x1="-253.0197" y1="1139.266" x2="-253.5887" y2="1139.264" gradientTransform="matrix(11.863 0 0 -4.3185 2958.4458 5719.5889)">
						<stop  offset="0" style="stop-color:#7A3D06"/>
						<stop  offset="1" style="stop-color:#A65806"/>
					</linearGradient>
					<path id="Path_820-3" class="st91" d="M-51,797.5h4c2.2,0,4,1,4,2.2c0,0.8-0.7,1.5-2.4,2c-0.5,0.1-1,0.2-1.5,0.2h-4
						c-2.2,0-4-1-4-2.2C-55,798.5-53.2,797.5-51,797.5z"/>
					
						<linearGradient id="Path_435-3_1_" gradientUnits="userSpaceOnUse" x1="-246.2533" y1="1204.2112" x2="-246.8223" y2="1204.2092" gradientTransform="matrix(8.3 0 0 -43.985 1998.9149 53746.9805)">
						<stop  offset="0" style="stop-color:#7A3D06"/>
						<stop  offset="1" style="stop-color:#A65806"/>
					</linearGradient>
					<path id="Path_435-3" class="st92" d="M-53.3,757.8h8.3v44h-8.3V757.8z"/>
					<g id="Group_452-3" transform="translate(-1 -1)">
						
							<linearGradient id="Subtraction_74-7_1_" gradientUnits="userSpaceOnUse" x1="-252.022" y1="1079.0911" x2="-252.591" y2="1079.089" gradientTransform="matrix(11.864 0 0 -2.335 2947.8513 3296.7583)">
							<stop  offset="0" style="stop-color:#7A3D06"/>
							<stop  offset="1" style="stop-color:#A65806"/>
						</linearGradient>
						<path id="Subtraction_74-7" class="st93" d="M-53.9,778.3L-53.9,778.3c-0.1-0.2-0.1-0.3-0.1-0.5c0-0.7,0.6-1.4,1.7-1.8v0.9
							h0.2C-52.8,777.1-53.5,777.6-53.9,778.3L-53.9,778.3z M-42.2,778.2L-42.2,778.2c-0.4-0.7-1.1-1.2-1.8-1.4h0.1v-1
							c1.2,0.4,1.9,1.1,1.9,1.8C-42.1,777.9-42.2,778.1-42.2,778.2L-42.2,778.2z"/>
						
							<linearGradient id="Subtraction_79-7_1_" gradientUnits="userSpaceOnUse" x1="-252.0201" y1="1095.6484" x2="-252.5891" y2="1095.6465" gradientTransform="matrix(11.863 0 0 -2.6665 2947.5828 3700.9944)">
							<stop  offset="0" style="stop-color:#7A3D06"/>
							<stop  offset="1" style="stop-color:#A65806"/>
						</linearGradient>
						<path id="Subtraction_79-7" class="st94" d="M-46.1,780.8h-4c-2.2,0-4-1-4-2.2c0-0.2,0-0.3,0.1-0.5c0.4,1,2,1.7,3.8,1.7h4
							c0.5,0,1,0,1.5-0.2c0.9-0.2,1.8-0.7,2.3-1.5c0.1,0.2,0.1,0.3,0.1,0.5c0,0.8-0.8,1.5-2.4,2C-45,780.8-45.6,780.8-46.1,780.8z"
							/>
						<path id="Subtraction_83-7" class="st30" d="M-46.1,782.7h-4c-2.2,0-4-1-4-2.2c0-0.2,0-0.3,0.1-0.5c0.4,1,2,1.7,3.8,1.7h4
							c0.5,0,1,0,1.5-0.2c0.9-0.2,1.8-0.7,2.3-1.5c0.1,0.2,0.1,0.3,0.1,0.5c0,0.8-0.8,1.5-2.4,2C-45,782.7-45.6,782.7-46.1,782.7z"
							/>
						
							<linearGradient id="Subtraction_81-7_1_" gradientUnits="userSpaceOnUse" x1="-252.0201" y1="1095.6484" x2="-252.5891" y2="1095.6465" gradientTransform="matrix(11.863 0 0 -2.6665 2947.5828 3701.9504)">
							<stop  offset="0" style="stop-color:#7A3D06"/>
							<stop  offset="1" style="stop-color:#A65806"/>
						</linearGradient>
						<path id="Subtraction_81-7" class="st95" d="M-46.1,781.7h-4c-2.2,0-4-1-4-2.2c0-0.2,0-0.3,0.1-0.5c0.4,1,2,1.7,3.8,1.7h4
							c0.5,0,1,0,1.5-0.2c0.9-0.2,1.8-0.7,2.3-1.5c0.1,0.2,0.1,0.3,0.1,0.5c0,0.8-0.8,1.5-2.4,2C-45,781.7-45.6,781.8-46.1,781.7z"
							/>
						
							<linearGradient id="Subtraction_77-7_1_" gradientUnits="userSpaceOnUse" x1="-252.0201" y1="1095.6484" x2="-252.5891" y2="1095.6465" gradientTransform="matrix(11.863 0 0 -2.6665 2947.5828 3700.0396)">
							<stop  offset="0" style="stop-color:#7A3D06"/>
							<stop  offset="1" style="stop-color:#A65806"/>
						</linearGradient>
						<path id="Subtraction_77-7" class="st96" d="M-46.1,779.8h-4c-2.2,0-4-1-4-2.2c0-0.2,0-0.3,0.1-0.5c0.4,1,2,1.7,3.8,1.7h4
							c0.5,0,1,0,1.5-0.2c0.9-0.2,1.8-0.7,2.3-1.5c0.1,0.2,0.1,0.3,0.1,0.5c0,0.8-0.8,1.5-2.4,2C-45,779.8-45.6,779.9-46.1,779.8z"
							/>
						<path id="Subtraction_78-7" class="st30" d="M-46.1,779.8h-4c-2.2,0-4-1-4-2.2c0-0.2,0-0.3,0.1-0.5c0.4,1,2,1.7,3.8,1.7h4
							c0.5,0,1,0,1.5-0.2c0.9-0.2,1.8-0.7,2.3-1.5c0.1,0.2,0.1,0.3,0.1,0.5c0,0.8-0.8,1.5-2.4,2C-45,779.8-45.6,779.9-46.1,779.8z"
							/>
						<path id="Subtraction_82-7" class="st30" d="M-46.1,781.7h-4c-2.2,0-4-1-4-2.2c0-0.2,0-0.3,0.1-0.5c0.4,1,2,1.7,3.8,1.7h4
							c0.5,0,1,0,1.5-0.2c0.9-0.2,1.8-0.7,2.3-1.5c0.1,0.2,0.1,0.3,0.1,0.5c0,0.8-0.8,1.5-2.4,2C-45,781.7-45.6,781.8-46.1,781.7z"
							/>
						<path id="Subtraction_80-7" class="st30" d="M-46.1,780.8h-4c-2.2,0-4-1-4-2.2c0-0.2,0-0.3,0.1-0.5c0.4,1,2,1.7,3.8,1.7h4
							c0.5,0,1,0,1.5-0.2c0.9-0.2,1.8-0.7,2.3-1.5c0.1,0.2,0.1,0.3,0.1,0.5c0,0.8-0.8,1.5-2.4,2C-45,780.8-45.6,780.8-46.1,780.8z"
							/>
						<path id="Subtraction_75-7" class="st30" d="M-46.1,778.9h-4c-2.1,0-4-0.1-4-1.3c0-0.3,0.2-0.7,0.5-0.9c1,0.8,2.2,1.2,3.5,1.2
							h4c0.5,0,1,0,1.5-0.2c0.7-0.2,1.4-0.5,2-1c0.1,0.1,0.2,0.3,0.3,0.4c0,0.8-0.5,1.1-2.2,1.6C-45,778.8-45.6,778.9-46.1,778.9z"
							/>
					</g>
					<g id="Group_454-3" transform="translate(-1 -20)">
						
							<linearGradient id="Subtraction_74-8_1_" gradientUnits="userSpaceOnUse" x1="-252.022" y1="1098.0911" x2="-252.591" y2="1098.089" gradientTransform="matrix(11.864 0 0 -2.335 2947.8513 3341.1233)">
							<stop  offset="0" style="stop-color:#7A3D06"/>
							<stop  offset="1" style="stop-color:#A65806"/>
						</linearGradient>
						<path id="Subtraction_74-8" class="st97" d="M-53.9,778.3L-53.9,778.3c-0.1-0.2-0.1-0.3-0.1-0.5c0-0.7,0.6-1.4,1.7-1.8v0.9
							h0.2C-52.8,777.1-53.5,777.6-53.9,778.3L-53.9,778.3z M-42.2,778.2L-42.2,778.2c-0.4-0.7-1.1-1.2-1.8-1.4h0.1v-1
							c1.2,0.4,1.9,1.1,1.9,1.8C-42.1,777.9-42.2,778.1-42.2,778.2L-42.2,778.2z"/>
						
							<linearGradient id="Subtraction_79-8_1_" gradientUnits="userSpaceOnUse" x1="-252.0201" y1="1114.6484" x2="-252.5891" y2="1114.6465" gradientTransform="matrix(11.863 0 0 -2.6665 2947.5828 3751.6577)">
							<stop  offset="0" style="stop-color:#7A3D06"/>
							<stop  offset="1" style="stop-color:#A65806"/>
						</linearGradient>
						<path id="Subtraction_79-8" class="st98" d="M-46.1,780.8h-4c-2.2,0-4-1-4-2.2c0-0.2,0-0.3,0.1-0.5c0.4,1,2,1.7,3.8,1.7h4
							c0.5,0,1,0,1.5-0.2c0.9-0.2,1.8-0.7,2.3-1.5c0.1,0.2,0.1,0.3,0.1,0.5c0,0.8-0.8,1.5-2.4,2C-45,780.8-45.6,780.8-46.1,780.8z"
							/>
						<path id="Subtraction_83-8" class="st30" d="M-46.1,782.7h-4c-2.2,0-4-1-4-2.2c0-0.2,0-0.3,0.1-0.5c0.4,1,2,1.7,3.8,1.7h4
							c0.5,0,1,0,1.5-0.2c0.9-0.2,1.8-0.7,2.3-1.5c0.1,0.2,0.1,0.3,0.1,0.5c0,0.8-0.8,1.5-2.4,2C-45,782.7-45.6,782.7-46.1,782.7z"
							/>
						
							<linearGradient id="Subtraction_81-8_1_" gradientUnits="userSpaceOnUse" x1="-252.0201" y1="1114.6484" x2="-252.5891" y2="1114.6465" gradientTransform="matrix(11.863 0 0 -2.6665 2947.5828 3752.6138)">
							<stop  offset="0" style="stop-color:#7A3D06"/>
							<stop  offset="1" style="stop-color:#A65806"/>
						</linearGradient>
						<path id="Subtraction_81-8" class="st99" d="M-46.1,781.7h-4c-2.2,0-4-1-4-2.2c0-0.2,0-0.3,0.1-0.5c0.4,1,2,1.7,3.8,1.7h4
							c0.5,0,1,0,1.5-0.2c0.9-0.2,1.8-0.7,2.3-1.5c0.1,0.2,0.1,0.3,0.1,0.5c0,0.8-0.8,1.5-2.4,2C-45,781.7-45.6,781.8-46.1,781.7z"
							/>
						
							<linearGradient id="Subtraction_77-8_1_" gradientUnits="userSpaceOnUse" x1="-252.0201" y1="1114.6484" x2="-252.5891" y2="1114.6465" gradientTransform="matrix(11.863 0 0 -2.6665 2947.5828 3750.7029)">
							<stop  offset="0" style="stop-color:#7A3D06"/>
							<stop  offset="1" style="stop-color:#A65806"/>
						</linearGradient>
						<path id="Subtraction_77-8" class="st100" d="M-46.1,779.8h-4c-2.2,0-4-1-4-2.2c0-0.2,0-0.3,0.1-0.5c0.4,1,2,1.7,3.8,1.7h4
							c0.5,0,1,0,1.5-0.2c0.9-0.2,1.8-0.7,2.3-1.5c0.1,0.2,0.1,0.3,0.1,0.5c0,0.8-0.8,1.5-2.4,2C-45,779.8-45.6,779.9-46.1,779.8z"
							/>
						<path id="Subtraction_78-8" class="st30" d="M-46.1,779.8h-4c-2.2,0-4-1-4-2.2c0-0.2,0-0.3,0.1-0.5c0.4,1,2,1.7,3.8,1.7h4
							c0.5,0,1,0,1.5-0.2c0.9-0.2,1.8-0.7,2.3-1.5c0.1,0.2,0.1,0.3,0.1,0.5c0,0.8-0.8,1.5-2.4,2C-45,779.8-45.6,779.9-46.1,779.8z"
							/>
						<path id="Subtraction_82-8" class="st30" d="M-46.1,781.7h-4c-2.2,0-4-1-4-2.2c0-0.2,0-0.3,0.1-0.5c0.4,1,2,1.7,3.8,1.7h4
							c0.5,0,1,0,1.5-0.2c0.9-0.2,1.8-0.7,2.3-1.5c0.1,0.2,0.1,0.3,0.1,0.5c0,0.8-0.8,1.5-2.4,2C-45,781.7-45.6,781.8-46.1,781.7z"
							/>
						<path id="Subtraction_80-8" class="st30" d="M-46.1,780.8h-4c-2.2,0-4-1-4-2.2c0-0.2,0-0.3,0.1-0.5c0.4,1,2,1.7,3.8,1.7h4
							c0.5,0,1,0,1.5-0.2c0.9-0.2,1.8-0.7,2.3-1.5c0.1,0.2,0.1,0.3,0.1,0.5c0,0.8-0.8,1.5-2.4,2C-45,780.8-45.6,780.8-46.1,780.8z"
							/>
						<path id="Subtraction_75-8" class="st30" d="M-46.1,778.9h-4c-2.1,0-4-0.1-4-1.3c0-0.3,0.2-0.7,0.5-0.9c1,0.8,2.2,1.2,3.5,1.2
							h4c0.5,0,1,0,1.5-0.2c0.7-0.2,1.4-0.5,2-1c0.1,0.1,0.2,0.3,0.3,0.4c0,0.8-0.5,1.1-2.2,1.6C-45,778.8-45.6,778.9-46.1,778.9z"
							/>
					</g>
					<g id="Group_453-3" transform="translate(-1 21)">
						
							<linearGradient id="Subtraction_74-9_1_" gradientUnits="userSpaceOnUse" x1="-252.022" y1="1057.0911" x2="-252.591" y2="1057.089" gradientTransform="matrix(11.864 0 0 -2.335 2947.8513 3245.3884)">
							<stop  offset="0" style="stop-color:#7A3D06"/>
							<stop  offset="1" style="stop-color:#A65806"/>
						</linearGradient>
						<path id="Subtraction_74-9" class="st101" d="M-53.9,778.3L-53.9,778.3c-0.1-0.2-0.1-0.3-0.1-0.5c0-0.7,0.6-1.4,1.7-1.8v0.9
							h0.2C-52.8,777.1-53.5,777.6-53.9,778.3L-53.9,778.3z M-42.2,778.2L-42.2,778.2c-0.4-0.7-1.1-1.2-1.8-1.4h0.1v-1
							c1.2,0.4,1.9,1.1,1.9,1.8C-42.1,777.9-42.2,778.1-42.2,778.2L-42.2,778.2z"/>
						
							<linearGradient id="Subtraction_79-9_1_" gradientUnits="userSpaceOnUse" x1="-252.0201" y1="1073.6484" x2="-252.5891" y2="1073.6465" gradientTransform="matrix(11.863 0 0 -2.6665 2947.5828 3642.3318)">
							<stop  offset="0" style="stop-color:#7A3D06"/>
							<stop  offset="1" style="stop-color:#A65806"/>
						</linearGradient>
						<path id="Subtraction_79-9" class="st102" d="M-46.1,780.8h-4c-2.2,0-4-1-4-2.2c0-0.2,0-0.3,0.1-0.5c0.4,1,2,1.7,3.8,1.7h4
							c0.5,0,1,0,1.5-0.2c0.9-0.2,1.8-0.7,2.3-1.5c0.1,0.2,0.1,0.3,0.1,0.5c0,0.8-0.8,1.5-2.4,2C-45,780.8-45.6,780.8-46.1,780.8z"
							/>
						<path id="Subtraction_83-9" class="st30" d="M-46.1,782.7h-4c-2.2,0-4-1-4-2.2c0-0.2,0-0.3,0.1-0.5c0.4,1,2,1.7,3.8,1.7h4
							c0.5,0,1,0,1.5-0.2c0.9-0.2,1.8-0.7,2.3-1.5c0.1,0.2,0.1,0.3,0.1,0.5c0,0.8-0.8,1.5-2.4,2C-45,782.7-45.6,782.7-46.1,782.7z"
							/>
						
							<linearGradient id="Subtraction_81-9_1_" gradientUnits="userSpaceOnUse" x1="-252.0201" y1="1073.6484" x2="-252.5891" y2="1073.6465" gradientTransform="matrix(11.863 0 0 -2.6665 2947.5828 3643.2876)">
							<stop  offset="0" style="stop-color:#7A3D06"/>
							<stop  offset="1" style="stop-color:#A65806"/>
						</linearGradient>
						<path id="Subtraction_81-9" class="st103" d="M-46.1,781.7h-4c-2.2,0-4-1-4-2.2c0-0.2,0-0.3,0.1-0.5c0.4,1,2,1.7,3.8,1.7h4
							c0.5,0,1,0,1.5-0.2c0.9-0.2,1.8-0.7,2.3-1.5c0.1,0.2,0.1,0.3,0.1,0.5c0,0.8-0.8,1.5-2.4,2C-45,781.7-45.6,781.8-46.1,781.7z"
							/>
						
							<linearGradient id="Subtraction_77-9_1_" gradientUnits="userSpaceOnUse" x1="-252.0201" y1="1073.6484" x2="-252.5891" y2="1073.6465" gradientTransform="matrix(11.863 0 0 -2.6665 2947.5828 3641.3767)">
							<stop  offset="0" style="stop-color:#7A3D06"/>
							<stop  offset="1" style="stop-color:#A65806"/>
						</linearGradient>
						<path id="Subtraction_77-9" class="st104" d="M-46.1,779.8h-4c-2.2,0-4-1-4-2.2c0-0.2,0-0.3,0.1-0.5c0.4,1,2,1.7,3.8,1.7h4
							c0.5,0,1,0,1.5-0.2c0.9-0.2,1.8-0.7,2.3-1.5c0.1,0.2,0.1,0.3,0.1,0.5c0,0.8-0.8,1.5-2.4,2C-45,779.8-45.6,779.9-46.1,779.8z"
							/>
						<path id="Subtraction_78-9" class="st30" d="M-46.1,779.8h-4c-2.2,0-4-1-4-2.2c0-0.2,0-0.3,0.1-0.5c0.4,1,2,1.7,3.8,1.7h4
							c0.5,0,1,0,1.5-0.2c0.9-0.2,1.8-0.7,2.3-1.5c0.1,0.2,0.1,0.3,0.1,0.5c0,0.8-0.8,1.5-2.4,2C-45,779.8-45.6,779.9-46.1,779.8z"
							/>
						<path id="Subtraction_82-9" class="st30" d="M-46.1,781.7h-4c-2.2,0-4-1-4-2.2c0-0.2,0-0.3,0.1-0.5c0.4,1,2,1.7,3.8,1.7h4
							c0.5,0,1,0,1.5-0.2c0.9-0.2,1.8-0.7,2.3-1.5c0.1,0.2,0.1,0.3,0.1,0.5c0,0.8-0.8,1.5-2.4,2C-45,781.7-45.6,781.8-46.1,781.7z"
							/>
						<path id="Subtraction_80-9" class="st30" d="M-46.1,780.8h-4c-2.2,0-4-1-4-2.2c0-0.2,0-0.3,0.1-0.5c0.4,1,2,1.7,3.8,1.7h4
							c0.5,0,1,0,1.5-0.2c0.9-0.2,1.8-0.7,2.3-1.5c0.1,0.2,0.1,0.3,0.1,0.5c0,0.8-0.8,1.5-2.4,2C-45,780.8-45.6,780.8-46.1,780.8z"
							/>
						<path id="Subtraction_75-9" class="st30" d="M-46.1,778.9h-4c-2.1,0-4-0.1-4-1.3c0-0.3,0.2-0.7,0.5-0.9c1,0.8,2.2,1.2,3.5,1.2
							h4c0.5,0,1,0,1.5-0.2c0.7-0.2,1.4-0.5,2-1c0.1,0.1,0.2,0.3,0.3,0.4c0,0.8-0.5,1.1-2.2,1.6C-45,778.8-45.6,778.9-46.1,778.9z"
							/>
					</g>
				</g>
				<path id="Union_11" class="st105" d="M-114.8,414.2L-114.8,414.2l-49-28l49.8-29.1l48.8,28.1l0.2-0.1l49.8,28.7L-65,442.5
					L-114.8,414.2z"/>
			</g>
			<path id="Subtraction_93" class="st106" d="M-65,446.4L-65,446.4l0-4l49.8-28.6v3.1l-6.1,3.5l0,0.1l-42.1,24.9l-0.1,0L-65,446.4
				L-65,446.4L-65,446.4L-65,446.4z"/>
			<path id="Subtraction_94" class="st107" d="M-64.9,446.3L-64.9,446.3l-2.9-1.8v0l-0.4-0.3l-0.5-0.3v0l-43.2-25.6v0l-10.9-6.5
				l-38.5-21.8l-2.5-1.4l0-2.6c0.1,0.1,4.5,2.5,10.5,6c12.8,7.3,32.3,18.3,37.9,21.5v-0.1l9.1,5.2l10.4,6l12.8,7.3
				c9.5,5.5,17.8,10.2,18.2,10.4L-64.9,446.3L-64.9,446.3z"/>
			<path id="Union_12" class="st108" d="M-112,412.5L-112,412.5l-47-26.2l44.9-25.9l5.1,3l41.3,23.5l0.2-0.1l47.7,26.9l-45.4,25.6
				L-112,412.5z"/>
			<g id="Group_280" transform="translate(-7089.998 -6320.048)">
				<path id="Path_478" class="st5" d="M6937.8,6739h0.5l26.5,14.8l-30.3,15.7l-26.8-15.6"/>
				<path id="Path_338" class="st9" d="M6902.2,6787.6l33.3,19.1l33.1-19.1l-33.1-19.4L6902.2,6787.6z"/>
				<path id="Path_287" class="st70" d="M6958.5,6759.5l3.7-1.4l0,30.9l-3.6-1.8V6759.5z"/>
				<path id="Path_288" class="st109" d="M6937.6,6741h0.4l23.1,12.9l-26.3,13.7l-23.3-13.5L6937.6,6741z"/>
				<path id="Path_285" class="st110" d="M6911.5,6760.1v27.4l-2.5,0.9V6759L6911.5,6760.1z"/>
				<path id="Subtraction_41" class="st70" d="M6935.8,6804.3L6935.8,6804.3l-3.4-1.5v-30.3l-23.3-13.4v29.3l-3-0.8l0.8-66.9
					c1.6,2.8,3.7,5.2,6.2,7.2c4.1,3.5,11.3,7.9,22.7,9.3C6936.1,6750.5,6935.8,6803.7,6935.8,6804.3L6935.8,6804.3z M6909.6,6730.8
					L6909.6,6730.8v23.8c0,0.4,23.2,12.6,23.5,12.7v-25.6L6909.6,6730.8z"/>
				<path id="Path_286" class="st110" d="M6937.9,6735.6l-2.1,1.6l0,67.1l2.4-1.5l-0.2-31.2l24.2-13v30.5l2.8-1.3v-33.9l-26.9,13.7
					L6937.9,6735.6z"/>
				<path id="Path_289" class="st110" d="M6909.3,6719.7c-0.8,0.3-1.6,0.6-2.4,0.9c-0.6,0.4,11.3,14.6,28.8,16.6
					c1.6-0.9,0.5-0.3,2.1-1.5C6926.9,6733.4,6917,6727.8,6909.3,6719.7z"/>
				<path id="Path_314" class="st111" d="M6935.4,6737.2"/>
				<path id="Path_317" class="st110" d="M6911.1,6752.3l-0.2-20.3l-1.5-0.5l0.2,21.5L6911.1,6752.3z"/>
				<path id="Path_322" class="st70" d="M6906.7,6731.7c-0.1,0.9,0,3.8,0,6.2c4.3,5.6,19.8,14.7,28.1,14.6c0.1-1.2,0.1,2.7,0-4.4
					C6928.9,6748,6911.2,6738.4,6906.7,6731.7z"/>
				<path id="Path_323" class="st70" d="M6906.7,6740.7c-0.1,0.9,0,3.8,0,6.2c4.2,5.6,19.5,14.7,27.8,14.6c0.1-1.2,0.1,2.7,0-4.4
					C6928.7,6757,6911.1,6747.4,6906.7,6740.7z"/>
				<path id="Path_324" class="st70" d="M6906.9,6720.7c-0.1,0.9-0.1,6.1-0.2,8.5c4.5,5.6,20.4,14.8,29,14.7
					c0.1-1.2,0.2,0.4,0.1-6.7C6929.8,6737,6911.6,6727.3,6906.9,6720.7z"/>
			</g>
			<g id="Group_281" transform="translate(-7033.998 -6287.048)">
				<path id="Path_478-2" class="st5" d="M6937.8,6739h0.5l26.5,14.8l-30.3,15.7l-26.8-15.6"/>
				<path id="Path_338-2" class="st9" d="M6902.2,6787.6l33.3,19.1l33.1-19.1l-33.1-19.4L6902.2,6787.6z"/>
				<path id="Path_287-2" class="st70" d="M6958.5,6759.5l3.7-1.4l0,30.9l-3.6-1.8V6759.5z"/>
				<path id="Path_288-2" class="st109" d="M6937.6,6741h0.4l23.1,12.9l-26.3,13.7l-23.3-13.5L6937.6,6741z"/>
				<path id="Path_285-2" class="st110" d="M6911.5,6760.1v27.4l-2.5,0.9V6759L6911.5,6760.1z"/>
				<path id="Subtraction_41-2" class="st70" d="M6935.8,6804.3L6935.8,6804.3l-3.4-1.5v-30.3l-23.3-13.4v29.3l-3-0.8l0.8-66.9
					c1.6,2.8,3.7,5.2,6.2,7.2c4.1,3.5,11.3,7.9,22.7,9.3C6936.1,6750.5,6935.8,6803.7,6935.8,6804.3L6935.8,6804.3z M6909.6,6730.8
					L6909.6,6730.8v23.8c0,0.4,23.2,12.6,23.5,12.7v-25.6L6909.6,6730.8z"/>
				<path id="Path_286-2" class="st110" d="M6937.9,6735.6l-2.1,1.6l0,67.1l2.4-1.5l-0.2-31.2l24.2-13v30.5l2.8-1.3v-33.9
					l-26.9,13.7L6937.9,6735.6z"/>
				<path id="Path_289-2" class="st110" d="M6909.3,6719.7c-0.8,0.3-1.6,0.6-2.4,0.9c-0.6,0.4,11.3,14.6,28.8,16.6
					c1.6-0.9,0.5-0.3,2.1-1.5C6926.9,6733.4,6917,6727.8,6909.3,6719.7z"/>
				<path id="Path_314-2" class="st111" d="M6935.4,6737.2"/>
				<path id="Path_317-2" class="st110" d="M6911.1,6752.3l-0.2-20.3l-1.5-0.5l0.2,21.5L6911.1,6752.3z"/>
				<path id="Path_322-2" class="st70" d="M6906.7,6731.7c-0.1,0.9,0,3.8,0,6.2c4.3,5.6,19.8,14.7,28.1,14.6c0.1-1.2,0.1,2.7,0-4.4
					C6928.9,6748,6911.2,6738.4,6906.7,6731.7z"/>
				<path id="Path_323-2" class="st70" d="M6906.7,6740.7c-0.1,0.9,0,3.8,0,6.2c4.2,5.6,19.5,14.7,27.8,14.6c0.1-1.2,0.1,2.7,0-4.4
					C6928.7,6757,6911.1,6747.4,6906.7,6740.7z"/>
				<path id="Path_324-2" class="st70" d="M6906.9,6720.7c-0.1,0.9-0.1,6.1-0.2,8.5c4.5,5.6,20.4,14.8,29,14.7
					c0.1-1.2,0.2,0.4,0.1-6.7C6929.8,6737,6911.6,6727.3,6906.9,6720.7z"/>
			</g>
			<g id="Group_261" transform="translate(-7160.998 -6357.048)">
				<path id="Path_331" class="st4" d="M7186.2,6800.6l0.3-27.5l2.4-1.7l0.1,27.8L7186.2,6800.6z"/>
				<path id="Path_550" class="st5" d="M7189.2,6799.1l-26.7-15l-29,13.4l27.5,15.8L7189.2,6799.1z"/>
				<path id="Path_549" class="st109" d="M7184.2,6799l-21.9-12.3l-23.8,11l22.5,12.9L7184.2,6799z"/>
				<path id="Path_337" class="st9" d="M7162.8,6850.8l-33.3-18.9l33.3-19.1l32.8,19.1L7162.8,6850.8z"/>
				<path id="Path_278" class="st2" d="M7186.6,6804.4v27.4l2.6,1v-29.8L7186.6,6804.4z"/>
				<path id="Path_273" class="st112" d="M7159.7,6847.2v-68l3,1.3v67.3L7159.7,6847.2z"/>
				<path id="Subtraction_43" class="st113" d="M7162.7,6847.9l0-67.4l29.5-16.5c0,0.7-0.1,67.1,0,67.4c0,0,0,0,0,0.1
					c-0.2,0.4-3.1,1.3-3.1,1.3v-29.5l-24.3,12.5v31L7162.7,6847.9L7162.7,6847.9z M7188.9,6771.4L7188.9,6771.4
					c-0.2,0.1-0.6,0.4-1.1,0.8c-6.9,5.1-14.7,9-23,11.5c0,11.4-0.1,27.4-0.1,27.5l24.3-12.1c0,0,0-0.4,0-1
					C7189,6779.8,7188.9,6773.5,7188.9,6771.4z"/>
				<path id="Path_275" class="st113" d="M7136.5,6802.5v30.6l3-1.7c0,0,0.4-28.1,0-28.1S7136.5,6802.5,7136.5,6802.5z"/>
				<path id="Path_276" class="st112" d="M7159.7,6816.2c-0.2-0.2-23.2-13.5-23.2-13.5v30.4l-3.1-1.5l0.3-34.1l26.1,14.6
					L7159.7,6816.2z"/>
				<path id="Path_277" class="st5" d="M7162.7,6780.5c-1.1-0.3-2.1-0.7-3-1.3c0,0,23.2-9.5,29.3-16.6c2.7,0.7,3.1,1.5,3.1,1.5
					S7176,6777.9,7162.7,6780.5z"/>
				<path id="Path_334" class="st113" d="M7164.8,6791.1c6.2-0.4,19.9-6.4,24.3-11.6c0-0.9-0.1-1,0-3.8
					c-2.3,2.4-12.6,10.3-24.3,12.3V6791.1z"/>
				<path id="Path_335" class="st113" d="M7164.8,6799.1c6.3-0.4,20.1-6.4,24.4-11.6c0-0.9-0.1-1,0-3.8
					c-2.3,2.4-12.7,10.3-24.4,12.3V6799.1z"/>
			</g>
			<g id="Group_282" transform="translate(-7195.998 -6332.048)">
				<path id="Path_331-2" class="st4" d="M7186.2,6800.6l0.3-27.5l2.4-1.7l0.1,27.8L7186.2,6800.6z"/>
				<path id="Path_550-2" class="st5" d="M7189.2,6799.1l-26.7-15l-29,13.4l27.5,15.8L7189.2,6799.1z"/>
				<path id="Path_549-2" class="st109" d="M7184.2,6799l-21.9-12.3l-23.8,11l22.5,12.9L7184.2,6799z"/>
				<path id="Path_337-2" class="st9" d="M7162.8,6850.8l-33.3-18.9l33.3-19.1l32.8,19.1L7162.8,6850.8z"/>
				<path id="Path_278-2" class="st2" d="M7186.6,6804.4v27.4l2.6,1v-29.8L7186.6,6804.4z"/>
				<path id="Path_273-2" class="st112" d="M7159.7,6847.2v-68l3,1.3v67.3L7159.7,6847.2z"/>
				<path id="Subtraction_43-2" class="st113" d="M7162.7,6847.9l0-67.4l29.5-16.5c0,0.7-0.1,67.1,0,67.4c0,0,0,0,0,0.1
					c-0.2,0.4-3.1,1.3-3.1,1.3v-29.5l-24.3,12.5v31L7162.7,6847.9L7162.7,6847.9z M7188.9,6771.4L7188.9,6771.4
					c-0.2,0.1-0.6,0.4-1.1,0.8c-6.9,5.1-14.7,9-23,11.5c0,11.4-0.1,27.4-0.1,27.5l24.3-12.1c0,0,0-0.4,0-1
					C7189,6779.8,7188.9,6773.5,7188.9,6771.4z"/>
				<path id="Path_275-2" class="st113" d="M7136.5,6802.5v30.6l3-1.7c0,0,0.4-28.1,0-28.1S7136.5,6802.5,7136.5,6802.5z"/>
				<path id="Path_276-2" class="st112" d="M7159.7,6816.2c-0.2-0.2-23.2-13.5-23.2-13.5v30.4l-3.1-1.5l0.3-34.1l26.1,14.6
					L7159.7,6816.2z"/>
				<path id="Path_277-2" class="st5" d="M7162.7,6780.5c-1.1-0.3-2.1-0.7-3-1.3c0,0,23.2-9.5,29.3-16.6c2.7,0.7,3.1,1.5,3.1,1.5
					S7176,6777.9,7162.7,6780.5z"/>
				<path id="Path_334-2" class="st113" d="M7164.8,6791.1c6.2-0.4,19.9-6.4,24.3-11.6c0-0.9-0.1-1,0-3.8
					c-2.3,2.4-12.6,10.3-24.3,12.3V6791.1z"/>
				<path id="Path_335-2" class="st113" d="M7164.8,6799.1c6.3-0.4,20.1-6.4,24.4-11.6c0-0.9-0.1-1,0-3.8
					c-2.3,2.4-12.7,10.3-24.4,12.3V6799.1z"/>
			</g>
		</g>
	</g>
</g>
</svg>
