<svg xmlns="http://www.w3.org/2000/svg" xmlns:xlink="http://www.w3.org/1999/xlink" width="275" height="275" viewBox="0 0 275 275">
  <defs>
    <clipPath id="clip-logos">
      <rect width="275" height="275"/>
    </clipPath>
  </defs>
  <g id="logos" clip-path="url(#clip-logos)">
    <g id="LOGO_SR001" transform="translate(-23.542 -11.032)">
      <g id="Group_418" transform="translate(46.542 29.032)">
        <g id="Group_415" transform="translate(32.305)">
          <path id="Path_2213" d="M185.831,153.338a13.853,13.853,0,0,0,2.635-8.914c0-.571-.044-1.142-.044-1.712-.044-1.888-.044-3.776-.088-5.621-.044-2.854-.088-5.664-.132-8.519-.044-1.713-.044-3.381-.044-5.094l-.132-8.431c-.044-2.986-.088-6.016-.088-9v-.22c-.044-.351-.088-.439-.439-.439h-3.645c-.351,0-.4.044-.439.4-.044.79-.132,1.581-.176,2.371l-.263,4.611-.263,4.611-.263,4.742c-.088,1.581-.176,3.118-.263,4.7-.088,1.669-.22,3.293-.263,4.962-.088,1.712-.132,3.425-.22,5.137a5.653,5.653,0,0,1-.439,2.108,2.692,2.692,0,0,1-3.249,1.405c.176.571-.132,1.449-.922,1.01v-1.405c.044,0,.088-.044.176-.044a3.353,3.353,0,0,1-.4-.4,6.181,6.181,0,0,1-1.405-3.513c-.044-.79-.132-1.581-.22-2.371-.132-1.405-.22-2.854-.351-4.259l-.132-1.844h0c-.044-.439-.044-.922-.088-1.361-.132-1.581-.263-3.162-.351-4.742-.088-.878-.132-1.756-.22-2.635-.088-1.361-.22-2.766-.351-4.128-.088-1.01-.132-1.976-.22-2.986-.132-1.976-.307-3.952-.439-5.928-.044-.483-.044-.527-.527-.527h-3.293c-.527,0-.527.044-.571.571-.044.483-.088.966-.088,1.449h.22v.922h-.263c-.088,1.317-.22,2.635-.307,3.908-.088.878-.132,1.8-.22,2.679-.132,1.537-.263,3.074-.351,4.611-.088.878-.132,1.8-.22,2.679-.132,1.537-.22,3.074-.351,4.611-.088.922-.132,1.844-.22,2.766-.132,1.625-.22,3.205-.351,4.83-.088.878-.132,1.8-.263,2.679a4.786,4.786,0,0,1-1.493,2.766,2.563,2.563,0,0,1-2.81.483,2.524,2.524,0,0,1-1.669-2.152c-.132-1.317-.22-2.591-.263-3.908-.044-.834-.088-1.625-.132-2.459-.088-1.712-.22-3.469-.351-5.181l-.263-4.611c-.088-1.756-.176-3.513-.307-5.269-.132-1.932-.22-3.908-.351-5.84-.088-1.669-.176-3.293-.307-4.962-.044-.527-.044-.527-.571-.527h-3.381a2.32,2.32,0,0,0-.527.044,1.5,1.5,0,0,1-.044.483c-.044,1.493-.044,2.986-.088,4.479-.044,2.5-.044,5.05-.088,7.553-.044,2.239-.044,4.435-.088,6.674-.044,2.327-.088,4.611-.088,6.938-.044,2.766-.088,5.489-.088,8.255,0,2.02-.176,4.084-.044,6.1a16.773,16.773,0,0,0,.659,3.6A15.782,15.782,0,0,0,156.323,154c1.844,2.547,3.645,5.137,5.445,7.728a15.6,15.6,0,0,1,2.108,4.7,23.349,23.349,0,0,1,.7,6.06c0,.922,0,1.888.044,2.81a.557.557,0,0,0,.044-.263c1.01.307.439,1.01-.044,1.449,0,1.142.044,2.327.044,3.469v43.691a3.15,3.15,0,0,1,.922-.22,7.532,7.532,0,0,1-.922,1.888v21.736h2.239c1.361,0,2.635-1.361,3.381-2.459a11.943,11.943,0,0,0,1.625-4.3c0-.088.044-.176.044-.307-.307.615-1.186-.088-1.317.527-.966-.132.483-1.581,1.361-1.405v.263a25.642,25.642,0,0,0,.351-4.084c.044-1.317.088-2.679.132-4h-.088a.7.7,0,0,1,.088-.659v-.4c.044-1.581.132-3.205.176-4.786.044-1.669.132-3.337.176-5.006.044-1.581.132-3.205.176-4.786.044-1.712.132-3.381.176-5.05.044-1.581.132-3.205.176-4.786l.176-5.094c.044-1.581.132-3.205.176-4.786.044-1.669.132-3.337.176-5.006.044-1.625.132-3.205.176-4.83.044-1.669.132-3.337.176-5.006.044-.659.044-1.273.088-1.888-1.1-.176-1.186.044-2.986.132a2.373,2.373,0,0,1,2.986-1.01c.044-.659.044-1.317.088-2.02.044-.834.088-1.669.176-2.5,0,.483.044.922.044,1.405v3.337a1.756,1.756,0,0,1,.439.79c-.176-.044-.263-.044-.439-.088v49.092a1.141,1.141,0,0,0,.4-.7c1.361.22.878,1.449-.4,1.449V247.13h2.415L177,214.417c0-7.816-.044-15.588-.044-23.4,0-6.85-.088-13.656.176-20.506a14.964,14.964,0,0,1,.22-2.02,18.942,18.942,0,0,1,3.337-7.992C182.45,157.992,184.118,155.621,185.831,153.338Zm.044-2.2c-.044-.088-.088-.132-.088-.176a.094.094,0,0,1,.088-.088c.044,0,.132.044.132.088s-.088.088-.132.176Zm1.1-31.045.088.088c-.044.044-.044.088-.088.132-.044-.044-.088-.044-.088-.088S186.929,120.142,186.973,120.1Zm-.307-10.934C186.973,109.471,186.446,108.988,186.665,109.164Zm.044,30.254a.161.161,0,0,1,.044.132c0,.044-.044.044-.088.088a.136.136,0,0,1-.044-.088.632.632,0,0,1,.088-.132Zm-.263-.79c.044,0,.044.044.088.088a.161.161,0,0,1-.132.044c-.044,0-.044-.044-.044-.088s.044-.044.088-.044Zm-.571-1.142c.044.044.088.088.088.132a.544.544,0,0,1-.132.088c-.044-.044-.044-.088-.044-.176,0,0,.088-.088.088-.044Zm-.307,5.84a3.96,3.96,0,0,1,.439.4c0,.044-.044.088-.044.132a.329.329,0,0,1-.22-.044c-.044-.176-.307-.22-.176-.483Zm-1.625,6.147c.044,0,.088.044.176.088-.088.044-.132.132-.176.132s-.088-.088-.088-.088c0-.088.044-.132.088-.132Zm-1.405,7.026.088.088-.088.088s-.088-.044-.088-.088S182.494,156.543,182.538,156.5Zm-28.015-45.886c.088.044.176.044.263.088a.48.48,0,0,0-.176.088c-.044,0-.088-.044-.132-.088Zm.044,16.379c-.044-.044-.088-.044-.132-.088.044-.044.044-.088.088-.088s.088.044.132.088c-.044.044-.088.132-.088.088Zm.263,9.836-.088-.088a.153.153,0,0,0,.044-.088c.044.044.088.044.088.088s-.044.044-.044.088Zm.834-13.7c-.044,0-.044-.044-.088-.088.044-.044.088-.088.132-.088a.544.544,0,0,0,.132.088c-.088.044-.132.088-.176.088Zm1.142,5.006c-.044-.044-.088-.044-.088-.088a.544.544,0,0,0,.088-.132c.044.044.088.088.088.132s-.088.088-.088.088Zm.79-4.742c-.044-.044-.044-.088-.088-.132a.153.153,0,0,0,.088-.044c.044,0,.044.044.088.088a.094.094,0,0,1-.088.088Zm2.81,19.013a.088.088,0,1,1,0-.176c.044,0,.044.044.132.088-.044.044-.088.088-.132.088Zm.263,6.455c-.044,0-.044-.044-.088-.088.044-.044.088-.044.132-.088l.088.088c0,.044-.044.044-.132.088Zm.176-6.06C161.988,140.955,161.5,144.292,160.846,142.8Zm1.405,9.177c-.22-.966.659-.878,1.405-.922a1.25,1.25,0,0,1-1.405.922Zm-.483-7.816c.132-1.054,1.186-1.054,1.844-.439-.176.615-1.142.4-1.844.439Zm7.816-29.464h.922v.922h-.922Zm.044,34.513c.044.044.088.088.088.132s-.044.044-.088.088c-.044-.044-.088-.044-.088-.088s.044-.088.088-.132Zm-.79-1.361c.044,0,.044.044.088.088-.044.044-.088.044-.088.088-.044-.044-.044-.088-.088-.132,0-.044.044-.044.088-.044Zm-.615,21.165C171.911,169.189,169.892,171.165,168.223,169.014Zm0,9.7a2.124,2.124,0,0,1-1.844.922c-.439-1.405,1.01-.79,1.844-.922Zm-3.249,1.844C165.544,179.157,167.477,181.045,164.974,180.562Zm1.581,43.6a.332.332,0,0,1-.044-.176.153.153,0,0,1,.044-.088c.044.044.088.044.088.088s-.044.044-.088.176Zm-.615-11.373c-.263-.966.659-.878,1.361-.922a1.287,1.287,0,0,1-1.361.922Zm1.756,14.622c-.044-.044-.088-.044-.088-.088a.094.094,0,0,1,.088-.088c.044,0,.044.044.088.088-.044.044-.088.044-.088.088Zm.878,8.65c-.044,0-.088-.044-.132-.088a.136.136,0,0,0,.044-.088c.044,0,.132.044.176.044-.044.088-.044.176-.088.132ZM167.3,219.247a21.242,21.242,0,0,1,.878-3.205c1.625.176,1.229,3.864-.878,3.205Zm1.186-17.784a.543.543,0,0,0-.088-.132c.044-.044.044-.088.088-.088,0,0,.088.044.088.088s0,.088-.088.132Zm.176.4c-.044.044-.088.044-.088.088-.044-.044-.044-.088-.088-.132a.136.136,0,0,1,.088-.044s.044.088.088.088Zm.044-14.842C170.243,185.919,167.608,188.554,168.706,187.017Zm1.229-12.163-.044-.044c-.351.834-.263,2.2-1.229,2.547-.966-1.1-.088-2.5,0-3.205a.91.91,0,0,1,.922.307c0-.044.044-.044.044-.088.044.088.088.132.088.176h0a.624.624,0,0,0,.263.088c0,.044-.044.044-.044.088l.088.088C170.067,174.766,169.979,174.854,169.935,174.854Zm.307-.263-.132-.132c.044-.044.088-.088.132-.088s.088.088.176.132l-.176.088Zm.263.263c-.044,0-.088-.044-.088-.132,0-.044.088-.088.088-.088a.759.759,0,0,1,.176.132c-.088.044-.132.088-.176.088Zm.307,58.4c-.044,0-.088,0-.088-.044s.044-.088.088-.132c.044,0,.088.044.132.044l-.132.132Zm-.044-58.137a.094.094,0,0,1-.088-.088.153.153,0,0,1,.044-.088c.044.044.132.044.176.088-.044.044-.088.088-.132.088Zm-.044-.527c-.044,0-.088-.088-.088-.132.044-.044.088-.088.132-.088s.088.044.176.132c-.044.044-.132.044-.22.088Zm-.176-10.67C170.594,162.6,172.438,164.4,170.55,163.92Zm.4,10.846c.044-.044.044-.088.088-.132s.088.044.176.132c-.044.044-.132.044-.176.088l-.088-.088Zm.351,56.82a.153.153,0,0,0-.044-.088c0-.044.044-.044.088-.088a.161.161,0,0,1,.044.132c0,.044-.044.044-.088.044Zm.044-56.469c-.044-.044-.044-.088-.088-.132a.153.153,0,0,0,.088-.044l.088.088-.088.088Zm0-.571c-.044,0-.088-.044-.132-.088l.044-.088c.044,0,.132.044.176.044-.044.088-.044.132-.088.132Zm-.79-13.349c-.132-1.229.176-1.976,1.361-1.844-.176.878-.176,1.976-1.361,1.844Zm1.888-33.24c.044.044.044.088.088.132a.161.161,0,0,1-.132.044.543.543,0,0,1-.088-.132Zm.044,18.091-.132-.132c.044-.044.088-.088.132-.088s.088.044.176.088c-.088.088-.176.176-.176.132Zm.834,2.547c-.044,0-.132-.044-.132-.088s.044-.088.088-.176l.132.132c0,.044-.044.132-.088.132Zm.263-21.165c.044,0,.044.044.088.088-.044.044-.088.088-.132.044-.044,0-.044-.044-.044-.088s.044-.044.088-.044Zm-.044,32.757c-.044-.132-.088-.176-.044-.22,0-.044.088-.088.132-.132.044.044.088.088.088.132s-.088.044-.176.22Zm.307-.439c-.044,0-.088-.088-.088-.132,0,0,.088-.088.088-.044.044,0,.088.044.176.088-.088.044-.132.088-.176.088Zm.263-23.668a.332.332,0,0,1-.044-.176.153.153,0,0,1,.044-.088c.044.044.088.044.088.088s-.044.044-.088.176Zm.132-12.646C174.5,123.742,174.019,123.259,174.239,123.435Zm.22,36.314c-.044,0-.088-.044-.132-.088a.136.136,0,0,0,.044-.088c.044,0,.132.044.176.044a.544.544,0,0,1-.088.132Zm.22-12.207c.044.044.088.088.132.088-.044.044-.044.088-.088.088s-.044-.044-.088-.088,0-.044.044-.088Zm0,17.784C174.766,163.964,176.61,165.808,174.678,165.325Z" transform="translate(-88.965 -54.232)" fill="#e51d30"/>
          <path id="Path_2214" d="M184.424-11h-.088l-.4.263a12.276,12.276,0,0,0-3.03,2.371,12.7,12.7,0,0,0-3.469,9.836A12.427,12.427,0,0,0,179.2,7.047,6.582,6.582,0,0,0,182.36,9.77c.132.044.307.088.527.176.263-2.635.527-5.181.746-7.728s.483-5.094.79-7.64a.624.624,0,0,1,.088.263c.088.571.132,1.186.22,1.756.22,1.712.439,3.425.615,5.137.132,1.1.263,2.2.4,3.337.176,1.449.351,2.942.527,4.391a2.629,2.629,0,0,0,.088.527,2.042,2.042,0,0,0,.4-.132,6.482,6.482,0,0,0,3.118-2.722,12.4,12.4,0,0,0,1.537-8.65,12.732,12.732,0,0,0-6.674-9.177C184.644-10.868,184.512-10.912,184.424-11ZM180.077,6.7a.136.136,0,0,1-.044-.088l.088-.088.088.088C180.121,6.652,180.121,6.7,180.077,6.7ZM188.2,2.963C188.025,2.744,188.464,3.227,188.2,2.963ZM186.532-7.795c.044.044.044.088.088.132l-.088.088c-.044-.044-.088-.044-.088-.088a.543.543,0,0,0,.088-.132Zm-1.581.132h-.922v-.922h.922Z" transform="translate(-102.488 11)" fill="#a6bf41"/>
          <path id="Path_2215" d="M17.031,145.283a10.287,10.287,0,0,0,5.269-.834,5.9,5.9,0,0,0,2.766-2.415,4.081,4.081,0,0,0,.22-.439c-4.523-1.142-8.958-2.283-13.437-3.425v-.132c2.283.088,4.611.176,6.894.22s4.611.176,6.938.22c-.044-.22-.044-.4-.088-.527a5.649,5.649,0,0,0-2.02-3.03,11.545,11.545,0,0,0-16.247,1.932l-.088.088a4.141,4.141,0,0,1-.439.439v.088a4.789,4.789,0,0,1,.263.483A11.686,11.686,0,0,0,17.031,145.283Zm.044-3.776a.544.544,0,0,1,.088.132.264.264,0,0,1-.176.044c-.044,0-.044-.044-.044-.088s.044-.044.132-.088Zm-1.756-1.1c.044.044.088.088.088.132a.543.543,0,0,1-.132.088c-.044-.044-.044-.088-.044-.176C15.231,140.453,15.319,140.365,15.319,140.409Zm-.527,1.1c.044,0,.088.044.176.132a.329.329,0,0,1-.22.044c-.044,0-.044-.044-.088-.088C14.7,141.595,14.748,141.507,14.792,141.507Zm4.742-4.215c.044,0,.088.044.176.132a.329.329,0,0,1-.22.044c-.044,0-.088-.088-.088-.088A.632.632,0,0,1,19.534,137.292Z" transform="translate(-6.8 -69.45)" fill="#a6bf41"/>
          <path id="Path_2216" d="M344.5,132.7a10.829,10.829,0,0,0-5.884,2.459,5.787,5.787,0,0,0-1.932,2.942c-.044.176-.044.351-.088.527l4.655-.132c1.537-.044,3.03-.132,4.567-.176s3.03-.132,4.567-.044c-2.2.615-4.435,1.186-6.63,1.756-2.239.571-4.479,1.1-6.718,1.712a1.315,1.315,0,0,0,.176.351,5.957,5.957,0,0,0,2.9,2.5,10.581,10.581,0,0,0,5.708.7,11.416,11.416,0,0,0,9.046-6.63,10.049,10.049,0,0,0,.439-1.01v-.176c-.044,0-.044-.044-.088-.044A11.138,11.138,0,0,0,344.5,132.7Zm1.186,1.888c-.132-.746.439-.746.439-1.361.878-.176.659,2.064-.439,1.361Zm4.523,2.722c-.044-.044-.088-.088-.088-.132s.044-.088.088-.176c.044.088.088.132.132.22-.044.044-.088.088-.132.088Zm-9.177,5.577Zm3.6-2.108c-.088-.088-.088-.132-.132-.132.044-.044.088-.088.132-.088,0,0,.088.044.088.088a.545.545,0,0,0-.088.132Zm5.577-.878a.632.632,0,0,1,.088.132c-.044.044-.088.088-.132.088,0,0-.088-.044-.088-.088l.132-.132Zm-.263-.263a.153.153,0,0,1,.088.044c0,.044-.044.132-.044.176-.088-.088-.132-.088-.176-.132.044,0,.088-.044.132-.088Zm.088.7q0,.066-.132.132c-.044-.088-.088-.132-.088-.176s.088-.088.132-.088.088.044.088.132Zm-1.537.132a.335.335,0,0,1,.22.088c-.088.088-.132.132-.176.132l-.132-.132s.044-.088.088-.088Zm-1.888-.307c.044.044.088.088.088.132l-.088.088c-.044-.044-.088-.044-.088-.088-.044,0,0-.044.088-.132Zm-.571.79c-.044,0-.088-.088-.132-.132.044-.044.088-.088.132-.088s.088.044.176.132c-.088.044-.132.132-.176.088Zm.527,0c-.044,0-.088-.088-.132-.088.044-.044.088-.088.132-.088s.088.044.176.088c-.088.044-.132.088-.176.088Zm.307-.263c-.044-.044-.088-.088-.088-.132,0,0,.044-.088.088-.088.044.044.088.044.132.088a.328.328,0,0,1-.132.132Zm.834,1.932a.153.153,0,0,1-.088-.044l.088-.132c.044,0,.088.044.132.044-.088.088-.088.132-.132.132Zm0-1.669c-.044,0-.088-.044-.132-.088,0-.044.044-.088.132-.176.044.088.132.132.132.176s-.088.088-.132.088Zm1.1.615c-.132-.176-.263-.307-.351-.439l.088-.088c.088.044.132.088.22.132.132.088.176.044.22-.088h0c-.263-.176-.263-.22,0-.4h0a.161.161,0,0,1,.044-.132c.044-.044.088-.044.176-.044.044,0,.044.088.044.088-.044.044-.088.088-.132.088a.161.161,0,0,1-.132-.044h0v.4h0c.132-.044.22-.088.307.088a4.8,4.8,0,0,0-.483.439Zm.571-1.756c-.044-.044-.088-.088-.088-.132a.153.153,0,0,0,.088-.044l.088.088c0,.044-.088.132-.088.088Zm.834,1.449a.153.153,0,0,1-.088-.044c0-.044.044-.132.088-.132s.088.044.176.088a.228.228,0,0,0-.176.088Zm-.176-.615h0c0,.044.044.088,0,.132a.607.607,0,0,1-.132.176.442.442,0,0,0-.132-.044c.044-.088.044-.132.088-.22.088,0,.132,0,.176-.044h0c.132-.263.176-.263.307-.088a.5.5,0,0,1,.132.351,1.644,1.644,0,0,1-.439-.263Zm1.01.351s-.088-.044-.088-.088.044-.088.044-.132c.088.044.088.088.132.088,0,.044-.044.088-.088.132Zm.571,0a3.957,3.957,0,0,0-.439-.4c.307-.263.307.088.439.088.044,0,.044.132.088.22,0,.044-.044.044-.088.088Zm.263-.878a.094.094,0,0,1-.088-.088s.044-.088.088-.088c.088,0,.132.044.22.044-.132.088-.176.132-.22.132Zm.527.527c-.044-.044-.044-.088-.088-.132.044,0,.088-.044.132-.044s.088.088.132.132c-.088.044-.132.088-.176.044Zm1.186-1.625c-.044,0-.088-.088-.088-.132.044-.044.088-.088.132-.088s.088.044.176.132a1.849,1.849,0,0,0-.22.088Z" transform="translate(-191.784 -69.553)" fill="#a6bf41"/>
          <path id="Path_2217" d="M276.2,81.481a32.214,32.214,0,0,0-2.239,2.635,17.9,17.9,0,0,0-2.239,4,13.2,13.2,0,0,0-.79,5.84,5.391,5.391,0,0,0,.351,1.669c4.347-2.152,8.65-4.3,12.954-6.455l10.275-5.137c-.22-1.229,1.229-.79,1.405-1.625a.748.748,0,0,1,.527.659c.263-.132.483-.263.746-.4.044.044.044.088.088.132-1.493,1.186-2.986,2.415-4.479,3.6-1.493,1.229-3.03,2.459-4.523,3.645-1.493,1.229-2.986,2.415-4.479,3.645s-3.03,2.459-4.523,3.645c-1.493,1.229-2.986,2.415-4.435,3.6.044.044.044.088.088.132s.132.088.176.132a12.507,12.507,0,0,0,7.377,2.459,18.365,18.365,0,0,0,5.138-.7,23.538,23.538,0,0,0,15.017-11.592,22.955,22.955,0,0,0,2.9-10.012c.088-1.229-.044-2.459-.044-3.688a.571.571,0,0,0-.351-.527c-.615-.307-1.229-.659-1.888-.922a23.494,23.494,0,0,0-14.8-1.669c-.044.307-.088.483,0,0-.22.044-.4.088-.615.132a23.866,23.866,0,0,0-9.353,4.567,1.037,1.037,0,0,1,.4.263C278.222,80.515,277.827,81.613,276.2,81.481Zm11.109,19.364a.153.153,0,0,0-.044-.088l.088-.088c.044.044.044.088.088.132-.088,0-.088,0-.132.044Zm.307.263c-.044-.044-.088-.088-.088-.132a.153.153,0,0,0,.088-.044c.044,0,.132.044.176.044-.088.088-.132.132-.176.132Zm7.772-7.684c-.044-.132-.088-.176-.044-.22,0-.044.088-.088.132-.132.044.044.088.088.088.132s-.044.044-.176.22Zm7.377-13.3C303.6,78.5,304.261,81.613,302.768,80.12Zm-2.854-3.82a.088.088,0,1,1,0,.176c-.044,0-.044-.044-.088-.088.044-.044.044-.088.088-.088Zm-.307,15.9c.088.088.132.088.132.132l-.044.088a.119.119,0,0,1-.088-.22Zm-2.81-13.48c.307,1.01-.834.659-.922,1.405-1.1-.176,0-1.8.922-1.405Zm-3.557-.132.088.088-.088.088-.088-.088a.1.1,0,0,1,.088-.088Zm-1.493-2.591C291.878,74.587,293.678,76.431,291.746,75.992Zm-1.581,7.2c.088.4-.22.4-.22.615a.606.606,0,0,0-.176-.132,5.923,5.923,0,0,0,.4-.483Zm-4.786-2.986c.044.044.132.044.176.088-.088.044-.132.088-.176.088s-.088-.088-.088-.132a.153.153,0,0,1,.088-.044Z" transform="translate(-154.922 -36.693)" fill="#a6bf41"/>
          <path id="Path_2218" d="M224.789,228.977c.176.176.307.351.439.483,1.888,2.108,3.82,4.215,5.708,6.323,2.942,3.249,5.884,6.5,8.782,9.748,1.361,1.537,2.766,3.074,4.128,4.611a1.86,1.86,0,0,1,.22.307l-.088.088q-11.724-8.365-23.492-16.774c-.088.22-.176.307-.22.439a12.556,12.556,0,0,0-.79,3.645,12.824,12.824,0,0,0,.746,5.137,23.774,23.774,0,0,0,12.207,13.48,22.8,22.8,0,0,0,8.826,2.239,21.017,21.017,0,0,0,4.391-.176,28.519,28.519,0,0,0,5.4-1.317.68.68,0,0,0,.439-.527,24.963,24.963,0,0,0,.7-5.094,24.661,24.661,0,0,0-.22-4.04,22.351,22.351,0,0,0-2.152-7.07,23.393,23.393,0,0,0-13.7-12.075,15.46,15.46,0,0,0-5.094-1.01,12.208,12.208,0,0,0-5.708,1.273C225.185,228.757,225.009,228.845,224.789,228.977ZM222.857,247.2Zm.351-10.055c-.088-.176-.4-.176-.263-.527l.439.439c-.088.044-.132.088-.176.088Zm1.976,7.289a1.217,1.217,0,0,1,1.361-.922,1.335,1.335,0,0,1-1.361.922Zm4.786,9.529a.088.088,0,1,1,0-.176c.044,0,.044.044.176.088-.132.044-.132.088-.176.088Zm.22-7.245Zm15.72-4.962q.066,0,.132.132c-.044.044-.088.088-.132.088l-.132-.132c.044-.044.088-.088.132-.088Zm-.483,0c.044,0,.044.044.088.132-.088.044-.132.088-.176.044s-.044-.088-.088-.132c.044,0,.088-.044.176-.044Zm-2.81,1.756c-.527-.044-.4-.834-.439-1.405,1.581-.307.746.966.439,1.405Zm-1.142-1.186a.543.543,0,0,1,.088.132.264.264,0,0,1-.176.044c-.044,0-.044-.044-.044-.088.044-.044.088-.088.132-.088ZM239.5,235.3l.088.088c-.044.044-.044.088-.088.088a.153.153,0,0,1-.088-.044c0-.044.044-.088.088-.132Zm-.307-.263c.044,0,.132.044.176.044a.631.631,0,0,0-.088.132c-.044,0-.088-.044-.132-.088,0,0,0-.088.044-.088Zm-.22-4.742c.044,0,.044.044.088.088l-.176.044c0-.044-.044-.088-.044-.132Zm-1.405,4.479C237.655,233.368,239.5,235.168,237.567,234.773Zm.439,7.333c-.088.044-.132.132-.176.132s-.088-.044-.088-.132c0,0,.044-.088.088-.088.044.044.088.044.176.088Zm2.327-.439a1.644,1.644,0,0,1-1.1.834h-.044a4.737,4.737,0,0,1-.834.132l.088.088-.088.088c-.044-.044-.088-.044-.132-.088.044-.044.044-.044.088-.044h-.746a3.682,3.682,0,0,1,2.766-1.01Zm-4.567-2.283C236.865,237.583,236.382,240.877,235.767,239.384Zm-6.06-11.065c.044.044.088.088.088.132s-.044.088-.132.176a.329.329,0,0,1-.044-.22c0-.044.088-.088.088-.088Z" transform="translate(-126.079 -122.714)" fill="#a6bf41"/>
          <path id="Path_2219" d="M111.766,16.534a22.344,22.344,0,0,0-1.844,4.654,3.806,3.806,0,0,0,.746-1.449c1.186.922-.483,2.9-.922,3.732a1.184,1.184,0,0,1-.307-.351,17.871,17.871,0,0,0-.351,2.679,22.312,22.312,0,0,0,.263,5.928,23.839,23.839,0,0,0,11.944,16.642,13.59,13.59,0,0,0,2.459,1.1,12.906,12.906,0,0,0,5.181.527,6.291,6.291,0,0,0,1.8-.4c-.351-.7-.7-1.361-1.054-2.02s-.7-1.317-1.01-1.976-.659-1.317-1.01-1.976-.7-1.317-1.01-1.976-.7-1.317-1.01-1.976c-.088-.132-.132-.307-.22-.439.044,1.054-.79,2.327-1.844,2.152a6.957,6.957,0,0,1,1.317-3.162,3.629,3.629,0,0,0-.307-.571c-.351-.659-.659-1.317-1.01-1.932-.351-.659-.7-1.317-1.01-1.976-.351-.659-.7-1.317-1.01-1.976s-.7-1.317-1.01-1.976-.7-1.317-1.01-1.976-.7-1.317-1.01-1.976a13.6,13.6,0,0,1-.922-1.976c.834.922,1.581,1.844,2.371,2.766s1.537,1.888,2.327,2.81,1.537,1.844,2.327,2.81c.746.922,1.537,1.844,2.283,2.766l2.327,2.81c.79.922,1.537,1.844,2.327,2.81.79.922,1.537,1.844,2.327,2.81s1.493,1.888,2.327,2.766l.132-.132a2.435,2.435,0,0,0,.263-.351,12.435,12.435,0,0,0,2.2-6.279,18.528,18.528,0,0,0-.132-3.118,22.274,22.274,0,0,0-1.932-6.718,13.383,13.383,0,0,0-.922-1.756c-1.1.307-2.239.571-3.381.79.439-1.054,1.581-1.405,2.9-1.625a23.335,23.335,0,0,0-11.329-9.616,22.3,22.3,0,0,0-8.606-1.712c-.834,0-1.712.088-2.547.088a.814.814,0,0,0-.307.088v.834Zm15.412,30.693c.088.044.176.044.263.088a.48.48,0,0,0-.176.088c-.044,0-.088-.044-.132-.088C127.135,47.271,127.135,47.228,127.179,47.228Zm-3.03-2.5s.088.044.088.088-.044.088-.088.132c-.044-.044-.088-.088-.088-.132A.094.094,0,0,1,124.149,44.725Zm-.351,2.986c.044.088.132.132.132.176a.094.094,0,0,1-.088.088s-.088-.044-.088-.088c-.044-.044,0-.088.044-.176Zm13.173-9.748c.044.044.088.088.088.132-.044.044-.044.088-.132.088,0,0-.088-.044-.088-.088l.132-.132Zm-1.405-.263.132.132a.631.631,0,0,1-.132.088c-.044-.044-.088-.088-.088-.132l.088-.088Zm-2.2.527c.044.044.088.088.088.132l-.088.088c-.044-.044-.088-.044-.088-.088-.044,0,.044-.044.088-.132Zm.307-11.592Zm-6.191,4.654c.044,0,.044.044.088.088-.044.044-.088.044-.088.088-.044-.044-.044-.088-.088-.132a.153.153,0,0,1,.088-.044Zm-3.908-1.361C123.183,32.605,123.842,28.039,123.578,29.927Zm-3.337-6.279c-.044,0-.088-.044-.132-.088.044-.044.088-.088.132-.088s.088.044.176.088a.481.481,0,0,0-.176.088Zm.263,1.932a.153.153,0,0,1-.088-.044c.044-.044.044-.088.088-.132.044,0,.088.044.132.044-.088.088-.088.132-.132.132Zm.527-2.415c.044,0,.088.044.176.088a.328.328,0,0,0-.132.132.094.094,0,0,1-.088-.088c-.044-.044.044-.132.044-.132Zm-.439.088V23.3h-.044c-.044.263-.22.351-.7-.351.439-.878.746-.132.746.307Zm-2.986,13.963C117.694,35.855,119.495,37.7,117.606,37.216Zm.878,3.776a.153.153,0,0,0-.044-.088l.044-.044a.333.333,0,0,1,.176.088c-.088,0-.132,0-.176.044Zm.878,4.171c-.044,0-.044-.044-.088-.088,0-.044.044-.088.044-.132.044.088.088.132.088.176s0,.044-.044.044Zm-.4-15.72c-.483-.307-.483-1.054-1.361-.922.483-1.317,2.722.176,1.361.922Zm-1.844.878C117.211,28.961,119.055,30.761,117.123,30.322Zm-2.5,11.021a.544.544,0,0,0,.132.088c-.044.044-.088.088-.132.088,0,0-.088-.044-.088-.088l.088-.088Zm-.263-10.934c.044.044.044.088.044.176l-.088.044c-.044-.044-.044-.088-.088-.132a.632.632,0,0,0,.132-.088Z" transform="translate(-64.124 -3.976)" fill="#a6bf41"/>
          <path id="Path_2220" d="M66.2,165.2l-.176-.351A12.3,12.3,0,0,0,59.7,160.37a18.276,18.276,0,0,0-4.83-.834,24.338,24.338,0,0,0-5.928.351,23.77,23.77,0,0,0-18.881,18.4.785.785,0,0,0,.22.79,25.391,25.391,0,0,0,5.4,4.259,24.49,24.49,0,0,0,10.012,3.118A24.113,24.113,0,0,0,52.1,186.1a22.64,22.64,0,0,0,6.455-2.283,21.592,21.592,0,0,0,6.367-4.874,12.39,12.39,0,0,0,3.03-7.026,2.138,2.138,0,0,0-.044-.527c-9.572,1.625-19.057,3.205-28.586,4.786,0-.044-.044-.088-.044-.132,2.239-.922,4.479-1.8,6.718-2.722s4.479-1.8,6.718-2.722c.746-.307,1.449-.571,2.2-.878a.422.422,0,0,1,.4-.307.333.333,0,0,1,.176.088c1.317-.527,2.679-1.054,4-1.625C61.716,167,63.956,166.123,66.2,165.2Zm-5.708-2.064c.044.044.088.044.132.088-.044.044-.088.088-.132.088-.044-.044-.088-.044-.088-.088s.088-.088.088-.088ZM35.9,181.711c-.044-.044-.044-.044-.044-.088s.044-.044.088-.044.044.044.132.088A.332.332,0,0,1,35.9,181.711Zm20.945.132c.044,0,.044.044.088.088-.044.044-.044.088-.088.088s-.044-.044-.132-.088c.088-.044.088-.088.132-.088Zm-2.2-3.337c.044.044.088.044.088.088s-.044.044-.088.088c-.044-.044-.088-.044-.088-.088a.094.094,0,0,0,.088-.088Zm-1.186,6.674C55.042,184.038,52.363,186.673,53.461,185.18Zm-.878-4.654C52.671,179.164,54.515,181.008,52.583,180.525Zm-1.844-5.05C51.046,175.783,50.519,175.3,50.739,175.475Zm-2.327,0c.088-.132,1.361-.922,1.844-.439.4.351-2.239,1.01-1.844.439Zm-5.181,2.2c.044,0,.044.044.044.088a.161.161,0,0,1-.132.044.544.544,0,0,1-.088-.132Zm-5.884,2.722c-.044-.044-.088-.088-.088-.132,0,0,.044-.088.088-.088s.088.044.132.088c-.044,0-.088.088-.132.132Zm-.044-4.523c-.044,0-.088-.088-.088-.088a.094.094,0,0,1,.088-.088c.044,0,.088.044.176.132a.332.332,0,0,1-.176.044Zm.571.922c.044,0,.088.044.176.088-.088.088-.132.132-.176.132s-.088-.044-.132-.088c.088-.044.088-.132.132-.132Zm.044.746c-.044,0-.088-.044-.132-.088.044-.044.044-.088.088-.088a.335.335,0,0,1,.22.088c-.088.088-.132.132-.176.088Zm.263-.22c-.044-.044-.088-.088-.088-.132.044-.044.044-.088.088-.132.044.044.088.088.088.132s-.044.088-.088.132Zm0-.527a.328.328,0,0,1-.132-.132c.044-.044.088-.132.132-.176l.132.132c.044.044-.088.088-.132.176Zm.22-.571a.228.228,0,0,1,.088.176s-.044.088-.088.088a.094.094,0,0,1-.088-.088.228.228,0,0,1,.088-.176Zm0,.615a.333.333,0,0,1,.176.088c-.044.044-.088.088-.132.088-.044-.044-.088-.044-.132-.088l.088-.088Zm0,4.084s-.088-.044-.088-.088a.094.094,0,0,1,.088-.088.543.543,0,0,0,.132.088c0,.044-.044.044-.132.088Zm0-3.381a.088.088,0,0,1,0-.176c.044,0,.088.044.176.088-.088.088-.132.088-.176.088Zm.79-5.752c-.834-.351-.088-.834,0-1.405.79.351.088.878,0,1.405Zm.922.746a.094.094,0,0,1-.088-.088c0-.044.044-.044.044-.088a.819.819,0,0,0,.176.132c-.044,0-.088.044-.132.044Zm4.171-10.846C44.943,160.151,45.426,163.444,44.284,161.688Zm11.987,3.688C56.052,165.156,56.535,165.683,56.271,165.376Zm.439-2.327c-.088-1.01.4-1.449,1.405-1.361.088.966-.351,1.449-1.405,1.361Z" transform="translate(-19.826 -84.625)" fill="#a6bf41"/>
          <path id="Path_2221" d="M111.288,227.56A23.262,23.262,0,0,0,95.481,239.02c-.088.132-.132.263-.22.4.659.483,1.01,1.1.966-.132,1.361.307-.351,2.152-2.2,2.679a23.948,23.948,0,0,0-1.493,5.8,1.222,1.222,0,0,1,1.405.746,1.435,1.435,0,0,1-1.537.263,29.717,29.717,0,0,0-.044,3.425,23.7,23.7,0,0,0,.659,4.3.854.854,0,0,0,.615.659,24.82,24.82,0,0,0,8.387,1.493,23.182,23.182,0,0,0,5.752-.7,23.6,23.6,0,0,0,15.9-13.437,16.781,16.781,0,0,0,1.142-3.249,13.52,13.52,0,0,0,.22-4,12.478,12.478,0,0,0-.7-3.074c-.044-.132-.132-.263-.22-.483l-2.635,1.888c-.878.615-1.756,1.229-2.635,1.888-.263.176-.483.351-.746.527,1.449.527,1.229,2.152-.659,2.239-.176-1.054.7-1.01.527-2.152-.571.4-1.142.834-1.712,1.229-.878.615-1.756,1.229-2.635,1.888-.878.615-1.756,1.273-2.635,1.888-.79.571-1.537,1.1-2.327,1.669a1.037,1.037,0,0,0,1.449.571,2.76,2.76,0,0,1-2.766,2.283c.834-1.669,1.229-1.493.615-2.327l-2.239,1.581-2.371,1.712c.351.22.483.7-.615.439-.746.527-1.449,1.054-2.2,1.537l-.088-.088c4.742-5.269,9.441-10.495,14.183-15.764h-1.8a.977.977,0,1,1,1.844-.044l5.138-5.708q-.066-.132-.132-.132c-.132-.088-.307-.176-.439-.263A12.137,12.137,0,0,0,111.288,227.56ZM93.5,247.144Zm1.361,4.567C93.5,253.467,93.329,250.349,94.866,251.71Zm3.118-3.645a4.667,4.667,0,0,1-.4-.483h0l-.263.132a1.033,1.033,0,0,1-.351-.088l.615-.307v.307h0c.132.044.307.044.439.088a3.864,3.864,0,0,1,.439-.263,1.224,1.224,0,0,0,.044.439,1.248,1.248,0,0,0-.527.176Zm1.361-.307c-.088-.132-.351-.22-.307-.527a5.575,5.575,0,0,1,.527.439c-.088.044-.132.088-.22.088Zm22.175-1.976c-.044-.044-.088-.044-.088-.088a.543.543,0,0,0,.088-.132c.044.044.088.088.088.132s-.088.132-.088.088Zm-.044-.746.088.088c-.044.044-.044.088-.088.132-.044-.044-.088-.044-.088-.088s.044-.088.088-.132Zm-.263-6.982s.088.044.088.088a.161.161,0,0,1-.044.132l-.132.088a.264.264,0,0,1-.044-.176q.066-.132.132-.132Zm0,7.289c.044,0,.088.044.176.132-.044.044-.132.044-.176.088a.094.094,0,0,1-.088-.088c0-.088.044-.132.088-.132Zm-.263-.307.132.132c-.088.044-.132.088-.132.044-.044-.044-.088-.088-.088-.132a.153.153,0,0,1,.088-.044Zm-.834.307a.543.543,0,0,0,.132.088c-.044.044-.088.044-.176.088-.044,0-.044-.044-.088-.088.044-.044.088-.088.132-.088Zm-1.888.263a.161.161,0,0,0,.044.132.4.4,0,0,1-.22.044.153.153,0,0,0-.044-.088c.088-.044.132-.088.22-.088Zm-.878.263c.044,0,.088.044.176.044l-.263.132a.153.153,0,0,1-.044-.088c0-.044.044-.044.132-.088Zm-.615.044c.044,0,.088.044.176.088-.088.044-.132.132-.176.132a.094.094,0,0,1-.088-.088c0-.088.044-.132.088-.132Zm-.834.263c.044.044.132.044.176.088a.543.543,0,0,0-.132.088l-.132-.132c.044,0,.088-.088.088-.044Zm-.263-.263s.088.044.088.088-.044.088-.088.176c-.044-.088-.088-.132-.088-.176a.094.094,0,0,1,.088-.088Zm-1.1.527a.543.543,0,0,0,.132.088l-.132.132a.094.094,0,0,1-.088-.088c0-.088.044-.132.088-.132ZM111.42,247.5c-.044-.044-.088-.088-.088-.132l.088-.088q.066,0,.132.132a.631.631,0,0,1-.132.088Zm-.088-.659c0-.044.044-.088.088-.176.044.088.132.132.132.176s-.044.088-.088.132c-.044-.044-.132-.088-.132-.132Zm.351.4c-.044-.044-.044-.088-.044-.176,0,0,.088-.088.088-.044.044.044.088.088.088.132a.633.633,0,0,0-.132.088Zm1.405-.527c.044,0,.088.044.176.088-.088.044-.132.088-.176.088s-.088-.044-.132-.088c.088,0,.088-.088.132-.088Zm-1.01.132c0,.044-.044.088-.132.088-.044,0-.088-.044-.088-.132q0-.066.132-.132c.044.088.088.132.088.176Zm-1.1-2.459h.922v.922h-.922Zm0,3.03c-.088.044-.132.088-.176.088s-.044-.044-.088-.088c.044-.044.088-.088.132-.088.044-.044.088,0,.132.088Zm-.263-.263a.631.631,0,0,1-.132.088.606.606,0,0,1-.132-.176c.044-.044.088-.044.132-.088a.264.264,0,0,1,.176.044.161.161,0,0,1-.044.132Zm-.132-.7.088.088a.264.264,0,0,1-.176.044.153.153,0,0,1-.044-.088.161.161,0,0,0,.132-.044Zm-4.215.834c.044,0,.132.044.132.088s-.044.088-.088.176c-.044-.044-.088-.132-.132-.176,0,0,.044-.088.088-.088Zm-4.654.615-.307-.307c-.176-.044-.263.4-.439.088a3.842,3.842,0,0,1,.351-.439c.088.088.176.132.263.22.176-.088.307-.176.483-.263C102.155,247.539,101.716,247.539,101.716,247.89Z" transform="translate(-54.776 -122.658)" fill="#a6bf41"/>
          <path id="Path_2222" d="M291.353,174.985c-2.327-.4-4.7-.79-7.026-1.186L278,172.745c-2.459-.4-4.918-.834-7.377-1.229H270.1V172a8.8,8.8,0,0,0,.176,1.054,12.285,12.285,0,0,0,3.118,6.147,22.455,22.455,0,0,0,5.05,4.04,23.815,23.815,0,0,0,29.42-4.128.7.7,0,0,0,.22-.7,23.56,23.56,0,0,0-9.221-14.271,23.268,23.268,0,0,0-13.129-4.567,22.617,22.617,0,0,0-6.191.571,12.645,12.645,0,0,0-7.157,4.391c-.176.22-.307.439-.527.7,2.02.79,4,1.625,5.972,2.415a.5.5,0,0,1,.527.22c2.371.966,4.7,1.888,7.07,2.81,5.006,1.976,13.173,5.313,13.437,5.533-.4-.044-.746-.132-1.1-.176C295.568,175.687,293.46,175.336,291.353,174.985Zm-6.718,6.762c-.044-.044-.044-.044-.044-.088.044-.044.044-.044.088-.044s.044.044.132.088A.264.264,0,0,1,284.634,181.747Zm1.405-1.361s-.088-.044-.088-.088c.044-.044.044-.088.088-.132.044.044.088.088.088.132a.094.094,0,0,1-.088.088Zm.044-4.391c-.044-.088-.088-.132-.088-.176s.088-.088.132-.088c0,0,.088.044.088.088a.606.606,0,0,0-.132.176Zm.571.834a.094.094,0,0,1,.088.088c0,.044-.044.088-.088.176-.044-.088-.088-.132-.088-.176s0-.088.088-.088Zm0,.746c-.044,0-.088-.044-.132-.088.044-.044.044-.088.088-.088s.088.044.22.088C286.742,177.575,286.7,177.619,286.654,177.575Zm.263-.263s-.088-.044-.088-.088c0-.088.044-.132.088-.22.088.088.132.132.132.176a.2.2,0,0,1-.132.132Zm.088-.439c-.044-.044-.088-.044-.132-.088s-.088-.088-.088-.132.088-.088.088-.132a.606.606,0,0,1,.132.176c.044.088,0,.132,0,.176Zm.088.088c0-.044.044-.088.044-.132.044,0,.088-.044.132-.088.044.044.044.088.044.176,0,.044-.044.088-.088.132-.044,0-.132-.044-.132-.088Zm.088.439a.161.161,0,0,1,.044.132c0,.044-.044.044-.088.088a.153.153,0,0,0-.044-.088.632.632,0,0,1,.088-.132Zm0,3.557s-.088-.044-.088-.088a.094.094,0,0,1,.088-.088.544.544,0,0,0,.132.088c-.044.044-.088.044-.132.088Zm0-4.479-.132-.132a.328.328,0,0,1,.132-.132.607.607,0,0,0,.132.176c0,.044-.088.132-.132.088Zm.527,0-.088-.088a.607.607,0,0,1,.132-.176l.088.176c0,.044-.088.088-.132.088Zm.571,0c-.044-.044-.088-.044-.088-.088s.044-.044.088-.132c.044.044.088.044.088.088s-.044.088-.088.132Zm3.645,1.405c-.044,0-.044-.044-.088-.088.044-.044.088-.088.132-.088a.544.544,0,0,0,.132.088c-.088.044-.132.088-.176.088Zm11.461.571c.088.088.088.132.132.176-.044.044-.088.044-.132.088,0-.044-.044-.044-.044-.088A.332.332,0,0,1,303.384,178.454ZM275.15,165.017c-.044-.044-.088-.044-.088-.088s.044-.088.088-.132c.044.044.088.088.088.132l-.088.088Zm1.712,1.1-.088-.044c0-.044.044-.088.044-.176a.631.631,0,0,0,.132.088c-.044.088-.044.132-.088.132Zm1.405.088.088.044a.161.161,0,0,1-.044.132c-.044.044-.088.044-.132.088,0-.044-.044-.132-.044-.176.044,0,.088-.044.132-.088Zm-.263.483c-.044,0-.132-.044-.132-.088s.044-.088.088-.176c.044.088.088.132.088.176.044.044-.044.088-.044.088Zm.22.307c-.044,0-.088-.088-.132-.088a.228.228,0,0,1,.176-.088c.044,0,.088.088.132.132-.088,0-.132.044-.176.044Zm.351-.307c-.044,0-.088,0-.088-.044,0-.088.044-.132.044-.176s.088-.044.088-.088h0c.088-.044.132-.22.263-.132a.061.061,0,0,1,0,.088c-.088.176-.176.088-.307.044h0c0,.044.044.088.044.132,0,.088-.044.132-.044.176Zm.22.307c-.044,0-.088-.088-.132-.132.044-.044.088-.088.132-.088s.088.044.176.132c-.088.044-.132.088-.176.088Zm.527-1.142a.543.543,0,0,1-.088-.132.264.264,0,0,1,.176-.044c.044,0,.044.088.044.088-.044.044-.088.044-.132.088Zm0-2.2a.632.632,0,0,1-.088-.132l.132-.132.088.088c-.044.044-.088.132-.132.176Zm.351,1.669c.044.088.088.132.088.176-.044.044-.088.088-.132.088s-.088-.088-.088-.132.044-.044.132-.132Zm-.044,1.405c-.044-.044-.088-.088-.088-.132,0,0,.044-.088.088-.088a.333.333,0,0,1,.176.088Zm.263-1.449a.153.153,0,0,1-.044-.088.264.264,0,0,1,.044-.176c.044.044.088.044.132.088,0,.044.044.088.044.132a.332.332,0,0,1-.176.044Zm.307.351c-.044-.088-.132-.132-.132-.176.044-.044.044-.088.132-.088,0,0,.088.044.088.088s-.044.088-.088.176Zm.263-3.162-.088-.088.088-.088s.088.044.088.088a.094.094,0,0,1-.088.088Zm1.142-1.625c-.044,0-.088-.044-.088-.132a.264.264,0,0,1,.044-.176.153.153,0,0,1,.088.044c.044.044.088.088.044.132,0,.088-.044.132-.088.132Zm.263.263a.153.153,0,0,1-.088-.044c0-.044.044-.132.088-.132s.088.044.176.088c-.088.044-.132.088-.176.088Zm.307-.263c-.044,0-.132-.044-.132-.088s.044-.132.088-.132h0c.044,0,.088.044.176.088-.044.044-.088.132-.132.132ZM295,168.135c1.317-.044-.571,3.03,1.361,2.327-1.449,1.317-1.976-.878-1.361-2.327Z" transform="translate(-154.484 -84.661)" fill="#a6bf41"/>
          <path id="Path_2223" d="M210.025,41.086A11.875,11.875,0,0,0,212,45.521c.088.132.22.263.351.439,2.108-2.547,4.128-5.006,6.191-7.465s4.128-4.962,6.147-7.421c2.064-2.459,4.084-4.918,6.147-7.377l.088.088q-6.587,12.844-13.261,25.687a3.025,3.025,0,0,0,.351.132c.659.088,1.361.263,2.02.307a11.764,11.764,0,0,0,5.752-1.01,22.82,22.82,0,0,0,7.728-5.8,23.3,23.3,0,0,0,5.8-13.788c.044-.439.044-.878.044-1.361a3.43,3.43,0,0,1-2.327.439.153.153,0,0,1,.088.044c-.044.044-.044.088-.088.088a.069.069,0,1,1-.044-.132h-.307c.176-1.186,1.317-1.361,1.361-2.766A2.315,2.315,0,0,1,239.4,26.99a21.573,21.573,0,0,0-.22-2.942,24.545,24.545,0,0,0-2.679-7.992.825.825,0,0,0-.7-.483,24.443,24.443,0,0,0-4.391,0,23.763,23.763,0,0,0-17.125,9.616c1.186-.307.7,1.054.79,1.888-.746-.132-1.01-.746-.922-1.669a26.781,26.781,0,0,0-2.2,3.732,22.254,22.254,0,0,0-2.02,6.894A13.048,13.048,0,0,0,210.025,41.086Zm10.758,7.553c.044-.044.044-.132.088-.132s.088.044.22.088a.606.606,0,0,0-.176.132c-.044-.044-.088-.088-.132-.088Zm.4.351c-.044-.044-.132-.088-.132-.132a.758.758,0,0,1,.132-.176c.044.088.132.132.132.176a.2.2,0,0,1-.132.132Zm.263.263a.632.632,0,0,1-.132-.088l.132-.132a.153.153,0,0,1,.088.044.228.228,0,0,1-.088.176Zm.571-4.479c-.044-.044-.088-.044-.132-.088.044-.044.044-.088.088-.088s.088.044.176.088c-.044.044-.088.088-.132.088Zm.527-1.142a.088.088,0,0,1,0-.176c.044,0,.044.044.176.088-.088.044-.132.088-.176.088Zm.571-.527c-.044-.044-.044-.044-.044-.088s.044-.088.044-.132c.088.088.088.132.132.176Zm.878.834a.153.153,0,0,1-.088-.044c.044-.044.044-.088.088-.088l.088.088a.153.153,0,0,0-.088.044Zm1.625-1.142c-.044-.044-.088-.044-.088-.088s.044-.044.088-.088l.088.088C225.657,42.754,225.657,42.8,225.613,42.8ZM238.26,30.591a.543.543,0,0,1,.088.132.264.264,0,0,1-.176.044c-.044,0-.044-.044-.044-.088C238.172,30.635,238.216,30.635,238.26,30.591Zm-.878,2.547.088.088c-.044.044-.088.044-.088.088-.044-.044-.088-.044-.088-.088a.094.094,0,0,1,.088-.088Zm-9.792,5.489c-.044,0-.088-.088-.088-.132,0,0,.044-.088.088-.088a.228.228,0,0,1,.176.088C227.677,38.583,227.633,38.627,227.589,38.627Zm.571-.571c-.044-.044-.088-.088-.088-.132a.153.153,0,0,0,.088-.044c.044,0,.044.044.088.088,0,.044-.044.044-.088.088Zm.527-3.381a.136.136,0,0,1-.044-.088l.088-.088a.161.161,0,0,1,.044.132c0,.044-.044.044-.088.044ZM229.3,38.1c-.044-.044-.088-.088-.088-.132l.088-.088c.044.044.088.044.088.088a.544.544,0,0,0-.088.132Zm-.044-7.333c-.044,0-.044-.044-.044-.088a.161.161,0,0,1,.132-.044.543.543,0,0,1,.088.132Zm.351,4.786a.442.442,0,0,1-.132-.044c0-.044.044-.088.044-.176.088.088.132.132.132.176.044-.044,0,.044-.044.044Zm.22,3.074c-.044-.044-.088-.044-.088-.088s.044-.088.088-.132c.044.044.088.088.088.132s-.088.044-.088.088Zm0-2.81c-.044,0-.088-.044-.176-.088.088-.044.132-.132.176-.132a.094.094,0,0,1,.088.088c.044.088-.044.132-.088.132Zm-.132-1.229a.632.632,0,0,1,.132-.088c.044.044.088.088.088.132l-.088.088c-.044-.044-.044-.088-.132-.132Zm.132-.439c-.044-.044-.088-.044-.088-.088s.044-.088.088-.176c.044.044.088.044.132.088a.606.606,0,0,1-.132.176Zm6.718-4.654c.044.044.132.044.176.088a.543.543,0,0,0-.132.088c-.044-.044-.088-.088-.132-.088l.088-.088Zm-.351.878a.161.161,0,0,1,.132-.044c.044,0,.044.044.088.132-.044,0-.132.044-.176.044s-.044-.044-.044-.132a1.539,1.539,0,0,1-.4.746c-.615-.132-.351-1.142-.439-1.8a.844.844,0,0,1,.878.834,1.9,1.9,0,0,1-.044.22Zm-.79.746a.543.543,0,0,0,.088.132c-.044.044-.088.088-.132.088a.136.136,0,0,1-.044-.088.632.632,0,0,1,.088-.132Zm-.527-13.437c.044.044.044.088.088.132,0,.044-.044.044-.088.088-.044-.044-.088-.088-.088-.132Zm-.307,12.075a.264.264,0,0,1,.176.044.631.631,0,0,0-.088.132c-.044,0-.088-.044-.132-.044,0-.044,0-.132.044-.132ZM234,23.039c.044.044.088.088.088.132s-.044.044-.088.044a.094.094,0,0,1-.088-.088C233.956,23.126,233.956,23.082,234,23.039Zm-.044,8.079Zm.571,2.547v-.088c.044.044.088.044.132.088a1.56,1.56,0,0,1,.439.088c.044-.044.044-.088.088-.088s.088.044.176.044c-.088.044-.132.088-.176.088.044.044.088.044.132.088-.307,1.493-1.229.615-2.283.483a2.385,2.385,0,0,1,1.493-.7Zm-1.01,2.064c-1.01.176-1.229-.307-1.844-.483-.132-.79,2.591-.79,1.844.483Zm-1.756-8.738c.044,0,.132.044.176.044a.632.632,0,0,0-.088.132c-.044,0-.088-.044-.132-.088a.153.153,0,0,1,.044-.088Zm-.263,2.5c.044,0,.088.044.176.088-.088.044-.132.132-.176.132s-.088-.044-.132-.088c.088-.088.088-.132.132-.132Zm-.571.746c-.044-.044-.088-.044-.088-.088a.094.094,0,0,1,.088-.088c.044,0,.044.044.088.088l-.088.088Zm-5.533-2.415a.543.543,0,0,1,.088.132.264.264,0,0,1-.176.044c-.044,0-.088-.088-.044-.088.044-.044.088-.088.132-.088Zm-3.864-4.04c.746-.22.746,2.547,0,2.327-1.888.176-.659-2.283,0-2.327Zm-.922,7.07a.161.161,0,0,1,.044.132c0,.044-.044.044-.088.088a.153.153,0,0,0-.044-.088.632.632,0,0,1,.088-.132Zm0,3.381c.044,0,.044.044.088.088l-.088.088c-.044-.044-.044-.088-.088-.132.044,0,.044-.044.088-.044Zm-.307-.351a.96.96,0,0,1,.132.22s-.088.088-.088.044c-.044-.044-.088-.088-.088-.132-.044,0,0-.044.044-.132Zm0,1.186c.044,0,.132.044.176.044a.631.631,0,0,0-.088.132c-.044,0-.088-.044-.132-.088l.044-.088Zm-.527-1.1c.044,0,.088.044.132.044-.088.088-.132.088-.176.132l-.088-.088c.044-.044.088-.088.132-.088Zm0,1.669c.044,0,.088.044.176.088a.333.333,0,0,1-.176.088.094.094,0,0,1-.088-.088s.044-.088.088-.088Zm-.834.746a.333.333,0,0,1,.088.176.094.094,0,0,1-.088.088c-.044,0-.132-.044-.132-.088S218.9,36.475,218.939,36.387ZM216,30.679C216.085,29.318,217.929,31.118,216,30.679Zm-.7.439c.088.044.088.088.132.088-.044.044-.044.088-.088.132l-.088-.044c-.044-.088,0-.132.044-.176Zm-.044,1.142c.044.044.088.044.088.088s-.044.088-.088.132c-.044-.044-.088-.044-.088-.088s.088-.088.088-.132Zm-.527.044c.044,0,.088.044.132.044-.044.044-.044.088-.088.088a.153.153,0,0,1-.088-.044.136.136,0,0,1,.044-.088Zm-.263-2.547c.044,0,.044.044.088.088-.044.044-.044.088-.088.132a.543.543,0,0,0-.132-.088q.066-.132.132-.132Zm-1.405,3.118c.044,0,.088.044.132.088a.543.543,0,0,0-.088.132c-.044-.044-.088-.088-.088-.132-.044-.044.044-.132.044-.088Z" transform="translate(-120.624 -3.85)" fill="#a6bf41"/>
          <path id="Path_2224" d="M36.867,77.906c0,.263-.088.527-.088.79a38.152,38.152,0,0,0,.132,4.479,23.672,23.672,0,0,0,13.48,18.574,22.094,22.094,0,0,0,7.245,2.064,13.015,13.015,0,0,0,4.128,0,12.531,12.531,0,0,0,5.4-2.239c.088-.088.22-.176.351-.307Q56.253,92.111,45.034,83.043c.044-.044.044-.088.088-.132,2.152,1.054,4.3,2.152,6.411,3.205,2.152,1.1,4.347,2.152,6.5,3.249s4.3,2.152,6.455,3.249,4.3,2.152,6.543,3.249a10.819,10.819,0,0,0,.351-2.02c0-.878,0-1.8-.088-2.679a11.028,11.028,0,0,0-1.01-3.557,23.681,23.681,0,0,0-17.74-12.954,23.343,23.343,0,0,0-6.06-.132,24.536,24.536,0,0,0-5.84,1.361,24.2,24.2,0,0,0-3.425,1.581C37.042,77.555,36.867,77.642,36.867,77.906ZM61.808,98.895c.044,0,.044.044.088.088l-.088.088-.088-.088a.094.094,0,0,1,.088-.088Zm-.571.527c0,.044.044.088.044.132s-.044.044-.088.044a.153.153,0,0,0-.044-.088l.088-.088Zm-7.026-6.938c.044,0,.088.044.176.088-.088.044-.132.088-.176.088a.088.088,0,0,1,0-.176Zm-4.128.79a.758.758,0,0,1,.176.132c-.088.044-.132.088-.22.088-.044,0-.088-.088-.088-.088q0-.066.132-.132ZM48.5,88.62a1.287,1.287,0,0,1-1.361.922A1.243,1.243,0,0,1,48.5,88.62Zm20.023,1.537c-.044-.044-.088-.088-.088-.132.044-.044.044-.088.088-.088,0,0,.088.044.088.088-.044.044-.044.088-.088.132Zm-.132-.7c0-.044.044-.044.088-.088.044.044.088.044.088.088-.044.044-.088.088-.088.132-.044-.044-.088-.088-.088-.132Zm.922.7c.044.088.088.132.088.176a.153.153,0,0,0-.088.044.094.094,0,0,1-.088-.088.544.544,0,0,0,.088-.132ZM68.79,87.39c.044.044.088.044.088.088-.044.044-.088.088-.088.132-.044-.044-.088-.044-.088-.088s.044-.088.088-.132Zm-.263,1.449c.044,0,.044.044.088.088-.044.044-.088.044-.132.088-.044-.044-.044-.088-.088-.132.044-.044.088-.088.132-.044Zm-.571-3.381c.044,0,.088.044.176.088-.044.044-.088.088-.132.088-.044-.044-.088-.044-.132-.088,0,0,.044-.088.088-.088ZM67.911,86.6a.264.264,0,0,1,.176.044.632.632,0,0,0-.088.132c-.044,0-.088-.044-.132-.044,0-.088,0-.132.044-.132Zm-3.074-4.786c.044.044.088.088.088.132s-.044.044-.088.088c-.044-.044-.088-.044-.088-.088s.044-.088.088-.132Zm.044,2.152c.044.088.088.132.088.176s-.088.088-.088.088c-.044,0-.088-.044-.132-.088,0-.044.044-.088.132-.176Zm-1.976,0c-.044,0-.088-.088-.088-.132,0,0,.044-.088.088-.088s.088.044.176.088c-.088.088-.132.132-.176.132Zm-.088-.659c0-.044.088-.088.132-.088s.132.044.176.044a.153.153,0,0,1-.044.088c-.044,0-.088.044-.132.044-.088,0-.132-.044-.132-.088Zm.4.4c-.044,0-.088-.044-.132-.088.044-.044.044-.088.088-.088s.132.044.176.044c-.044.044-.088.132-.132.132Zm-.088-.659a.094.094,0,0,1,.088-.088c.044,0,.088.044.176.132-.088.044-.132.088-.176.088C63.169,83.131,63.081,83.043,63.125,83.043Zm.351.4-.132-.132a.606.606,0,0,1,.176-.132c.044.088.088.132.088.176s-.088.044-.132.088Zm.263,1.932c-.044-.044-.044-.088-.088-.132.044,0,.088-.044.132-.088.044.044.044.088.044.176l-.088.044Zm.044-1.625c-.044-.088-.132-.088-.132-.132s.044-.088.088-.132c.044,0,.088.044.132.088,0,.044-.044.088-.088.176Zm.527-2.5c.044.044.088.088.088.132s-.044.044-.088.088c-.044-.044-.088-.044-.088-.088s.044-.088.088-.132Zm-.176,3.732c-.044.044-.088.088-.132.088,0,0-.088-.044-.088-.088s.044-.088.088-.132l.132.132Zm-.922-3.688c.044.088.044.176.088.263h0c.307-.088.351.22.659.307l-.263.132a4.665,4.665,0,0,1-.4-.483h0l-.22-.176a.161.161,0,0,0,.132-.044Zm-.351-.834a.192.192,0,0,0,.132.044c-.044.044-.044.088-.088.088a.153.153,0,0,1-.088-.044c0-.044,0-.088.044-.088Zm-.527.527c.044,0,.088.044.176.088-.088.044-.132.088-.176.088s-.088-.088-.132-.088c.044-.044.088-.088.132-.088Zm-.263-.834c.044,0,.044.044.088.088a.161.161,0,0,1-.132.044c-.044,0-.044-.044-.044-.088a.153.153,0,0,1,.088-.044ZM61.94,81.9c.088,0,.176-.044.263-.044.044-.088.044-.176.088-.22.176.044.307.088.483.132l.176-.263c.22.263.4.483.615.746a5.045,5.045,0,0,0-.351.439c-.088-.088-.132-.176-.176-.22a.184.184,0,0,0-.263.132c.088.088.176.132.307.263-.263.088-.307-.044-.351-.22a1.829,1.829,0,0,0-.263-.088c.088-.132.176-.22.22-.307l-.044-.044a6.424,6.424,0,0,1-.571.4l-.044-.044a2.518,2.518,0,0,1,.176-.307,1.1,1.1,0,0,1-.307-.176.693.693,0,0,0,.044-.176Zm-.7,2.986.088.044c0,.044-.044.132-.044.176a.632.632,0,0,0-.132-.088c0-.044.044-.088.088-.132Zm-.307.307a.333.333,0,0,1,.176.088c-.044.044-.088.132-.132.088-.044,0-.088-.044-.132-.088l.088-.088ZM59.612,81.55a.543.543,0,0,1,.088.132.264.264,0,0,1-.176.044c-.044,0-.044-.044-.044-.088.044-.044.088-.044.132-.088Zm-5.137-5.006a.153.153,0,0,1,.088.044c0,.044-.044.088-.044.132-.044-.044-.088-.044-.088-.088a.153.153,0,0,1,.044-.088ZM47.8,78.784c.044,0,.044.044.088.088l-.132.088c-.044-.044-.044-.088-.088-.132.088-.044.132-.088.132-.044Zm-3.074,4.742.088.088-.088.088s-.088-.044-.088-.088a.094.094,0,0,1,.088-.088Zm-4.742-3.162c.044.088.088.132.088.176s-.088.088-.132.088c0,0-.088-.044-.088-.088a.606.606,0,0,1,.132-.176Zm-2.064-.044C38.228,80.584,37.7,80.145,37.921,80.321Z" transform="translate(-23.606 -36.894)" fill="#a6bf41"/>
          <path id="Path_2225" d="M294.505,31.46c3.732-3.557,7.509-7.07,11.2-10.582l.088.088-.263.4-1.976,2.9c.132-.044.263-.044.351-.088-.922.7-.351,2.942-2.152,2.766-.132.176-.22.351-.351.527.615.746.746,1.976-.22,2.239-.483-.088-.22-.483,0-.483a2.506,2.506,0,0,1-.615-.571c-1.01,1.493-2.064,3.03-3.074,4.523a4.623,4.623,0,0,1-.307.483.228.228,0,0,0,.176.088c.088.044.22.088.307.132a7.113,7.113,0,0,0,4.171-.088A12.937,12.937,0,0,0,310.4,21.843a14.009,14.009,0,0,0-.79-4.654.987.987,0,0,0-.878-.746,13.963,13.963,0,0,0-5.4.132,12.865,12.865,0,0,0-9.7,10.1,6.625,6.625,0,0,0,.615,4.391C294.373,31.24,294.417,31.372,294.505,31.46Zm15.061-9.089a.094.094,0,0,1,.088.088c0,.044-.044.132-.088.132s-.088-.044-.176-.132C309.478,22.414,309.522,22.37,309.566,22.37Zm-1.976-.307c.044.044.088.044.088.088s-.044.088-.088.132c-.044-.044-.088-.044-.088-.088s.044-.088.088-.132Zm-3.908-1.669c.044.044.044.088.088.132l-.088.088c-.044-.044-.088-.088-.088-.132l.088-.088Z" transform="translate(-167.604 -4.279)" fill="#a6bf41"/>
          <path id="Path_2226" d="M54.72,24.128a12.649,12.649,0,0,0,7.421,9.485,7.12,7.12,0,0,0,4.04.659,4.06,4.06,0,0,0,1.581-.439c-1.449-2.152-2.9-4.259-4.3-6.367-1.449-2.108-2.9-4.259-4.259-6.411,1.932,1.669,3.776,3.469,5.621,5.225,1.888,1.756,3.732,3.557,5.621,5.313.044-.044.088-.132.132-.176a6.5,6.5,0,0,0,.79-4.128,11.521,11.521,0,0,0-1.1-3.557,12.913,12.913,0,0,0-14.227-7.07.8.8,0,0,0-.659.571A12.324,12.324,0,0,0,54.72,24.128Zm9.221,8.65s.088.088.044.088L63.853,33c-.044-.044-.088-.132-.044-.132.044-.044.088-.044.132-.088Zm-.351-.834.088.088c0,.044-.044.088-.088.132-.044-.044-.088-.044-.088-.088s.044-.088.088-.132Zm.044.571c.044,0,.088.044.132.044l-.132.132c-.044-.044-.044-.088-.088-.132.044,0,.044-.044.088-.044Zm-1.405-1.932c.044,0,.044.044.088.088-.044.044-.088.044-.088.088-.044-.044-.044-.088-.088-.132a.153.153,0,0,0,.088-.044Zm2.81-6.147c.044,0,.044.044.088.088a.161.161,0,0,1-.132.044c-.044-.044-.044-.088-.088-.132ZM62.8,22.108c.044.044.088.132.132.176,0,.044-.088.088-.088.088l-.132-.132c-.044,0,.044-.088.088-.132Zm-7.245-1.625c.044.044.088.088.088.132-.044.044-.088.044-.132.088-.044-.044-.044-.088-.044-.176-.044,0,.044-.044.088-.044Z" transform="translate(-33.555 -4.369)" fill="#a6bf41"/>
          <path id="Path_2227" d="M315.328,245.462c-2.02-1.054-4.084-2.108-6.147-3.205a1.4,1.4,0,0,0-.132.4,5.786,5.786,0,0,0,.527,3.82,11.379,11.379,0,0,0,9.4,6.367,11.162,11.162,0,0,0,6.279-1.229.676.676,0,0,0,.439-.659,11.676,11.676,0,0,0-.088-2.766,11.314,11.314,0,0,0-7.992-9.221,8.107,8.107,0,0,0-4.084-.4,6.018,6.018,0,0,0-2.591,1.142c3.557,2.986,7.07,5.928,10.582,8.914a.094.094,0,0,1-.088.088C319.367,247.57,317.348,246.516,315.328,245.462Zm4.215.571C319.367,245.814,319.85,246.341,319.543,246.033Zm.922-4.611c1.712.571-.307,2.02.878,2.766-.878,1.493-1.669-2.415-.878-2.766Z" transform="translate(-176.264 -128.925)" fill="#a6bf41"/>
          <path id="Path_2228" d="M53.685,239.05a6.169,6.169,0,0,0-4.04-.746,11.547,11.547,0,0,0-10.1,12.471.66.66,0,0,0,.439.615,11.576,11.576,0,0,0,12.6-1.317.624.624,0,0,1-.263-.088,2.46,2.46,0,0,1,1.625-1.229,13.083,13.083,0,0,0,1.537-2.2,6.291,6.291,0,0,0,.746-3.469,2.04,2.04,0,0,0-.263-1.01l-12.163,6.367c-.044-.044-.044-.088-.088-.132,3.513-2.942,7.026-5.884,10.582-8.914A2.054,2.054,0,0,1,53.685,239.05Z" transform="translate(-25.143 -128.792)" fill="#a6bf41"/>
          <path id="Path_2229" d="M131.384,200.536c-1.449.615-2.81,1.186-4.215,1.8s-2.81,1.229-4.215,1.756a.153.153,0,0,0-.044-.088c2.5-1.756,4.962-3.557,7.553-5.357-.351-.22-.615-.4-.878-.571a4.921,4.921,0,0,0-2.854-.439,7.882,7.882,0,0,0-6.938,7.64.738.738,0,0,0,.4.746,7.808,7.808,0,0,0,4.084,1.1,7.718,7.718,0,0,0,6.63-3.732,3.86,3.86,0,0,0,.571-2.5A.827.827,0,0,0,131.384,200.536Zm-1.317.922C131.6,200.36,128.925,202.995,130.066,201.458Z" transform="translate(-70.173 -105.997)" fill="#a6bf41"/>
          <path id="Path_2230" d="M240.372,200.728a3.929,3.929,0,0,0,.483,2.327A7.9,7.9,0,0,0,251.613,206c.044-.044.132-.044.176-.088a.5.5,0,0,0,.307-.571,7.676,7.676,0,0,0-2.459-5.708,7.858,7.858,0,0,0-4.962-2.152,4.243,4.243,0,0,0-2.722.7c-.132.088-.263.22-.439.351l1.888,1.361c.615.439,1.273.878,1.888,1.361l1.844,1.317c.615.439,1.273.834,1.844,1.317a.153.153,0,0,1-.044.088l-8.431-3.557A.584.584,0,0,0,240.372,200.728Zm9.441.746c.044,0,.044.044.088.088-.044.044-.088.044-.088.088-.044-.044-.044-.088-.088-.132a.153.153,0,0,1,.088-.044Zm-4.654-1.932C247.31,199.85,244.763,202.353,245.158,199.543Zm2.986,1.581-.088-.088.088-.088c.044.044.088.044.088.088s-.088.044-.088.088Zm.7.746a.136.136,0,0,0,.044-.088c.044,0,.132.044.176.044l-.088.088a.161.161,0,0,1-.132-.044Z" transform="translate(-137.797 -105.926)" fill="#a6bf41"/>
          <path id="Path_2231" d="M250.7,146.4a7.662,7.662,0,0,0-5.8,1.537,3.681,3.681,0,0,0-1.361,1.976,1.216,1.216,0,0,0-.044.4c2.9-.044,5.708-.044,8.563-.088l-.088-.088c.044.088.088.088.088.088h.746v.132c-1.493.351-2.986.7-4.523,1.01q-2.239.527-4.611,1.054a4.232,4.232,0,0,0,1.888,1.932,7.442,7.442,0,0,0,4.567.615,7.826,7.826,0,0,0,4-1.976.856.856,0,0,1-.351-.044c.044-.7.527-.571.746-.351a7.686,7.686,0,0,0,1.493-2.239.665.665,0,0,0-.088-.834A7.51,7.51,0,0,0,250.7,146.4Zm1.273,6.938C252.5,151.972,254.434,153.86,251.975,153.334Z" transform="translate(-139.564 -77.237)" fill="#a6bf41"/>
          <path id="Path_2232" d="M114.649,149.436a.665.665,0,0,0-.088.834,5.465,5.465,0,0,1,.439.878,7.811,7.811,0,0,0,9.924,3.162,3.922,3.922,0,0,0,1.8-1.581,2.589,2.589,0,0,1,.176-.351c-.176-.044-.351-.088-.483-.132-2.722-.615-5.489-1.229-8.211-1.888-.132-.044-.22-.088-.351-.132,0-.044,0-.044.044-.088,3.074.044,6.147.044,9.309.088a3,3,0,0,0-.176-.571,3.869,3.869,0,0,0-1.405-1.844,7.5,7.5,0,0,0-6.06-1.405A7.885,7.885,0,0,0,114.649,149.436Zm10.275,3.732a.161.161,0,0,1,.044.132c0,.044-.044.044-.088.088-.044-.044-.044-.044-.044-.088s.044-.088.088-.132Zm-6.1-1.1c.044,0,.044.044.088.088l-.132.088c-.044-.044-.044-.088-.088-.132a.161.161,0,0,1,.132-.044Zm-.571.527q.066,0,.132.132c-.088.044-.132.088-.176.088s-.044-.088-.088-.132c.044-.044.088-.088.132-.088Zm-.307-.263c.044,0,.132.044.176.044a.632.632,0,0,0-.088.132c-.044,0-.088-.044-.132-.088,0,0,0-.088.044-.088Zm5.577-5.094c.044.088.088.132.088.176s-.044.044-.088.088l-.044-.044a1.9,1.9,0,0,1,.044-.22Zm-.22.922c.044,0,.044.044.088.088-.044.044-.088.044-.132.088-.044-.044-.044-.088-.088-.132a.161.161,0,0,1,.132-.044Zm-.044.527c.044,0,.044.044.088.088l-.088.088c-.044-.044-.088-.044-.088-.088s.044-.044.088-.088Zm-.263-1.449a.632.632,0,0,1,.088.132c-.044.044-.088.088-.132.088,0,0-.088-.044-.088-.088.044-.044.088-.044.132-.132Zm-.571.044c.044,0,.088.044.176.088-.088.044-.132.132-.176.132s-.088-.044-.132-.088c.088-.044.088-.132.132-.132Zm-.834-.263a.544.544,0,0,0,.132.088c-.044.044-.088.088-.132.088l-.088-.088.088-.088Zm-1.142.571.132.132a.631.631,0,0,1-.132.088c-.044-.044-.088-.088-.088-.132s.088-.088.088-.088Zm-1.669-.088c.044.088.088.132.088.176s-.088.088-.132.088c0,0-.088-.044-.088-.088a.607.607,0,0,0,.132-.176Zm-.307.351c.044,0,.132.044.176.044a.632.632,0,0,0-.088.132c-.044,0-.088-.044-.132-.088l.044-.088Zm-.834,3.645c.044,0,.088.044.132.088-.044.044-.044.088-.088.088a.153.153,0,0,1-.088-.044.161.161,0,0,1,.044-.132Zm-.22-.263a.544.544,0,0,0,.132.088c-.044.044-.088.044-.176.088-.044,0-.044-.044-.088-.088.044-.044.088-.088.132-.088Zm-1.405-1.449a.632.632,0,0,1,.088.132c-.044.044-.088.088-.132.088,0,0-.088-.044-.088-.088l.132-.132Z" transform="translate(-67.182 -77.203)" fill="#a6bf41"/>
          <path id="Path_2233" d="M242.485,106.347a4.232,4.232,0,0,0-.4,2.064,2.629,2.629,0,0,0,.483,1.493c1.844-1.756,3.688-3.513,5.533-5.225l.088.088c-1.405,2.108-2.854,4.171-4.259,6.323.132.044.22.088.351.132a3.425,3.425,0,0,0,2.459-.263,6.594,6.594,0,0,0,3.557-8.079.751.751,0,0,0-.7-.571,7.453,7.453,0,0,0-1.712-.044A6.5,6.5,0,0,0,242.485,106.347Z" transform="translate(-138.769 -52.513)" fill="#a6bf41"/>
          <path id="Path_2234" d="M125.666,102.856a7.2,7.2,0,0,0-.307,2.9,6.754,6.754,0,0,0,1.932,3.952c-.351-.7.307-1.844.79-2.283,1.273.439-.615,1.449,0,2.766a2.142,2.142,0,0,1-.307-.132,7.707,7.707,0,0,0,1.844,1.054,3.4,3.4,0,0,0,1.756.132,3.864,3.864,0,0,0,.659-.22c-.746-1.1-1.449-2.108-2.152-3.162a34.866,34.866,0,0,1-2.02-3.162c.966.834,1.844,1.669,2.766,2.547s1.844,1.713,2.81,2.635c.132-.22.176-.4.263-.527a3.315,3.315,0,0,0,.132-2.064,6.535,6.535,0,0,0-7.465-5.006A.806.806,0,0,0,125.666,102.856Zm4,1.844a.543.543,0,0,0,.132.088c-.044.044-.088.088-.132.088,0,0-.088-.044-.088-.088a.094.094,0,0,1,.088-.088Zm-2.283-1.669c.044,0,.044.044.132.088l-.088.088a.094.094,0,0,1-.088-.088.153.153,0,0,1,.044-.088Z" transform="translate(-73.281 -52.491)" fill="#a6bf41"/>
          <path id="Path_2235" d="M185.994,76.664a3.082,3.082,0,0,0,1.142,1.229c.22.132.439.22.7.351.132-1.273.263-2.5.4-3.732s.22-2.459.439-3.645h.088c.263,2.415.527,4.83.834,7.333.176-.044.307-.132.483-.176a2.907,2.907,0,0,0,1.229-1.186,6.314,6.314,0,0,0-2.108-8.65.857.857,0,0,0-1.01,0A6.383,6.383,0,0,0,185.994,76.664Zm.7-1.581c-.044,0-.088-.088-.088-.088.044-.044.088-.088.132-.088a.544.544,0,0,0,.132.088c-.088.044-.132.088-.176.088Zm-.088-1.1C186.7,72.581,188.5,74.381,186.609,73.986Z" transform="translate(-106.868 -33.325)" fill="#a6bf41"/>
        </g>
        <g id="Group_417" transform="translate(0 202.498)">
          <g id="Group_416" transform="translate(0)">
            <path id="Path_2236" d="M215.2,49.623V47.6c-.263.22-.571.439-.878.659a14.611,14.611,0,0,1-6.367,1.669,12.866,12.866,0,1,1-.176-25.731h.132A13.074,13.074,0,0,1,217,27.667c2.547,2.283,3.82,5.489,3.82,9.572V49.623Zm-7.245-5.137a7.159,7.159,0,0,0,7.245-7.421,7.133,7.133,0,0,0-7.245-7.421,7.211,7.211,0,0,0-7.245,7.421A7.159,7.159,0,0,0,207.953,44.485Z" transform="translate(-112.448 -13.572)" fill="#e51d30"/>
            <path id="Path_2237" d="M382,49.623V47.6c-.263.22-.571.439-.878.659a14.61,14.61,0,0,1-6.367,1.669,12.866,12.866,0,0,1-.176-25.731h.132a13.074,13.074,0,0,1,9.089,3.469c2.547,2.283,3.82,5.489,3.82,9.572V49.623Zm-7.245-5.137A7.159,7.159,0,0,0,382,37.064a7.133,7.133,0,0,0-7.245-7.421,7.211,7.211,0,0,0-7.245,7.421A7.133,7.133,0,0,0,374.753,44.485Z" transform="translate(-206.006 -13.572)" fill="#e51d30"/>
            <path id="Path_2238" d="M437.664,50.252H432V36.728c0-4,1.054-6.938,3.118-8.914a11.1,11.1,0,0,1,15.105,0c2.108,1.932,3.205,4.962,3.205,8.914V50.3h-5.664V36.728c0-4.171-2.02-6.411-5.094-6.411s-5.006,2.2-5.006,6.411Z" transform="translate(-245.381 -13.938)" fill="#e51d30"/>
            <path id="Path_2239" d="M12.621,50.617H7V35.643C7,28.4,11.084,25.5,16.572,25.5h1.361v5.445H16.88c-2.81,0-4.259,1.581-4.259,4.7Z" transform="translate(-7 -14.303)" fill="#e51d30"/>
            <path id="Path_2240" d="M336.821,50.617H331.2V35.643c0-7.245,4.084-10.143,9.572-10.143h1.361v5.445H341.08c-2.81,0-4.259,1.581-4.259,4.7Z" transform="translate(-188.843 -14.303)" fill="#e51d30"/>
            <path id="Path_2241" d="M113.189,49.887a14.652,14.652,0,0,1-6.147-1.361l-.878-.483V42.6a13.2,13.2,0,0,0,7.026,1.888c2.283,0,3.425-.746,3.425-2.371,0-3.908-10.714-2.459-10.714-10.538,0-4.523,3.732-7.377,8.826-7.377a14.222,14.222,0,0,1,5.8,1.186l.7.4V31.05a13.186,13.186,0,0,0-6.5-1.405c-2.108,0-3.205.659-3.205,1.932,0,1.229,1.669,2.064,3.776,2.81,3.074.878,7.026,2.766,6.982,7.728C122.235,46.9,118.678,49.887,113.189,49.887Z" transform="translate(-62.473 -13.574)" fill="#e51d30"/>
            <path id="Path_2242" d="M285.864,24.9l5.664,4.479v9.089c0,3.952-1.054,6.982-3.205,8.914a11.2,11.2,0,0,1-15.105.044c-2.064-1.932-3.118-4.962-3.118-8.958V24.9l5.664,4.479v9.089c0,4.259,1.932,6.411,5.006,6.411s5.094-2.239,5.094-6.411Z" transform="translate(-154.572 -13.966)" fill="#e51d30"/>
            <path id="Path_2243" d="M166.834,30.913l3.732,5.445h-4.918c-5.708,0-9.748-2.81-9.748-10.1V0l5.621,4.479V11.2h4.83l4.479,5.445h-9.309v9.616c0,3.118,1.361,4.654,4.128,4.654Z" transform="translate(-90.518)" fill="#e51d30"/>
            <path id="Path_2244" d="M503.834,30.913l3.732,5.445h-4.918c-5.708,0-9.748-2.81-9.748-10.1V0l5.62,4.479V11.2h4.83l4.479,5.445H498.52v9.616c0,3.118,1.361,4.654,4.128,4.654Z" transform="translate(-279.54)" fill="#e51d30"/>
            <path id="Path_2245" d="M58.266,39.622h0l-.307.878A7.111,7.111,0,0,1,53.3,44.1a7.216,7.216,0,0,1-8.036-3.162l18.706-4.962c-.483-2.371-1.01-7.465-6.543-10.538a12.225,12.225,0,0,0-9.4-1.054,12.9,12.9,0,0,0-9.177,15.764A12.694,12.694,0,0,0,54.27,49.37a2.8,2.8,0,0,0,.307-.088,13.4,13.4,0,0,0,7.245-4.918,13.872,13.872,0,0,0,1.493-3.03,13.538,13.538,0,0,0,.527-1.713Zm-14.271-3.6a6.849,6.849,0,0,1,5.445-6.455c3.381-.878,6.674.615,7.816,2.942Z" transform="translate(-24.63 -13.408)" fill="#e51d30"/>
          </g>
        </g>
      </g>
    </g>
  </g>
</svg>
