<svg xmlns="http://www.w3.org/2000/svg" xmlns:xlink="http://www.w3.org/1999/xlink" width="4851" height="598" viewBox="0 0 4851 598">
  <defs>
    <linearGradient id="linear-gradient" x1="-0.819" y1="0.698" x2="-3.114" y2="0.857" gradientUnits="objectBoundingBox">
      <stop offset="0" stop-color="#27a8e0"/>
      <stop offset="1" stop-color="#145470"/>
    </linearGradient>
    <clipPath id="clip-PR1">
      <rect width="4851" height="598"/>
    </clipPath>
  </defs>
  <g id="PR1" clip-path="url(#clip-PR1)">
    <g id="Group_769" data-name="Group 769" transform="translate(-7 -1)">
      <g id="Group_768" data-name="Group 768" transform="translate(3602 35)">
        <rect id="Rectangle_1" data-name="Rectangle 1" width="4788" height="539" rx="42" transform="translate(-3574 -4)" fill="#fff"/>
        <g id="Group_414" data-name="Group 414" transform="translate(-3519 21)">
          <g id="Group_411" data-name="Group 411">
            <path id="Path_2190" data-name="Path 2190" d="M539.711,332.362c5.063-6.762,6.88-14.391,6.651-22.654-.04-1.457-.106-2.914-.121-4.375-.066-4.767-.107-9.538-.172-14.3-.1-7.213-.211-14.426-.3-21.635-.065-4.294-.082-8.593-.139-12.883-.106-7.133-.236-14.264-.333-21.392-.107-7.608-.18-15.212-.269-22.819,0-.2,0-.395-.017-.591-.057-.944-.171-1.066-1.147-1.075-3.078-.008-6.147-.008-9.224,0-.881,0-.985.135-1.06,1.038-.153,2-.316,4-.448,6-.251,3.891-.48,7.783-.715,11.666s-.473,7.783-.709,11.67q-.354,6.014-.717,12.021c-.228,3.973-.472,7.938-.7,11.907-.245,4.2-.5,8.405-.708,12.614-.212,4.326-.326,8.658-.563,12.985a15.118,15.118,0,0,1-1.115,5.4,6.922,6.922,0,0,1-8.271,3.581c.448,1.465-.325,3.639-2.344,2.6v-3.517a1.642,1.642,0,0,1,.39-.1,5.591,5.591,0,0,1-1-.969,16.216,16.216,0,0,1-3.606-8.96c-.122-2-.343-4-.506-6-.3-3.606-.6-7.212-.87-10.824-.122-1.567-.22-3.129-.317-4.7h0c-.074-1.143-.147-2.287-.229-3.427-.292-4-.619-8.007-.919-12.008-.171-2.235-.334-4.474-.513-6.713-.277-3.488-.577-6.977-.855-10.469-.195-2.512-.359-5.027-.545-7.539q-.577-7.54-1.159-15.073c-.089-1.212-.118-1.282-1.3-1.29q-4.2-.019-8.394,0c-1.3,0-1.383.1-1.478,1.408q-.128,1.857-.26,3.713h.509v2.328h-.684c-.264,3.321-.537,6.642-.8,9.969-.178,2.271-.33,4.55-.5,6.83-.3,3.884-.619,7.767-.92,11.65-.174,2.272-.33,4.551-.5,6.827q-.451,5.824-.912,11.65c-.175,2.358-.334,4.714-.5,7.067-.3,4.083-.594,8.161-.927,12.239-.183,2.272-.342,4.56-.7,6.806a11.581,11.581,0,0,1-3.823,7.026,6.631,6.631,0,0,1-7.16,1.258,6.177,6.177,0,0,1-4.205-5.5c-.321-3.293-.513-6.59-.724-9.891-.139-2.081-.188-4.173-.317-6.257-.278-4.4-.586-8.8-.863-13.2q-.367-5.837-.7-11.67c-.26-4.44-.5-8.882-.756-13.322-.289-4.95-.6-9.9-.9-14.854q-.372-6.308-.733-12.619c-.077-1.332-.1-1.372-1.461-1.372q-4.317-.006-8.63,0c-.414,0-.83.053-1.326.089-.025.5-.053.891-.057,1.279-.065,3.781-.143,7.563-.192,11.348q-.127,9.574-.235,19.148c-.069,5.634-.126,11.267-.2,16.906-.082,5.869-.195,11.739-.277,17.609-.1,6.973-.253,13.95-.236,20.927.008,5.152-.473,10.307-.093,15.468a42.493,42.493,0,0,0,1.648,9.158,39.046,39.046,0,0,0,5.94,11.487q6.99,9.744,13.835,19.6a38.443,38.443,0,0,1,5.37,11.894,62.388,62.388,0,0,1,1.82,15.321c.056,2.39.049,4.779.085,7.169a1.086,1.086,0,0,0,.142-.627c2.59.8,1.148,2.508-.106,3.68.033,2.939.106,5.878.106,8.813q.025,55.4.009,110.81a7.821,7.821,0,0,1,2.287-.569,21.29,21.29,0,0,1-2.287,4.8v14.32q0,20.394-.009,40.8H491.4c3.484,0,6.684-3.484,8.544-6.293a30.2,30.2,0,0,0,4.155-10.975c.049-.243.057-.488.106-.724-.748,1.514-3-.228-3.3,1.3-2.434-.294,1.212-4.038,3.509-3.517a6.233,6.233,0,0,1,.008.716,77.078,77.078,0,0,0,.92-10.34c.073-3.395.228-6.781.366-10.168-.065,0-.114.024-.178.024a1.857,1.857,0,0,1,.234-1.661c.017-.349.025-.708.041-1.057q.232-6.084.464-12.164.244-6.375.48-12.749.233-6.081.464-12.163.244-6.437.488-12.864.227-6.079.459-12.16l.488-12.871c.146-4.051.31-8.1.464-12.158q.232-6.376.48-12.749.233-6.143.464-12.278.232-6.375.48-12.749c.058-1.616.131-3.228.189-4.839-2.808-.391-3.014.154-7.525.317,1.034-2.475,5.164-3.891,7.613-2.568.066-1.69.122-3.383.2-5.073.089-2.121.236-4.237.448-6.367.025,1.193.082,2.385.082,3.574v8.463a3.5,3.5,0,0,1,1.058,1.97c-.407-.081-.724-.131-1.058-.188q.012,53.165.008,106.339v18.292a2.988,2.988,0,0,0,1.05-1.759c3.411.578,2.174,3.689-1.05,3.689,0,15.3,0,30.821-.008,45.745h6.114l-.089-82.974c-.033-19.785-.131-39.573-.146-59.36-.017-17.341-.278-34.682.447-52.013a43.8,43.8,0,0,1,.546-5.162,48.318,48.318,0,0,1,8.491-20.313C531.13,344.244,535.323,338.228,539.711,332.362Zm.146-5.533c-.138-.207-.253-.309-.268-.423-.008-.065.147-.225.2-.212.122.021.293.114.317.2S539.987,326.618,539.857,326.83Zm2.736-78.786c.114.093.268.192.26.22a1.521,1.521,0,0,1-.228.321c-.065-.081-.178-.154-.195-.243S542.519,248.166,542.593,248.044Zm-.766-27.77c.749.8-.562-.456,0,0Zm.114,76.8c.065.146.147.256.131.334s-.164.121-.245.178c-.057-.085-.163-.182-.146-.26S541.82,297.187,541.941,297.074Zm-.692-2.04c.082.029.139.155.236.278-.138.06-.252.159-.317.134a.311.311,0,0,1-.154-.26A.281.281,0,0,1,541.249,295.034Zm-1.4-2.893a.687.687,0,0,1,.228.329c.008.032-.163.126-.325.248a1.416,1.416,0,0,1-.147-.414C539.6,292.242,539.824,292.12,539.849,292.141Zm-.765,14.812c.4.354.748.655,1.1.965-.024.1-.057.191-.089.285-.188-.033-.489-.008-.545-.118C539.368,307.764,538.742,307.641,539.084,306.953ZM534.9,322.617c.09-.017.213.13.4.256-.195.146-.317.293-.424.289s-.267-.188-.259-.277A.4.4,0,0,1,534.9,322.617Zm-3.549,17.768c.074.074.155.142.261.245-.115.1-.188.211-.269.211s-.171-.11-.252-.171C531.17,340.573,531.26,340.482,531.35,340.385ZM460.3,224.036a2.724,2.724,0,0,1,.631.252c-.293.118-.407.2-.5.183a1.084,1.084,0,0,1-.318-.2C460.181,224.186,460.244,224.036,460.3,224.036Zm.046,41.56a1.538,1.538,0,0,1-.3-.268c.073-.074.154-.211.216-.2a1.421,1.421,0,0,1,.382.216C460.5,265.47,460.386,265.613,460.349,265.6Zm.683,24.949c-.1-.122-.207-.2-.207-.268s.106-.164.167-.245c.065.068.183.13.2.207S461.106,290.41,461.032,290.545Zm2.13-34.82c-.061,0-.135-.138-.2-.211a1.171,1.171,0,0,1,.3-.236c.045-.016.146.118.306.253C463.386,255.623,463.28,255.717,463.162,255.725Zm2.911,12.749a.643.643,0,0,1-.261-.273c-.017-.036.122-.146.249-.293a1.392,1.392,0,0,1,.22.379C466.292,268.34,466.1,268.49,466.073,268.474Zm2.042-12.02c-.064-.118-.13-.232-.195-.346.089-.041.2-.139.26-.114.082.036.131.163.212.277C468.278,256.344,468.2,256.4,468.115,256.454Zm7.124,48.207a.287.287,0,0,1-.212-.191c-.008-.078.107-.224.171-.224.082-.008.167.11.293.211C475.385,304.548,475.309,304.669,475.239,304.661Zm.667,16.323c-.057,0-.114-.146-.171-.228a1.014,1.014,0,0,1,.317-.195c.05-.012.135.13.273.277A1.269,1.269,0,0,1,475.907,320.984Zm.424-15.374c2.922-4.608,1.668,3.842,0,0Zm3.541,23.381c-.553-2.491,1.645-2.2,3.517-2.361A3.137,3.137,0,0,1,479.871,328.991Zm-1.18-19.9c.3-2.7,3.02-2.7,4.7-1.155C482.932,309.615,480.4,308.965,478.691,309.094Zm19.839-74.768h2.37V236.7h-2.37Zm.082,87.562c.081.131.188.217.179.293s-.114.159-.179.236c-.065-.078-.175-.154-.179-.236S498.526,322.018,498.612,321.888Zm-2.048-3.427c.082.029.126.15.207.26-.106.074-.191.122-.276.179-.061-.114-.126-.224-.188-.334C496.394,318.526,496.5,318.436,496.564,318.461Zm-1.583,53.76c9.428.391,4.339,5.455,0,0Zm0,24.57c-.749,1.612-2.523,2.166-4.632,2.361C489.234,395.6,492.914,397.084,494.981,396.791Zm-8.174,4.657c1.409-3.517,6.3,1.286,0,0ZM490.78,512.1c-.089-.228-.163-.326-.154-.424s.089-.171.143-.26c.077.065.2.106.22.179S490.919,511.774,490.78,512.1Zm-1.546-28.868c-.652-2.427,1.677-2.231,3.484-2.3A3.267,3.267,0,0,1,489.234,483.232Zm4.428,37.14c-.068-.074-.191-.154-.186-.228a.3.3,0,0,1,.195-.221c.061-.007.154.115.261.2C493.817,520.233,493.74,520.3,493.662,520.372Zm2.273,21.989a1.284,1.284,0,0,1-.343-.188c.057-.09.111-.245.167-.253a1.467,1.467,0,0,1,.436.139C496.064,542.214,495.982,542.369,495.934,542.361ZM492.718,499.6c.855-2.638,1.018-5.911,2.263-8.142C499.06,491.975,498,501.3,492.718,499.6Zm3.04-45.032c-.1-.179-.211-.3-.187-.35a.678.678,0,0,1,.277-.277c.028-.016.22.147.207.183A2.2,2.2,0,0,1,495.758,454.564Zm.343,1.006c-.111.093-.183.163-.265.227-.082-.1-.163-.195-.245-.3.082-.057.171-.163.253-.159S495.995,455.468,496.1,455.57Zm.134-37.694c3.908-2.833-2.793,3.876,0,0Zm3.2-30.892c-.05,0-.078-.077-.131-.121-.941,2.169-.684,5.6-3.069,6.443-2.5-2.833-.236-6.3,0-8.174a2.445,2.445,0,0,1,2.333.733c.045-.073.061-.122.138-.249.126.212.228.318.24.432v0a1.623,1.623,0,0,0,.667.187c-.04.065-.064.143-.106.212.086.1.2.2.188.273C499.687,386.822,499.52,386.989,499.435,386.985Zm.691-.647c-.146-.069-.244-.232-.366-.359.106-.085.228-.256.313-.245.147.029.273.171.5.331C500.35,386.211,500.2,386.366,500.126,386.338Zm.72.68a.4.4,0,0,1-.268-.285c0-.094.171-.261.277-.268s.217.142.411.289C501.067,386.887,500.941,387.033,500.846,387.018Zm.721,148.219c-.074.025-.183-.049-.273-.081.053-.114.11-.22.171-.334.085.049.174.1.3.163C501.69,535.09,501.64,535.221,501.568,535.237ZM501.511,387.7a.328.328,0,0,1-.228-.2c-.017-.074.122-.256.143-.252a2.878,2.878,0,0,1,.419.243C501.677,387.607,501.588,387.714,501.511,387.7Zm-.089-1.393c-.057,0-.2-.24-.172-.309a.433.433,0,0,1,.335-.212c.093,0,.195.139.407.31A2.407,2.407,0,0,1,501.421,386.309Zm-.521-27c.195-3.387,4.828,1.221,0,0ZM502,386.79c.057-.114.163-.268.265-.281s.207.142.427.3a1.734,1.734,0,0,1-.488.188C502.129,387,501.987,386.822,502,386.79ZM502.826,531c-.049-.089-.143-.179-.135-.261,0-.064.122-.13.236-.235.057.146.138.252.122.325S502.9,530.947,502.826,531Zm.068-143.323c-.073-.1-.142-.207-.211-.314.082-.048.171-.146.253-.138s.13.131.216.22C503.041,387.546,502.968,387.611,502.894,387.681Zm.078-1.433a.7.7,0,0,1-.313-.2c-.017-.017.089-.22.142-.22a1.52,1.52,0,0,1,.415.134C503.094,386.11,503.016,386.256,502.972,386.248ZM500.9,352.372c-.3-3.077.456-4.982,3.509-4.656C503.92,349.881,503.92,352.714,500.9,352.372Zm4.859-84.4c.062.114.122.22.179.334a1.5,1.5,0,0,1-.349.164c-.04.007-.11-.147-.208-.293Zm.046,45.974a1.475,1.475,0,0,1-.366-.35c.117-.082.232-.22.353-.228s.228.138.424.268C506.02,313.788,505.866,313.967,505.8,313.943Zm2.164,6.414c-.124-.016-.3-.081-.336-.174-.033-.078.1-.225.195-.424a1.759,1.759,0,0,1,.32.387C508.164,320.186,508.025,320.361,507.969,320.357Zm.643-53.723c.074,0,.131.13.229.245-.147.073-.245.178-.318.159a.285.285,0,0,1-.146-.249A.282.282,0,0,1,508.611,266.634Zm-.138,83.162c-.081-.293-.179-.456-.146-.574.049-.142.211-.245.325-.363.1.094.252.188.26.285S508.775,349.368,508.473,349.8Zm.823-1.136c-.1-.033-.171-.2-.2-.322-.008-.045.171-.178.245-.167.114.017.21.126.424.278C509.524,348.566,509.385,348.689,509.3,348.661Zm.642-60.066c-.089-.232-.163-.33-.154-.427s.089-.171.147-.257c.073.061.195.106.21.175S510.077,288.265,509.938,288.595Zm.318-32.092c.756.765-.488-.424,0,0Zm.577,92.158a1.238,1.238,0,0,1-.334-.179c.058-.086.106-.236.163-.245a1.339,1.339,0,0,1,.431.131C510.964,348.522,510.884,348.669,510.834,348.661Zm.538-30.961c.089.09.187.175.285.261-.082.077-.146.2-.236.207-.074.008-.163-.114-.277-.2C511.233,317.859,511.3,317.781,511.372,317.7Zm.008,45.127c.26-3.517,4.892,1.189,0,0Z" transform="translate(-294.147 -80.935)" fill="#e51d30"/>
            <path id="Path_2191" data-name="Path 2191" d="M500.85,85.469h-.236c-.326.216-.635.448-.973.639a31.412,31.412,0,0,0-7.689,6.028,32.174,32.174,0,0,0-8.818,24.966,31.649,31.649,0,0,0,4.478,14.162,16.9,16.9,0,0,0,7.991,6.927c.379.163.781.261,1.332.435.659-6.667,1.311-13.151,1.938-19.64s1.208-12.965,2.031-19.437a1.2,1.2,0,0,1,.256.631c.179,1.486.346,2.972.525,4.453q.8,6.5,1.6,13c.346,2.809.667,5.622,1.009,8.434q.678,5.563,1.368,11.125c.053.406.166.805.273,1.29.432-.143.737-.211,1.013-.338a16.47,16.47,0,0,0,7.858-6.908,31.455,31.455,0,0,0,3.867-21.973c-1.93-10.4-7.686-18.115-16.931-23.243C501.437,85.856,501.147,85.656,500.85,85.469ZM489.835,130.4c-.057-.086-.163-.167-.163-.249s.131-.135.2-.2c.064.073.13.146.227.252C489.989,130.286,489.912,130.343,489.835,130.4Zm20.592-9.558c-.464-.488.748.766,0,0Zm-4.166-27.2a1.438,1.438,0,0,1,.216.375c.011.049-.175.2-.2.183a.691.691,0,0,1-.26-.269C506,93.9,506.134,93.8,506.26,93.65Zm-4.019.3h-2.3v-2.3h2.3Z" transform="translate(-293.193 -85.469)" fill="#a6bf41"/>
            <path id="Path_2192" data-name="Path 2192" d="M325.554,272.277a26.789,26.789,0,0,0,13.409-2.091,15.062,15.062,0,0,0,7.046-6.078c.175-.289.3-.615.509-1.067-11.447-2.926-22.767-5.821-34.087-8.711.017-.106.032-.216.049-.321,5.837.192,11.67.411,17.508.574s11.679.484,17.655.517c-.111-.574-.151-.961-.257-1.332a14.58,14.58,0,0,0-5.092-7.64,29.346,29.346,0,0,0-41.4,5.1,13.657,13.657,0,0,1-1.059,1.062v.24a10.692,10.692,0,0,1,.7,1.2C305.274,264.775,313.628,271,325.554,272.277Zm.094-9.533c.049-.008.13.146.26.3a1.69,1.69,0,0,1-.456.126c-.057,0-.11-.159-.163-.243A1.241,1.241,0,0,1,325.648,262.744Zm-4.376-2.862a.645.645,0,0,1,.216.314c.012.028-.15.118-.3.224a1.7,1.7,0,0,1-.158-.4C321.028,259.981,321.243,259.858,321.272,259.882Zm-1.4,2.862c.107,0,.208.167.411.354a1.877,1.877,0,0,1-.517.121c-.077-.008-.138-.146-.207-.228C319.668,262.9,319.774,262.74,319.875,262.744Zm12.1-10.714c.1,0,.2.159.407.346a1.724,1.724,0,0,1-.513.138c-.074-.007-.2-.195-.183-.228C331.754,252.177,331.876,252.03,331.978,252.03Z" transform="translate(-299.836 -79.873)" fill="#a6bf41"/>
            <path id="Path_2193" data-name="Path 2193" d="M674.3,240.039a27.541,27.541,0,0,0-14.914,6.261,14.791,14.791,0,0,0-4.893,7.506,7.987,7.987,0,0,0-.171,1.319c4.062-.106,7.954-.195,11.837-.321,3.859-.126,7.718-.346,11.577-.428s7.7-.37,11.576-.15c-5.609,1.575-11.235,3.008-16.86,4.457-5.659,1.454-11.333,2.833-17.048,4.372a7.309,7.309,0,0,0,.391.9,15.17,15.17,0,0,0,7.408,6.334,27.737,27.737,0,0,0,14.484,1.824c10.632-1.506,18.268-7.189,22.974-16.82.406-.838.781-1.689,1.165-2.532v-.477a.875.875,0,0,1-.179-.142C694.775,243.043,685.681,238.912,674.3,240.039Zm2.94,4.865c-.325-1.84,1.082-1.906,1.082-3.485C680.594,240.964,680.032,246.712,677.24,244.9Zm11.551,6.915a.619.619,0,0,1-.252-.3c-.025-.09.065-.211.171-.473a2.516,2.516,0,0,1,.3.591C689.02,251.69,688.816,251.836,688.791,251.82Zm-23.275,14.17c-.5-.472.725.685,0,0Zm9.118-5.434c-.171-.182-.252-.281-.342-.378a1.4,1.4,0,0,1,.334-.245c.05-.02.229.122.221.183C674.838,260.234,674.739,260.344,674.634,260.555Zm14.141-2.2c.115.154.246.285.229.31a.688.688,0,0,1-.293.235c-.04.017-.221-.154-.2-.186A2.291,2.291,0,0,1,688.774,258.357Zm-.691-.615a.312.312,0,0,1,.252.163,1.533,1.533,0,0,1-.154.46c-.187-.171-.292-.257-.391-.342C687.888,257.926,687.969,257.8,688.083,257.743Zm.26,1.689c.008.086-.154.188-.317.359-.113-.211-.236-.338-.211-.435s.2-.245.285-.225A.412.412,0,0,1,688.343,259.432Zm-3.94.4a2.938,2.938,0,0,1,.578.2c-.2.178-.335.35-.391.325a1.117,1.117,0,0,1-.375-.31C684.208,260.03,684.347,259.823,684.4,259.831Zm-4.828-.762a1.333,1.333,0,0,1,.229.379c.007.049-.179.2-.212.187a.636.636,0,0,1-.268-.273C679.307,259.326,679.446,259.212,679.576,259.069Zm-1.417,2.011c-.113-.017-.2-.183-.3-.281.1-.1.188-.268.3-.277s.22.138.423.285C678.379,260.947,678.256,261.093,678.159,261.081Zm1.384-.036c-.114-.012-.212-.171-.31-.268.1-.09.2-.245.3-.253s.236.131.448.264C679.771,260.922,679.649,261.06,679.543,261.044Zm.749-.7a.678.678,0,0,1-.269-.289c-.016-.025.154-.211.212-.2a1.289,1.289,0,0,1,.382.245C680.455,260.234,680.333,260.369,680.293,260.348Zm2.141,4.913c-.074.025-.179-.057-.277-.089l.171-.33c.089.045.178.093.3.159C682.556,265.111,682.506,265.237,682.434,265.261Zm-.05-4.2a.407.407,0,0,1-.292-.277c-.017-.1.146-.22.285-.41.146.186.309.3.293.4S682.482,261.06,682.384,261.06Zm2.751,1.507c-.333-.4-.634-.757-.936-1.116.075-.077.147-.154.221-.228.179.123.342.257.521.375.349.228.488.057.537-.273a.041.041,0,0,0-.017,0V261.3c-.716-.477-.716-.553.008-.973V260.3a.186.186,0,0,0,.033.008c.032-.107.04-.249.121-.3a.561.561,0,0,1,.392-.078c.057.012.155.236.13.261a.656.656,0,0,1-.35.2.642.642,0,0,1-.292-.085c-.008,0-.008.008-.008.012a.088.088,0,0,1-.025.011c0,.322,0,.648-.008.973l.025.012s-.008,0-.008.012c.284-.086.585-.277.79.248C685.926,261.874,685.568,262.191,685.135,262.567Zm1.532-4.389a1.6,1.6,0,0,1-.268-.285c.089-.053.179-.154.268-.15s.163.114.268.207C686.813,258.052,686.691,258.195,686.667,258.178Zm2.133,3.591c-.081.008-.26-.122-.252-.163.033-.122.106-.285.2-.318s.227.09.472.212C689,261.646,688.906,261.756,688.8,261.769Zm-.456-1.461v0c-.008,0-.017,0-.017.008.025.109.082.228.05.3a1.744,1.744,0,0,1-.334.485c-.025.024-.187-.09-.285-.139a3.476,3.476,0,0,1,.268-.513c.057-.078.2-.093.3-.138a.05.05,0,0,1-.007-.029c.007.008.016.008.024.017.36-.668.44-.692.815-.249a1.814,1.814,0,0,1,.334.944C689.093,260.762,688.719,260.536,688.343,260.308Zm2.5.8c-.049.016-.219-.115-.228-.188-.015-.09.1-.192.147-.293.195.114.276.171.367.224A1.027,1.027,0,0,1,690.843,261.11Zm1.523,0c-.351-.314-.7-.624-1.124-1,.758-.7.766.228,1.148.261.089.007.163.366.236.562C692.545,260.995,692.454,261.056,692.366,261.114Zm.675-2.17c-.1,0-.22-.154-.277-.265-.024-.036.114-.224.179-.232a1.858,1.858,0,0,1,.513.155C693.244,258.785,693.148,258.944,693.041,258.944Zm1.279,1.364c-.1-.057-.138-.224-.2-.346.121-.04.259-.143.357-.11s.171.186.342.387C694.563,260.279,694.409,260.356,694.319,260.308Zm2.964-4.2c-.106-.032-.18-.2-.261-.314.107-.085.22-.236.325-.232s.2.163.4.338C697.519,256.013,697.381,256.135,697.283,256.111Z" transform="translate(-286.982 -79.871)" fill="#a6bf41"/>
            <path id="Path_2194" data-name="Path 2194" d="M597.012,195.837a65.722,65.722,0,0,0-5.65,6.728,46,46,0,0,0-5.732,10.161,32.515,32.515,0,0,0-1.978,14.853,13.678,13.678,0,0,0,.9,4.181q16.5-8.22,32.874-16.429,13.043-6.516,26.075-13.026c-.553-3.107,3.093-2.056,3.534-4.108,1.009.456,1.343,1.066,1.294,1.693.644-.317,1.278-.634,1.913-.952.057.093.114.183.179.281q-5.666,4.585-11.316,9.175-5.739,4.652-11.487,9.3-5.692,4.61-11.381,9.224c-3.835,3.1-7.669,6.188-11.487,9.3-3.77,3.074-7.587,6.086-11.292,9.192a2.676,2.676,0,0,0,.2.359c.147.13.293.256.456.374a31.308,31.308,0,0,0,18.741,6.2,48.887,48.887,0,0,0,13.076-1.763c16.811-4.454,29.569-14.21,38.108-29.374a58.136,58.136,0,0,0,7.336-25.429c.178-3.093-.1-6.211-.139-9.321a1.343,1.343,0,0,0-.847-1.287c-1.579-.794-3.142-1.636-4.747-2.385a59.754,59.754,0,0,0-37.515-4.237c-.121.814-.179,1.189-.024,0-.513.11-1.033.192-1.547.318a60.536,60.536,0,0,0-23.78,11.605,4.726,4.726,0,0,1,1.026.634C602.165,193.317,601.2,196.126,597.012,195.837Zm28.225,49.03c-.048-.093-.146-.195-.138-.277s.147-.122.229-.187c.064.089.121.175.2.3C625.408,244.769,625.327,244.818,625.236,244.867Zm.831.73a1.352,1.352,0,0,1-.252-.31c.089-.045.179-.135.277-.135a1.723,1.723,0,0,1,.423.147C626.222,245.489,626.092,245.616,626.067,245.6Zm19.718-19.474c-.082-.289-.179-.456-.139-.574.041-.138.2-.243.317-.362.1.093.254.188.261.289S646.086,225.695,645.785,226.122Zm18.717-33.8c2.034-4.1,3.777,3.81,0,0Zm-7.27-9.639c.065,0,.2.139.195.2a.313.313,0,0,1-.2.228c-.057.012-.146-.117-.261-.216C657.077,182.8,657.159,182.681,657.232,182.681Zm-.8,40.312c.171.187.293.273.342.387.017.053-.106.24-.155.236-.121-.012-.3-.065-.342-.151S656.352,223.224,656.434,222.992Zm-7.108-34.222c.724,2.556-2.165,1.711-2.3,3.55C644.141,191.864,647.031,187.712,649.326,188.77Zm-9.077-.391c.065.078.13.155.228.261-.106.078-.187.191-.261.183s-.146-.118-.227-.188C640.078,188.55,640.159,188.465,640.249,188.379Zm-3.761-6.577c.292-3.517,4.892,1.123,0,0Zm-3.957,18.354c.187.968-.587.972-.587,1.51-.138-.11-.268-.224-.406-.33C631.824,201,632.1,200.665,632.531,200.156Zm-12.2-7.592a2.005,2.005,0,0,1,.432.26c-.212.135-.335.273-.424.256s-.188-.195-.211-.313C620.116,192.715,620.271,192.552,620.327,192.565Z" transform="translate(-289.55 -82.142)" fill="#a6bf41"/>
            <path id="Path_2195" data-name="Path 2195" d="M541.787,345.78c.416.488.741.879,1.076,1.254q7.228,8.035,14.474,16.074Q568.5,375.49,579.66,387.877q5.263,5.838,10.518,11.683a8.251,8.251,0,0,1,.545.762c-.073.061-.147.126-.219.192q-29.712-21.213-59.562-42.534c-.252.509-.431.806-.562,1.127a29.055,29.055,0,0,0-1.97,9.192,32.28,32.28,0,0,0,1.9,13,59.988,59.988,0,0,0,30.937,34.152,58.011,58.011,0,0,0,22.405,5.7,59.434,59.434,0,0,0,11.1-.4,65.636,65.636,0,0,0,13.726-3.374,1.7,1.7,0,0,0,1.148-1.339,63.339,63.339,0,0,0,1.823-12.953,58.279,58.279,0,0,0-.61-10.245,57.245,57.245,0,0,0-5.438-17.886,59.527,59.527,0,0,0-34.779-30.692,38.44,38.44,0,0,0-12.92-2.537,32.12,32.12,0,0,0-14.5,3.24C542.747,345.193,542.323,345.466,541.787,345.78Zm-4.925,46.253c-.456-.456.757.749,0,0Zm.952-25.482c-.17-.411-.961-.435-.667-1.355.432.456.733.769,1.091,1.152C538.058,366.434,537.936,366.491,537.814,366.552ZM542.771,385c.464-1.449,1.352-2.361,3.485-2.361A3.265,3.265,0,0,1,542.771,385Zm12.13,24.176c-.081-.008-.22-.122-.21-.179a.321.321,0,0,1,.187-.24c.057-.021.154.1.391.261C555.1,409.093,555,409.179,554.9,409.175Zm.62-18.33c-.464-.488.813.8,0,0Zm39.867-12.655c.106.008.2.163.334.288-.154.118-.268.257-.317.236a1.218,1.218,0,0,1-.31-.281C595.192,378.344,595.291,378.182,595.388,378.19Zm-1.262.016c.058,0,.122.147.236.3-.171.078-.31.188-.407.159s-.139-.2-.211-.309A1.506,1.506,0,0,1,594.126,378.205Zm-7.041,4.433c-1.351-.131-.986-2.166-1.083-3.517C589.877,378.372,587.841,381.581,587.085,382.639Zm-2.923-2.992c.049-.012.122.139.252.3a1.2,1.2,0,0,1-.431.113c-.057-.007-.106-.154-.154-.244A.983.983,0,0,1,584.161,379.647Zm-5.08-17.765c.081.065.163.126.277.212-.1.1-.154.22-.236.232s-.179-.078-.26-.122C578.926,362.1,579,361.992,579.082,361.882Zm-.758-.659a1.429,1.429,0,0,1,.448.139c-.138.154-.219.3-.268.292a1.191,1.191,0,0,1-.35-.187C578.21,361.382,578.259,361.223,578.324,361.223Zm-.57-12.078c.065,0,.122.118.253.257l-.457.154c-.024-.1-.1-.22-.064-.281A.356.356,0,0,1,577.754,349.146Zm-3.484,11.316c.2-3.516,4.859,1.059,0,0Zm1.026,18.656c-.22.154-.335.3-.424.281s-.2-.167-.253-.281c-.016-.032.132-.2.2-.2A1.665,1.665,0,0,1,575.3,379.117ZM581.239,378a4.175,4.175,0,0,1-2.736,2.092c-.032.008-.065.032-.073.029s-.009-.012-.017-.017a9.322,9.322,0,0,1-2.092.3c.064.073.13.154.195.231-.082.069-.187.208-.245.188-.114-.032-.211-.15-.359-.268.115-.078.163-.11.229-.15a18.462,18.462,0,0,1-1.872-.025C575.654,378.666,578.284,378.177,581.239,378ZM569.6,372.153c2.857-4.526,1.612,3.876,0,0Zm-15.338-28.022c.114.069.261.192.261.293s-.164.2-.351.406a1.554,1.554,0,0,1-.138-.508C554.055,344.249,554.234,344.115,554.267,344.131Z" transform="translate(-291.55 -76.177)" fill="#a6bf41"/>
            <path id="Path_2196" data-name="Path 2196" d="M416.5,116.317a61.548,61.548,0,0,0-4.674,11.8,11.851,11.851,0,0,0,1.93-3.656c3.053,2.3-1.212,7.361-2.328,9.428a3.094,3.094,0,0,1-.756-.936,61,61,0,0,0-.92,6.769,58.838,58.838,0,0,0,.716,15.069,60.369,60.369,0,0,0,30.3,42.244,32.837,32.837,0,0,0,6.24,2.784A34.116,34.116,0,0,0,460.2,201.2a17.09,17.09,0,0,0,4.563-.969c-.933-1.807-1.8-3.477-2.654-5.153s-1.735-3.358-2.6-5.039-1.725-3.363-2.593-5.039-1.734-3.363-2.6-5.039-1.738-3.358-2.605-5.035c-.187-.367-.374-.734-.562-1.1.074,2.691-1.97,5.947-4.674,5.483a16.613,16.613,0,0,1,3.388-7.978c-.249-.48-.5-.969-.749-1.454q-1.27-2.465-2.54-4.934-1.3-2.521-2.605-5.038c-.867-1.678-1.731-3.363-2.6-5.039s-1.735-3.363-2.6-5.039-1.731-3.363-2.6-5.04-1.766-3.346-2.605-5.039a41.052,41.052,0,0,1-2.356-4.981c2.077,2.291,4.051,4.632,6.012,6.989s3.92,4.735,5.882,7.1,3.928,4.725,5.89,7.094q2.907,3.494,5.821,6.994l5.894,7.091q2.944,3.541,5.894,7.087c1.967,2.361,3.924,4.734,5.9,7.079,1.963,2.332,3.819,4.754,5.9,6.993a3.273,3.273,0,0,0,.374-.334c.221-.277.44-.553.643-.847a31.71,31.71,0,0,0,5.552-15.977,38.258,38.258,0,0,0-.387-7.889,57.448,57.448,0,0,0-4.885-17.063c-.72-1.539-1.5-3.008-2.316-4.454-2.76.794-5.715,1.4-8.613,2.035,1.168-2.629,4.013-3.606,7.4-4.078a58.964,58.964,0,0,0-28.7-24.371,57.424,57.424,0,0,0-21.859-4.376c-2.166-.008-4.327.175-6.493.216a2.358,2.358,0,0,0-.737.192v2.067Zm39.126,77.874a2.826,2.826,0,0,1,.635.253c-.3.122-.411.2-.5.188a1.022,1.022,0,0,1-.318-.208C455.505,194.342,455.567,194.19,455.628,194.19Zm-7.706-6.382c.029-.017.216.135.2.188a1.359,1.359,0,0,1-.216.366c-.13-.146-.268-.256-.252-.288A.634.634,0,0,1,447.922,187.808Zm-.867,7.588c.16.2.31.318.293.4-.012.1-.163.2-.273.264-.028.012-.2-.13-.2-.207C446.868,195.742,446.957,195.624,447.055,195.4Zm33.436-24.7c.106.154.228.277.207.31a.7.7,0,0,1-.281.252c-.024.012-.195-.15-.182-.195A1.621,1.621,0,0,1,480.491,170.7Zm-3.53-.634a1.548,1.548,0,0,1,.338.292c-.154.1-.288.22-.325.2a.675.675,0,0,1-.236-.31C476.729,170.211,476.917,170.045,476.961,170.061Zm-5.646,1.322a1.421,1.421,0,0,1,.22.371c.008.049-.175.2-.2.187a.7.7,0,0,1-.261-.268C471.056,171.635,471.193,171.526,471.316,171.383Zm.815-29.421c-.4-.424.749.765,0,0Zm-15.713,11.787c.078.012.139.135.236.24-.114.09-.192.154-.273.216-.078-.106-.159-.211-.232-.321C456.238,153.835,456.335,153.738,456.417,153.749Zm-9.941-3.484c-1.025,6.838.685-4.788,0,0Zm-8.507-15.924c-.107-.008-.2-.167-.289-.257.1-.1.182-.252.293-.268s.216.131.419.261C438.19,134.211,438.071,134.35,437.97,134.341Zm.741,4.953c-.074.025-.188-.056-.278-.093.057-.114.115-.224.172-.338.093.049.182.1.309.163C438.832,139.14,438.788,139.271,438.711,139.295Zm1.375-6.142c.094-.021.221.1.428.2-.192.164-.289.314-.386.314a.37.37,0,0,1-.274-.245C439.842,133.344,439.984,133.173,440.086,133.153Zm-1.2.179c.029.049.054.1.041.134-.008.021-.041.021-.057.037-.093.7-.611.936-1.792-.872C438.1,130.389,438.931,132.224,438.889,133.332Zm-7.554,35.5c.228-3.452,4.795,1.156,0,0Zm2.238,9.5a1.07,1.07,0,0,1-.11-.268c0-.036.11-.126.159-.118a1.879,1.879,0,0,1,.411.168C433.744,178.242,433.655,178.283,433.573,178.323Zm2.215,10.629a.278.278,0,0,1-.179-.2c-.007-.089.074-.186.147-.349.154.236.256.321.248.395S435.857,188.96,435.788,188.952Zm-1.009-39.924c-1.18-.8-1.18-2.7-3.443-2.362C432.547,143.379,438.2,147.188,434.778,149.028Zm-4.632,2.3c.236-3.484,4.828,1.123,0,0Zm-6.363,27.953c.04-.021.15.106.309.22a1.4,1.4,0,0,1-.37.232c-.053.012-.211-.167-.195-.192A.608.608,0,0,1,423.784,179.277Zm-.652-27.745a1.539,1.539,0,0,1,.135.423c0,.04-.224.146-.252.122a.679.679,0,0,1-.188-.325C422.819,151.714,422.977,151.641,423.132,151.532Z" transform="translate(-295.857 -84.44)" fill="#a6bf41"/>
            <path id="Path_2197" data-name="Path 2197" d="M416.387,283.241c-.224-.392-.334-.644-.492-.859A31.35,31.35,0,0,0,399.885,271a50.155,50.155,0,0,0-12.3-2.157,60.036,60.036,0,0,0-15.054.919,59.418,59.418,0,0,0-31.074,16.189,60.068,60.068,0,0,0-16.792,30.513,1.96,1.96,0,0,0,.55,2.007,61.12,61.12,0,0,0,13.725,10.763,59.762,59.762,0,0,0,25.384,7.864,60.63,60.63,0,0,0,16.226-.92,59.9,59.9,0,0,0,16.429-5.755,55.8,55.8,0,0,0,16.148-12.367,31.387,31.387,0,0,0,7.734-17.809,7.4,7.4,0,0,0-.1-1.294c-24.273,4.07-48.4,8.117-72.513,12.164-.045-.1-.085-.2-.131-.293q8.524-3.438,17.044-6.88,8.541-3.449,17.084-6.884,2.784-1.116,5.556-2.242a.878.878,0,0,1,1.4-.562q5.061-2.039,10.123-4.087C404.989,287.861,410.689,285.626,416.387,283.241Zm-14.455-5.235a1.664,1.664,0,0,1,.354.268c-.15.114-.273.249-.313.228a.547.547,0,0,1-.249-.277C401.708,278.177,401.884,277.994,401.932,278.006Zm-62.479,47.215a.346.346,0,0,1-.118-.253.322.322,0,0,1,.249-.163c.069,0,.15.106.31.231A2.289,2.289,0,0,1,339.453,325.221Zm53.223.235c.073,0,.146.131.224.2-.078.073-.155.2-.24.207s-.163-.11-.289-.2C392.5,325.566,392.586,325.452,392.677,325.456ZM387.1,317.01c.069.074.183.147.188.224s-.093.163-.171.274c-.11-.09-.188-.147-.265-.212C386.941,317.2,387.022,317.108,387.1,317.01ZM384.1,333.915c3.973-2.833-2.857,3.875,0,0Zm-2.3-11.756c.236-3.419,4.9,1.173,0,0Zm-4.665-12.813c.757.748-.553-.456,0,0Zm-5.878,0c.236-.326,3.484-2.362,4.632-1.124C376.9,309.084,370.231,310.826,371.249,309.346Zm-13.123,5.568c.06.012.1.167.146.261a1.111,1.111,0,0,1-.363.15c-.045.008-.109-.154-.216-.317A1.254,1.254,0,0,1,358.126,314.913Zm-14.984,6.908c-.114-.146-.22-.235-.248-.341-.017-.05.154-.217.178-.2a.653.653,0,0,1,.285.24C343.373,321.544,343.251,321.667,343.141,321.821Zm-.053-11.447c-.074-.008-.211-.171-.195-.2.049-.114.154-.268.252-.277s.2.146.416.317C343.316,310.3,343.2,310.383,343.088,310.375Zm1.433,2.32c.093-.028.232.09.456.188-.2.179-.289.33-.391.338s-.212-.142-.318-.22C344.351,312.891,344.416,312.728,344.521,312.695Zm.106,1.931a1.136,1.136,0,0,1-.329-.212c.065-.081.126-.228.191-.228a2.422,2.422,0,0,1,.607.245C344.823,314.552,344.712,314.649,344.627,314.625Zm.619-.6c-.122-.15-.253-.256-.232-.31a1.337,1.337,0,0,1,.249-.334c.093.1.26.192.268.293S345.372,313.875,345.246,314.022Zm.1-1.323c-.179-.163-.374-.288-.358-.346a1.386,1.386,0,0,1,.288-.4c.1.1.257.183.282.3S345.449,312.492,345.343,312.7Zm.5-1.478a1.994,1.994,0,0,1,.272.4c.007.037-.164.192-.228.179a.369.369,0,0,1-.217-.232C345.653,311.506,345.751,311.4,345.845,311.221Zm.045,1.539a1.515,1.515,0,0,1,.406.22c-.163.126-.268.257-.317.236a1.262,1.262,0,0,1-.3-.252C345.751,312.891,345.831,312.752,345.889,312.76Zm.007,10.384c-.045.012-.2-.163-.187-.2a.633.633,0,0,1,.252-.273c.025-.016.147.118.293.24A1.37,1.37,0,0,1,345.9,323.144Zm-.007-8.527a.3.3,0,0,1-.188-.228.312.312,0,0,1,.188-.228c.085-.008.186.085.452.224C346.076,314.527,345.97,314.625,345.889,314.617Zm2.01-14.6c-2.068-.912-.195-2.166,0-3.517C349.9,297.329,348.1,298.6,347.9,300.015Zm2.263,1.82a.277.277,0,0,1-.2-.191c0-.078.1-.16.163-.24.077.057.15.118.4.31C350.362,301.774,350.257,301.851,350.163,301.835Zm10.575-27.529c1.743-3.875,2.891,4.56,0,0Zm30.415,9.395c-.488-.57.758.749,0,0Zm1.116-5.926c-.2-2.524,1.018-3.713,3.517-3.468C396.046,276.829,394.931,278.051,392.269,277.774Z" transform="translate(-298.939 -78.824)" fill="#a6bf41"/>
            <path id="Path_2198" data-name="Path 2198" d="M439.7,342.346c-17.613,3.766-31.006,13.531-40.067,29.06-.2.346-.366.7-.562,1.051,1.718,1.189,2.584,2.808,2.466-.3,3.411.834-.936,5.438-5.584,6.753a56.951,56.951,0,0,0-3.769,14.7,3.056,3.056,0,0,1,3.573,1.914c-1.253,1.233-2.511,1.026-3.859.615a63.3,63.3,0,0,0-.065,8.694,66.08,66.08,0,0,0,1.621,10.958,2.119,2.119,0,0,0,1.526,1.7,61.245,61.245,0,0,0,21.285,3.737,56.476,56.476,0,0,0,14.613-1.828q28.142-7.613,40.336-34.127a37.493,37.493,0,0,0,2.853-8.243,33.594,33.594,0,0,0,.521-10.1,30.4,30.4,0,0,0-1.824-7.791c-.131-.35-.321-.684-.553-1.172-2.313,1.649-4.514,3.216-6.717,4.786s-4.425,3.163-6.638,4.742c-.623.448-1.25.892-1.872,1.336,3.655,1.319,3.138,5.511-1.649,5.666-.464-2.687,1.782-2.6,1.286-5.406q-2.2,1.576-4.4,3.143-3.322,2.369-6.635,4.742-3.365,2.406-6.733,4.807-2.925,2.094-5.85,4.18c.659,1.022,1.18,2.195,3.648,1.4-.758,3.452-3.094,5.519-7.034,5.812,2.063-4.193,3.068-3.815,1.611-5.939q-2.821,2.015-5.65,4.03c-2.01,1.436-4.022,2.882-6.04,4.315.838.513,1.189,1.73-1.56,1.119-1.86,1.335-3.7,2.7-5.622,3.927-.061-.073-.122-.142-.182-.211q18.006-19.972,36-39.953h-4.559c-.88-4.461,5.511-4.481,4.632-.081l13.026-14.455c-.163-.2-.22-.317-.31-.37-.374-.225-.744-.448-1.132-.639A30.568,30.568,0,0,0,439.7,342.346Zm-45.13,49.69c.756.749-.489-.456,0,0Zm3.451,11.626c-3.451,4.4-3.908-3.517,0,0Zm7.865-9.309c-.318-.371-.677-.794-1.026-1.213l-.053-.012v-.008a3.3,3.3,0,0,1-.7.281,3.509,3.509,0,0,1-.9-.2c.671-.341,1.091-.557,1.6-.813v.729c.007-.008.016-.008.024-.012a.21.21,0,0,1,.029.033c.366.085.737.167,1.107.252.318-.191.684-.407,1.156-.688.032.509.053.831.068,1.063C406.761,393.961,406.394,394.124,405.882,394.353Zm3.492-.717c-.264-.382-.928-.517-.8-1.389.534.428.9.721,1.372,1.1A4.647,4.647,0,0,1,409.374,393.636Zm56.215-4.995a.666.666,0,0,1-.261-.268c-.016-.037.118-.142.228-.281a2.09,2.09,0,0,1,.249.382C465.817,388.5,465.625,388.662,465.589,388.641Zm-.09-1.958c.11.093.264.2.253.228a1.549,1.549,0,0,1-.249.3c-.065-.081-.179-.159-.183-.244S465.422,386.8,465.5,386.683Zm-.61-17.756c.04-.025.232.106.24.175a.953.953,0,0,1-.1.378l-.28.171a1.2,1.2,0,0,1-.126-.431A.494.494,0,0,1,464.889,368.927Zm-.017,18.51c.093-.008.2.142.411.3a1.64,1.64,0,0,1-.468.171c-.073,0-.211-.167-.195-.2C464.669,387.6,464.775,387.44,464.872,387.437Zm-.733-.753a1.838,1.838,0,0,1,.367.313c-.171.078-.289.175-.331.15a1.439,1.439,0,0,1-.268-.3C463.985,386.789,464.1,386.663,464.139,386.683Zm-2.052.756c.046-.016.151.118.314.253a1.4,1.4,0,0,1-.42.211c-.061.008-.138-.138-.207-.216A1.437,1.437,0,0,1,462.088,387.44Zm-4.819.688c.024.11.049.216.077.322-.179.06-.354.121-.533.163a1.205,1.205,0,0,1-.094-.278C456.894,388.254,457.081,388.193,457.269,388.128Zm-2.26.7c.086-.025.2.057.468.154a3.036,3.036,0,0,1-.635.289c-.04,0-.11-.15-.167-.236A1.157,1.157,0,0,1,455.009,388.833Zm-1.535.045c.114,0,.228.082.481.188-.224.154-.334.289-.431.281s-.192-.163-.245-.278C453.263,389.044,453.4,388.877,453.474,388.877Zm-2.084.659c.118.021.221.126.4.24-.175.122-.293.249-.334.228a1.65,1.65,0,0,1-.3-.281C451.232,389.659,451.325,389.525,451.39,389.536Zm-.638-.667c.045-.011.2.143.191.207-.017.118-.118.224-.245.44-.134-.217-.272-.342-.252-.432S450.634,388.9,450.752,388.869Zm-2.866,1.347c.053-.02.159.1.3.2-.15.131-.249.277-.363.3-.074.011-.179-.163-.273-.257A1.345,1.345,0,0,1,447.886,390.216Zm-7.86,2.679a.751.751,0,0,1-.24-.317c-.012-.025.179-.2.232-.175.118.04.207.159.354.289C440.2,392.8,440.066,392.92,440.026,392.895Zm-.24-1.616c-.028-.1.089-.232.192-.456.163.191.317.285.325.391s-.142.207-.22.309C439.977,391.446,439.814,391.381,439.785,391.279Zm.867.961a1.269,1.269,0,0,1-.155-.4c0-.053.217-.175.245-.151a.744.744,0,0,1,.228.318C440.978,392.032,440.815,392.122,440.652,392.24Zm3.639-1.311c.1-.012.22.125.423.252-.2.139-.317.277-.423.268s-.192-.163-.289-.252C444.1,391.1,444.185,390.946,444.292,390.929Zm-2.594.33a.357.357,0,0,1-.284.22.406.406,0,0,1-.232-.293c0-.093.146-.195.288-.374C441.588,391.026,441.711,391.153,441.7,391.259ZM438.943,385h2.328v2.362h-2.328Zm-.04,7.661c-.179.1-.289.2-.407.207-.065.008-.147-.138-.216-.22a1.273,1.273,0,0,1,.309-.252C438.634,392.382,438.74,392.521,438.9,392.663Zm-.643-.623c-.122.069-.31.224-.35.192a1.567,1.567,0,0,1-.289-.4,1.115,1.115,0,0,1,.371-.192,1.6,1.6,0,0,1,.468.1C438.389,391.837,438.324,391.938,438.259,392.04Zm-.317-1.734c.04-.012.122.125.239.268a1.823,1.823,0,0,1-.427.146c-.049,0-.1-.15-.146-.228A1.293,1.293,0,0,1,437.942,390.306Zm-10.771,2.076c.126.032.3.11.338.212s-.1.235-.217.476a1.731,1.731,0,0,1-.3-.46C426.975,392.549,427.125,392.374,427.171,392.382Zm-11.813,1.531-.773-.737c-.419-.093-.724,1-1.123.195.325-.394.61-.736.936-1.128.261.2.5.375.713.538.395-.22.777-.439,1.217-.684C416.482,393.078,415.435,393.049,415.357,393.912Z" transform="translate(-296.505 -76.18)" fill="#a6bf41"/>
            <path id="Path_2199" data-name="Path 2199" d="M636.655,308q-8.916-1.5-17.805-3.007c-5.357-.9-10.714-1.792-16.071-2.7q-9.365-1.581-18.741-3.167a8.25,8.25,0,0,0-1.286-.008,11.662,11.662,0,0,0,.008,1.212c.106.9.22,1.8.391,2.687a31.472,31.472,0,0,0,7.856,15.631,56.812,56.812,0,0,0,12.807,10.2A60.054,60.054,0,0,0,631.7,337.24a58.473,58.473,0,0,0,17.683-1.8A61,61,0,0,0,678.451,318.4a1.778,1.778,0,0,0,.52-1.808c-3.37-14.93-11.055-27.1-23.388-36.2a59.07,59.07,0,0,0-33.29-11.6,59.823,59.823,0,0,0-15.72,1.45,31.845,31.845,0,0,0-18.139,11.185c-.424.513-.79,1.07-1.335,1.808,5.08,2.047,10.1,4.09,15.11,6.117a1.3,1.3,0,0,1,1.318.534q8.975,3.633,17.919,7.184c12.668,5.011,33.419,13.465,34.039,14.06-.994-.167-1.881-.3-2.761-.456Q644.689,309.341,636.655,308Zm-17.081,17.214a.353.353,0,0,1-.106-.264.324.324,0,0,1,.26-.142c.074,0,.139.114.293.252A2.165,2.165,0,0,1,619.574,325.215Zm3.639-3.509c-.033.017-.2-.146-.187-.195.032-.11.138-.2.244-.342.114.154.235.273.22.3A.618.618,0,0,1,623.213,321.706Zm.074-11.157c-.139-.216-.269-.338-.261-.435s.188-.179.3-.207c.049-.012.195.142.188.216C623.505,310.232,623.409,310.338,623.287,310.549Zm1.4,2.141c.089-.007.268.164.268.265s-.139.22-.277.416c-.13-.188-.277-.31-.268-.407A.407.407,0,0,1,624.687,312.69Zm.073,1.935a1.147,1.147,0,0,1-.325-.212c.057-.081.122-.228.188-.228.122,0,.236.086.611.245C624.955,314.551,624.849,314.648,624.759,314.625Zm.627-.709c-.04.024-.227-.11-.235-.175a2.15,2.15,0,0,1,.179-.509c.178.2.35.317.341.407C625.656,313.745,625.5,313.859,625.386,313.916Zm.188-1.127c-.1-.057-.188-.114-.285-.171-.065-.118-.195-.249-.171-.359s.171-.207.268-.309c.107.13.269.244.31.391S625.614,312.638,625.574,312.788Zm.261.256c-.017-.106.065-.228.1-.35.1-.056.2-.114.284-.175a1.186,1.186,0,0,1,.107.424.5.5,0,0,1-.253.281C626.03,313.244,625.843,313.122,625.835,313.044Zm.244,1.055c.057.15.138.252.122.334s-.147.118-.228.175c-.049-.09-.138-.179-.138-.265S625.966,314.209,626.078,314.1Zm-.04,9.044c-.049.012-.211-.163-.195-.2a.651.651,0,0,1,.252-.276c.025-.012.146.121.293.244A1.523,1.523,0,0,1,626.038,323.144Zm.065-11.3a.8.8,0,0,1-.334-.351c-.025-.052.154-.191.309-.362.138.2.277.325.31.468C626.4,311.665,626.152,311.868,626.1,311.844Zm1.294-.012c-.033.016-.2-.171-.188-.2a3.175,3.175,0,0,1,.342-.484c.131.216.277.395.253.423A1.027,1.027,0,0,1,627.4,311.832Zm1.49-.057c-.073-.074-.188-.151-.188-.232s.106-.167.188-.281c.114.089.195.154.277.22C629.066,311.579,628.977,311.678,628.888,311.775Zm9.224,3.57c-.065,0-.138-.139-.2-.212a1.078,1.078,0,0,1,.3-.235c.041-.021.146.118.3.252C638.331,315.242,638.226,315.337,638.112,315.345Zm29.015,1.485c.188.236.252.314.31.391-.1.074-.2.151-.286.228-.056-.085-.147-.167-.147-.256S667.07,316.992,667.127,316.83Zm-71.6-34.148c-.066-.077-.2-.163-.179-.216.025-.114.13-.2.235-.35.115.155.236.268.22.3A1.289,1.289,0,0,1,595.525,282.682Zm4.307,2.854c-.025.025-.236-.1-.236-.15a1.314,1.314,0,0,1,.163-.395c.146.113.309.2.3.227A.832.832,0,0,1,599.832,285.536Zm3.59.245c.049-.025.237.1.245.163a1.081,1.081,0,0,1-.114.366c-.1.057-.195.118-.293.179-.032-.146-.122-.3-.1-.427A.461.461,0,0,1,603.422,285.78Zm-.651,1.189c-.122-.033-.294-.122-.318-.212s.115-.232.253-.456c.13.221.235.329.252.449C602.966,286.814,602.82,286.981,602.771,286.969Zm.61.733c-.106-.021-.186-.171-.285-.269a1.5,1.5,0,0,1,.391-.268c.057-.02.172.171.326.342C603.608,287.6,603.487,287.725,603.381,287.7Zm.79-.717a.677.677,0,0,1-.277-.106,1.413,1.413,0,0,1,.163-.477c.049-.085.178-.125.277-.186a.033.033,0,0,1-.007-.025c.007,0,.016.008.024.008.2-.154.285-.586.684-.3a.217.217,0,0,1,.049.2c-.188.4-.473.192-.733.106,0,0-.008.008-.008.012l-.008,0c.024.106.089.216.065.309A1.437,1.437,0,0,1,604.171,286.984Zm.651.737c-.113-.011-.194-.182-.292-.281.1-.1.195-.26.3-.268s.219.139.423.285C605.05,287.591,604.92,287.738,604.822,287.721Zm1.3-2.926c-.05.008-.115-.163-.228-.33a1.424,1.424,0,0,1,.456-.1c.057.007.1.174.138.264A1.219,1.219,0,0,1,606.125,284.795Zm.016-5.536c-.114-.167-.235-.3-.219-.322a1.559,1.559,0,0,1,.381-.313c.017-.012.2.179.188.2A3.576,3.576,0,0,1,606.141,279.259ZM607,283.5c.106.211.228.349.2.439a.414.414,0,0,1-.317.224c-.082,0-.228-.191-.22-.281C606.679,283.773,606.833,283.68,607,283.5Zm-.089,3.517a1.377,1.377,0,0,1-.244-.322c-.017-.053.122-.22.195-.224a1.631,1.631,0,0,1,.474.188Zm.61-3.607c-.049,0-.146-.146-.146-.231a1.8,1.8,0,0,1,.072-.46c.106.068.212.138.317.211.05.118.1.24.146.358A1.171,1.171,0,0,1,607.525,283.41Zm.854.859c-.154-.207-.309-.321-.292-.407a.491.491,0,0,1,.285-.252c.04-.021.211.126.211.192C608.583,283.919,608.486,284.037,608.379,284.27Zm.627-7.978c-.056.012-.154-.118-.26-.211.106-.1.189-.216.269-.22.065,0,.195.138.187.2A.325.325,0,0,1,609.006,276.291Zm2.873-4.184a.409.409,0,0,1-.234-.3,1.034,1.034,0,0,1,.121-.416c.082.054.171.107.26.155.058.118.179.252.154.346A.377.377,0,0,1,611.88,272.107Zm.75.663c-.074.017-.253-.125-.245-.154.033-.122.106-.285.2-.317.081-.033.219.081.473.195C612.841,272.641,612.744,272.754,612.63,272.77Zm.741-.691a.267.267,0,1,1-.074-.53c.1-.025.228.106.448.22C613.567,271.932,613.468,272.083,613.371,272.079Zm32.573,18.509c3.314-.163-1.417,7.718,3.41,5.91C645.674,299.82,644.364,294.267,645.944,290.588Z" transform="translate(-289.578 -78.824)" fill="#a6bf41"/>
            <path id="Path_2200" data-name="Path 2200" d="M518.592,178.886a31.221,31.221,0,0,0,4.957,11.284c.261.359.57.685.936,1.12,5.324-6.415,10.527-12.688,15.746-18.961s10.428-12.541,15.646-18.806c5.2-6.239,10.364-12.517,15.6-18.728l.268.183q-16.79,32.563-33.631,65.211a4.916,4.916,0,0,0,.863.338c1.709.268,3.41.634,5.128.744a30.1,30.1,0,0,0,14.637-2.555,57.632,57.632,0,0,0,19.605-14.736,59.544,59.544,0,0,0,14.768-34.971c.1-1.144.064-2.283.089-3.428-1.269,1.063-3.549,1.185-5.943,1.112a1.18,1.18,0,0,1,.261.11c-.107.122-.163.249-.246.273-.064.021-.227-.093-.235-.159a.345.345,0,0,1,.154-.228c-.276-.008-.546-.008-.813-.021.391-3.028,3.345-3.484,3.443-7.033,1.489.765,2.955,1.628,3.443,3.452a56.964,56.964,0,0,0-.61-7.515,61.538,61.538,0,0,0-6.806-20.271,2.058,2.058,0,0,0-1.816-1.229,67.813,67.813,0,0,0-11.1-.041,58.333,58.333,0,0,0-15.29,3.326,59.119,59.119,0,0,0-28.24,21.086c3.036-.766,1.734,2.723,1.985,4.742-1.93-.3-2.54-1.848-2.352-4.193a65.779,65.779,0,0,0-5.618,9.5,57.716,57.716,0,0,0-5.137,17.483A35.625,35.625,0,0,0,518.592,178.886Zm27.264,19.194c.082-.114.146-.281.253-.322.089-.036.228.082.5.2-.253.154-.359.264-.473.281C546.051,198.254,545.954,198.136,545.856,198.079Zm1.043.891a.831.831,0,0,1-.367-.334c-.025-.053.138-.211.285-.411.163.208.31.325.334.468C547.167,198.771,546.939,198.991,546.9,198.97Zm.635.635c-.041.029-.18-.09-.351-.188a1.483,1.483,0,0,1,.375-.293c.064-.024.171.1.26.159A1.454,1.454,0,0,1,547.534,199.606Zm1.489-11.345a1.15,1.15,0,0,1-.293-.24c.074-.073.146-.211.211-.2.114.008.221.106.4.2C549.177,188.151,549.071,188.281,549.023,188.261Zm1.335-2.854a.3.3,0,0,1-.211-.191.315.315,0,0,1,.188-.232c.065-.017.163.1.407.256C550.562,185.326,550.456,185.411,550.357,185.407Zm1.361-1.412c-.057-.085-.147-.167-.147-.256a1.23,1.23,0,0,1,.131-.362c.179.235.244.313.309.391C551.913,183.844,551.815,183.918,551.718,183.994Zm2.238,2.138c-.09,0-.171-.106-.26-.163a1.227,1.227,0,0,1,.268-.261c.032-.016.154.126.268.228C554.119,186.027,554.037,186.136,553.956,186.132Zm4.169-2.829c-.065-.078-.179-.154-.179-.232s.114-.154.179-.232c.073.069.146.139.245.236C558.271,183.169,558.2,183.234,558.125,183.3Zm32.092-30.953c.049-.008.129.15.252.31a1.318,1.318,0,0,1-.431.122c-.064-.008-.106-.167-.163-.257A1.154,1.154,0,0,1,590.217,152.35Zm-2.288,6.367c.074.068.147.138.245.232-.1.1-.171.163-.245.232-.065-.078-.178-.16-.178-.232S587.864,158.794,587.929,158.717ZM563.156,172.67c-.1-.02-.187-.175-.253-.288-.008-.017.139-.179.211-.179a1.915,1.915,0,0,1,.489.183C563.368,172.545,563.253,172.683,563.156,172.67Zm1.432-1.445a1.428,1.428,0,0,1-.245-.3c.091-.049.188-.138.278-.13.073,0,.146.121.244.22A1.785,1.785,0,0,1,564.588,171.226Zm1.319-8.52c-.057-.085-.154-.182-.147-.264s.139-.131.261-.236c.057.143.147.253.122.318C566.111,162.6,565.988,162.644,565.908,162.705Zm1.522,8.634c-.114-.154-.22-.245-.244-.354-.017-.053.114-.142.178-.22a1.3,1.3,0,0,1,.277.264C567.658,171.063,567.544,171.181,567.43,171.34Zm-.089-18.574c-.057-.008-.107-.155-.154-.24a1.056,1.056,0,0,1,.333-.163c.05-.008.122.138.245.289A1.313,1.313,0,0,1,567.341,152.766Zm.927,12.093c-.13-.016-.309-.061-.358-.154-.05-.074.065-.236.154-.485.179.2.3.282.342.395C568.431,164.672,568.309,164.863,568.268,164.859Zm.5,7.8c-.064-.074-.178-.147-.187-.229s.1-.17.187-.3c.082.126.179.216.179.3S568.838,172.585,568.773,172.659Zm.074-7.063c-.1.012-.22-.134-.406-.264.187-.139.3-.293.4-.281a.41.41,0,0,1,.269.273C569.115,165.416,568.952,165.583,568.846,165.6Zm-.35-3.131c.164-.109.3-.239.334-.216a1.529,1.529,0,0,1,.269.3c-.09.069-.188.207-.253.188C568.732,162.71,568.643,162.587,568.5,162.465Zm.326-1.1c-.074-.065-.22-.139-.212-.2a1.676,1.676,0,0,1,.179-.395c.155.1.236.164.318.221C569.009,161.114,568.92,161.244,568.823,161.367Zm17.038-11.882a1.517,1.517,0,0,1,.4.256c-.179.118-.3.24-.342.22a1.336,1.336,0,0,1-.293-.277C585.707,149.611,585.8,149.472,585.861,149.485Zm-.911,2.3a.977.977,0,0,1,.342-.126c.057,0,.114.163.22.326a1.325,1.325,0,0,1-.44.068c-.056-.017-.088-.142-.13-.235a3.776,3.776,0,0,1-.993,1.831c-1.58-.293-.855-2.85-1.116-4.624A2.163,2.163,0,0,1,584.95,151.788Zm-1.986,1.828c.146.191.278.321.261.349a1.736,1.736,0,0,1-.285.249c-.058-.085-.155-.179-.147-.264S582.882,153.758,582.963,153.616Zm-1.393-34.031a1.183,1.183,0,0,1,.212.367c.017.057-.131.138-.2.207a1.374,1.374,0,0,1-.244-.292C581.32,119.83,581.449,119.725,581.571,119.586Zm-.781,30.636a1.342,1.342,0,0,1,.439.1c-.106.163-.17.321-.22.317a1.2,1.2,0,0,1-.358-.15C580.7,150.393,580.741,150.23,580.789,150.222Zm-1.383-17.129a2.693,2.693,0,0,1,.277.374.364.364,0,0,1-.22.167.285.285,0,0,1-.211-.191C579.227,133.369,579.317,133.272,579.406,133.092Zm-.089,20.56c.756.765-.521-.456,0,0Zm1.407,6.431a1.516,1.516,0,0,0,.05-.2c.089.061.186.118.285.183a2.679,2.679,0,0,1,1.075.256.557.557,0,0,1,.26-.228c.089-.028.211.061.464.147-.2.11-.31.183-.4.235.114.074.268.078.374.175-.822,3.745-3.118,1.515-5.846,1.222A5.869,5.869,0,0,1,580.724,160.084Zm-2.523,5.292c-2.533.473-3.118-.781-4.731-1.172C573.113,162.136,580.008,162.136,578.2,165.376Zm-4.469-22.241a1.345,1.345,0,0,1,.424.13c-.131.151-.2.293-.253.286a1.132,1.132,0,0,1-.334-.175C573.625,143.289,573.675,143.139,573.731,143.135Zm-.676,6.353c.106-.016.236.094.481.2-.2.163-.31.314-.407.306-.114,0-.22-.147-.326-.228C572.885,149.667,572.957,149.509,573.056,149.488Zm-1.433,1.881c-.065-.077-.187-.154-.187-.228a.3.3,0,0,1,.195-.22c.065-.012.154.114.26.2C571.785,151.223,571.7,151.3,571.623,151.369Zm-14.035-6.129c.049-.008.122.15.252.313a1.536,1.536,0,0,1-.439.135c-.057-.008-.171-.232-.146-.253A.694.694,0,0,1,557.587,145.239Zm-9.8-10.247c1.872-.553,1.872,6.415,0,5.862C542.959,141.408,546.076,135.172,547.785,134.993Zm-2.37,18c.058.146.139.248.115.325s-.139.114-.22.171c-.05-.089-.139-.179-.13-.26S545.3,153.1,545.415,152.99Zm.025,8.573c.074,0,.154.109.26.195-.122.106-.194.171-.277.245-.081-.1-.163-.192-.243-.285C545.269,161.66,545.351,161.566,545.44,161.563Zm-.79-.872a3.988,3.988,0,0,1,.31.5c.008.025-.2.179-.228.154a.633.633,0,0,1-.253-.292C544.456,160.984,544.562,160.87,544.651,160.691Zm-.008,3a1.286,1.286,0,0,1,.431.142c-.13.15-.21.306-.251.293a1.2,1.2,0,0,1-.343-.191C544.538,163.854,544.585,163.7,544.643,163.7Zm-1.375-2.833c.1-.017.2.069.366.135-.244.182-.325.248-.406.313-.065-.082-.18-.171-.172-.252A.3.3,0,0,1,543.267,160.862Zm-.017,4.221c.081-.028.228.11.456.245a1.835,1.835,0,0,1-.488.264c-.066.008-.236-.159-.22-.187C543.055,165.279,543.137,165.12,543.251,165.083Zm-2.06,1.967a2.186,2.186,0,0,1,.26.448c.009.064-.146.228-.195.211-.114-.032-.285-.118-.31-.211S541.061,167.273,541.191,167.049Zm-7.465-14.5c.236-3.517,4.893,1.107,0,0Zm-1.848,1.09c.17.118.252.183.342.249a1.427,1.427,0,0,1-.253.321c-.032.025-.252-.1-.252-.159A1.431,1.431,0,0,1,531.878,153.636Zm-.05,2.9c.115.09.261.167.253.211a1.059,1.059,0,0,1-.179.31c-.073-.074-.186-.131-.2-.211S531.764,156.669,531.828,156.539Zm-1.359.057c.089.049.179.094.3.159-.081.11-.121.232-.2.257s-.187-.057-.276-.089C530.356,156.815,530.411,156.706,530.47,156.6Zm-.66-6.415c.057-.016.163.106.245.171a1.413,1.413,0,0,1-.26.293c-.025.025-.155-.1-.318-.2C529.615,150.327,529.7,150.213,529.809,150.18Zm-3.59,7.849a.6.6,0,0,1,.285.245c.024.032-.106.154-.221.317-.113-.154-.22-.245-.243-.354C526.024,158.179,526.2,158.012,526.22,158.029Z" transform="translate(-291.931 -84.441)" fill="#a6bf41"/>
            <path id="Path_2201" data-name="Path 2201" d="M332.08,186.193c-.033.667-.171,1.327-.188,1.995a74.188,74.188,0,0,0,.366,11.32,60.13,60.13,0,0,0,34.214,47.174,58.32,58.32,0,0,0,18.418,5.267,35.251,35.251,0,0,0,10.47-.028,31.826,31.826,0,0,0,13.718-5.7c.277-.2.516-.447.87-.765q-28.636-23.2-57.085-46.242c.061-.1.118-.195.179-.292q8.157,4.06,16.307,8.149,8.249,4.114,16.49,8.238,8.187,4.1,16.379,8.194c5.484,2.74,10.963,5.476,16.629,8.3a20.763,20.763,0,0,0,.855-5.145c-.008-2.276-.041-4.568-.268-6.831a26.307,26.307,0,0,0-2.6-9.032A60.2,60.2,0,0,0,371.9,177.93a61.19,61.19,0,0,0-15.428-.359,59.073,59.073,0,0,0-14.784,3.493,61.506,61.506,0,0,0-8.662,4.029C332.584,185.346,332.112,185.554,332.08,186.193Zm63.281,53.264c.081,0,.146.118.252.211-.106.093-.232.224-.252.208a1.32,1.32,0,0,1-.249-.274C395.2,239.55,395.279,239.453,395.361,239.457Zm-1.417,1.368c.056.134.138.24.114.309s-.143.114-.221.167c-.052-.081-.146-.171-.138-.248S393.83,240.926,393.944,240.825ZM376.1,223.146c.093-.025.232.106.46.22-.2.142-.3.253-.416.277-.069.012-.245-.126-.236-.171C375.932,223.349,376.009,223.174,376.1,223.146ZM365.6,225.2c.053-.029.2.13.423.28a2.758,2.758,0,0,1-.549.265c-.057.012-.216-.179-.207-.192A1.014,1.014,0,0,1,365.6,225.2Zm-3.941-11.862a3.221,3.221,0,0,1-3.484,2.3A3.21,3.21,0,0,1,361.664,213.34Zm50.74,3.952c-.126-.146-.265-.256-.245-.289a.678.678,0,0,1,.265-.273c.024-.017.211.139.2.192A1.333,1.333,0,0,1,412.4,217.292Zm-.257-1.767c0-.077.1-.163.179-.277.106.1.179.163.261.232-.09.094-.175.188-.261.281C412.261,215.684,412.155,215.607,412.147,215.525Zm2.328,1.807c.118.188.192.31.269.432-.094.053-.2.159-.278.146a.317.317,0,0,1-.191-.232C414.268,217.6,414.37,217.5,414.476,217.333Zm-1.425-7.041c.107.081.188.146.269.207-.094.093-.183.192-.274.289-.068-.074-.178-.15-.182-.228S412.97,210.4,413.051,210.291Zm-.642,3.6c.077.012.138.135.239.24-.117.089-.2.154-.28.22-.078-.106-.155-.216-.232-.322C412.225,213.979,412.326,213.881,412.408,213.893Zm-1.478-8.519c.118.011.224.113.4.211-.163.134-.274.273-.318.252a.664.664,0,0,1-.281-.26C410.722,205.557,410.869,205.366,410.931,205.374Zm-.065,2.849a1.308,1.308,0,0,1,.435.1c-.106.163-.171.321-.22.317a1.178,1.178,0,0,1-.354-.154C410.772,208.394,410.808,208.231,410.865,208.223Zm-7.771-12.142c.086.134.188.224.183.3s-.118.163-.183.245c-.065-.082-.179-.159-.183-.245S403.009,196.215,403.094,196.081Zm.078,5.532c.11.224.2.342.2.456,0,.073-.175.22-.22.2-.118-.049-.277-.154-.3-.26C402.842,201.93,403.005,201.812,403.172,201.613Zm-4.959-.04c-.093-.017-.191-.171-.24-.286-.016-.032.131-.191.2-.191.114,0,.224.085.464.191C398.422,201.442,398.307,201.579,398.214,201.572Zm-.243-1.689c0-.074.182-.2.293-.2a1.238,1.238,0,0,1,.41.126c-.049.089-.1.171-.146.256-.122.053-.261.167-.35.135A.386.386,0,0,1,397.97,199.883Zm1.033.989a1.379,1.379,0,0,1-.342-.188c.057-.089.106-.244.171-.252a1.414,1.414,0,0,1,.432.134C399.13,200.724,399.053,200.88,399,200.872Zm-.325-1.62c.053-.114.154-.265.256-.278s.208.131.428.293c-.252.106-.37.192-.488.188C398.8,199.455,398.661,199.284,398.678,199.252Zm.937.968c-.1-.125-.208-.256-.314-.382.11-.089.22-.179.407-.325.1.2.228.33.2.431S399.72,200.131,399.615,200.22Zm.663,4.889a1.337,1.337,0,0,1-.22-.325c.093-.053.188-.106.362-.207a1.563,1.563,0,0,1,.126.41C400.538,205.035,400.318,205.138,400.278,205.109Zm.131-4.075c-.167-.183-.326-.277-.326-.374a.36.36,0,0,1,.22-.293.388.388,0,0,1,.3.228C400.632,200.684,400.514,200.819,400.408,201.034Zm1.282-6.354c.1.131.207.216.207.306,0,.073-.125.146-.195.22-.074-.074-.192-.147-.2-.232S401.605,194.8,401.69,194.68Zm-.444,9.468a.75.75,0,0,1-.289.24c-.033.017-.2-.155-.188-.2.029-.107.143-.192.253-.326C401.137,204,401.263,204.128,401.247,204.148Zm-2.271-9.378c.061.227.114.448.179.676a.133.133,0,0,1,.024.016.058.058,0,0,1,.012.017c.8-.277.94.595,1.706.834-.391.2-.676.383-.716.346-.354-.374-.664-.781-.99-1.18-.012,0-.017,0-.029,0a.169.169,0,0,1-.007-.032l-.607-.428C398.731,194.912,398.853,194.843,398.975,194.77Zm-.879-2.134c.048-.024.163.086.284.155-.089.113-.138.239-.216.26a.275.275,0,0,1-.216-.167A.3.3,0,0,1,398.1,192.636Zm-1.34,1.323c.11-.008.228.138.439.277-.207.131-.33.273-.427.253-.118-.021-.212-.175-.314-.274C396.557,194.122,396.655,193.964,396.757,193.96Zm-.716-2.035c.077.02.121.146.207.26-.122.065-.232.163-.285.139a.3.3,0,0,1-.143-.245C395.832,192.014,395.979,191.908,396.041,191.925Zm-.322,4.355c.212-.049.424-.1.635-.15.078-.2.147-.391.224-.578.448.11.827.207,1.209.3l.477-.615c.549.652,1.037,1.226,1.583,1.873-.232.268-.546.627-.92,1.062-.171-.227-.3-.391-.424-.558-.325-.093-.57-.016-.663.35.216.179.435.359.761.631-.7.216-.794-.142-.887-.509-.171-.065-.342-.126-.619-.232.22-.321.391-.566.566-.81-.045-.04-.086-.089-.135-.134-.467.325-.944.648-1.416.973-.05-.046-.094-.09-.139-.135.118-.2.236-.407.452-.77-.232-.125-.509-.268-.781-.419C395.67,196.468,395.694,196.377,395.718,196.28Zm-1.82,7.669c.021-.025.249.077.253.13a1.526,1.526,0,0,1-.126.424c-.163-.11-.321-.179-.309-.22A.626.626,0,0,1,393.9,203.949Zm-.716.748a1.439,1.439,0,0,1,.435.171c-.154.143-.243.282-.3.269a1.317,1.317,0,0,1-.325-.212C393.056,204.845,393.117,204.693,393.183,204.7Zm-3.4-9.224c.049-.008.122.147.245.3a1.508,1.508,0,0,1-.432.122c-.057-.008-.106-.159-.154-.245A1.155,1.155,0,0,1,389.784,195.474Zm-12.956-12.781a.289.289,0,0,1,.232.15c.016.086-.078.188-.151.33-.11-.1-.235-.163-.239-.232A.308.308,0,0,1,376.827,182.693ZM359.894,188.4c.081.033.131.155.211.264l-.281.175c-.061-.11-.122-.22-.188-.334C359.727,188.465,359.833,188.374,359.894,188.4ZM352,200.464c.045-.016.146.122.252.216-.113.1-.191.216-.272.22s-.207-.142-.191-.2A.354.354,0,0,1,352,200.464Zm-12.021-8.071c.135.232.265.357.249.456s-.188.182-.3.227c-.032.012-.188-.15-.179-.223A1.858,1.858,0,0,1,339.98,192.393Zm-5.157-.074c.758.716-.553-.456,0,0Z" transform="translate(-298.676 -82.141)" fill="#a6bf41"/>
            <path id="Path_2202" data-name="Path 2202" d="M610.47,153.416q14.288-13.523,28.42-26.9c.081.065.163.131.253.2-.22.353-.415.712-.643,1.054q-2.5,3.695-5.007,7.389a5.564,5.564,0,0,1,.929-.2c-2.32,1.836-.888,7.47-5.511,6.97-.3.447-.6.9-.913,1.339,1.6,1.925,1.913,4.962-.577,5.727-1.246-.261-.553-1.189,0-1.189a5.716,5.716,0,0,1-1.547-1.393q-3.9,5.74-7.792,11.483c-.268.4-.5.839-.756,1.262a3.568,3.568,0,0,0,.414.277,7.43,7.43,0,0,0,.782.281,17.282,17.282,0,0,0,10.575-.248,32.572,32.572,0,0,0,21.672-30.31,36.013,36.013,0,0,0-1.962-11.813,2.511,2.511,0,0,0-2.223-1.88,34.918,34.918,0,0,0-13.719.349,32.611,32.611,0,0,0-24.578,25.637,16.838,16.838,0,0,0,1.6,11.12A8.952,8.952,0,0,0,610.47,153.416Zm38.19-23.1c.073,0,.228.163.211.212-.04.113-.147.28-.236.292-.106.008-.221-.134-.455-.288C648.424,130.413,648.537,130.316,648.66,130.316Zm-5.016-.748c.065.077.2.146.2.224s-.106.175-.188.292c-.114-.089-.2-.154-.277-.216C643.465,129.767,643.555,129.669,643.644,129.568Zm-9.9-4.323a1.461,1.461,0,0,1,.2.382c.008.045-.2.188-.227.167a.641.641,0,0,1-.253-.289C633.452,125.476,633.606,125.371,633.745,125.244Z" transform="translate(-288.663 -84.4)" fill="#a6bf41"/>
            <path id="Path_2203" data-name="Path 2203" d="M351.476,134.486c2.145,11.2,8.536,19.152,18.8,24.057a18.546,18.546,0,0,0,10.234,1.71,9.912,9.912,0,0,0,3.956-1.123c-3.688-5.447-7.327-10.811-10.963-16.188-3.642-5.4-7.339-10.768-10.815-16.3,4.893,4.283,9.538,8.8,14.252,13.234,4.754,4.485,9.5,8.983,14.3,13.53a4.4,4.4,0,0,0,.375-.436,16.5,16.5,0,0,0,1.99-10.493,29.326,29.326,0,0,0-2.78-8.993,32.77,32.77,0,0,0-36.069-17.922,2.045,2.045,0,0,0-1.714,1.494A32.209,32.209,0,0,0,351.476,134.486Zm23.4,22.045c.024-.011.179.171.159.2a1.666,1.666,0,0,1-.3.342c-.082-.167-.188-.3-.164-.33A.672.672,0,0,1,374.877,156.531Zm-.891-2.141c.118.09.273.171.264.22a1.212,1.212,0,0,1-.195.342c-.074-.077-.2-.146-.212-.232S373.917,154.529,373.986,154.39Zm.11,1.446c.1,0,.2.089.342.159-.2.179-.277.249-.354.321-.085-.106-.167-.207-.249-.313C373.921,155.945,374.006,155.84,374.1,155.836Zm-3.542-4.95c.082.012.143.131.24.232-.114.089-.192.15-.273.211-.082-.106-.155-.207-.228-.309C370.383,150.971,370.478,150.873,370.554,150.885ZM377.69,135.3c.078.025.118.155.2.265-.126.065-.216.118-.306.163-.057-.11-.114-.224-.175-.334C377.5,135.356,377.613,135.279,377.69,135.3Zm-5.678-5.914a1.842,1.842,0,0,1,.289.5c.011.069-.232.257-.269.236a.772.772,0,0,1-.325-.346C371.682,129.715,371.857,129.576,372.012,129.385Zm-18.465-4.042a1.3,1.3,0,0,1,.245.31c-.089.056-.175.114-.334.224a1.338,1.338,0,0,1-.163-.391C353.3,125.437,353.507,125.315,353.547,125.343Z" transform="translate(-297.984 -84.401)" fill="#a6bf41"/>
            <path id="Path_2204" data-name="Path 2204" d="M640.662,371.419c-5.153-2.687-10.306-5.377-15.557-8.117a5.4,5.4,0,0,0-.383.965,14.662,14.662,0,0,0,1.311,9.656c5.056,9.63,13.019,15.061,23.854,16.115a28.621,28.621,0,0,0,15.892-3.143,1.736,1.736,0,0,0,1.1-1.64,32.574,32.574,0,0,0-.261-7.07c-2.214-11.707-8.955-19.559-20.231-23.41a20.371,20.371,0,0,0-10.347-1.05,14.62,14.62,0,0,0-6.619,2.9c9.036,7.592,17.951,15.078,26.857,22.564-.056.093-.113.182-.178.273C650.945,376.808,645.808,374.1,640.662,371.419Zm10.73,1.465c-.456-.489.79.781,0,0Zm2.361-11.691c4.34,1.417-.814,5.129,2.272,7.034C653.753,372.037,651.686,362.1,653.753,361.193Z" transform="translate(-288.066 -75.752)" fill="#a6bf41"/>
            <path id="Path_2205" data-name="Path 2205" d="M370.717,355.538a15.981,15.981,0,0,0-10.258-1.885A29.345,29.345,0,0,0,334.839,385.3a1.786,1.786,0,0,0,1.14,1.611A29.52,29.52,0,0,0,368,383.547a3.478,3.478,0,0,1-.664-.228c.737-1.709,2.309-2.556,4.144-3.159a33.39,33.39,0,0,0,3.851-5.544,15.442,15.442,0,0,0,1.885-8.764,3.99,3.99,0,0,0-.709-2.508l-30.87,16.112c-.061-.1-.126-.192-.192-.289,8.911-7.486,17.825-14.976,26.862-22.563C371.678,356.181,371.218,355.823,370.717,355.538Z" transform="translate(-298.57 -75.751)" fill="#a6bf41"/>
            <path id="Path_2206" data-name="Path 2206" d="M450.546,317.168c-3.635,1.539-7.173,3.053-10.726,4.535-3.57,1.494-7.1,3.069-10.706,4.49-.049-.093-.1-.183-.151-.273,6.306-4.486,12.611-8.972,19.156-13.636-.9-.574-1.522-1.051-2.21-1.4a12.187,12.187,0,0,0-7.241-1.058,19.967,19.967,0,0,0-17.584,19.433,1.846,1.846,0,0,0,1.054,1.889,19.8,19.8,0,0,0,10.372,2.743,19.551,19.551,0,0,0,16.824-9.517,9.857,9.857,0,0,0,1.457-6.334A6.132,6.132,0,0,0,450.546,317.168Zm-3.371,2.381c3.973-2.817-2.825,3.941,0,0Z" transform="translate(-295.44 -77.338)" fill="#a6bf41"/>
            <path id="Path_2207" data-name="Path 2207" d="M550.777,317.932a10.2,10.2,0,0,0,1.2,5.931,19.978,19.978,0,0,0,27.689,7.168,1.5,1.5,0,0,0,.805-1.428,19.383,19.383,0,0,0-6.2-14.446,19.745,19.745,0,0,0-12.634-5.467,10.986,10.986,0,0,0-6.962,1.788c-.342.228-.659.509-1.107.867l4.82,3.439q2.4,1.715,4.811,3.423c1.571,1.12,3.15,2.227,4.721,3.354s3.2,2.158,4.682,3.395c-.05.086-.1.171-.147.261-7.115-3-14.23-6.012-21.4-9.041A3.2,3.2,0,0,0,550.777,317.932Zm23.968,1.873c.081.008.154.126.252.224-.1.1-.187.163-.26.232-.082-.1-.163-.2-.245-.3C574.574,319.906,574.663,319.8,574.745,319.8Zm-11.862-4.877c5.456.749-.919,7.05,0,0Zm7.588,3.969c-.106-.122-.227-.2-.227-.277s.113-.163.179-.245c.073.074.195.135.22.22S570.552,318.766,570.471,318.9Zm1.815,1.873c.058-.086.106-.24.154-.24a1.284,1.284,0,0,1,.424.15c-.122.143-.2.278-.244.269A1.254,1.254,0,0,1,572.286,320.769Z" transform="translate(-290.738 -77.34)" fill="#a6bf41"/>
            <path id="Path_2208" data-name="Path 2208" d="M572.422,254.833a19.422,19.422,0,0,0-14.662,3.9,9.886,9.886,0,0,0-3.453,4.974,6.521,6.521,0,0,0-.113.965c7.327-.061,14.508-.122,21.688-.179-.082-.081-.554-.566-.212-.228.163.171.2.212.22.228.611-.007,1.247-.011,1.865-.016.008.11.025.216.032.321q-5.714,1.307-11.438,2.618c-3.827.875-7.653,1.738-11.682,2.65a10.266,10.266,0,0,0,4.842,4.849,18.634,18.634,0,0,0,11.626,1.525,19.8,19.8,0,0,0,10.112-4.966,5.547,5.547,0,0,1-.944-.11c.1-1.828,1.367-1.486,1.93-.871a22.475,22.475,0,0,0,3.826-5.7,1.783,1.783,0,0,0-.228-2.137A19.838,19.838,0,0,0,572.422,254.833Zm3.248,17.605c1.311-3.517,6.139,1.319,0,0Z" transform="translate(-290.613 -79.334)" fill="#a6bf41"/>
            <path id="Path_2209" data-name="Path 2209" d="M415.892,262.616a1.74,1.74,0,0,0-.264,2.145c.406.721.736,1.486,1.151,2.195a19.888,19.888,0,0,0,25.184,8.067A9.9,9.9,0,0,0,446.487,271c.15-.253.248-.546.414-.909-.484-.125-.854-.239-1.229-.321q-10.416-2.369-20.825-4.738a7.583,7.583,0,0,1-.884-.334c.025-.074.045-.151.065-.224,7.783.065,15.562.125,23.589.191-.179-.642-.261-1.062-.407-1.453a10.073,10.073,0,0,0-3.517-4.649,19.422,19.422,0,0,0-15.424-3.591A19.721,19.721,0,0,0,415.892,262.616Zm26.067,9.428c.069.139.164.232.147.31s-.126.138-.195.2c-.058-.082-.164-.163-.164-.245S441.862,272.166,441.959,272.044Zm-15.532-2.768c.077.02.13.146.22.256l-.3.2c-.069-.114-.134-.228-.2-.342C426.243,269.35,426.345,269.256,426.427,269.276Zm-1.4,1.351c.093,0,.195.154.387.314-.224.109-.359.232-.46.207s-.167-.188-.249-.293C424.81,270.775,424.912,270.636,425.027,270.628Zm-.848-.644a1.488,1.488,0,0,1,.432.139c-.131.159-.211.31-.261.3a1.129,1.129,0,0,1-.338-.188C424.066,270.148,424.114,269.988,424.179,269.984Zm14.215-12.977c.114.229.2.331.195.424s-.114.163-.195.216c-.017.012-.155-.081-.155-.126A2.02,2.02,0,0,1,438.395,257.007Zm-.619,2.357c.077.021.13.138.216.24-.122.081-.208.134-.289.186-.065-.106-.131-.211-.2-.321C437.6,259.434,437.7,259.348,437.776,259.365Zm-.078,1.4c.061-.012.15.114.26.2l-.268.248c-.069-.077-.192-.154-.192-.228A.3.3,0,0,1,437.7,260.76Zm-.623-3.7c.114.163.236.288.22.325a.734.734,0,0,1-.293.252c-.032.017-.211-.154-.195-.207C436.839,257.317,436.953,257.228,437.076,257.065Zm-1.478.081c.093-.024.232.09.46.192-.2.167-.293.313-.391.321s-.211-.139-.318-.211C435.431,257.341,435.5,257.178,435.6,257.146Zm-2.088-.676c.04-.025.163.089.325.188a1.462,1.462,0,0,1-.354.277c-.049.016-.154-.11-.232-.171A1.15,1.15,0,0,1,433.51,256.47Zm-2.886,1.457a1.55,1.55,0,0,1,.338.3c-.155.089-.285.2-.318.179a.734.734,0,0,1-.236-.306C430.4,258.073,430.587,257.911,430.624,257.927Zm-4.234-.252c.135.239.265.37.24.459-.024.107-.187.188-.3.24-.028.008-.186-.154-.178-.228C426.159,258.026,426.256,257.919,426.39,257.675Zm-.794.956a1.278,1.278,0,0,1,.432.138c-.131.16-.207.314-.261.3a1.006,1.006,0,0,1-.334-.188C425.483,258.8,425.535,258.636,425.6,258.632Zm-2.133,9.253c.074-.017.175.089.314.171-.1.106-.164.231-.232.231a.3.3,0,0,1-.236-.159A.291.291,0,0,1,423.463,267.885Zm-.57-.725c.049-.017.147.118.31.253a1.338,1.338,0,0,1-.4.195c-.061,0-.135-.138-.2-.211A1.171,1.171,0,0,1,422.893,267.159Zm-3.557-3.688c.118.155.24.282.22.31a.75.75,0,0,1-.289.252c-.032.017-.207-.154-.191-.2A1.355,1.355,0,0,1,419.336,263.471Z" transform="translate(-295.647 -79.335)" fill="#a6bf41"/>
            <path id="Path_2210" data-name="Path 2210" d="M553.586,217.657a10.712,10.712,0,0,0-1.025,5.28,6.8,6.8,0,0,0,1.254,3.745c4.729-4.465,9.4-8.873,14.083-13.282.075.068.147.134.229.2-3.607,5.316-7.205,10.632-10.86,16.03a6.857,6.857,0,0,0,.886.375,9.362,9.362,0,0,0,6.212-.627,16.654,16.654,0,0,0,9.029-20.492,1.837,1.837,0,0,0-1.735-1.449,19.838,19.838,0,0,0-4.347-.1A16.369,16.369,0,0,0,553.586,217.657Z" transform="translate(-290.674 -81.053)" fill="#a6bf41"/>
            <path id="Path_2211" data-name="Path 2211" d="M427.952,208.849a17.313,17.313,0,0,0-.736,7.332,16.544,16.544,0,0,0,4.957,9.984c-.937-1.742.794-4.64,1.97-5.772,3.224,1.091-1.571,3.648,0,7.034a3.521,3.521,0,0,1-.823-.321,19.24,19.24,0,0,0,4.706,2.686,9.108,9.108,0,0,0,4.429.383,9.221,9.221,0,0,0,1.628-.514c-1.9-2.788-3.72-5.4-5.475-8.055-1.746-2.634-3.623-5.191-5.149-7.991,2.418,2.076,4.714,4.254,7.018,6.431s4.625,4.372,7.108,6.725c.285-.595.5-.969.642-1.364a8.939,8.939,0,0,0,.31-5.215,16.656,16.656,0,0,0-18.945-12.756A1.768,1.768,0,0,0,427.952,208.849Zm10.1,4.649c.037-.021.154.11.31.224a1.623,1.623,0,0,1-.371.24c-.053.011-.211-.167-.2-.2A.662.662,0,0,1,438.047,213.5Zm-5.76-4.213c.077,0,.163.114.289.211-.106.09-.183.212-.253.2a.288.288,0,0,1-.216-.192C432.1,209.435,432.218,209.289,432.287,209.285Z" transform="translate(-295.222 -81.054)" fill="#a6bf41"/>
            <path id="Path_2212" data-name="Path 2212" d="M493.458,192.311a8.463,8.463,0,0,0,2.947,3.159,19.432,19.432,0,0,0,1.75.862c.366-3.284.712-6.354,1.05-9.427.346-3.093.559-6.2,1.07-9.273.078,0,.16.008.24.017.688,6.143,1.38,12.289,2.088,18.611a11.452,11.452,0,0,0,1.226-.481,8.329,8.329,0,0,0,3.148-2.955,14.527,14.527,0,0,0,2.206-6.667c.448-6.534-2.141-11.605-7.565-15.268a2.02,2.02,0,0,0-2.548-.012A16.114,16.114,0,0,0,493.458,192.311Zm1.795-3.965c-.065.007-.211-.188-.195-.212a.671.671,0,0,1,.285-.252c.049-.017.154.122.313.264C495.476,188.239,495.367,188.338,495.253,188.346Zm-.277-2.813c.228-3.484,4.86,1.059,0,0Z" transform="translate(-292.888 -82.388)" fill="#a6bf41"/>
          </g>
        </g>
      </g>
      <g id="Group_422" data-name="Group 422" transform="translate(735.999 625.509)">
        <g id="Group_420" data-name="Group 420" transform="translate(504.913 -466.509)">
          <g id="Group_419" data-name="Group 419" transform="translate(0)">
            <path id="Path_2246" data-name="Path 2246" d="M429.243-297.147V-308.44a51.185,51.185,0,0,1-4.984,3.652c-3.986,2.659-20.264,9.3-35.878,9.3q-30.893,0-51.822-20.929c-13.951-14.28-20.929-31.227-20.929-51.491,0-19.928,6.978-36.876,20.929-51.156,14.284-14.289,31.558-21.264,51.822-21.264a74.106,74.106,0,0,1,51.16,19.6c14.284,12.957,21.591,30.9,21.591,53.821v69.761Zm-40.861-28.9c22.923,0,40.861-17.605,40.861-41.857,0-23.916-17.276-41.857-40.861-41.857-22.92,0-40.859,17.941-40.859,41.857C347.523-343.657,365.462-326.052,388.382-326.052Z" transform="translate(149.469 500.125)" fill="#e51d30"/>
            <path id="Path_2247" data-name="Path 2247" d="M609.814-297.147V-308.44a51.167,51.167,0,0,1-4.984,3.652c-3.986,2.659-20.264,9.3-35.878,9.3q-30.893,0-51.822-20.929C503.18-330.7,496.2-347.645,496.2-367.909c0-19.928,6.978-36.876,20.929-51.156,14.284-14.289,31.558-21.264,51.822-21.264a74.1,74.1,0,0,1,51.16,19.6c14.284,12.957,21.593,30.9,21.593,53.821v69.761Zm-40.861-28.9c22.923,0,40.861-17.605,40.861-41.857,0-23.916-17.276-41.857-40.861-41.857-22.92,0-40.859,17.941-40.859,41.857C528.094-343.657,546.033-326.052,568.953-326.052Z" transform="translate(381.328 500.125)" fill="#e51d30"/>
            <path id="Path_2248" data-name="Path 2248" d="M604.078-296.422H572.186v-76.408c0-22.587,5.98-39.2,17.608-50.162A61.153,61.153,0,0,1,632.316-439.6a61.152,61.152,0,0,1,42.52,16.612c11.961,10.963,17.939,27.9,17.939,50.162v76.408H660.882v-76.408c0-23.587-11.295-36.211-28.566-36.211s-28.238,12.295-28.238,36.211Z" transform="translate(478.894 501.057)" fill="#e51d30"/>
            <path id="Path_2249" data-name="Path 2249" d="M143.558-297.359H112v-84.377c0-40.864,22.92-57.137,53.816-57.137h7.64v30.563h-5.98c-15.945,0-23.918,8.963-23.918,26.575Z" transform="translate(-112 501.995)" fill="#e51d30"/>
            <path id="Path_2250" data-name="Path 2250" d="M494.654-297.359H463.1v-84.377c0-40.864,22.922-57.137,53.816-57.137h7.64v30.563h-5.979c-15.945,0-23.918,8.963-23.918,26.575Z" transform="translate(338.819 501.995)" fill="#e51d30"/>
            <path id="Path_2251" data-name="Path 2251" d="M260.175-295.489c-13.289,0-27.9-3.988-34.548-7.64l-4.984-2.659v-30.894a74.871,74.871,0,0,0,39.532,10.63c12.955,0,19.268-4.317,19.268-13.289,0-21.92-60.461-13.951-60.461-59.46,0-25.581,20.929-41.528,49.831-41.528,13.62,0,27.239,3.659,32.554,6.647l3.986,2.323v29.571c-9.632-5.317-21.922-7.978-36.54-7.978q-17.939,0-17.939,10.966c0,6.975,9.3,11.628,21.26,15.947,17.274,4.982,39.532,15.609,39.2,43.513C311.335-312.43,291.068-295.489,260.175-295.489Z" transform="translate(25.368 500.125)" fill="#e51d30"/>
            <path id="Path_2252" data-name="Path 2252" d="M485.616-439.6l31.89,25.211V-363.2c0,22.258-5.98,39.205-17.939,50.162a61.158,61.158,0,0,1-42.522,16.612c-16.276,0-30.56-5.31-42.522-16.274-11.626-10.966-17.605-27.9-17.605-50.5v-76.4l31.89,25.211V-363.2c0,23.925,10.963,36.211,28.238,36.211s28.571-12.622,28.571-36.211Z" transform="translate(253.844 501.062)" fill="#e51d30"/>
            <path id="Path_2253" data-name="Path 2253" d="M334.714-292.436l21.011,30.563H328.067c-32.221,0-54.812-15.947-54.812-56.808V-466.509L304.816-441.3v37.91h27.239l25.211,30.563H304.816v54.143c0,17.612,7.64,26.246,23.251,26.246Z" transform="translate(95.057 466.509)" fill="#e51d30"/>
            <path id="Path_2254" data-name="Path 2254" d="M699.561-292.436l21.011,30.563H692.914c-32.221,0-54.812-15.947-54.812-56.808V-466.509L669.66-441.3v37.91H696.9l25.211,30.563H669.66v54.143c0,17.612,7.642,26.246,23.254,26.246Z" transform="translate(563.532 466.509)" fill="#e51d30"/>
            <path id="Path_2255" data-name="Path 2255" d="M257.842-352.108l-.039.009-1.779,4.95c-2.723,6.567-12.4,16.7-26.207,20.369a40.857,40.857,0,0,1-45.311-17.857l105.3-28c-2.834-13.343-5.795-42.113-36.739-59.325-16.429-9.136-33.845-10.941-52.786-5.906-19.586,5.208-34.165,16.3-44.3,33.781s-12.523,35.645-7.4,54.9c5.208,19.581,16.3,34.167,33.457,44.383,17.388,9.815,35.553,12.2,55.137,7,18.944-5.036,33.824-17.587,40.765-27.678a85.97,85.97,0,0,0,8.526-17.053c1.512-4.148,2.439-7.179,3.061-9.577Zm-80.355-20.223c.633-17.018,11.3-31.191,30.565-36.312,18.941-5.036,37.677,3.383,43.917,16.509Z" transform="translate(-68.377 499.752)" fill="#e51d30"/>
          </g>
        </g>
        <g id="Group_421" data-name="Group 421" transform="translate(-193.999 -465.064)">
          <path id="Path_2256" data-name="Path 2256" d="M-49.658-460.186a19.712,19.712,0,0,1,27.71,0,19.712,19.712,0,0,1,0,27.71,19.712,19.712,0,0,1-27.71,0A19.712,19.712,0,0,1-49.658-460.186ZM-51.636-262.58V-403.11l31.668,25.035V-262.58Z" transform="translate(372.031 465.877)" fill="#e51d30"/>
          <path id="Path_2257" data-name="Path 2257" d="M6.2-297.214h-31.67v-75.876c0-22.429,5.938-38.924,17.484-49.812a60.734,60.734,0,0,1,42.225-16.5,60.734,60.734,0,0,1,42.225,16.5c11.877,10.888,17.813,27.708,17.813,49.813v75.876H62.6v-75.876c0-23.423-11.217-35.958-28.37-35.958S6.2-396.839,6.2-373.089Z" transform="translate(410.389 499.877)" fill="#e51d30"/>
          <path id="Path_2258" data-name="Path 2258" d="M-103.248-419.292c14.186-14.188,31.008-21.116,51.13-21.116,19.791,0,36.618,6.927,50.8,21.116s21.111,31.01,21.111,50.8c0,20.122-6.927,36.953-21.111,51.133-14.186,13.855-31.013,20.782-50.8,20.782-20.122,0-36.944-6.927-51.13-20.782-14.186-14.179-21.111-31.01-21.111-51.133C-124.359-388.282-117.434-405.111-103.248-419.292Zm10.557,50.8c0,12.208,3.956,22.1,11.544,30.026a40.335,40.335,0,0,0,29.03,11.539c11.546,0,21.114-3.951,28.7-11.539,7.916-7.923,11.875-17.818,11.875-30.026s-3.958-22.1-11.875-29.69q-11.381-11.868-28.7-11.875a39.336,39.336,0,0,0-29.03,11.875C-88.735-390.6-92.691-380.692-92.691-368.493Z" transform="translate(283.419 498.579)" fill="#e51d30"/>
          <path id="Path_2259" data-name="Path 2259" d="M-162.331-309v90.717L-194-239.145V-367.06c0-22.763,7.259-40.578,21.443-53.446a73.589,73.589,0,0,1,50.8-19.462c20.125,0,37.278,6.927,51.133,21.116,14.184,14.179,21.111,31.01,21.111,50.8,0,20.122-6.927,36.951-20.78,51.133q-20.782,20.782-51.464,20.782c-15.5,0-30.348-5.274-35.955-9.568Zm40.576-100.619c-23.42,0-40.576,17.815-40.576,41.565,0,24.083,17.815,41.565,40.576,41.565s40.576-17.482,40.576-41.565C-81.179-391.8-98.992-409.619-121.755-409.619Z" transform="translate(193.999 499.143)" fill="#e51d30"/>
          <path id="Path_2260" data-name="Path 2260" d="M105.311-293.015l20.865,30.35H98.71c-31.995,0-54.428-15.835-54.428-56.413v-146.8l31.339,25.037v37.643h27.05l25.035,30.35H75.621v53.766c0,17.489,7.588,26.063,23.089,26.063Z" transform="translate(499.96 465.878)" fill="#e51d30"/>
        </g>
      </g>
    </g>
    <g id="Group_771" data-name="Group 771" transform="translate(2585 5.982)">
      <g id="Group_759" data-name="Group 759" transform="translate(63 85)">
        <g id="Group_757" data-name="Group 757">
          <path id="Path_2487" data-name="Path 2487" d="M-687.06,477.371l87.48,58.464v-44.45l-64.158-42.893Z" transform="translate(986.114 -348.17)" fill="#1e76ba"/>
          <path id="Path_2488" data-name="Path 2488" d="M-641.425,419.823l59.748,39.932V345.836Z" transform="translate(985.076 -345.836)" fill="#1e76ba"/>
          <path id="Path_2489" data-name="Path 2489" d="M-872.681,702.463-993.074,724.4h347.811L-804.479,618Z" transform="translate(993.074 -352.026)" fill="#1e76ba"/>
          <path id="Path_2490" data-name="Path 2490" d="M-732.685,533.869l132.068,88.26V577.678L-709.373,505Z" transform="translate(987.151 -349.456)" fill="#1e76ba"/>
          <path id="Path_2491" data-name="Path 2491" d="M-778.315,590.376l176.66,118.063v-44.46L-755,561.506Z" transform="translate(988.189 -350.741)" fill="#1e76ba"/>
        </g>
        <g id="Group_758" data-name="Group 758" transform="translate(403.399)">
          <path id="Path_2492" data-name="Path 2492" d="M-563.033,535.835l87.484-58.464-23.317-28.879-64.167,42.893Z" transform="translate(579.894 -348.17)" fill="#27a8e0"/>
          <path id="Path_2493" data-name="Path 2493" d="M-580.286,345.836V459.755l59.752-39.932Z" transform="translate(580.286 -345.836)" fill="#27a8e0"/>
          <path id="Path_2494" data-name="Path 2494" d="M-563.033,622.129l132.077-88.26L-454.274,505l-108.759,72.679Z" transform="translate(579.894 -349.456)" fill="#27a8e0"/>
          <path id="Path_2495" data-name="Path 2495" d="M-409.682,561.506-563.033,663.979v44.46l176.665-118.063Z" transform="translate(579.894 -350.741)" fill="#27a8e0"/>
          <path id="Path_2496" data-name="Path 2496" d="M-295.119,703.555-364.187,618-523.408,724.4h342.771Z" transform="translate(578.992 -352.026)" fill="#27a8e0"/>
        </g>
      </g>
      <g id="Group_770" data-name="Group 770" transform="translate(718.987 146.731)">
        <g id="Group_760" data-name="Group 760" transform="translate(673.743)">
          <path id="Path_2497" data-name="Path 2497" d="M-168.373,830.6v88.162h-32.552V830.6c0-17.97-6.781-26.79-20-26.79S-240.6,812.627-240.6,830.6v88.162H-273.15V830.6c0-37.982,21.362-57.988,51.2-57.988,16.615,0,28.823,6.106,37.3,18.313,8.817-12.206,21.364-18.313,37.979-18.313,29.5,0,50.521,20.349,50.521,57.988v88.162H-128.7V830.6c0-17.97-6.441-26.79-19.666-26.79S-168.373,812.627-168.373,830.6Z" transform="translate(862.725 -707.879)" fill="url(#linear-gradient)"/>
          <path id="Path_2498" data-name="Path 2498" d="M-566.185,918.951c-13.448,0-28.242-4.037-34.967-7.734l-5.043-2.69V877.26a75.778,75.778,0,0,0,40.01,10.756c13.113,0,19.5-4.368,19.5-13.448,0-22.186-61.192-14.121-61.192-60.181,0-25.892,21.182-42.031,50.433-42.031,13.786,0,27.571,3.7,32.95,6.728l4.033,2.35v29.929c-9.749-5.383-22.19-8.074-36.983-8.074q-18.156,0-18.156,11.1c0,7.059,9.413,11.769,21.519,16.14,17.483,5.041,40.009,15.8,39.673,44.041C-514.406,901.806-534.917,918.951-566.185,918.951Z" transform="translate(607.875 -708.071)" fill="url(#linear-gradient)"/>
          <path id="Path_2499" data-name="Path 2499" d="M-425.068,918.951c-13.448,0-28.242-4.037-34.967-7.734l-5.043-2.691V877.26a75.778,75.778,0,0,0,40.01,10.756c13.113,0,19.5-4.368,19.5-13.448,0-22.186-61.194-14.121-61.194-60.181,0-25.892,21.182-42.031,50.433-42.031,13.786,0,27.571,3.7,32.95,6.728l4.034,2.35v29.929c-9.749-5.383-22.19-8.074-36.983-8.074q-18.156,0-18.156,11.1c0,7.059,9.413,11.769,21.519,16.14,17.483,5.041,40.01,15.8,39.673,44.041C-373.289,901.806-393.8,918.951-425.068,918.951Z" transform="translate(715.317 -708.071)" fill="url(#linear-gradient)"/>
          <path id="Path_2500" data-name="Path 2500" d="M-344.415,915.242l21.653,31.5h-28.5c-33.205,0-56.484-16.433-56.484-58.543V735.859l32.522,25.982v39.065h28.071l25.98,31.495h-54.051v55.8c0,18.149,7.873,27.046,23.962,27.046Z" transform="translate(760.246 -735.859)" fill="url(#linear-gradient)"/>
          <path id="Path_2501" data-name="Path 2501" d="M-453.259,850.513V772.356l32.626,25.792V934.122c0,42.475-25.149,68.3-61.853,68.3-18.691,0-33.985-6.112-46.558-18.01-12.234-11.9-18.352-27.523-18.692-46.9h32.624c.342,19.377,11.556,35.347,31.946,35.347,19.371,0,29.906-14.617,29.906-38.739V909.311c-9.177,6.457-19.711,9.513-32.284,9.513-15.974,0-29.908-5.777-41.463-17.33C-538.22,889.6-544,872.6-544,850.513V772.356l32.626,25.792v52.365c0,24.476,11.554,37.043,29.226,37.043C-464.813,887.557-453.259,875.325-453.259,850.513Z" transform="translate(653.664 -708.071)" fill="url(#linear-gradient)"/>
          <path id="Path_2502" data-name="Path 2502" d="M-248.981,860.854l-.039.011-1.744,4.849c-2.667,6.436-12.152,16.363-25.679,19.96a40.035,40.035,0,0,1-44.4-17.5l103.181-27.431c-2.778-13.075-5.677-41.266-36-58.129-16.1-8.953-33.163-10.722-51.723-5.788-19.19,5.1-33.477,15.974-43.405,33.1s-12.27,34.926-7.253,53.8c5.1,19.188,15.974,33.48,32.781,43.49,17.039,9.615,34.84,11.958,54.026,6.855,18.561-4.935,33.142-17.233,39.945-27.122a84.245,84.245,0,0,0,8.354-16.707c1.481-4.065,2.39-7.036,3-9.386Zm-78.735-19.814c.62-16.675,11.074-30.562,29.947-35.58,18.561-4.936,36.92,3.313,43.034,16.176Z" transform="translate(797.669 -706.722)" fill="url(#linear-gradient)"/>
        </g>
        <g id="Group_761" data-name="Group 761" transform="translate(0 4.988)">
          <path id="Path_2503" data-name="Path 2503" d="M-814.287,744.491a20.1,20.1,0,0,1,28.247,0,20.1,20.1,0,0,1,0,28.247,20.1,20.1,0,0,1-28.247,0A20.1,20.1,0,0,1-814.287,744.491ZM-816.3,945.92V802.671l32.28,25.521V945.92Z" transform="translate(1142.897 -738.691)" fill="#27a8e0"/>
          <path id="Path_2504" data-name="Path 2504" d="M-748.317,918.627H-780.6V841.282c0-22.861,6.052-39.677,17.823-50.775a61.9,61.9,0,0,1,43.041-16.816,61.907,61.907,0,0,1,43.042,16.816c12.106,11.1,18.158,28.245,18.158,50.775v77.345h-32.282V841.282c0-23.875-11.433-36.652-28.918-36.652s-28.582,12.444-28.582,36.652Z" transform="translate(1172.962 -712.042)" fill="#27a8e0"/>
          <path id="Path_2505" data-name="Path 2505" d="M-889.786,793.88c14.459-14.463,31.608-21.524,52.119-21.524,20.175,0,37.327,7.061,51.786,21.524s21.52,31.611,21.52,51.782c0,20.511-7.061,37.667-21.52,52.123-14.459,14.122-31.611,21.184-51.786,21.184-20.511,0-37.66-7.061-52.119-21.184-14.461-14.456-21.522-31.611-21.522-52.123C-911.308,825.491-904.247,808.335-889.786,793.88Zm10.76,51.782c0,12.444,4.034,22.53,11.768,30.606a41.113,41.113,0,0,0,29.591,11.762c11.77,0,21.522-4.028,29.257-11.762,8.071-8.076,12.106-18.161,12.106-30.606s-4.035-22.531-12.106-30.264q-11.6-12.1-29.257-12.106c-11.769,0-21.52,4.039-29.591,12.106C-874.992,823.131-879.026,833.225-879.026,845.662Z" transform="translate(1073.444 -713.059)" fill="#27a8e0"/>
          <path id="Path_2506" data-name="Path 2506" d="M-971.076,906.44v92.472l-32.283-21.267V847.256c0-23.2,7.4-41.364,21.857-54.481a75.017,75.017,0,0,1,51.784-19.84c20.515,0,38,7.063,52.123,21.526,14.459,14.454,21.521,31.61,21.521,51.782,0,20.512-7.061,37.667-21.184,52.121q-21.184,21.187-52.459,21.186c-15.8,0-30.935-5.376-36.65-9.753Zm41.358-102.566c-23.873,0-41.358,18.16-41.358,42.37,0,24.548,18.158,42.368,41.358,42.368s41.362-17.82,41.362-42.368C-888.356,822.033-906.514,803.873-929.718,803.873Z" transform="translate(1003.359 -712.618)" fill="#27a8e0"/>
          <path id="Path_2507" data-name="Path 2507" d="M-626.183,914.9l21.268,30.939h-27.995c-32.615,0-55.483-16.143-55.483-57.507V738.693l31.946,25.52v38.373h27.574l25.521,30.937h-53.095v54.8c0,17.829,7.734,26.569,23.538,26.569Z" transform="translate(1231.739 -738.689)" fill="#27a8e0"/>
        </g>
      </g>
    </g>
    <line id="Line_1" data-name="Line 1" x2="9" y2="423" transform="translate(2592.5 87.5)" fill="none" stroke="#1e76ba" stroke-linecap="round" stroke-width="19"/>
  </g>
</svg>
