<svg xmlns="http://www.w3.org/2000/svg" xmlns:xlink="http://www.w3.org/1999/xlink" width="16" height="16" viewBox="0 0 16 16">
  <defs>
    <clipPath id="clip-web">
      <rect width="16" height="16"/>
    </clipPath>
  </defs>
  <g id="web" clip-path="url(#clip-web)">
    <g id="Group_409" data-name="Group 409" transform="translate(-333 -142)">
      <path id="Path_2706" data-name="Path 2706" d="M46.555,194.667a7.017,7.017,0,1,0,7.018,7.017A7.018,7.018,0,0,0,46.555,194.667Z" transform="translate(294.463 -51.667)" fill="#eb3748"/>
      <g id="Group_401" data-name="Group 401" transform="translate(294.463 -51.667)">
        <path id="Path_2707" data-name="Path 2707" d="M44.446,199.517h1.9v1.958H44.23a10.266,10.266,0,0,1,.216-1.958Zm0,4.334h1.9v-1.957H44.23a10.255,10.255,0,0,0,.216,1.957Zm1.9-4.753v-2.517c-.768.151-1.428,1.123-1.8,2.517Zm2.756,4.753h2.1a5.088,5.088,0,0,0,.474-1.957H49.3a10.984,10.984,0,0,1-.2,1.957Zm0-4.334a11.086,11.086,0,0,1,.2,1.958h2.371a5.111,5.111,0,0,0-.474-1.958Zm-.094-.419h1.969a5.126,5.126,0,0,0-3.16-2.377,5.106,5.106,0,0,1,1.191,2.377Zm-2.662,7.689v-2.516h-1.8c.372,1.393,1.032,2.365,1.8,2.516Zm2.22-7.689c-.371-1.392-1.03-2.366-1.8-2.517V199.1Zm.315,2.8H46.765v1.957h1.9a10.339,10.339,0,0,0,.215-1.957Zm-7.441,0a5.107,5.107,0,0,0,.475,1.957h2.095a10.892,10.892,0,0,1-.2-1.957Zm2.666,2.377h-1.97a5.121,5.121,0,0,0,3.16,2.377,5.092,5.092,0,0,1-1.19-2.377Zm4.9,0a5.111,5.111,0,0,1-1.191,2.377,5.129,5.129,0,0,0,3.16-2.377ZM44.1,199.1a5.086,5.086,0,0,1,1.189-2.377,5.121,5.121,0,0,0-3.159,2.377Zm4.56.419h-1.9v1.958H48.88a10.349,10.349,0,0,0-.215-1.958Zm-6.751,0a5.094,5.094,0,0,0-.475,1.958h2.372a10.9,10.9,0,0,1,.2-1.958Zm4.851,4.754v2.517c.77-.151,1.429-1.124,1.8-2.517Z" fill="#fff"/>
      </g>
    </g>
  </g>
</svg>
